G04 DipTrace 2.4.0.1*
%INBoardOutline.gbr*%
%MOMM*%
%ADD11C,0.14*%
%FSLAX53Y53*%
G04*
G71*
G90*
G75*
G01*
%LNBoardOutline*%
%LPD*%
X13000Y10000D2*
D11*
G02X10000Y13000I0J3000D01*
G01*
Y28500D1*
G02X11000Y29500I1000J0D01*
G01*
X14000D1*
G03X15000Y30500I0J1000D01*
G01*
Y45500D1*
G03X14000Y46500I-1000J0D01*
G01*
X11000D1*
G02X10000Y47500I0J1000D01*
G01*
Y63000D1*
G02X13000Y66000I2999J1D01*
G01*
X72000D1*
G02X75000Y63000I0J-3000D01*
G01*
Y13000D1*
G02X72000Y10000I-3000J0D01*
G01*
X13000D1*
X54000Y29000D2*
X56000D1*
Y14000D1*
X54000D1*
Y29000D1*
G02X54000Y29000I1000J0D01*
G01*
Y14000D2*
G02X54000Y14000I1000J0D01*
G01*
X12125Y62500D2*
G02X12125Y62500I1375J0D01*
G01*
Y13500D2*
G02X12125Y13500I1375J0D01*
G01*
X70125Y62500D2*
G02X70125Y62500I1375J0D01*
G01*
Y13500D2*
G02X70125Y13500I1375J0D01*
G01*
X38435Y17620D2*
X38439Y17732D1*
X38451Y17843D1*
X38470Y17953D1*
X38497Y18061D1*
X38532Y18168D1*
X38573Y18271D1*
X38622Y18372D1*
X38678Y18468D1*
X38741Y18561D1*
X38809Y18649D1*
X38884Y18732D1*
X38964Y18810D1*
X39050Y18882D1*
X39140Y18947D1*
X39235Y19007D1*
X39333Y19059D1*
X39435Y19104D1*
X39540Y19143D1*
X39648Y19173D1*
X39757Y19197D1*
X39867Y19212D1*
X39979Y19220D1*
X40091D1*
X40202Y19212D1*
X40312Y19197D1*
X40422Y19173D1*
X40529Y19143D1*
X40634Y19104D1*
X40736Y19059D1*
X40834Y19007D1*
X40929Y18947D1*
X41020Y18882D1*
X41105Y18810D1*
X41185Y18732D1*
X41260Y18649D1*
X41329Y18561D1*
X41391Y18468D1*
X41447Y18372D1*
X41496Y18271D1*
X41538Y18168D1*
X41572Y18061D1*
X41599Y17953D1*
X41619Y17843D1*
X41630Y17732D1*
X41634Y17620D1*
X41630Y17508D1*
X41619Y17397D1*
X41599Y17287D1*
X41572Y17179D1*
X41538Y17073D1*
X41496Y16969D1*
X41447Y16869D1*
X41391Y16772D1*
X41329Y16679D1*
X41260Y16591D1*
X41185Y16508D1*
X41105Y16430D1*
X41020Y16359D1*
X40929Y16293D1*
X40834Y16234D1*
X40736Y16181D1*
X40634Y16136D1*
X40529Y16098D1*
X40422Y16067D1*
X40312Y16043D1*
X40202Y16028D1*
X40091Y16020D1*
X39979D1*
X39867Y16028D1*
X39757Y16043D1*
X39648Y16067D1*
X39540Y16098D1*
X39435Y16136D1*
X39333Y16181D1*
X39235Y16234D1*
X39140Y16293D1*
X39050Y16359D1*
X38964Y16430D1*
X38884Y16508D1*
X38809Y16591D1*
X38741Y16679D1*
X38678Y16772D1*
X38622Y16869D1*
X38573Y16969D1*
X38532Y17073D1*
X38497Y17179D1*
X38470Y17287D1*
X38451Y17397D1*
X38439Y17508D1*
X38435Y17620D1*
X49866D2*
X49870Y17732D1*
X49881Y17843D1*
X49901Y17953D1*
X49928Y18061D1*
X49962Y18168D1*
X50004Y18271D1*
X50053Y18372D1*
X50109Y18468D1*
X50171Y18561D1*
X50240Y18649D1*
X50315Y18732D1*
X50395Y18810D1*
X50480Y18882D1*
X50571Y18947D1*
X50666Y19007D1*
X50764Y19059D1*
X50866Y19104D1*
X50971Y19143D1*
X51078Y19173D1*
X51188Y19197D1*
X51298Y19212D1*
X51409Y19220D1*
X51521D1*
X51633Y19212D1*
X51743Y19197D1*
X51852Y19173D1*
X51960Y19143D1*
X52065Y19104D1*
X52167Y19059D1*
X52265Y19007D1*
X52360Y18947D1*
X52450Y18882D1*
X52536Y18810D1*
X52616Y18732D1*
X52691Y18649D1*
X52759Y18561D1*
X52822Y18468D1*
X52878Y18372D1*
X52927Y18271D1*
X52968Y18168D1*
X53003Y18061D1*
X53030Y17953D1*
X53049Y17843D1*
X53061Y17732D1*
X53065Y17620D1*
X53061Y17508D1*
X53049Y17397D1*
X53030Y17287D1*
X53003Y17179D1*
X52968Y17073D1*
X52927Y16969D1*
X52878Y16869D1*
X52822Y16772D1*
X52759Y16679D1*
X52691Y16591D1*
X52616Y16508D1*
X52536Y16430D1*
X52450Y16359D1*
X52360Y16293D1*
X52265Y16234D1*
X52167Y16181D1*
X52065Y16136D1*
X51960Y16098D1*
X51852Y16067D1*
X51743Y16043D1*
X51633Y16028D1*
X51521Y16020D1*
X51409D1*
X51298Y16028D1*
X51188Y16043D1*
X51078Y16067D1*
X50971Y16098D1*
X50866Y16136D1*
X50764Y16181D1*
X50666Y16234D1*
X50571Y16293D1*
X50480Y16359D1*
X50395Y16430D1*
X50315Y16508D1*
X50240Y16591D1*
X50171Y16679D1*
X50109Y16772D1*
X50053Y16869D1*
X50004Y16969D1*
X49962Y17073D1*
X49928Y17179D1*
X49901Y17287D1*
X49881Y17397D1*
X49870Y17508D1*
X49866Y17620D1*
M02*
