G04 DipTrace 2.4.0.1*
%INBottomSilk.gbr*%
%MOMM*%
%ADD10C,0.25*%
%ADD83C,0.157*%
%ADD84C,0.118*%
%ADD85C,0.235*%
%FSLAX53Y53*%
G04*
G71*
G90*
G75*
G01*
%LNBotSilk*%
%LPD*%
X16894Y65002D2*
D10*
X50197D1*
Y60102D1*
X16894D1*
Y65002D1*
X16595Y65402D2*
X68195D1*
Y59702D1*
X16595D1*
Y65402D1*
X33461Y52330D2*
G03X35160Y53230I27J2002D01*
G01*
Y53330D2*
G03X33461Y54130I-1562J-1113D01*
G01*
X33361Y52330D2*
G03X33361Y54130I-1183J900D01*
G01*
X32861Y52330D2*
G03X32861Y54130I-1183J900D01*
G01*
X30960Y48830D2*
G03X32659Y49730I24J2008D01*
G01*
Y49830D2*
G03X30960Y50630I-1565J-1119D01*
G01*
X30860Y48830D2*
G03X30860Y50630I-1184J900D01*
G01*
X30360Y48830D2*
G03X30360Y50630I-1184J900D01*
G01*
X38561Y48830D2*
G03X40260Y49730I24J2008D01*
G01*
Y49830D2*
G03X38561Y50630I-1565J-1119D01*
G01*
X38461Y48830D2*
G03X38461Y50630I-1184J900D01*
G01*
X37961Y48830D2*
G03X37961Y50630I-1184J900D01*
G01*
X35160Y48630D2*
Y50130D1*
X38061D1*
X40260Y49730D2*
X40660D1*
Y48627D1*
X27559Y48630D2*
Y50130D1*
X30460D1*
X32659Y49730D2*
X33061D1*
Y48627D1*
X29660Y48530D2*
Y49330D1*
X30566D1*
X32059Y54330D2*
Y53529D1*
X33061D1*
X30160Y54230D2*
Y52730D1*
X32961D1*
X35160Y53230D2*
X35560D1*
Y54230D2*
Y53230D1*
X37259Y48530D2*
Y49330D1*
X38167D1*
X41060Y52230D2*
G03X42761Y53130I26J2008D01*
G01*
Y53230D2*
G03X41060Y54030I-1565J-1120D01*
G01*
X40960Y52230D2*
G03X40960Y54030I-1184J900D01*
G01*
X40460Y52230D2*
G03X40460Y54030I-1184J900D01*
G01*
X39660Y54230D2*
Y53430D1*
X40660D1*
X37761Y54130D2*
Y52630D1*
X40560D1*
X42761Y53130D2*
X43161D1*
Y54130D2*
Y53130D1*
X40439Y41960D2*
D85*
X39784D1*
X39565Y42034D1*
X39491Y42106D1*
X39418Y42251D1*
Y42398D1*
X39491Y42543D1*
X39565Y42617D1*
X39784Y42689D1*
X40439D1*
Y41158D1*
X39929Y41960D2*
X39418Y41158D1*
X38074Y42179D2*
Y41158D1*
Y41960D2*
X38218Y42106D1*
X38365Y42179D1*
X38582D1*
X38729Y42106D1*
X38874Y41960D1*
X38948Y41741D1*
Y41596D1*
X38874Y41377D1*
X38729Y41232D1*
X38582Y41158D1*
X38365D1*
X38218Y41232D1*
X38074Y41377D1*
X36801Y41960D2*
X36874Y42106D1*
X37093Y42179D1*
X37312D1*
X37531Y42106D1*
X37603Y41960D1*
X37531Y41815D1*
X37384Y41741D1*
X37020Y41668D1*
X36874Y41596D1*
X36801Y41449D1*
Y41377D1*
X36874Y41232D1*
X37093Y41158D1*
X37312D1*
X37531Y41232D1*
X37603Y41377D1*
X36331Y42179D2*
Y40647D1*
Y41960D2*
X36184Y42105D1*
X36039Y42179D1*
X35820D1*
X35674Y42105D1*
X35529Y41960D1*
X35455Y41741D1*
Y41594D1*
X35529Y41377D1*
X35674Y41230D1*
X35820Y41158D1*
X36039D1*
X36184Y41230D1*
X36331Y41377D1*
X34984Y42689D2*
Y41158D1*
Y41960D2*
X34837Y42106D1*
X34693Y42179D1*
X34474D1*
X34329Y42106D1*
X34182Y41960D1*
X34110Y41741D1*
Y41596D1*
X34182Y41377D1*
X34329Y41232D1*
X34474Y41158D1*
X34693D1*
X34837Y41232D1*
X34984Y41377D1*
X33639Y41741D2*
X32765D1*
Y41887D1*
X32837Y42034D1*
X32910Y42106D1*
X33056Y42179D1*
X33275D1*
X33420Y42106D1*
X33567Y41960D1*
X33639Y41741D1*
Y41596D1*
X33567Y41377D1*
X33420Y41232D1*
X33275Y41158D1*
X33056D1*
X32910Y41232D1*
X32765Y41377D1*
X32294Y42179D2*
Y41158D1*
Y41741D2*
X32220Y41960D1*
X32075Y42106D1*
X31929Y42179D1*
X31710D1*
X31239D2*
Y41158D1*
Y41741D2*
X31165Y41960D1*
X31020Y42106D1*
X30873Y42179D1*
X30654D1*
X30110D2*
X29673Y41158D1*
X29818Y40866D1*
X29965Y40720D1*
X30110Y40647D1*
X30184D1*
X29235Y42179D2*
X29673Y41158D1*
X27283Y41887D2*
X26626D1*
X26409Y41960D1*
X26335Y42034D1*
X26263Y42179D1*
Y42398D1*
X26335Y42543D1*
X26409Y42617D1*
X26626Y42689D1*
X27283D1*
Y41158D1*
X25792Y42689D2*
X25720Y42617D1*
X25645Y42689D1*
X25720Y42763D1*
X25792Y42689D1*
X25720Y42179D2*
Y41158D1*
X23474Y42689D2*
Y41449D1*
X23402Y41232D1*
X23255Y41158D1*
X23111D1*
X23693Y42179D2*
X23183D1*
X22276D2*
X22421Y42106D1*
X22568Y41960D1*
X22640Y41741D1*
Y41596D1*
X22568Y41377D1*
X22421Y41232D1*
X22276Y41158D1*
X22057D1*
X21911Y41232D1*
X21766Y41377D1*
X21692Y41596D1*
Y41741D1*
X21766Y41960D1*
X21911Y42106D1*
X22057Y42179D1*
X22276D1*
X39469Y39710D2*
X39614Y39857D1*
X39833Y39929D1*
X40124D1*
X40343Y39857D1*
X40490Y39710D1*
Y39565D1*
X40416Y39419D1*
X40343Y39346D1*
X40198Y39274D1*
X39760Y39127D1*
X39614Y39055D1*
X39541Y38981D1*
X39469Y38836D1*
Y38617D1*
X39614Y38472D1*
X39833Y38398D1*
X40124D1*
X40343Y38472D1*
X40490Y38617D1*
X38998Y38981D2*
X38124D1*
Y39127D1*
X38196Y39274D1*
X38269Y39346D1*
X38415Y39419D1*
X38634D1*
X38779Y39346D1*
X38926Y39200D1*
X38998Y38981D1*
Y38836D1*
X38926Y38617D1*
X38779Y38472D1*
X38634Y38398D1*
X38415D1*
X38269Y38472D1*
X38124Y38617D1*
X37653Y39419D2*
Y38398D1*
Y38981D2*
X37579Y39200D1*
X37434Y39346D1*
X37288Y39419D1*
X37069D1*
X36598Y39929D2*
X36526Y39857D1*
X36452Y39929D1*
X36526Y40003D1*
X36598Y39929D1*
X36526Y39419D2*
Y38398D1*
X35107Y39419D2*
Y38398D1*
Y39200D2*
X35252Y39346D1*
X35398Y39419D1*
X35616D1*
X35762Y39346D1*
X35907Y39200D1*
X35981Y38981D1*
Y38836D1*
X35907Y38617D1*
X35762Y38472D1*
X35616Y38398D1*
X35398D1*
X35252Y38472D1*
X35107Y38617D1*
X34636Y39929D2*
Y38398D1*
X32684Y39127D2*
X32027D1*
X31810Y39200D1*
X31736Y39274D1*
X31663Y39419D1*
Y39638D1*
X31736Y39783D1*
X31810Y39857D1*
X32027Y39929D1*
X32684D1*
Y38398D1*
X31193Y38981D2*
X30318D1*
Y39127D1*
X30391Y39274D1*
X30463Y39346D1*
X30610Y39419D1*
X30829D1*
X30974Y39346D1*
X31120Y39200D1*
X31193Y38981D1*
Y38836D1*
X31120Y38617D1*
X30974Y38472D1*
X30829Y38398D1*
X30610D1*
X30463Y38472D1*
X30318Y38617D1*
X29848Y39419D2*
Y38398D1*
Y38981D2*
X29774Y39200D1*
X29629Y39346D1*
X29482Y39419D1*
X29263D1*
X28793Y39929D2*
X28720Y39857D1*
X28646Y39929D1*
X28720Y40003D1*
X28793Y39929D1*
X28720Y39419D2*
Y38398D1*
X28176Y39419D2*
Y37887D1*
Y39200D2*
X28029Y39345D1*
X27884Y39419D1*
X27665D1*
X27519Y39345D1*
X27374Y39200D1*
X27300Y38981D1*
Y38834D1*
X27374Y38617D1*
X27519Y38470D1*
X27665Y38398D1*
X27884D1*
X28029Y38470D1*
X28176Y38617D1*
X26829Y39929D2*
Y38398D1*
Y39127D2*
X26610Y39346D1*
X26463Y39419D1*
X26244D1*
X26100Y39346D1*
X26027Y39127D1*
Y38398D1*
X25557Y38981D2*
X24682D1*
Y39127D1*
X24755Y39274D1*
X24827Y39346D1*
X24974Y39419D1*
X25193D1*
X25338Y39346D1*
X25484Y39200D1*
X25557Y38981D1*
Y38836D1*
X25484Y38617D1*
X25338Y38472D1*
X25193Y38398D1*
X24974D1*
X24827Y38472D1*
X24682Y38617D1*
X24212Y39419D2*
Y38398D1*
Y38981D2*
X24138Y39200D1*
X23993Y39346D1*
X23846Y39419D1*
X23627D1*
X22282D2*
Y38398D1*
Y39200D2*
X22427Y39346D1*
X22574Y39419D1*
X22791D1*
X22937Y39346D1*
X23082Y39200D1*
X23156Y38981D1*
Y38836D1*
X23082Y38617D1*
X22937Y38472D1*
X22791Y38398D1*
X22574D1*
X22427Y38472D1*
X22282Y38617D1*
X21812Y39929D2*
Y38398D1*
X40354Y36989D2*
Y35458D1*
X39884Y36479D2*
Y35458D1*
Y36187D2*
X39665Y36406D1*
X39518Y36479D1*
X39301D1*
X39154Y36406D1*
X39082Y36187D1*
Y35458D1*
X38392Y36989D2*
Y35749D1*
X38320Y35532D1*
X38173Y35458D1*
X38028D1*
X38611Y36479D2*
X38101D1*
X37558Y36041D2*
X36684D1*
Y36187D1*
X36756Y36334D1*
X36828Y36406D1*
X36975Y36479D1*
X37194D1*
X37339Y36406D1*
X37485Y36260D1*
X37558Y36041D1*
Y35896D1*
X37485Y35677D1*
X37339Y35532D1*
X37194Y35458D1*
X36975D1*
X36828Y35532D1*
X36684Y35677D1*
X36213Y36479D2*
Y35458D1*
Y36041D2*
X36139Y36260D1*
X35994Y36406D1*
X35847Y36479D1*
X35628D1*
X34575Y36989D2*
X34720D1*
X34866Y36917D1*
X34939Y36698D1*
Y35458D1*
X35158Y36479D2*
X34647D1*
X33230D2*
Y35458D1*
Y36260D2*
X33375Y36406D1*
X33521Y36479D1*
X33739D1*
X33885Y36406D1*
X34030Y36260D1*
X34104Y36041D1*
Y35896D1*
X34030Y35677D1*
X33885Y35532D1*
X33739Y35458D1*
X33521D1*
X33375Y35532D1*
X33230Y35677D1*
X31883Y36260D2*
X32030Y36406D1*
X32177Y36479D1*
X32394D1*
X32540Y36406D1*
X32685Y36260D1*
X32759Y36041D1*
Y35896D1*
X32685Y35677D1*
X32540Y35532D1*
X32394Y35458D1*
X32177D1*
X32030Y35532D1*
X31883Y35677D1*
X31413Y36041D2*
X30539D1*
Y36187D1*
X30611Y36334D1*
X30683Y36406D1*
X30830Y36479D1*
X31049D1*
X31194Y36406D1*
X31340Y36260D1*
X31413Y36041D1*
Y35896D1*
X31340Y35677D1*
X31194Y35532D1*
X31049Y35458D1*
X30830D1*
X30683Y35532D1*
X30539Y35677D1*
X28076Y37388D2*
X28223Y37244D1*
X28368Y37025D1*
X28514Y36733D1*
X28587Y36368D1*
Y36076D1*
X28514Y35712D1*
X28368Y35421D1*
X28223Y35202D1*
X28076Y35057D1*
X26585Y36770D2*
X26730Y36917D1*
X26949Y36989D1*
X27240D1*
X27459Y36917D1*
X27606Y36770D1*
Y36625D1*
X27531Y36479D1*
X27459Y36406D1*
X27314Y36334D1*
X26876Y36187D1*
X26730Y36115D1*
X26657Y36041D1*
X26585Y35896D1*
Y35677D1*
X26730Y35532D1*
X26949Y35458D1*
X27240D1*
X27459Y35532D1*
X27606Y35677D1*
X26114Y36187D2*
X25457D1*
X25240Y36260D1*
X25166Y36334D1*
X25093Y36479D1*
Y36698D1*
X25166Y36843D1*
X25240Y36917D1*
X25457Y36989D1*
X26114D1*
Y35458D1*
X24623Y36989D2*
Y35458D1*
X24152Y37388D2*
X24005Y37244D1*
X23861Y37025D1*
X23714Y36733D1*
X23642Y36368D1*
Y36076D1*
X23714Y35712D1*
X23861Y35421D1*
X24005Y35202D1*
X24152Y35057D1*
X40345Y33929D2*
Y32398D1*
X39688D1*
X39469Y32472D1*
X39396Y32544D1*
X39324Y32689D1*
Y32908D1*
X39396Y33055D1*
X39469Y33127D1*
X39688Y33200D1*
X39469Y33274D1*
X39396Y33346D1*
X39324Y33491D1*
Y33638D1*
X39396Y33783D1*
X39469Y33857D1*
X39688Y33929D1*
X40345D1*
Y33200D2*
X39688D1*
X38853Y33419D2*
Y32398D1*
Y32981D2*
X38779Y33200D1*
X38634Y33346D1*
X38488Y33419D1*
X38269D1*
X37798Y33929D2*
X37726Y33857D1*
X37652Y33929D1*
X37726Y34003D1*
X37798Y33929D1*
X37726Y33419D2*
Y32398D1*
X36307Y33929D2*
Y32398D1*
Y33200D2*
X36452Y33346D1*
X36598Y33419D1*
X36817D1*
X36962Y33346D1*
X37109Y33200D1*
X37181Y32981D1*
Y32836D1*
X37109Y32617D1*
X36962Y32472D1*
X36817Y32398D1*
X36598D1*
X36452Y32472D1*
X36307Y32617D1*
X34962Y33346D2*
Y32179D1*
X35034Y31962D1*
X35107Y31887D1*
X35253Y31815D1*
X35472D1*
X35617Y31887D1*
X34962Y33127D2*
X35107Y33272D1*
X35253Y33346D1*
X35472D1*
X35617Y33272D1*
X35764Y33127D1*
X35836Y32908D1*
Y32762D1*
X35764Y32544D1*
X35617Y32398D1*
X35472Y32325D1*
X35253D1*
X35107Y32398D1*
X34962Y32544D1*
X34491Y32981D2*
X33617D1*
Y33127D1*
X33689Y33274D1*
X33762Y33346D1*
X33908Y33419D1*
X34127D1*
X34272Y33346D1*
X34419Y33200D1*
X34491Y32981D1*
Y32836D1*
X34419Y32617D1*
X34272Y32472D1*
X34127Y32398D1*
X33908D1*
X33762Y32472D1*
X33617Y32617D1*
X31665Y33200D2*
X31010D1*
X30791Y33274D1*
X30717Y33346D1*
X30644Y33491D1*
Y33638D1*
X30717Y33783D1*
X30791Y33857D1*
X31010Y33929D1*
X31665D1*
Y32398D1*
X31155Y33200D2*
X30644Y32398D1*
X30174Y32981D2*
X29299D1*
Y33127D1*
X29372Y33274D1*
X29444Y33346D1*
X29591Y33419D1*
X29810D1*
X29955Y33346D1*
X30101Y33200D1*
X30174Y32981D1*
Y32836D1*
X30101Y32617D1*
X29955Y32472D1*
X29810Y32398D1*
X29591D1*
X29444Y32472D1*
X29299Y32617D1*
X28829Y33419D2*
X28391Y32398D1*
X27954Y33419D1*
X26002Y33929D2*
Y32398D1*
X25345D1*
X25126Y32472D1*
X25054Y32544D1*
X24982Y32689D1*
Y32908D1*
X25054Y33055D1*
X25126Y33127D1*
X25345Y33200D1*
X25126Y33274D1*
X25054Y33346D1*
X24982Y33491D1*
Y33638D1*
X25054Y33783D1*
X25126Y33857D1*
X25345Y33929D1*
X26002D1*
Y33200D2*
X25345D1*
X67175Y57301D2*
D83*
Y56281D1*
Y56767D2*
X67029Y56913D1*
X66931Y56961D1*
X66785D1*
X66689Y56913D1*
X66640Y56767D1*
Y56281D1*
X66181Y57301D2*
Y56475D1*
X66132Y56330D1*
X66035Y56281D1*
X65938D1*
X66327Y56961D2*
X65986D1*
X65478Y57301D2*
Y56475D1*
X65430Y56330D1*
X65332Y56281D1*
X65236D1*
X65624Y56961D2*
X65284D1*
X64922D2*
Y55940D1*
Y56815D2*
X64824Y56912D1*
X64728Y56961D1*
X64582D1*
X64484Y56912D1*
X64387Y56815D1*
X64338Y56669D1*
Y56571D1*
X64387Y56427D1*
X64484Y56329D1*
X64582Y56281D1*
X64728D1*
X64824Y56329D1*
X64922Y56427D1*
X63975Y56961D2*
X64024Y56912D1*
X63975Y56863D1*
X63927Y56912D1*
X63975Y56961D1*
Y56378D2*
X64024Y56329D1*
X63975Y56281D1*
X63927Y56329D1*
X63975Y56378D1*
X63613Y56281D2*
X62932Y57300D1*
X62618Y56281D2*
X61938Y57300D1*
X61041Y56913D2*
Y56135D1*
X61090Y55990D1*
X61138Y55940D1*
X61236Y55892D1*
X61382D1*
X61478Y55940D1*
X61041Y56767D2*
X61138Y56863D1*
X61236Y56913D1*
X61382D1*
X61478Y56863D1*
X61576Y56767D1*
X61624Y56621D1*
Y56523D1*
X61576Y56378D1*
X61478Y56281D1*
X61382Y56232D1*
X61236D1*
X61138Y56281D1*
X61041Y56378D1*
X60728Y57301D2*
X60679Y57253D1*
X60630Y57301D1*
X60679Y57351D1*
X60728Y57301D1*
X60679Y56961D2*
Y56281D1*
X60170Y57301D2*
Y56475D1*
X60122Y56330D1*
X60024Y56281D1*
X59928D1*
X60316Y56961D2*
X59976D1*
X59614Y57301D2*
Y56281D1*
Y56767D2*
X59468Y56913D1*
X59370Y56961D1*
X59224D1*
X59128Y56913D1*
X59079Y56767D1*
Y56281D1*
X58766Y56961D2*
Y56475D1*
X58717Y56330D1*
X58620Y56281D1*
X58474D1*
X58377Y56330D1*
X58231Y56475D1*
Y56961D2*
Y56281D1*
X57917Y57301D2*
Y56281D1*
Y56815D2*
X57819Y56913D1*
X57723Y56961D1*
X57577D1*
X57480Y56913D1*
X57383Y56815D1*
X57334Y56669D1*
Y56573D1*
X57383Y56427D1*
X57480Y56330D1*
X57577Y56281D1*
X57723D1*
X57819Y56330D1*
X57917Y56427D1*
X56972Y56378D2*
X57021Y56329D1*
X56972Y56281D1*
X56923Y56329D1*
X56972Y56378D1*
X56025Y56815D2*
X56123Y56913D1*
X56221Y56961D1*
X56365D1*
X56463Y56913D1*
X56560Y56815D1*
X56609Y56669D1*
Y56573D1*
X56560Y56427D1*
X56463Y56330D1*
X56365Y56281D1*
X56221D1*
X56123Y56330D1*
X56025Y56427D1*
X55469Y56961D2*
X55565Y56913D1*
X55663Y56815D1*
X55711Y56669D1*
Y56573D1*
X55663Y56427D1*
X55565Y56330D1*
X55469Y56281D1*
X55323D1*
X55225Y56330D1*
X55129Y56427D1*
X55079Y56573D1*
Y56669D1*
X55129Y56815D1*
X55225Y56913D1*
X55323Y56961D1*
X55469D1*
X54765D2*
Y56281D1*
Y56767D2*
X54619Y56913D1*
X54522Y56961D1*
X54377D1*
X54279Y56913D1*
X54231Y56767D1*
Y56281D1*
Y56767D2*
X54085Y56913D1*
X53987Y56961D1*
X53842D1*
X53745Y56913D1*
X53695Y56767D1*
Y56281D1*
X53381D2*
X52701Y57300D1*
X51804Y56913D2*
Y56135D1*
X51853Y55990D1*
X51901Y55940D1*
X51999Y55892D1*
X52145D1*
X52241Y55940D1*
X51804Y56767D2*
X51901Y56863D1*
X51999Y56913D1*
X52145D1*
X52241Y56863D1*
X52339Y56767D1*
X52387Y56621D1*
Y56523D1*
X52339Y56378D1*
X52241Y56281D1*
X52145Y56232D1*
X51999D1*
X51901Y56281D1*
X51804Y56378D1*
X51490Y56961D2*
Y56281D1*
Y56669D2*
X51441Y56815D1*
X51344Y56913D1*
X51247Y56961D1*
X51101D1*
X50204D2*
Y56281D1*
Y56815D2*
X50301Y56913D1*
X50398Y56961D1*
X50543D1*
X50641Y56913D1*
X50738Y56815D1*
X50787Y56669D1*
Y56573D1*
X50738Y56427D1*
X50641Y56330D1*
X50543Y56281D1*
X50398D1*
X50301Y56330D1*
X50204Y56427D1*
X49890Y57301D2*
Y56281D1*
Y56767D2*
X49744Y56913D1*
X49647Y56961D1*
X49501D1*
X49404Y56913D1*
X49356Y56767D1*
Y56281D1*
X48459Y56961D2*
Y56281D1*
Y56815D2*
X48556Y56913D1*
X48654Y56961D1*
X48798D1*
X48896Y56913D1*
X48993Y56815D1*
X49042Y56669D1*
Y56573D1*
X48993Y56427D1*
X48896Y56330D1*
X48798Y56281D1*
X48654D1*
X48556Y56330D1*
X48459Y56427D1*
X48146Y56961D2*
Y56281D1*
Y56767D2*
X48000Y56913D1*
X47902Y56961D1*
X47757D1*
X47659Y56913D1*
X47611Y56767D1*
Y56281D1*
Y56767D2*
X47465Y56913D1*
X47367Y56961D1*
X47222D1*
X47125Y56913D1*
X47075Y56767D1*
Y56281D1*
X46762Y56790D2*
X46200D1*
X45886Y57301D2*
Y56281D1*
Y56815D2*
X45789Y56913D1*
X45692Y56961D1*
X45546D1*
X45449Y56913D1*
X45352Y56815D1*
X45303Y56669D1*
Y56573D1*
X45352Y56427D1*
X45449Y56330D1*
X45546Y56281D1*
X45692D1*
X45789Y56330D1*
X45886Y56427D1*
X44990Y56669D2*
X44407D1*
Y56767D1*
X44455Y56865D1*
X44503Y56913D1*
X44601Y56961D1*
X44747D1*
X44844Y56913D1*
X44941Y56815D1*
X44990Y56669D1*
Y56573D1*
X44941Y56427D1*
X44844Y56330D1*
X44747Y56281D1*
X44601D1*
X44503Y56330D1*
X44407Y56427D1*
X43558Y56815D2*
X43607Y56913D1*
X43753Y56961D1*
X43899D1*
X44045Y56913D1*
X44093Y56815D1*
X44045Y56719D1*
X43947Y56669D1*
X43704Y56621D1*
X43607Y56573D1*
X43558Y56475D1*
Y56427D1*
X43607Y56330D1*
X43753Y56281D1*
X43899D1*
X44045Y56330D1*
X44093Y56427D1*
X43099Y57301D2*
Y56475D1*
X43050Y56330D1*
X42953Y56281D1*
X42856D1*
X43245Y56961D2*
X42904D1*
X42542Y56281D2*
X41862Y57300D1*
X41548Y56815D2*
X41111D1*
X40965Y56865D1*
X40916Y56913D1*
X40868Y57009D1*
Y57107D1*
X40916Y57204D1*
X40965Y57253D1*
X41111Y57301D1*
X41548D1*
Y56281D1*
X41208Y56815D2*
X40868Y56281D1*
X39971Y56961D2*
Y56281D1*
Y56815D2*
X40068Y56913D1*
X40165Y56961D1*
X40310D1*
X40408Y56913D1*
X40504Y56815D1*
X40554Y56669D1*
Y56573D1*
X40504Y56427D1*
X40408Y56330D1*
X40310Y56281D1*
X40165D1*
X40068Y56330D1*
X39971Y56427D1*
X39123Y56815D2*
X39171Y56913D1*
X39317Y56961D1*
X39463D1*
X39609Y56913D1*
X39657Y56815D1*
X39609Y56719D1*
X39511Y56669D1*
X39269Y56621D1*
X39171Y56573D1*
X39123Y56475D1*
Y56427D1*
X39171Y56330D1*
X39317Y56281D1*
X39463D1*
X39609Y56330D1*
X39657Y56427D1*
X38809Y56961D2*
Y55940D1*
Y56815D2*
X38711Y56912D1*
X38615Y56961D1*
X38469D1*
X38371Y56912D1*
X38274Y56815D1*
X38225Y56669D1*
Y56571D1*
X38274Y56427D1*
X38371Y56329D1*
X38469Y56281D1*
X38615D1*
X38711Y56329D1*
X38809Y56427D1*
X37911Y57301D2*
Y56281D1*
Y56815D2*
X37813Y56913D1*
X37717Y56961D1*
X37571D1*
X37474Y56913D1*
X37377Y56815D1*
X37328Y56669D1*
Y56573D1*
X37377Y56427D1*
X37474Y56330D1*
X37571Y56281D1*
X37717D1*
X37813Y56330D1*
X37911Y56427D1*
X37015Y56669D2*
X36432D1*
Y56767D1*
X36480Y56865D1*
X36528Y56913D1*
X36626Y56961D1*
X36772D1*
X36869Y56913D1*
X36966Y56815D1*
X37015Y56669D1*
Y56573D1*
X36966Y56427D1*
X36869Y56330D1*
X36772Y56281D1*
X36626D1*
X36528Y56330D1*
X36432Y56427D1*
X36118Y56961D2*
Y56281D1*
Y56669D2*
X36069Y56815D1*
X35972Y56913D1*
X35874Y56961D1*
X35728D1*
X35415D2*
Y56281D1*
Y56669D2*
X35365Y56815D1*
X35269Y56913D1*
X35171Y56961D1*
X35025D1*
X34662D2*
X34371Y56281D1*
X34467Y56086D1*
X34565Y55989D1*
X34662Y55940D1*
X34711D1*
X34079Y56961D2*
X34371Y56281D1*
X33765Y56790D2*
X33204D1*
X32890Y56767D2*
X32452D1*
X32307Y56815D1*
X32258Y56865D1*
X32209Y56961D1*
Y57107D1*
X32258Y57204D1*
X32307Y57253D1*
X32452Y57301D1*
X32890D1*
Y56281D1*
X31896Y57301D2*
X31847Y57253D1*
X31798Y57301D1*
X31847Y57351D1*
X31896Y57301D1*
X31847Y56961D2*
Y56281D1*
X31484Y56790D2*
X30923D1*
X30463Y57301D2*
Y56475D1*
X30415Y56330D1*
X30317Y56281D1*
X30220D1*
X30609Y56961D2*
X30269D1*
X29664D2*
X29761Y56913D1*
X29858Y56815D1*
X29907Y56669D1*
Y56573D1*
X29858Y56427D1*
X29761Y56330D1*
X29664Y56281D1*
X29518D1*
X29420Y56330D1*
X29324Y56427D1*
X29274Y56573D1*
Y56669D1*
X29324Y56815D1*
X29420Y56913D1*
X29518Y56961D1*
X29664D1*
X28960Y56790D2*
X28399D1*
X27405Y57155D2*
X27501Y57253D1*
X27647Y57301D1*
X27842D1*
X27988Y57253D1*
X28085Y57155D1*
Y57059D1*
X28036Y56961D1*
X27988Y56913D1*
X27891Y56865D1*
X27599Y56767D1*
X27501Y56719D1*
X27453Y56669D1*
X27405Y56573D1*
Y56427D1*
X27501Y56330D1*
X27647Y56281D1*
X27842D1*
X27988Y56330D1*
X28085Y56427D1*
X27091Y56767D2*
X26653D1*
X26508Y56815D1*
X26459Y56865D1*
X26410Y56961D1*
Y57107D1*
X26459Y57204D1*
X26508Y57253D1*
X26653Y57301D1*
X27091D1*
Y56281D1*
X26097Y57301D2*
Y56281D1*
X25783Y56790D2*
X25221D1*
X24908Y57301D2*
Y56281D1*
X24470D1*
X24324Y56330D1*
X24275Y56378D1*
X24227Y56475D1*
Y56621D1*
X24275Y56719D1*
X24324Y56767D1*
X24470Y56815D1*
X24324Y56865D1*
X24275Y56913D1*
X24227Y57009D1*
Y57107D1*
X24275Y57204D1*
X24324Y57253D1*
X24470Y57301D1*
X24908D1*
Y56815D2*
X24470D1*
X23913Y56961D2*
Y56281D1*
Y56669D2*
X23864Y56815D1*
X23767Y56913D1*
X23670Y56961D1*
X23524D1*
X23210Y57301D2*
X23162Y57253D1*
X23112Y57301D1*
X23162Y57351D1*
X23210Y57301D1*
X23162Y56961D2*
Y56281D1*
X22216Y57301D2*
Y56281D1*
Y56815D2*
X22312Y56913D1*
X22410Y56961D1*
X22556D1*
X22652Y56913D1*
X22750Y56815D1*
X22798Y56669D1*
Y56573D1*
X22750Y56427D1*
X22652Y56330D1*
X22556Y56281D1*
X22410D1*
X22312Y56330D1*
X22216Y56427D1*
X21319Y56913D2*
Y56135D1*
X21367Y55990D1*
X21416Y55940D1*
X21513Y55892D1*
X21659D1*
X21756Y55940D1*
X21319Y56767D2*
X21416Y56863D1*
X21513Y56913D1*
X21659D1*
X21756Y56863D1*
X21854Y56767D1*
X21902Y56621D1*
Y56523D1*
X21854Y56378D1*
X21756Y56281D1*
X21659Y56232D1*
X21513D1*
X21416Y56281D1*
X21319Y56378D1*
X21005Y56669D2*
X20422D1*
Y56767D1*
X20471Y56865D1*
X20519Y56913D1*
X20617Y56961D1*
X20763D1*
X20859Y56913D1*
X20957Y56815D1*
X21005Y56669D1*
Y56573D1*
X20957Y56427D1*
X20859Y56330D1*
X20763Y56281D1*
X20617D1*
X20519Y56330D1*
X20422Y56427D1*
X13653Y52856D2*
D84*
X13689Y52928D1*
X13762Y53001D1*
X13835Y53038D1*
X13980D1*
X14054Y53001D1*
X14126Y52928D1*
X14163Y52856D1*
X14199Y52746D1*
Y52563D1*
X14163Y52455D1*
X14126Y52381D1*
X14054Y52309D1*
X13980Y52272D1*
X13835D1*
X13762Y52309D1*
X13689Y52381D1*
X13653Y52455D1*
X15083Y55532D2*
X15375Y56298D1*
X15666Y55532D1*
X15557Y55787D2*
X15192D1*
X21842Y49478D2*
Y48712D1*
X21405D1*
X20951Y49478D2*
X21024Y49441D1*
X21097Y49368D1*
X21134Y49296D1*
X21170Y49186D1*
Y49003D1*
X21134Y48895D1*
X21097Y48821D1*
X21024Y48749D1*
X20951Y48712D1*
X20805D1*
X20733Y48749D1*
X20659Y48821D1*
X20623Y48895D1*
X20587Y49003D1*
Y49186D1*
X20623Y49296D1*
X20659Y49368D1*
X20733Y49441D1*
X20805Y49478D1*
X20951D1*
X19841D2*
Y48712D1*
X20352Y49478D1*
Y48712D1*
X19059Y49296D2*
X19096Y49368D1*
X19169Y49441D1*
X19241Y49478D1*
X19387D1*
X19460Y49441D1*
X19533Y49368D1*
X19570Y49296D1*
X19606Y49186D1*
Y49003D1*
X19570Y48895D1*
X19533Y48821D1*
X19460Y48749D1*
X19387Y48712D1*
X19241D1*
X19169Y48749D1*
X19096Y48821D1*
X19059Y48895D1*
Y49003D1*
X19241D1*
X18083Y49478D2*
Y48712D1*
X17646D1*
X16938Y49478D2*
X17411D1*
Y48712D1*
X16938D1*
X17411Y49113D2*
X17119D1*
X16118Y48712D2*
X16411Y49478D1*
X16702Y48712D1*
X16593Y48967D2*
X16228D1*
X15883Y49478D2*
Y48712D1*
X15628D1*
X15518Y48749D1*
X15445Y48821D1*
X15409Y48895D1*
X15373Y49003D1*
Y49186D1*
X15409Y49296D1*
X15445Y49368D1*
X15518Y49441D1*
X15628Y49478D1*
X15883D1*
X20971Y48238D2*
Y47472D1*
X21226Y48238D2*
X20716D1*
X20480D2*
Y47472D1*
X19970Y48238D2*
Y47472D1*
X20480Y47873D2*
X19970D1*
X19735Y48238D2*
Y47472D1*
X18989Y48128D2*
X19061Y48201D1*
X19171Y48238D1*
X19317D1*
X19426Y48201D1*
X19499Y48128D1*
Y48056D1*
X19462Y47982D1*
X19426Y47946D1*
X19354Y47910D1*
X19135Y47837D1*
X19061Y47800D1*
X19025Y47763D1*
X18989Y47691D1*
Y47581D1*
X19061Y47509D1*
X19171Y47472D1*
X19317D1*
X19426Y47509D1*
X19499Y47581D1*
X17502Y48128D2*
X17575Y48201D1*
X17684Y48238D1*
X17830D1*
X17940Y48201D1*
X18013Y48128D1*
Y48056D1*
X17976Y47982D1*
X17940Y47946D1*
X17867Y47910D1*
X17648Y47837D1*
X17575Y47800D1*
X17539Y47763D1*
X17502Y47691D1*
Y47581D1*
X17575Y47509D1*
X17684Y47472D1*
X17830D1*
X17940Y47509D1*
X18013Y47581D1*
X17267Y48238D2*
Y47472D1*
X17032Y48238D2*
Y47472D1*
X16777D1*
X16667Y47509D1*
X16594Y47581D1*
X16558Y47655D1*
X16521Y47763D1*
Y47946D1*
X16558Y48056D1*
X16594Y48128D1*
X16667Y48201D1*
X16777Y48238D1*
X17032D1*
X15813D2*
X16286D1*
Y47472D1*
X15813D1*
X16286Y47873D2*
X15995D1*
X64706Y53367D2*
D83*
X64268D1*
X64123Y53415D1*
X64074Y53465D1*
X64026Y53561D1*
Y53707D1*
X64074Y53804D1*
X64123Y53853D1*
X64268Y53901D1*
X64706D1*
Y52881D1*
X63712Y53901D2*
X63664Y53853D1*
X63614Y53901D1*
X63664Y53951D1*
X63712Y53901D1*
X63664Y53561D2*
Y52881D1*
X63300Y53561D2*
Y52881D1*
Y53367D2*
X63154Y53513D1*
X63057Y53561D1*
X62912D1*
X62814Y53513D1*
X62766Y53367D1*
Y52881D1*
X61465Y53706D2*
X61367Y53755D1*
X61221Y53900D1*
Y52881D1*
X59920Y53901D2*
X59871Y53853D1*
X59822Y53901D1*
X59871Y53951D1*
X59920Y53901D1*
X59871Y53561D2*
Y52881D1*
X58974Y53415D2*
X59022Y53513D1*
X59168Y53561D1*
X59314D1*
X59460Y53513D1*
X59508Y53415D1*
X59460Y53319D1*
X59362Y53269D1*
X59120Y53221D1*
X59022Y53173D1*
X58974Y53075D1*
Y53027D1*
X59022Y52930D1*
X59168Y52881D1*
X59314D1*
X59460Y52930D1*
X59508Y53027D1*
X57089Y53901D2*
Y52881D1*
Y53415D2*
X57186Y53513D1*
X57284Y53561D1*
X57430D1*
X57526Y53513D1*
X57624Y53415D1*
X57672Y53269D1*
Y53173D1*
X57624Y53027D1*
X57526Y52930D1*
X57430Y52881D1*
X57284D1*
X57186Y52930D1*
X57089Y53027D1*
X56776Y53269D2*
X56193D1*
Y53367D1*
X56241Y53465D1*
X56289Y53513D1*
X56387Y53561D1*
X56533D1*
X56630Y53513D1*
X56727Y53415D1*
X56776Y53269D1*
Y53173D1*
X56727Y53027D1*
X56630Y52930D1*
X56533Y52881D1*
X56387D1*
X56289Y52930D1*
X56193Y53027D1*
X55879Y53561D2*
Y52881D1*
Y53367D2*
X55733Y53513D1*
X55635Y53561D1*
X55490D1*
X55393Y53513D1*
X55344Y53367D1*
Y52881D1*
X54885Y53901D2*
Y53075D1*
X54836Y52930D1*
X54739Y52881D1*
X54642D1*
X55031Y53561D2*
X54690D1*
X54086D2*
X54182Y53513D1*
X54280Y53415D1*
X54328Y53269D1*
Y53173D1*
X54280Y53027D1*
X54182Y52930D1*
X54086Y52881D1*
X53940D1*
X53842Y52930D1*
X53746Y53027D1*
X53696Y53173D1*
Y53269D1*
X53746Y53415D1*
X53842Y53513D1*
X53940Y53561D1*
X54086D1*
X53382Y53269D2*
X52799D1*
Y53367D1*
X52848Y53465D1*
X52896Y53513D1*
X52994Y53561D1*
X53140D1*
X53236Y53513D1*
X53334Y53415D1*
X53382Y53269D1*
Y53173D1*
X53334Y53027D1*
X53236Y52930D1*
X53140Y52881D1*
X52994D1*
X52896Y52930D1*
X52799Y53027D1*
X51903Y53901D2*
Y52881D1*
Y53415D2*
X51999Y53513D1*
X52097Y53561D1*
X52243D1*
X52340Y53513D1*
X52437Y53415D1*
X52486Y53269D1*
Y53173D1*
X52437Y53027D1*
X52340Y52930D1*
X52243Y52881D1*
X52097D1*
X51999Y52930D1*
X51903Y53027D1*
X50602Y53561D2*
X50407Y52881D1*
X50213Y53561D1*
X50019Y52881D1*
X49824Y53561D1*
X49511Y53901D2*
X49462Y53853D1*
X49413Y53901D1*
X49462Y53951D1*
X49511Y53901D1*
X49462Y53561D2*
Y52881D1*
X48953Y53901D2*
Y53075D1*
X48905Y52930D1*
X48807Y52881D1*
X48711D1*
X49099Y53561D2*
X48759D1*
X48397Y53901D2*
Y52881D1*
Y53367D2*
X48251Y53513D1*
X48153Y53561D1*
X48007D1*
X47911Y53513D1*
X47862Y53367D1*
Y52881D1*
X64161Y52021D2*
Y51341D1*
Y51875D2*
X64258Y51973D1*
X64355Y52021D1*
X64500D1*
X64598Y51973D1*
X64695Y51875D1*
X64744Y51729D1*
Y51633D1*
X64695Y51487D1*
X64598Y51390D1*
X64500Y51341D1*
X64355D1*
X64258Y51390D1*
X64161Y51487D1*
X62860Y52021D2*
Y51341D1*
Y51729D2*
X62810Y51875D1*
X62714Y51973D1*
X62616Y52021D1*
X62470D1*
X62156Y51729D2*
X61574D1*
Y51827D1*
X61622Y51925D1*
X61670Y51973D1*
X61768Y52021D1*
X61914D1*
X62010Y51973D1*
X62108Y51875D1*
X62156Y51729D1*
Y51633D1*
X62108Y51487D1*
X62010Y51390D1*
X61914Y51341D1*
X61768D1*
X61670Y51390D1*
X61574Y51487D1*
X60676Y51875D2*
X60774Y51973D1*
X60871Y52021D1*
X61016D1*
X61114Y51973D1*
X61210Y51875D1*
X61260Y51729D1*
Y51633D1*
X61210Y51487D1*
X61114Y51390D1*
X61016Y51341D1*
X60871D1*
X60774Y51390D1*
X60676Y51487D1*
X60216Y52361D2*
Y51535D1*
X60168Y51390D1*
X60070Y51341D1*
X59974D1*
X60362Y52021D2*
X60022D1*
X59077D2*
Y51341D1*
Y51875D2*
X59174Y51973D1*
X59271Y52021D1*
X59416D1*
X59514Y51973D1*
X59610Y51875D1*
X59660Y51729D1*
Y51633D1*
X59610Y51487D1*
X59514Y51390D1*
X59416Y51341D1*
X59271D1*
X59174Y51390D1*
X59077Y51487D1*
X58763Y52021D2*
Y51341D1*
Y51827D2*
X58617Y51973D1*
X58520Y52021D1*
X58375D1*
X58277Y51973D1*
X58229Y51827D1*
Y51341D1*
X57332Y51973D2*
Y51195D1*
X57380Y51050D1*
X57429Y51000D1*
X57526Y50952D1*
X57672D1*
X57769Y51000D1*
X57332Y51827D2*
X57429Y51923D1*
X57526Y51973D1*
X57672D1*
X57769Y51923D1*
X57867Y51827D1*
X57915Y51681D1*
Y51583D1*
X57867Y51438D1*
X57769Y51341D1*
X57672Y51292D1*
X57526D1*
X57429Y51341D1*
X57332Y51438D1*
X57018Y52021D2*
Y51535D1*
X56970Y51390D1*
X56872Y51341D1*
X56726D1*
X56630Y51390D1*
X56484Y51535D1*
Y52021D2*
Y51341D1*
X56170Y52361D2*
Y51341D1*
X55273Y52021D2*
Y51341D1*
Y51875D2*
X55370Y51973D1*
X55468Y52021D1*
X55613D1*
X55710Y51973D1*
X55807Y51875D1*
X55856Y51729D1*
Y51633D1*
X55807Y51487D1*
X55710Y51390D1*
X55613Y51341D1*
X55468D1*
X55370Y51390D1*
X55273Y51487D1*
X54960Y52021D2*
Y51341D1*
Y51729D2*
X54910Y51875D1*
X54814Y51973D1*
X54716Y52021D1*
X54570D1*
X53269D2*
Y51000D1*
Y51875D2*
X53171Y51972D1*
X53074Y52021D1*
X52928D1*
X52831Y51972D1*
X52734Y51875D1*
X52685Y51729D1*
Y51631D1*
X52734Y51487D1*
X52831Y51389D1*
X52928Y51341D1*
X53074D1*
X53171Y51389D1*
X53269Y51487D1*
X51788Y52021D2*
Y51341D1*
Y51875D2*
X51885Y51973D1*
X51982Y52021D1*
X52127D1*
X52225Y51973D1*
X52322Y51875D1*
X52371Y51729D1*
Y51633D1*
X52322Y51487D1*
X52225Y51390D1*
X52127Y51341D1*
X51982D1*
X51885Y51390D1*
X51788Y51487D1*
X50891Y52361D2*
Y51341D1*
Y51875D2*
X50988Y51973D1*
X51086Y52021D1*
X51232D1*
X51328Y51973D1*
X51426Y51875D1*
X51474Y51729D1*
Y51633D1*
X51426Y51487D1*
X51328Y51390D1*
X51232Y51341D1*
X51086D1*
X50988Y51390D1*
X50891Y51487D1*
X49007Y52021D2*
Y51341D1*
Y51875D2*
X49104Y51973D1*
X49202Y52021D1*
X49346D1*
X49444Y51973D1*
X49541Y51875D1*
X49590Y51729D1*
Y51633D1*
X49541Y51487D1*
X49444Y51390D1*
X49346Y51341D1*
X49202D1*
X49104Y51390D1*
X49007Y51487D1*
X48694Y52021D2*
Y51341D1*
Y51827D2*
X48548Y51973D1*
X48450Y52021D1*
X48305D1*
X48207Y51973D1*
X48159Y51827D1*
Y51341D1*
X47262Y52361D2*
Y51341D1*
Y51875D2*
X47359Y51973D1*
X47457Y52021D1*
X47603D1*
X47699Y51973D1*
X47797Y51875D1*
X47845Y51729D1*
Y51633D1*
X47797Y51487D1*
X47699Y51390D1*
X47603Y51341D1*
X47457D1*
X47359Y51390D1*
X47262Y51487D1*
X64682Y50571D2*
Y49745D1*
X64634Y49600D1*
X64536Y49551D1*
X64440D1*
X64828Y50231D2*
X64488D1*
X64126Y50571D2*
Y49551D1*
Y50037D2*
X63980Y50183D1*
X63882Y50231D1*
X63736D1*
X63640Y50183D1*
X63591Y50037D1*
Y49551D1*
X63278Y49939D2*
X62695D1*
Y50037D1*
X62743Y50135D1*
X62791Y50183D1*
X62889Y50231D1*
X63035D1*
X63132Y50183D1*
X63229Y50085D1*
X63278Y49939D1*
Y49843D1*
X63229Y49697D1*
X63132Y49600D1*
X63035Y49551D1*
X62889D1*
X62791Y49600D1*
X62695Y49697D1*
X61394Y50231D2*
Y49210D1*
Y50085D2*
X61296Y50182D1*
X61199Y50231D1*
X61053D1*
X60956Y50182D1*
X60859Y50085D1*
X60810Y49939D1*
Y49841D1*
X60859Y49697D1*
X60956Y49599D1*
X61053Y49551D1*
X61199D1*
X61296Y49599D1*
X61394Y49697D1*
X59913Y50231D2*
Y49551D1*
Y50085D2*
X60010Y50183D1*
X60107Y50231D1*
X60252D1*
X60350Y50183D1*
X60446Y50085D1*
X60496Y49939D1*
Y49843D1*
X60446Y49697D1*
X60350Y49600D1*
X60252Y49551D1*
X60107D1*
X60010Y49600D1*
X59913Y49697D1*
X59599Y50231D2*
Y49551D1*
Y49939D2*
X59550Y50085D1*
X59453Y50183D1*
X59356Y50231D1*
X59210D1*
X58750Y50571D2*
Y49745D1*
X58702Y49600D1*
X58604Y49551D1*
X58507D1*
X58896Y50231D2*
X58556D1*
X57206D2*
Y49551D1*
Y50037D2*
X57060Y50183D1*
X56962Y50231D1*
X56817D1*
X56720Y50183D1*
X56671Y50037D1*
Y49551D1*
X56358Y50231D2*
Y49745D1*
X56309Y49600D1*
X56212Y49551D1*
X56066D1*
X55969Y49600D1*
X55823Y49745D1*
Y50231D2*
Y49551D1*
X55509Y50231D2*
Y49551D1*
Y50037D2*
X55363Y50183D1*
X55266Y50231D1*
X55121D1*
X55023Y50183D1*
X54975Y50037D1*
Y49551D1*
Y50037D2*
X54829Y50183D1*
X54731Y50231D1*
X54586D1*
X54488Y50183D1*
X54439Y50037D1*
Y49551D1*
X54125Y50571D2*
Y49551D1*
Y50085D2*
X54028Y50183D1*
X53931Y50231D1*
X53785D1*
X53688Y50183D1*
X53591Y50085D1*
X53542Y49939D1*
Y49843D1*
X53591Y49697D1*
X53688Y49600D1*
X53785Y49551D1*
X53931D1*
X54028Y49600D1*
X54125Y49697D1*
X53229Y49939D2*
X52646D1*
Y50037D1*
X52694Y50135D1*
X52742Y50183D1*
X52840Y50231D1*
X52986D1*
X53083Y50183D1*
X53180Y50085D1*
X53229Y49939D1*
Y49843D1*
X53180Y49697D1*
X53083Y49600D1*
X52986Y49551D1*
X52840D1*
X52742Y49600D1*
X52646Y49697D1*
X52332Y50231D2*
Y49551D1*
Y49939D2*
X52283Y50085D1*
X52186Y50183D1*
X52088Y50231D1*
X51942D1*
X64712Y48771D2*
Y47751D1*
X64155Y48431D2*
X64252Y48383D1*
X64350Y48285D1*
X64398Y48139D1*
Y48043D1*
X64350Y47897D1*
X64252Y47800D1*
X64155Y47751D1*
X64009D1*
X63912Y47800D1*
X63815Y47897D1*
X63766Y48043D1*
Y48139D1*
X63815Y48285D1*
X63912Y48383D1*
X64009Y48431D1*
X64155D1*
X62868Y48285D2*
X62966Y48383D1*
X63063Y48431D1*
X63208D1*
X63306Y48383D1*
X63403Y48285D1*
X63452Y48139D1*
Y48043D1*
X63403Y47897D1*
X63306Y47800D1*
X63208Y47751D1*
X63063D1*
X62966Y47800D1*
X62868Y47897D1*
X61971Y48431D2*
Y47751D1*
Y48285D2*
X62068Y48383D1*
X62166Y48431D1*
X62311D1*
X62408Y48383D1*
X62505Y48285D1*
X62554Y48139D1*
Y48043D1*
X62505Y47897D1*
X62408Y47800D1*
X62311Y47751D1*
X62166D1*
X62068Y47800D1*
X61971Y47897D1*
X61512Y48771D2*
Y47945D1*
X61463Y47800D1*
X61366Y47751D1*
X61269D1*
X61658Y48431D2*
X61317D1*
X60955Y48139D2*
X60373D1*
Y48237D1*
X60421Y48335D1*
X60469Y48383D1*
X60567Y48431D1*
X60713D1*
X60809Y48383D1*
X60907Y48285D1*
X60955Y48139D1*
Y48043D1*
X60907Y47897D1*
X60809Y47800D1*
X60713Y47751D1*
X60567D1*
X60469Y47800D1*
X60373Y47897D1*
X59476Y48771D2*
Y47751D1*
Y48285D2*
X59573Y48383D1*
X59670Y48431D1*
X59816D1*
X59913Y48383D1*
X60011Y48285D1*
X60059Y48139D1*
Y48043D1*
X60011Y47897D1*
X59913Y47800D1*
X59816Y47751D1*
X59670D1*
X59573Y47800D1*
X59476Y47897D1*
X57591Y48285D2*
X57688Y48383D1*
X57786Y48431D1*
X57931D1*
X58029Y48383D1*
X58125Y48285D1*
X58175Y48139D1*
Y48043D1*
X58125Y47897D1*
X58029Y47800D1*
X57931Y47751D1*
X57786D1*
X57688Y47800D1*
X57591Y47897D1*
X57277Y48771D2*
Y47751D1*
X56721Y48431D2*
X56817Y48383D1*
X56915Y48285D1*
X56963Y48139D1*
Y48043D1*
X56915Y47897D1*
X56817Y47800D1*
X56721Y47751D1*
X56575D1*
X56477Y47800D1*
X56380Y47897D1*
X56331Y48043D1*
Y48139D1*
X56380Y48285D1*
X56477Y48383D1*
X56575Y48431D1*
X56721D1*
X55483Y48285D2*
X55531Y48383D1*
X55677Y48431D1*
X55823D1*
X55969Y48383D1*
X56017Y48285D1*
X55969Y48189D1*
X55871Y48139D1*
X55629Y48091D1*
X55531Y48043D1*
X55483Y47945D1*
Y47897D1*
X55531Y47800D1*
X55677Y47751D1*
X55823D1*
X55969Y47800D1*
X56017Y47897D1*
X55169Y48139D2*
X54586D1*
Y48237D1*
X54634Y48335D1*
X54683Y48383D1*
X54780Y48431D1*
X54926D1*
X55023Y48383D1*
X55121Y48285D1*
X55169Y48139D1*
Y48043D1*
X55121Y47897D1*
X55023Y47800D1*
X54926Y47751D1*
X54780D1*
X54683Y47800D1*
X54586Y47897D1*
X53738Y48285D2*
X53786Y48383D1*
X53932Y48431D1*
X54078D1*
X54224Y48383D1*
X54272Y48285D1*
X54224Y48189D1*
X54126Y48139D1*
X53884Y48091D1*
X53786Y48043D1*
X53738Y47945D1*
Y47897D1*
X53786Y47800D1*
X53932Y47751D1*
X54078D1*
X54224Y47800D1*
X54272Y47897D1*
X53278Y48771D2*
Y47945D1*
X53230Y47800D1*
X53132Y47751D1*
X53035D1*
X53424Y48431D2*
X53084D1*
X51588Y48771D2*
Y47945D1*
X51540Y47800D1*
X51442Y47751D1*
X51345D1*
X51734Y48431D2*
X51394D1*
X50789D2*
X50886Y48383D1*
X50983Y48285D1*
X51032Y48139D1*
Y48043D1*
X50983Y47897D1*
X50886Y47800D1*
X50789Y47751D1*
X50643D1*
X50545Y47800D1*
X50449Y47897D1*
X50399Y48043D1*
Y48139D1*
X50449Y48285D1*
X50545Y48383D1*
X50643Y48431D1*
X50789D1*
X48952Y48771D2*
Y47945D1*
X48904Y47800D1*
X48806Y47751D1*
X48710D1*
X49098Y48431D2*
X48758D1*
X48396Y48771D2*
Y47751D1*
Y48237D2*
X48250Y48383D1*
X48152Y48431D1*
X48006D1*
X47910Y48383D1*
X47861Y48237D1*
Y47751D1*
X46965Y48431D2*
Y47751D1*
Y48285D2*
X47061Y48383D1*
X47159Y48431D1*
X47304D1*
X47402Y48383D1*
X47498Y48285D1*
X47548Y48139D1*
Y48043D1*
X47498Y47897D1*
X47402Y47800D1*
X47304Y47751D1*
X47159D1*
X47061Y47800D1*
X46965Y47897D1*
X46505Y48771D2*
Y47945D1*
X46457Y47800D1*
X46359Y47751D1*
X46262D1*
X46651Y48431D2*
X46311D1*
X64691Y46801D2*
Y45780D1*
Y46655D2*
X64593Y46752D1*
X64497Y46801D1*
X64351D1*
X64253Y46752D1*
X64156Y46655D1*
X64107Y46509D1*
Y46411D1*
X64156Y46267D1*
X64253Y46169D1*
X64351Y46121D1*
X64497D1*
X64593Y46169D1*
X64691Y46267D1*
X63210Y46801D2*
Y46121D1*
Y46655D2*
X63307Y46753D1*
X63405Y46801D1*
X63550D1*
X63647Y46753D1*
X63744Y46655D1*
X63793Y46509D1*
Y46413D1*
X63744Y46267D1*
X63647Y46170D1*
X63550Y46121D1*
X63405D1*
X63307Y46170D1*
X63210Y46267D1*
X62314Y47141D2*
Y46121D1*
Y46655D2*
X62410Y46753D1*
X62508Y46801D1*
X62654D1*
X62751Y46753D1*
X62848Y46655D1*
X62897Y46509D1*
Y46413D1*
X62848Y46267D1*
X62751Y46170D1*
X62654Y46121D1*
X62508D1*
X62410Y46170D1*
X62314Y46267D1*
X61952Y46218D2*
X62000Y46169D1*
X61952Y46121D1*
X61902Y46169D1*
X61952Y46218D1*
X13619Y46932D2*
D84*
X13911Y47698D1*
X14203Y46932D1*
X14093Y47187D2*
X13728D1*
X33856Y59157D2*
D83*
Y58137D1*
X33418D1*
X33272Y58186D1*
X33223Y58234D1*
X33175Y58331D1*
Y58477D1*
X33223Y58575D1*
X33272Y58623D1*
X33418Y58671D1*
X33272Y58721D1*
X33223Y58769D1*
X33175Y58865D1*
Y58963D1*
X33223Y59060D1*
X33272Y59109D1*
X33418Y59157D1*
X33856D1*
Y58671D2*
X33418D1*
X59843Y59058D2*
Y58037D1*
X59405D1*
X59259Y58086D1*
X59211Y58134D1*
X59163Y58231D1*
Y58377D1*
X59211Y58475D1*
X59259Y58523D1*
X59405Y58571D1*
X59259Y58621D1*
X59211Y58669D1*
X59163Y58766D1*
Y58863D1*
X59211Y58960D1*
X59259Y59009D1*
X59405Y59058D1*
X59843D1*
Y58571D2*
X59405D1*
X58412Y58984D2*
Y58109D1*
X58849Y58546D2*
X57974D1*
X41751Y22660D2*
D84*
X41787Y22733D1*
X41860Y22806D1*
X41933Y22842D1*
X42079D1*
X42152Y22806D1*
X42224Y22733D1*
X42261Y22660D1*
X42298Y22551D1*
Y22368D1*
X42261Y22259D1*
X42224Y22186D1*
X42152Y22114D1*
X42079Y22077D1*
X41933D1*
X41860Y22114D1*
X41787Y22186D1*
X41751Y22259D1*
Y22368D1*
X41933D1*
X41005Y22842D2*
Y22077D1*
X41516Y22842D1*
Y22077D1*
X40770Y22842D2*
Y22077D1*
X40515D1*
X40405Y22114D1*
X40332Y22186D1*
X40296Y22259D1*
X40260Y22368D1*
Y22551D1*
X40296Y22660D1*
X40332Y22733D1*
X40405Y22806D1*
X40515Y22842D1*
X40770D1*
X43051Y28057D2*
X43088Y28130D1*
X43161Y28203D1*
X43233Y28239D1*
X43379D1*
X43452Y28203D1*
X43525Y28130D1*
X43562Y28057D1*
X43598Y27948D1*
Y27765D1*
X43562Y27656D1*
X43525Y27583D1*
X43452Y27511D1*
X43379Y27474D1*
X43233D1*
X43161Y27511D1*
X43088Y27583D1*
X43051Y27656D1*
Y27765D1*
X43233D1*
X42306Y28239D2*
Y27474D1*
X42816Y28239D1*
Y27474D1*
X42070Y28239D2*
Y27474D1*
X41815D1*
X41706Y27511D1*
X41632Y27583D1*
X41596Y27656D1*
X41560Y27765D1*
Y27948D1*
X41596Y28057D1*
X41632Y28130D1*
X41706Y28203D1*
X41815Y28239D1*
X42070D1*
X44251Y22660D2*
X44287Y22733D1*
X44360Y22806D1*
X44433Y22842D1*
X44579D1*
X44652Y22806D1*
X44724Y22733D1*
X44761Y22660D1*
X44798Y22551D1*
Y22368D1*
X44761Y22259D1*
X44724Y22186D1*
X44652Y22114D1*
X44579Y22077D1*
X44433D1*
X44360Y22114D1*
X44287Y22186D1*
X44251Y22259D1*
Y22368D1*
X44433D1*
X43505Y22842D2*
Y22077D1*
X44016Y22842D1*
Y22077D1*
X43270Y22842D2*
Y22077D1*
X43015D1*
X42905Y22114D1*
X42832Y22186D1*
X42796Y22259D1*
X42760Y22368D1*
Y22551D1*
X42796Y22660D1*
X42832Y22733D1*
X42905Y22806D1*
X43015Y22842D1*
X43270D1*
X48151Y28057D2*
X48187Y28130D1*
X48260Y28203D1*
X48333Y28239D1*
X48479D1*
X48552Y28203D1*
X48624Y28130D1*
X48661Y28057D1*
X48698Y27948D1*
Y27765D1*
X48661Y27656D1*
X48624Y27583D1*
X48552Y27511D1*
X48479Y27474D1*
X48333D1*
X48260Y27511D1*
X48187Y27583D1*
X48151Y27656D1*
Y27765D1*
X48333D1*
X47405Y28239D2*
Y27474D1*
X47916Y28239D1*
Y27474D1*
X47170Y28239D2*
Y27474D1*
X46915D1*
X46805Y27511D1*
X46732Y27583D1*
X46696Y27656D1*
X46660Y27765D1*
Y27948D1*
X46696Y28057D1*
X46732Y28130D1*
X46805Y28203D1*
X46915Y28239D1*
X47170D1*
X45513Y28022D2*
X45550Y28095D1*
X45623Y28168D1*
X45695Y28204D1*
X45841D1*
X45914Y28168D1*
X45987Y28095D1*
X46024Y28022D1*
X46060Y27913D1*
Y27730D1*
X46024Y27621D1*
X45987Y27548D1*
X45914Y27475D1*
X45841Y27438D1*
X45695D1*
X45623Y27475D1*
X45550Y27548D1*
X45513Y27621D1*
X45278Y28204D2*
Y27438D1*
X44841D1*
X44606Y28204D2*
Y27438D1*
X44095Y28204D2*
X44606Y27694D1*
X44424Y27876D2*
X44095Y27438D1*
X46713Y22759D2*
X46786Y22832D1*
X46895Y22868D1*
X47041D1*
X47151Y22832D1*
X47224Y22759D1*
Y22686D1*
X47187Y22613D1*
X47151Y22577D1*
X47078Y22541D1*
X46859Y22467D1*
X46786Y22431D1*
X46750Y22394D1*
X46713Y22322D1*
Y22212D1*
X46786Y22140D1*
X46895Y22103D1*
X47041D1*
X47151Y22140D1*
X47224Y22212D1*
X46478Y22868D2*
Y22103D1*
X46223D1*
X46113Y22140D1*
X46040Y22212D1*
X46004Y22285D1*
X45968Y22394D1*
Y22577D1*
X46004Y22686D1*
X46040Y22759D1*
X46113Y22832D1*
X46223Y22868D1*
X46478D1*
X45732D2*
Y22103D1*
X49780Y22776D2*
X49706Y22813D1*
X49597Y22921D1*
Y22156D1*
X49325Y22739D2*
Y22776D1*
X49288Y22849D1*
X49252Y22885D1*
X49179Y22921D1*
X49033D1*
X48961Y22885D1*
X48925Y22849D1*
X48887Y22776D1*
Y22703D1*
X48925Y22630D1*
X48997Y22521D1*
X49362Y22156D1*
X48851D1*
X48616Y22667D2*
X48397Y22156D1*
X48179Y22667D1*
X50332Y28313D2*
X50696D1*
X50732Y27985D1*
X50696Y28021D1*
X50587Y28058D1*
X50478D1*
X50368Y28021D1*
X50295Y27949D1*
X50259Y27839D1*
Y27767D1*
X50295Y27657D1*
X50368Y27584D1*
X50478Y27548D1*
X50587D1*
X50696Y27584D1*
X50732Y27621D1*
X50769Y27694D1*
X50024Y28058D2*
X49805Y27548D1*
X49586Y28058D1*
X26665Y49590D2*
X26628Y49517D1*
X26519Y49408D1*
X27284D1*
Y48589D2*
X26518Y48881D1*
X27284Y49172D1*
X27029Y49063D2*
Y48698D1*
X28766Y49418D2*
X28729Y49344D1*
X28620Y49235D1*
X29385D1*
X28619Y49000D2*
X29385D1*
Y48671D1*
X29348Y48562D1*
X29312Y48525D1*
X29239Y48489D1*
X29130D1*
X29056Y48525D1*
X29020Y48562D1*
X28984Y48671D1*
X28947Y48562D1*
X28911Y48525D1*
X28838Y48489D1*
X28765D1*
X28693Y48525D1*
X28655Y48562D1*
X28619Y48671D1*
Y49000D1*
X28984D2*
Y48671D1*
X32964Y51090D2*
X32927Y51017D1*
X32818Y50907D1*
X33583D1*
X32818Y50672D2*
X33182Y50380D1*
X33583D1*
X32818Y50089D2*
X33182Y50380D1*
X34302Y49882D2*
X34266D1*
X34192Y49846D1*
X34156Y49810D1*
X34120Y49736D1*
Y49591D1*
X34156Y49518D1*
X34192Y49482D1*
X34266Y49445D1*
X34338D1*
X34411Y49482D1*
X34520Y49554D1*
X34885Y49919D1*
Y49409D1*
Y48590D2*
X34119Y48882D1*
X34885Y49173D1*
X34629Y49064D2*
Y48699D1*
X36401Y49707D2*
X36365D1*
X36291Y49671D1*
X36255Y49635D1*
X36219Y49562D1*
Y49416D1*
X36255Y49344D1*
X36291Y49307D1*
X36365Y49270D1*
X36437D1*
X36510Y49307D1*
X36619Y49380D1*
X36984Y49745D1*
Y49234D1*
X36218Y48999D2*
X36984D1*
Y48670D1*
X36947Y48561D1*
X36911Y48525D1*
X36838Y48488D1*
X36729D1*
X36655Y48525D1*
X36619Y48561D1*
X36583Y48670D1*
X36546Y48561D1*
X36510Y48525D1*
X36437Y48488D1*
X36364D1*
X36291Y48525D1*
X36254Y48561D1*
X36218Y48670D1*
Y48999D1*
X36583D2*
Y48670D1*
X40601Y51280D2*
X40565D1*
X40492Y51244D1*
X40456Y51208D1*
X40419Y51134D1*
Y50989D1*
X40456Y50916D1*
X40492Y50880D1*
X40565Y50843D1*
X40637D1*
X40711Y50880D1*
X40819Y50952D1*
X41184Y51317D1*
Y50807D1*
X40418Y50571D2*
X40783Y50280D1*
X41184D1*
X40418Y49989D2*
X40783Y50280D1*
X42700Y50080D2*
X42627Y50116D1*
X42554Y50190D1*
X42518Y50262D1*
Y50408D1*
X42554Y50481D1*
X42627Y50554D1*
X42700Y50591D1*
X42809Y50627D1*
X42992D1*
X43100Y50591D1*
X43174Y50554D1*
X43246Y50481D1*
X43283Y50408D1*
Y50262D1*
X43246Y50190D1*
X43174Y50116D1*
X43100Y50080D1*
X42992D1*
Y50262D1*
X42518Y49334D2*
X43283D1*
X42518Y49845D1*
X43283D1*
X42518Y49099D2*
X43283D1*
Y48844D1*
X43246Y48734D1*
X43174Y48661D1*
X43100Y48625D1*
X42992Y48589D1*
X42809D1*
X42700Y48625D1*
X42627Y48661D1*
X42554Y48734D1*
X42518Y48844D1*
Y49099D1*
X27219Y53834D2*
Y54198D1*
X27546Y54234D1*
X27510Y54198D1*
X27473Y54089D1*
Y53980D1*
X27510Y53870D1*
X27583Y53797D1*
X27692Y53761D1*
X27765D1*
X27874Y53797D1*
X27947Y53870D1*
X27984Y53980D1*
Y54089D1*
X27947Y54198D1*
X27910Y54234D1*
X27838Y54271D1*
X27473Y53526D2*
X27984Y53307D1*
X27473Y53088D1*
X29885Y54016D2*
X29120D1*
X29629Y54381D1*
Y53834D1*
X29119Y53599D2*
X29885D1*
Y53270D1*
X29848Y53161D1*
X29811Y53125D1*
X29739Y53088D1*
X29629D1*
X29556Y53125D1*
X29520Y53161D1*
X29484Y53270D1*
X29447Y53161D1*
X29410Y53125D1*
X29338Y53088D1*
X29265D1*
X29192Y53125D1*
X29155Y53161D1*
X29119Y53270D1*
Y53599D1*
X29484D2*
Y53270D1*
X31784Y54089D2*
X31019D1*
X31529Y54454D1*
Y53907D1*
X31784Y53088D2*
X31018Y53381D1*
X31784Y53672D1*
X31529Y53563D2*
Y53198D1*
X35784Y52588D2*
X35019D1*
X35529Y52953D1*
Y52406D1*
X35019Y52171D2*
X35383Y51880D1*
X35784D1*
X35019Y51588D2*
X35383Y51880D1*
X36719Y54171D2*
Y53771D1*
X37010Y53989D1*
Y53880D1*
X37046Y53807D1*
X37083Y53771D1*
X37192Y53734D1*
X37265D1*
X37374Y53771D1*
X37447Y53843D1*
X37484Y53953D1*
Y54062D1*
X37447Y54171D1*
X37410Y54207D1*
X37338Y54244D1*
X36718Y53499D2*
X37484D1*
Y53170D1*
X37447Y53061D1*
X37410Y53024D1*
X37338Y52988D1*
X37228D1*
X37155Y53024D1*
X37119Y53061D1*
X37083Y53170D1*
X37046Y53061D1*
X37009Y53024D1*
X36937Y52988D1*
X36864D1*
X36791Y53024D1*
X36754Y53061D1*
X36718Y53170D1*
Y53499D1*
X37083D2*
Y53170D1*
X38620Y54245D2*
Y53845D1*
X38911Y54063D1*
Y53954D1*
X38948Y53881D1*
X38984Y53845D1*
X39093Y53808D1*
X39166D1*
X39275Y53845D1*
X39349Y53918D1*
X39385Y54027D1*
Y54137D1*
X39349Y54245D1*
X39312Y54281D1*
X39239Y54319D1*
X39385Y52989D2*
X38619Y53281D1*
X39385Y53573D1*
X39130Y53463D2*
Y53099D1*
X42818Y52744D2*
Y52344D1*
X43110Y52562D1*
Y52453D1*
X43146Y52380D1*
X43182Y52344D1*
X43292Y52307D1*
X43364D1*
X43474Y52344D1*
X43547Y52416D1*
X43583Y52526D1*
Y52635D1*
X43547Y52744D1*
X43510Y52780D1*
X43437Y52817D1*
X42817Y52072D2*
X43182Y51780D1*
X43583D1*
X42817Y51489D2*
X43182Y51780D1*
M02*
