G04 DipTrace 2.4.0.1*
%INBottomSilk.gbr*%
%MOMM*%
%ADD75C,0.118*%
%ADD76C,0.157*%
%ADD77C,0.235*%
%FSLAX53Y53*%
G04*
G71*
G90*
G75*
G01*
%LNBotSilk*%
%LPD*%
X40439Y41960D2*
D77*
X39784D1*
X39565Y42034D1*
X39491Y42106D1*
X39418Y42251D1*
Y42398D1*
X39491Y42543D1*
X39565Y42617D1*
X39784Y42689D1*
X40439D1*
Y41158D1*
X39929Y41960D2*
X39418Y41158D1*
X38074Y42179D2*
Y41158D1*
Y41960D2*
X38218Y42106D1*
X38365Y42179D1*
X38582D1*
X38729Y42106D1*
X38874Y41960D1*
X38948Y41741D1*
Y41596D1*
X38874Y41377D1*
X38729Y41232D1*
X38582Y41158D1*
X38365D1*
X38218Y41232D1*
X38074Y41377D1*
X36801Y41960D2*
X36874Y42106D1*
X37093Y42179D1*
X37312D1*
X37531Y42106D1*
X37603Y41960D1*
X37531Y41815D1*
X37384Y41741D1*
X37020Y41668D1*
X36874Y41596D1*
X36801Y41449D1*
Y41377D1*
X36874Y41232D1*
X37093Y41158D1*
X37312D1*
X37531Y41232D1*
X37603Y41377D1*
X36331Y42179D2*
Y40647D1*
Y41960D2*
X36184Y42105D1*
X36039Y42179D1*
X35820D1*
X35674Y42105D1*
X35529Y41960D1*
X35455Y41741D1*
Y41594D1*
X35529Y41377D1*
X35674Y41230D1*
X35820Y41158D1*
X36039D1*
X36184Y41230D1*
X36331Y41377D1*
X34984Y42689D2*
Y41158D1*
Y41960D2*
X34837Y42106D1*
X34693Y42179D1*
X34474D1*
X34329Y42106D1*
X34182Y41960D1*
X34110Y41741D1*
Y41596D1*
X34182Y41377D1*
X34329Y41232D1*
X34474Y41158D1*
X34693D1*
X34837Y41232D1*
X34984Y41377D1*
X33639Y41741D2*
X32765D1*
Y41887D1*
X32837Y42034D1*
X32910Y42106D1*
X33056Y42179D1*
X33275D1*
X33420Y42106D1*
X33567Y41960D1*
X33639Y41741D1*
Y41596D1*
X33567Y41377D1*
X33420Y41232D1*
X33275Y41158D1*
X33056D1*
X32910Y41232D1*
X32765Y41377D1*
X32294Y42179D2*
Y41158D1*
Y41741D2*
X32220Y41960D1*
X32075Y42106D1*
X31929Y42179D1*
X31710D1*
X31239D2*
Y41158D1*
Y41741D2*
X31165Y41960D1*
X31020Y42106D1*
X30873Y42179D1*
X30654D1*
X30110D2*
X29673Y41158D1*
X29818Y40866D1*
X29965Y40720D1*
X30110Y40647D1*
X30184D1*
X29235Y42179D2*
X29673Y41158D1*
X27283Y41887D2*
X26626D1*
X26409Y41960D1*
X26335Y42034D1*
X26263Y42179D1*
Y42398D1*
X26335Y42543D1*
X26409Y42617D1*
X26626Y42689D1*
X27283D1*
Y41158D1*
X25792Y42689D2*
X25720Y42617D1*
X25645Y42689D1*
X25720Y42763D1*
X25792Y42689D1*
X25720Y42179D2*
Y41158D1*
X23474Y42689D2*
Y41449D1*
X23402Y41232D1*
X23255Y41158D1*
X23111D1*
X23693Y42179D2*
X23183D1*
X22276D2*
X22421Y42106D1*
X22568Y41960D1*
X22640Y41741D1*
Y41596D1*
X22568Y41377D1*
X22421Y41232D1*
X22276Y41158D1*
X22057D1*
X21911Y41232D1*
X21766Y41377D1*
X21692Y41596D1*
Y41741D1*
X21766Y41960D1*
X21911Y42106D1*
X22057Y42179D1*
X22276D1*
X39469Y39710D2*
X39614Y39857D1*
X39833Y39929D1*
X40124D1*
X40343Y39857D1*
X40490Y39710D1*
Y39565D1*
X40416Y39419D1*
X40343Y39346D1*
X40198Y39274D1*
X39760Y39127D1*
X39614Y39055D1*
X39541Y38981D1*
X39469Y38836D1*
Y38617D1*
X39614Y38472D1*
X39833Y38398D1*
X40124D1*
X40343Y38472D1*
X40490Y38617D1*
X38998Y38981D2*
X38124D1*
Y39127D1*
X38196Y39274D1*
X38269Y39346D1*
X38415Y39419D1*
X38634D1*
X38779Y39346D1*
X38926Y39200D1*
X38998Y38981D1*
Y38836D1*
X38926Y38617D1*
X38779Y38472D1*
X38634Y38398D1*
X38415D1*
X38269Y38472D1*
X38124Y38617D1*
X37653Y39419D2*
Y38398D1*
Y38981D2*
X37579Y39200D1*
X37434Y39346D1*
X37288Y39419D1*
X37069D1*
X36598Y39929D2*
X36526Y39857D1*
X36452Y39929D1*
X36526Y40003D1*
X36598Y39929D1*
X36526Y39419D2*
Y38398D1*
X35107Y39419D2*
Y38398D1*
Y39200D2*
X35252Y39346D1*
X35398Y39419D1*
X35616D1*
X35762Y39346D1*
X35907Y39200D1*
X35981Y38981D1*
Y38836D1*
X35907Y38617D1*
X35762Y38472D1*
X35616Y38398D1*
X35398D1*
X35252Y38472D1*
X35107Y38617D1*
X34636Y39929D2*
Y38398D1*
X32684Y39127D2*
X32027D1*
X31810Y39200D1*
X31736Y39274D1*
X31663Y39419D1*
Y39638D1*
X31736Y39783D1*
X31810Y39857D1*
X32027Y39929D1*
X32684D1*
Y38398D1*
X31193Y38981D2*
X30318D1*
Y39127D1*
X30391Y39274D1*
X30463Y39346D1*
X30610Y39419D1*
X30829D1*
X30974Y39346D1*
X31120Y39200D1*
X31193Y38981D1*
Y38836D1*
X31120Y38617D1*
X30974Y38472D1*
X30829Y38398D1*
X30610D1*
X30463Y38472D1*
X30318Y38617D1*
X29848Y39419D2*
Y38398D1*
Y38981D2*
X29774Y39200D1*
X29629Y39346D1*
X29482Y39419D1*
X29263D1*
X28793Y39929D2*
X28720Y39857D1*
X28646Y39929D1*
X28720Y40003D1*
X28793Y39929D1*
X28720Y39419D2*
Y38398D1*
X28176Y39419D2*
Y37887D1*
Y39200D2*
X28029Y39345D1*
X27884Y39419D1*
X27665D1*
X27519Y39345D1*
X27374Y39200D1*
X27300Y38981D1*
Y38834D1*
X27374Y38617D1*
X27519Y38470D1*
X27665Y38398D1*
X27884D1*
X28029Y38470D1*
X28176Y38617D1*
X26829Y39929D2*
Y38398D1*
Y39127D2*
X26610Y39346D1*
X26463Y39419D1*
X26244D1*
X26100Y39346D1*
X26027Y39127D1*
Y38398D1*
X25557Y38981D2*
X24682D1*
Y39127D1*
X24755Y39274D1*
X24827Y39346D1*
X24974Y39419D1*
X25193D1*
X25338Y39346D1*
X25484Y39200D1*
X25557Y38981D1*
Y38836D1*
X25484Y38617D1*
X25338Y38472D1*
X25193Y38398D1*
X24974D1*
X24827Y38472D1*
X24682Y38617D1*
X24212Y39419D2*
Y38398D1*
Y38981D2*
X24138Y39200D1*
X23993Y39346D1*
X23846Y39419D1*
X23627D1*
X22282D2*
Y38398D1*
Y39200D2*
X22427Y39346D1*
X22574Y39419D1*
X22791D1*
X22937Y39346D1*
X23082Y39200D1*
X23156Y38981D1*
Y38836D1*
X23082Y38617D1*
X22937Y38472D1*
X22791Y38398D1*
X22574D1*
X22427Y38472D1*
X22282Y38617D1*
X21812Y39929D2*
Y38398D1*
X40354Y36989D2*
Y35458D1*
X39884Y36479D2*
Y35458D1*
Y36187D2*
X39665Y36406D1*
X39518Y36479D1*
X39301D1*
X39154Y36406D1*
X39082Y36187D1*
Y35458D1*
X38392Y36989D2*
Y35749D1*
X38320Y35532D1*
X38173Y35458D1*
X38028D1*
X38611Y36479D2*
X38101D1*
X37558Y36041D2*
X36684D1*
Y36187D1*
X36756Y36334D1*
X36828Y36406D1*
X36975Y36479D1*
X37194D1*
X37339Y36406D1*
X37485Y36260D1*
X37558Y36041D1*
Y35896D1*
X37485Y35677D1*
X37339Y35532D1*
X37194Y35458D1*
X36975D1*
X36828Y35532D1*
X36684Y35677D1*
X36213Y36479D2*
Y35458D1*
Y36041D2*
X36139Y36260D1*
X35994Y36406D1*
X35847Y36479D1*
X35628D1*
X34575Y36989D2*
X34720D1*
X34866Y36917D1*
X34939Y36698D1*
Y35458D1*
X35158Y36479D2*
X34647D1*
X33230D2*
Y35458D1*
Y36260D2*
X33375Y36406D1*
X33521Y36479D1*
X33739D1*
X33885Y36406D1*
X34030Y36260D1*
X34104Y36041D1*
Y35896D1*
X34030Y35677D1*
X33885Y35532D1*
X33739Y35458D1*
X33521D1*
X33375Y35532D1*
X33230Y35677D1*
X31883Y36260D2*
X32030Y36406D1*
X32177Y36479D1*
X32394D1*
X32540Y36406D1*
X32685Y36260D1*
X32759Y36041D1*
Y35896D1*
X32685Y35677D1*
X32540Y35532D1*
X32394Y35458D1*
X32177D1*
X32030Y35532D1*
X31883Y35677D1*
X31413Y36041D2*
X30539D1*
Y36187D1*
X30611Y36334D1*
X30683Y36406D1*
X30830Y36479D1*
X31049D1*
X31194Y36406D1*
X31340Y36260D1*
X31413Y36041D1*
Y35896D1*
X31340Y35677D1*
X31194Y35532D1*
X31049Y35458D1*
X30830D1*
X30683Y35532D1*
X30539Y35677D1*
X28076Y37388D2*
X28223Y37244D1*
X28368Y37025D1*
X28514Y36733D1*
X28587Y36368D1*
Y36076D1*
X28514Y35712D1*
X28368Y35421D1*
X28223Y35202D1*
X28076Y35057D1*
X26585Y36770D2*
X26730Y36917D1*
X26949Y36989D1*
X27240D1*
X27459Y36917D1*
X27606Y36770D1*
Y36625D1*
X27531Y36479D1*
X27459Y36406D1*
X27314Y36334D1*
X26876Y36187D1*
X26730Y36115D1*
X26657Y36041D1*
X26585Y35896D1*
Y35677D1*
X26730Y35532D1*
X26949Y35458D1*
X27240D1*
X27459Y35532D1*
X27606Y35677D1*
X26114Y36187D2*
X25457D1*
X25240Y36260D1*
X25166Y36334D1*
X25093Y36479D1*
Y36698D1*
X25166Y36843D1*
X25240Y36917D1*
X25457Y36989D1*
X26114D1*
Y35458D1*
X24623Y36989D2*
Y35458D1*
X24152Y37388D2*
X24005Y37244D1*
X23861Y37025D1*
X23714Y36733D1*
X23642Y36368D1*
Y36076D1*
X23714Y35712D1*
X23861Y35421D1*
X24005Y35202D1*
X24152Y35057D1*
X40345Y33929D2*
Y32398D1*
X39688D1*
X39469Y32472D1*
X39396Y32544D1*
X39324Y32689D1*
Y32908D1*
X39396Y33055D1*
X39469Y33127D1*
X39688Y33200D1*
X39469Y33274D1*
X39396Y33346D1*
X39324Y33491D1*
Y33638D1*
X39396Y33783D1*
X39469Y33857D1*
X39688Y33929D1*
X40345D1*
Y33200D2*
X39688D1*
X38853Y33419D2*
Y32398D1*
Y32981D2*
X38779Y33200D1*
X38634Y33346D1*
X38488Y33419D1*
X38269D1*
X37798Y33929D2*
X37726Y33857D1*
X37652Y33929D1*
X37726Y34003D1*
X37798Y33929D1*
X37726Y33419D2*
Y32398D1*
X36307Y33929D2*
Y32398D1*
Y33200D2*
X36452Y33346D1*
X36598Y33419D1*
X36817D1*
X36962Y33346D1*
X37109Y33200D1*
X37181Y32981D1*
Y32836D1*
X37109Y32617D1*
X36962Y32472D1*
X36817Y32398D1*
X36598D1*
X36452Y32472D1*
X36307Y32617D1*
X34962Y33346D2*
Y32179D1*
X35034Y31962D1*
X35107Y31887D1*
X35253Y31815D1*
X35472D1*
X35617Y31887D1*
X34962Y33127D2*
X35107Y33272D1*
X35253Y33346D1*
X35472D1*
X35617Y33272D1*
X35764Y33127D1*
X35836Y32908D1*
Y32762D1*
X35764Y32544D1*
X35617Y32398D1*
X35472Y32325D1*
X35253D1*
X35107Y32398D1*
X34962Y32544D1*
X34491Y32981D2*
X33617D1*
Y33127D1*
X33689Y33274D1*
X33762Y33346D1*
X33908Y33419D1*
X34127D1*
X34272Y33346D1*
X34419Y33200D1*
X34491Y32981D1*
Y32836D1*
X34419Y32617D1*
X34272Y32472D1*
X34127Y32398D1*
X33908D1*
X33762Y32472D1*
X33617Y32617D1*
X31665Y33200D2*
X31010D1*
X30791Y33274D1*
X30717Y33346D1*
X30644Y33491D1*
Y33638D1*
X30717Y33783D1*
X30791Y33857D1*
X31010Y33929D1*
X31665D1*
Y32398D1*
X31155Y33200D2*
X30644Y32398D1*
X30174Y32981D2*
X29299D1*
Y33127D1*
X29372Y33274D1*
X29444Y33346D1*
X29591Y33419D1*
X29810D1*
X29955Y33346D1*
X30101Y33200D1*
X30174Y32981D1*
Y32836D1*
X30101Y32617D1*
X29955Y32472D1*
X29810Y32398D1*
X29591D1*
X29444Y32472D1*
X29299Y32617D1*
X28829Y33419D2*
X28391Y32398D1*
X27954Y33419D1*
X26002Y33929D2*
Y32398D1*
X25345D1*
X25126Y32472D1*
X25054Y32544D1*
X24982Y32689D1*
Y32908D1*
X25054Y33055D1*
X25126Y33127D1*
X25345Y33200D1*
X25126Y33274D1*
X25054Y33346D1*
X24982Y33491D1*
Y33638D1*
X25054Y33783D1*
X25126Y33857D1*
X25345Y33929D1*
X26002D1*
Y33200D2*
X25345D1*
X67235Y59071D2*
D76*
Y58051D1*
Y58537D2*
X67089Y58683D1*
X66991Y58731D1*
X66845D1*
X66749Y58683D1*
X66700Y58537D1*
Y58051D1*
X66241Y59071D2*
Y58245D1*
X66192Y58100D1*
X66095Y58051D1*
X65998D1*
X66387Y58731D2*
X66046D1*
X65538Y59071D2*
Y58245D1*
X65490Y58100D1*
X65392Y58051D1*
X65296D1*
X65684Y58731D2*
X65344D1*
X64982D2*
Y57710D1*
Y58585D2*
X64884Y58682D1*
X64788Y58731D1*
X64642D1*
X64544Y58682D1*
X64447Y58585D1*
X64398Y58439D1*
Y58341D1*
X64447Y58197D1*
X64544Y58099D1*
X64642Y58051D1*
X64788D1*
X64884Y58099D1*
X64982Y58197D1*
X64035Y58731D2*
X64084Y58682D1*
X64035Y58633D1*
X63987Y58682D1*
X64035Y58731D1*
Y58148D2*
X64084Y58099D1*
X64035Y58051D1*
X63987Y58099D1*
X64035Y58148D1*
X63673Y58051D2*
X62992Y59070D1*
X62678Y58051D2*
X61998Y59070D1*
X61101Y58683D2*
Y57905D1*
X61150Y57760D1*
X61198Y57710D1*
X61296Y57662D1*
X61442D1*
X61538Y57710D1*
X61101Y58537D2*
X61198Y58633D1*
X61296Y58683D1*
X61442D1*
X61538Y58633D1*
X61636Y58537D1*
X61684Y58391D1*
Y58293D1*
X61636Y58148D1*
X61538Y58051D1*
X61442Y58002D1*
X61296D1*
X61198Y58051D1*
X61101Y58148D1*
X60788Y59071D2*
X60739Y59023D1*
X60690Y59071D1*
X60739Y59121D1*
X60788Y59071D1*
X60739Y58731D2*
Y58051D1*
X60230Y59071D2*
Y58245D1*
X60182Y58100D1*
X60084Y58051D1*
X59988D1*
X60376Y58731D2*
X60036D1*
X59674Y59071D2*
Y58051D1*
Y58537D2*
X59528Y58683D1*
X59430Y58731D1*
X59284D1*
X59188Y58683D1*
X59139Y58537D1*
Y58051D1*
X58826Y58731D2*
Y58245D1*
X58777Y58100D1*
X58680Y58051D1*
X58534D1*
X58437Y58100D1*
X58291Y58245D1*
Y58731D2*
Y58051D1*
X57977Y59071D2*
Y58051D1*
Y58585D2*
X57879Y58683D1*
X57783Y58731D1*
X57637D1*
X57540Y58683D1*
X57443Y58585D1*
X57394Y58439D1*
Y58343D1*
X57443Y58197D1*
X57540Y58100D1*
X57637Y58051D1*
X57783D1*
X57879Y58100D1*
X57977Y58197D1*
X57032Y58148D2*
X57081Y58099D1*
X57032Y58051D1*
X56983Y58099D1*
X57032Y58148D1*
X56085Y58585D2*
X56183Y58683D1*
X56281Y58731D1*
X56425D1*
X56523Y58683D1*
X56620Y58585D1*
X56669Y58439D1*
Y58343D1*
X56620Y58197D1*
X56523Y58100D1*
X56425Y58051D1*
X56281D1*
X56183Y58100D1*
X56085Y58197D1*
X55529Y58731D2*
X55625Y58683D1*
X55723Y58585D1*
X55771Y58439D1*
Y58343D1*
X55723Y58197D1*
X55625Y58100D1*
X55529Y58051D1*
X55383D1*
X55285Y58100D1*
X55189Y58197D1*
X55139Y58343D1*
Y58439D1*
X55189Y58585D1*
X55285Y58683D1*
X55383Y58731D1*
X55529D1*
X54825D2*
Y58051D1*
Y58537D2*
X54679Y58683D1*
X54582Y58731D1*
X54437D1*
X54339Y58683D1*
X54291Y58537D1*
Y58051D1*
Y58537D2*
X54145Y58683D1*
X54047Y58731D1*
X53902D1*
X53805Y58683D1*
X53755Y58537D1*
Y58051D1*
X53441D2*
X52761Y59070D1*
X51864Y58683D2*
Y57905D1*
X51913Y57760D1*
X51961Y57710D1*
X52059Y57662D1*
X52205D1*
X52301Y57710D1*
X51864Y58537D2*
X51961Y58633D1*
X52059Y58683D1*
X52205D1*
X52301Y58633D1*
X52399Y58537D1*
X52447Y58391D1*
Y58293D1*
X52399Y58148D1*
X52301Y58051D1*
X52205Y58002D1*
X52059D1*
X51961Y58051D1*
X51864Y58148D1*
X51550Y58731D2*
Y58051D1*
Y58439D2*
X51501Y58585D1*
X51404Y58683D1*
X51307Y58731D1*
X51161D1*
X50264D2*
Y58051D1*
Y58585D2*
X50361Y58683D1*
X50458Y58731D1*
X50603D1*
X50701Y58683D1*
X50798Y58585D1*
X50847Y58439D1*
Y58343D1*
X50798Y58197D1*
X50701Y58100D1*
X50603Y58051D1*
X50458D1*
X50361Y58100D1*
X50264Y58197D1*
X49950Y59071D2*
Y58051D1*
Y58537D2*
X49804Y58683D1*
X49707Y58731D1*
X49561D1*
X49464Y58683D1*
X49416Y58537D1*
Y58051D1*
X48519Y58731D2*
Y58051D1*
Y58585D2*
X48616Y58683D1*
X48714Y58731D1*
X48858D1*
X48956Y58683D1*
X49053Y58585D1*
X49102Y58439D1*
Y58343D1*
X49053Y58197D1*
X48956Y58100D1*
X48858Y58051D1*
X48714D1*
X48616Y58100D1*
X48519Y58197D1*
X48206Y58731D2*
Y58051D1*
Y58537D2*
X48060Y58683D1*
X47962Y58731D1*
X47817D1*
X47719Y58683D1*
X47671Y58537D1*
Y58051D1*
Y58537D2*
X47525Y58683D1*
X47427Y58731D1*
X47282D1*
X47185Y58683D1*
X47135Y58537D1*
Y58051D1*
X46822Y58560D2*
X46260D1*
X45946Y59071D2*
Y58051D1*
Y58585D2*
X45849Y58683D1*
X45752Y58731D1*
X45606D1*
X45509Y58683D1*
X45412Y58585D1*
X45363Y58439D1*
Y58343D1*
X45412Y58197D1*
X45509Y58100D1*
X45606Y58051D1*
X45752D1*
X45849Y58100D1*
X45946Y58197D1*
X45050Y58439D2*
X44467D1*
Y58537D1*
X44515Y58635D1*
X44563Y58683D1*
X44661Y58731D1*
X44807D1*
X44904Y58683D1*
X45001Y58585D1*
X45050Y58439D1*
Y58343D1*
X45001Y58197D1*
X44904Y58100D1*
X44807Y58051D1*
X44661D1*
X44563Y58100D1*
X44467Y58197D1*
X43618Y58585D2*
X43667Y58683D1*
X43813Y58731D1*
X43959D1*
X44105Y58683D1*
X44153Y58585D1*
X44105Y58489D1*
X44007Y58439D1*
X43764Y58391D1*
X43667Y58343D1*
X43618Y58245D1*
Y58197D1*
X43667Y58100D1*
X43813Y58051D1*
X43959D1*
X44105Y58100D1*
X44153Y58197D1*
X43159Y59071D2*
Y58245D1*
X43110Y58100D1*
X43013Y58051D1*
X42916D1*
X43305Y58731D2*
X42964D1*
X42602Y58051D2*
X41922Y59070D1*
X41608Y58585D2*
X41171D1*
X41025Y58635D1*
X40976Y58683D1*
X40928Y58779D1*
Y58877D1*
X40976Y58974D1*
X41025Y59023D1*
X41171Y59071D1*
X41608D1*
Y58051D1*
X41268Y58585D2*
X40928Y58051D1*
X40031Y58731D2*
Y58051D1*
Y58585D2*
X40128Y58683D1*
X40225Y58731D1*
X40370D1*
X40468Y58683D1*
X40564Y58585D1*
X40614Y58439D1*
Y58343D1*
X40564Y58197D1*
X40468Y58100D1*
X40370Y58051D1*
X40225D1*
X40128Y58100D1*
X40031Y58197D1*
X39183Y58585D2*
X39231Y58683D1*
X39377Y58731D1*
X39523D1*
X39669Y58683D1*
X39717Y58585D1*
X39669Y58489D1*
X39571Y58439D1*
X39329Y58391D1*
X39231Y58343D1*
X39183Y58245D1*
Y58197D1*
X39231Y58100D1*
X39377Y58051D1*
X39523D1*
X39669Y58100D1*
X39717Y58197D1*
X38869Y58731D2*
Y57710D1*
Y58585D2*
X38771Y58682D1*
X38675Y58731D1*
X38529D1*
X38431Y58682D1*
X38334Y58585D1*
X38285Y58439D1*
Y58341D1*
X38334Y58197D1*
X38431Y58099D1*
X38529Y58051D1*
X38675D1*
X38771Y58099D1*
X38869Y58197D1*
X37971Y59071D2*
Y58051D1*
Y58585D2*
X37873Y58683D1*
X37777Y58731D1*
X37631D1*
X37534Y58683D1*
X37437Y58585D1*
X37388Y58439D1*
Y58343D1*
X37437Y58197D1*
X37534Y58100D1*
X37631Y58051D1*
X37777D1*
X37873Y58100D1*
X37971Y58197D1*
X37075Y58439D2*
X36492D1*
Y58537D1*
X36540Y58635D1*
X36588Y58683D1*
X36686Y58731D1*
X36832D1*
X36929Y58683D1*
X37026Y58585D1*
X37075Y58439D1*
Y58343D1*
X37026Y58197D1*
X36929Y58100D1*
X36832Y58051D1*
X36686D1*
X36588Y58100D1*
X36492Y58197D1*
X36178Y58731D2*
Y58051D1*
Y58439D2*
X36129Y58585D1*
X36032Y58683D1*
X35934Y58731D1*
X35788D1*
X35475D2*
Y58051D1*
Y58439D2*
X35425Y58585D1*
X35329Y58683D1*
X35231Y58731D1*
X35085D1*
X34722D2*
X34431Y58051D1*
X34527Y57856D1*
X34625Y57759D1*
X34722Y57710D1*
X34771D1*
X34139Y58731D2*
X34431Y58051D1*
X33825Y58560D2*
X33264D1*
X32950Y58537D2*
X32512D1*
X32367Y58585D1*
X32318Y58635D1*
X32269Y58731D1*
Y58877D1*
X32318Y58974D1*
X32367Y59023D1*
X32512Y59071D1*
X32950D1*
Y58051D1*
X31956Y59071D2*
X31907Y59023D1*
X31858Y59071D1*
X31907Y59121D1*
X31956Y59071D1*
X31907Y58731D2*
Y58051D1*
X31544Y58560D2*
X30983D1*
X30523Y59071D2*
Y58245D1*
X30475Y58100D1*
X30377Y58051D1*
X30280D1*
X30669Y58731D2*
X30329D1*
X29724D2*
X29821Y58683D1*
X29918Y58585D1*
X29967Y58439D1*
Y58343D1*
X29918Y58197D1*
X29821Y58100D1*
X29724Y58051D1*
X29578D1*
X29480Y58100D1*
X29384Y58197D1*
X29334Y58343D1*
Y58439D1*
X29384Y58585D1*
X29480Y58683D1*
X29578Y58731D1*
X29724D1*
X29020Y58560D2*
X28459D1*
X27465Y58925D2*
X27561Y59023D1*
X27707Y59071D1*
X27902D1*
X28048Y59023D1*
X28145Y58925D1*
Y58829D1*
X28096Y58731D1*
X28048Y58683D1*
X27951Y58635D1*
X27659Y58537D1*
X27561Y58489D1*
X27513Y58439D1*
X27465Y58343D1*
Y58197D1*
X27561Y58100D1*
X27707Y58051D1*
X27902D1*
X28048Y58100D1*
X28145Y58197D1*
X27151Y58537D2*
X26713D1*
X26568Y58585D1*
X26519Y58635D1*
X26470Y58731D1*
Y58877D1*
X26519Y58974D1*
X26568Y59023D1*
X26713Y59071D1*
X27151D1*
Y58051D1*
X26157Y59071D2*
Y58051D1*
X25843Y58560D2*
X25281D1*
X24968Y59071D2*
Y58051D1*
X24530D1*
X24384Y58100D1*
X24335Y58148D1*
X24287Y58245D1*
Y58391D1*
X24335Y58489D1*
X24384Y58537D1*
X24530Y58585D1*
X24384Y58635D1*
X24335Y58683D1*
X24287Y58779D1*
Y58877D1*
X24335Y58974D1*
X24384Y59023D1*
X24530Y59071D1*
X24968D1*
Y58585D2*
X24530D1*
X23973Y58731D2*
Y58051D1*
Y58439D2*
X23924Y58585D1*
X23827Y58683D1*
X23730Y58731D1*
X23584D1*
X23270Y59071D2*
X23222Y59023D1*
X23172Y59071D1*
X23222Y59121D1*
X23270Y59071D1*
X23222Y58731D2*
Y58051D1*
X22276Y59071D2*
Y58051D1*
Y58585D2*
X22372Y58683D1*
X22470Y58731D1*
X22616D1*
X22712Y58683D1*
X22810Y58585D1*
X22858Y58439D1*
Y58343D1*
X22810Y58197D1*
X22712Y58100D1*
X22616Y58051D1*
X22470D1*
X22372Y58100D1*
X22276Y58197D1*
X21379Y58683D2*
Y57905D1*
X21427Y57760D1*
X21476Y57710D1*
X21573Y57662D1*
X21719D1*
X21816Y57710D1*
X21379Y58537D2*
X21476Y58633D1*
X21573Y58683D1*
X21719D1*
X21816Y58633D1*
X21914Y58537D1*
X21962Y58391D1*
Y58293D1*
X21914Y58148D1*
X21816Y58051D1*
X21719Y58002D1*
X21573D1*
X21476Y58051D1*
X21379Y58148D1*
X21065Y58439D2*
X20482D1*
Y58537D1*
X20531Y58635D1*
X20579Y58683D1*
X20677Y58731D1*
X20823D1*
X20919Y58683D1*
X21017Y58585D1*
X21065Y58439D1*
Y58343D1*
X21017Y58197D1*
X20919Y58100D1*
X20823Y58051D1*
X20677D1*
X20579Y58100D1*
X20482Y58197D1*
X15143Y53546D2*
D75*
X15179Y53618D1*
X15252Y53691D1*
X15325Y53728D1*
X15470D1*
X15544Y53691D1*
X15616Y53618D1*
X15653Y53546D1*
X15689Y53436D1*
Y53253D1*
X15653Y53145D1*
X15616Y53071D1*
X15544Y52999D1*
X15470Y52962D1*
X15325D1*
X15252Y52999D1*
X15179Y53071D1*
X15143Y53145D1*
X15083Y55532D2*
X15375Y56298D1*
X15666Y55532D1*
X15557Y55787D2*
X15192D1*
X17492Y58918D2*
Y58152D1*
X17055D1*
X16601Y58918D2*
X16674Y58881D1*
X16747Y58808D1*
X16784Y58736D1*
X16820Y58626D1*
Y58443D1*
X16784Y58335D1*
X16747Y58261D1*
X16674Y58189D1*
X16601Y58152D1*
X16455D1*
X16383Y58189D1*
X16309Y58261D1*
X16273Y58335D1*
X16237Y58443D1*
Y58626D1*
X16273Y58736D1*
X16309Y58808D1*
X16383Y58881D1*
X16455Y58918D1*
X16601D1*
X15491D2*
Y58152D1*
X16002Y58918D1*
Y58152D1*
X14709Y58736D2*
X14746Y58808D1*
X14819Y58881D1*
X14891Y58918D1*
X15037D1*
X15110Y58881D1*
X15183Y58808D1*
X15220Y58736D1*
X15256Y58626D1*
Y58443D1*
X15220Y58335D1*
X15183Y58261D1*
X15110Y58189D1*
X15037Y58152D1*
X14891D1*
X14819Y58189D1*
X14746Y58261D1*
X14709Y58335D1*
Y58443D1*
X14891D1*
X13733Y58918D2*
Y58152D1*
X13296D1*
X12588Y58918D2*
X13061D1*
Y58152D1*
X12588D1*
X13061Y58553D2*
X12769D1*
X11768Y58152D2*
X12061Y58918D1*
X12352Y58152D1*
X12243Y58407D2*
X11878D1*
X11533Y58918D2*
Y58152D1*
X11278D1*
X11168Y58189D1*
X11095Y58261D1*
X11059Y58335D1*
X11023Y58443D1*
Y58626D1*
X11059Y58736D1*
X11095Y58808D1*
X11168Y58881D1*
X11278Y58918D1*
X11533D1*
X16841Y57588D2*
Y56822D1*
X17096Y57588D2*
X16586D1*
X16350D2*
Y56822D1*
X15840Y57588D2*
Y56822D1*
X16350Y57223D2*
X15840D1*
X15605Y57588D2*
Y56822D1*
X14859Y57478D2*
X14931Y57551D1*
X15041Y57588D1*
X15187D1*
X15296Y57551D1*
X15369Y57478D1*
Y57406D1*
X15332Y57332D1*
X15296Y57296D1*
X15224Y57260D1*
X15005Y57187D1*
X14931Y57150D1*
X14895Y57113D1*
X14859Y57041D1*
Y56931D1*
X14931Y56859D1*
X15041Y56822D1*
X15187D1*
X15296Y56859D1*
X15369Y56931D1*
X13372Y57478D2*
X13445Y57551D1*
X13554Y57588D1*
X13700D1*
X13810Y57551D1*
X13883Y57478D1*
Y57406D1*
X13846Y57332D1*
X13810Y57296D1*
X13737Y57260D1*
X13518Y57187D1*
X13445Y57150D1*
X13409Y57113D1*
X13372Y57041D1*
Y56931D1*
X13445Y56859D1*
X13554Y56822D1*
X13700D1*
X13810Y56859D1*
X13883Y56931D1*
X13137Y57588D2*
Y56822D1*
X12902Y57588D2*
Y56822D1*
X12647D1*
X12537Y56859D1*
X12464Y56931D1*
X12428Y57005D1*
X12391Y57113D1*
Y57296D1*
X12428Y57406D1*
X12464Y57478D1*
X12537Y57551D1*
X12647Y57588D1*
X12902D1*
X11683D2*
X12156D1*
Y56822D1*
X11683D1*
X12156Y57223D2*
X11865D1*
X64706Y53367D2*
D76*
X64268D1*
X64123Y53415D1*
X64074Y53465D1*
X64026Y53561D1*
Y53707D1*
X64074Y53804D1*
X64123Y53853D1*
X64268Y53901D1*
X64706D1*
Y52881D1*
X63712Y53901D2*
X63664Y53853D1*
X63614Y53901D1*
X63664Y53951D1*
X63712Y53901D1*
X63664Y53561D2*
Y52881D1*
X63300Y53561D2*
Y52881D1*
Y53367D2*
X63154Y53513D1*
X63057Y53561D1*
X62912D1*
X62814Y53513D1*
X62766Y53367D1*
Y52881D1*
X61465Y53706D2*
X61367Y53755D1*
X61221Y53900D1*
Y52881D1*
X59920Y53901D2*
X59871Y53853D1*
X59822Y53901D1*
X59871Y53951D1*
X59920Y53901D1*
X59871Y53561D2*
Y52881D1*
X58974Y53415D2*
X59022Y53513D1*
X59168Y53561D1*
X59314D1*
X59460Y53513D1*
X59508Y53415D1*
X59460Y53319D1*
X59362Y53269D1*
X59120Y53221D1*
X59022Y53173D1*
X58974Y53075D1*
Y53027D1*
X59022Y52930D1*
X59168Y52881D1*
X59314D1*
X59460Y52930D1*
X59508Y53027D1*
X57089Y53901D2*
Y52881D1*
Y53415D2*
X57186Y53513D1*
X57284Y53561D1*
X57430D1*
X57526Y53513D1*
X57624Y53415D1*
X57672Y53269D1*
Y53173D1*
X57624Y53027D1*
X57526Y52930D1*
X57430Y52881D1*
X57284D1*
X57186Y52930D1*
X57089Y53027D1*
X56776Y53269D2*
X56193D1*
Y53367D1*
X56241Y53465D1*
X56289Y53513D1*
X56387Y53561D1*
X56533D1*
X56630Y53513D1*
X56727Y53415D1*
X56776Y53269D1*
Y53173D1*
X56727Y53027D1*
X56630Y52930D1*
X56533Y52881D1*
X56387D1*
X56289Y52930D1*
X56193Y53027D1*
X55879Y53561D2*
Y52881D1*
Y53367D2*
X55733Y53513D1*
X55635Y53561D1*
X55490D1*
X55393Y53513D1*
X55344Y53367D1*
Y52881D1*
X54885Y53901D2*
Y53075D1*
X54836Y52930D1*
X54739Y52881D1*
X54642D1*
X55031Y53561D2*
X54690D1*
X54086D2*
X54182Y53513D1*
X54280Y53415D1*
X54328Y53269D1*
Y53173D1*
X54280Y53027D1*
X54182Y52930D1*
X54086Y52881D1*
X53940D1*
X53842Y52930D1*
X53746Y53027D1*
X53696Y53173D1*
Y53269D1*
X53746Y53415D1*
X53842Y53513D1*
X53940Y53561D1*
X54086D1*
X53382Y53269D2*
X52799D1*
Y53367D1*
X52848Y53465D1*
X52896Y53513D1*
X52994Y53561D1*
X53140D1*
X53236Y53513D1*
X53334Y53415D1*
X53382Y53269D1*
Y53173D1*
X53334Y53027D1*
X53236Y52930D1*
X53140Y52881D1*
X52994D1*
X52896Y52930D1*
X52799Y53027D1*
X51903Y53901D2*
Y52881D1*
Y53415D2*
X51999Y53513D1*
X52097Y53561D1*
X52243D1*
X52340Y53513D1*
X52437Y53415D1*
X52486Y53269D1*
Y53173D1*
X52437Y53027D1*
X52340Y52930D1*
X52243Y52881D1*
X52097D1*
X51999Y52930D1*
X51903Y53027D1*
X50602Y53561D2*
X50407Y52881D1*
X50213Y53561D1*
X50019Y52881D1*
X49824Y53561D1*
X49511Y53901D2*
X49462Y53853D1*
X49413Y53901D1*
X49462Y53951D1*
X49511Y53901D1*
X49462Y53561D2*
Y52881D1*
X48953Y53901D2*
Y53075D1*
X48905Y52930D1*
X48807Y52881D1*
X48711D1*
X49099Y53561D2*
X48759D1*
X48397Y53901D2*
Y52881D1*
Y53367D2*
X48251Y53513D1*
X48153Y53561D1*
X48007D1*
X47911Y53513D1*
X47862Y53367D1*
Y52881D1*
X64161Y52021D2*
Y51341D1*
Y51875D2*
X64258Y51973D1*
X64355Y52021D1*
X64500D1*
X64598Y51973D1*
X64695Y51875D1*
X64744Y51729D1*
Y51633D1*
X64695Y51487D1*
X64598Y51390D1*
X64500Y51341D1*
X64355D1*
X64258Y51390D1*
X64161Y51487D1*
X62860Y52021D2*
Y51341D1*
Y51729D2*
X62810Y51875D1*
X62714Y51973D1*
X62616Y52021D1*
X62470D1*
X62156Y51729D2*
X61574D1*
Y51827D1*
X61622Y51925D1*
X61670Y51973D1*
X61768Y52021D1*
X61914D1*
X62010Y51973D1*
X62108Y51875D1*
X62156Y51729D1*
Y51633D1*
X62108Y51487D1*
X62010Y51390D1*
X61914Y51341D1*
X61768D1*
X61670Y51390D1*
X61574Y51487D1*
X60676Y51875D2*
X60774Y51973D1*
X60871Y52021D1*
X61016D1*
X61114Y51973D1*
X61210Y51875D1*
X61260Y51729D1*
Y51633D1*
X61210Y51487D1*
X61114Y51390D1*
X61016Y51341D1*
X60871D1*
X60774Y51390D1*
X60676Y51487D1*
X60216Y52361D2*
Y51535D1*
X60168Y51390D1*
X60070Y51341D1*
X59974D1*
X60362Y52021D2*
X60022D1*
X59077D2*
Y51341D1*
Y51875D2*
X59174Y51973D1*
X59271Y52021D1*
X59416D1*
X59514Y51973D1*
X59610Y51875D1*
X59660Y51729D1*
Y51633D1*
X59610Y51487D1*
X59514Y51390D1*
X59416Y51341D1*
X59271D1*
X59174Y51390D1*
X59077Y51487D1*
X58763Y52021D2*
Y51341D1*
Y51827D2*
X58617Y51973D1*
X58520Y52021D1*
X58375D1*
X58277Y51973D1*
X58229Y51827D1*
Y51341D1*
X57332Y51973D2*
Y51195D1*
X57380Y51050D1*
X57429Y51000D1*
X57526Y50952D1*
X57672D1*
X57769Y51000D1*
X57332Y51827D2*
X57429Y51923D1*
X57526Y51973D1*
X57672D1*
X57769Y51923D1*
X57867Y51827D1*
X57915Y51681D1*
Y51583D1*
X57867Y51438D1*
X57769Y51341D1*
X57672Y51292D1*
X57526D1*
X57429Y51341D1*
X57332Y51438D1*
X57018Y52021D2*
Y51535D1*
X56970Y51390D1*
X56872Y51341D1*
X56726D1*
X56630Y51390D1*
X56484Y51535D1*
Y52021D2*
Y51341D1*
X56170Y52361D2*
Y51341D1*
X55273Y52021D2*
Y51341D1*
Y51875D2*
X55370Y51973D1*
X55468Y52021D1*
X55613D1*
X55710Y51973D1*
X55807Y51875D1*
X55856Y51729D1*
Y51633D1*
X55807Y51487D1*
X55710Y51390D1*
X55613Y51341D1*
X55468D1*
X55370Y51390D1*
X55273Y51487D1*
X54960Y52021D2*
Y51341D1*
Y51729D2*
X54910Y51875D1*
X54814Y51973D1*
X54716Y52021D1*
X54570D1*
X53269D2*
Y51000D1*
Y51875D2*
X53171Y51972D1*
X53074Y52021D1*
X52928D1*
X52831Y51972D1*
X52734Y51875D1*
X52685Y51729D1*
Y51631D1*
X52734Y51487D1*
X52831Y51389D1*
X52928Y51341D1*
X53074D1*
X53171Y51389D1*
X53269Y51487D1*
X51788Y52021D2*
Y51341D1*
Y51875D2*
X51885Y51973D1*
X51982Y52021D1*
X52127D1*
X52225Y51973D1*
X52322Y51875D1*
X52371Y51729D1*
Y51633D1*
X52322Y51487D1*
X52225Y51390D1*
X52127Y51341D1*
X51982D1*
X51885Y51390D1*
X51788Y51487D1*
X50891Y52361D2*
Y51341D1*
Y51875D2*
X50988Y51973D1*
X51086Y52021D1*
X51232D1*
X51328Y51973D1*
X51426Y51875D1*
X51474Y51729D1*
Y51633D1*
X51426Y51487D1*
X51328Y51390D1*
X51232Y51341D1*
X51086D1*
X50988Y51390D1*
X50891Y51487D1*
X49007Y52021D2*
Y51341D1*
Y51875D2*
X49104Y51973D1*
X49202Y52021D1*
X49346D1*
X49444Y51973D1*
X49541Y51875D1*
X49590Y51729D1*
Y51633D1*
X49541Y51487D1*
X49444Y51390D1*
X49346Y51341D1*
X49202D1*
X49104Y51390D1*
X49007Y51487D1*
X48694Y52021D2*
Y51341D1*
Y51827D2*
X48548Y51973D1*
X48450Y52021D1*
X48305D1*
X48207Y51973D1*
X48159Y51827D1*
Y51341D1*
X47262Y52361D2*
Y51341D1*
Y51875D2*
X47359Y51973D1*
X47457Y52021D1*
X47603D1*
X47699Y51973D1*
X47797Y51875D1*
X47845Y51729D1*
Y51633D1*
X47797Y51487D1*
X47699Y51390D1*
X47603Y51341D1*
X47457D1*
X47359Y51390D1*
X47262Y51487D1*
X64682Y50571D2*
Y49745D1*
X64634Y49600D1*
X64536Y49551D1*
X64440D1*
X64828Y50231D2*
X64488D1*
X64126Y50571D2*
Y49551D1*
Y50037D2*
X63980Y50183D1*
X63882Y50231D1*
X63736D1*
X63640Y50183D1*
X63591Y50037D1*
Y49551D1*
X63278Y49939D2*
X62695D1*
Y50037D1*
X62743Y50135D1*
X62791Y50183D1*
X62889Y50231D1*
X63035D1*
X63132Y50183D1*
X63229Y50085D1*
X63278Y49939D1*
Y49843D1*
X63229Y49697D1*
X63132Y49600D1*
X63035Y49551D1*
X62889D1*
X62791Y49600D1*
X62695Y49697D1*
X61394Y50231D2*
Y49210D1*
Y50085D2*
X61296Y50182D1*
X61199Y50231D1*
X61053D1*
X60956Y50182D1*
X60859Y50085D1*
X60810Y49939D1*
Y49841D1*
X60859Y49697D1*
X60956Y49599D1*
X61053Y49551D1*
X61199D1*
X61296Y49599D1*
X61394Y49697D1*
X59913Y50231D2*
Y49551D1*
Y50085D2*
X60010Y50183D1*
X60107Y50231D1*
X60252D1*
X60350Y50183D1*
X60446Y50085D1*
X60496Y49939D1*
Y49843D1*
X60446Y49697D1*
X60350Y49600D1*
X60252Y49551D1*
X60107D1*
X60010Y49600D1*
X59913Y49697D1*
X59599Y50231D2*
Y49551D1*
Y49939D2*
X59550Y50085D1*
X59453Y50183D1*
X59356Y50231D1*
X59210D1*
X58750Y50571D2*
Y49745D1*
X58702Y49600D1*
X58604Y49551D1*
X58507D1*
X58896Y50231D2*
X58556D1*
X57206D2*
Y49551D1*
Y50037D2*
X57060Y50183D1*
X56962Y50231D1*
X56817D1*
X56720Y50183D1*
X56671Y50037D1*
Y49551D1*
X56358Y50231D2*
Y49745D1*
X56309Y49600D1*
X56212Y49551D1*
X56066D1*
X55969Y49600D1*
X55823Y49745D1*
Y50231D2*
Y49551D1*
X55509Y50231D2*
Y49551D1*
Y50037D2*
X55363Y50183D1*
X55266Y50231D1*
X55121D1*
X55023Y50183D1*
X54975Y50037D1*
Y49551D1*
Y50037D2*
X54829Y50183D1*
X54731Y50231D1*
X54586D1*
X54488Y50183D1*
X54439Y50037D1*
Y49551D1*
X54125Y50571D2*
Y49551D1*
Y50085D2*
X54028Y50183D1*
X53931Y50231D1*
X53785D1*
X53688Y50183D1*
X53591Y50085D1*
X53542Y49939D1*
Y49843D1*
X53591Y49697D1*
X53688Y49600D1*
X53785Y49551D1*
X53931D1*
X54028Y49600D1*
X54125Y49697D1*
X53229Y49939D2*
X52646D1*
Y50037D1*
X52694Y50135D1*
X52742Y50183D1*
X52840Y50231D1*
X52986D1*
X53083Y50183D1*
X53180Y50085D1*
X53229Y49939D1*
Y49843D1*
X53180Y49697D1*
X53083Y49600D1*
X52986Y49551D1*
X52840D1*
X52742Y49600D1*
X52646Y49697D1*
X52332Y50231D2*
Y49551D1*
Y49939D2*
X52283Y50085D1*
X52186Y50183D1*
X52088Y50231D1*
X51942D1*
X64712Y48771D2*
Y47751D1*
X64155Y48431D2*
X64252Y48383D1*
X64350Y48285D1*
X64398Y48139D1*
Y48043D1*
X64350Y47897D1*
X64252Y47800D1*
X64155Y47751D1*
X64009D1*
X63912Y47800D1*
X63815Y47897D1*
X63766Y48043D1*
Y48139D1*
X63815Y48285D1*
X63912Y48383D1*
X64009Y48431D1*
X64155D1*
X62868Y48285D2*
X62966Y48383D1*
X63063Y48431D1*
X63208D1*
X63306Y48383D1*
X63403Y48285D1*
X63452Y48139D1*
Y48043D1*
X63403Y47897D1*
X63306Y47800D1*
X63208Y47751D1*
X63063D1*
X62966Y47800D1*
X62868Y47897D1*
X61971Y48431D2*
Y47751D1*
Y48285D2*
X62068Y48383D1*
X62166Y48431D1*
X62311D1*
X62408Y48383D1*
X62505Y48285D1*
X62554Y48139D1*
Y48043D1*
X62505Y47897D1*
X62408Y47800D1*
X62311Y47751D1*
X62166D1*
X62068Y47800D1*
X61971Y47897D1*
X61512Y48771D2*
Y47945D1*
X61463Y47800D1*
X61366Y47751D1*
X61269D1*
X61658Y48431D2*
X61317D1*
X60955Y48139D2*
X60373D1*
Y48237D1*
X60421Y48335D1*
X60469Y48383D1*
X60567Y48431D1*
X60713D1*
X60809Y48383D1*
X60907Y48285D1*
X60955Y48139D1*
Y48043D1*
X60907Y47897D1*
X60809Y47800D1*
X60713Y47751D1*
X60567D1*
X60469Y47800D1*
X60373Y47897D1*
X59476Y48771D2*
Y47751D1*
Y48285D2*
X59573Y48383D1*
X59670Y48431D1*
X59816D1*
X59913Y48383D1*
X60011Y48285D1*
X60059Y48139D1*
Y48043D1*
X60011Y47897D1*
X59913Y47800D1*
X59816Y47751D1*
X59670D1*
X59573Y47800D1*
X59476Y47897D1*
X57591Y48285D2*
X57688Y48383D1*
X57786Y48431D1*
X57931D1*
X58029Y48383D1*
X58125Y48285D1*
X58175Y48139D1*
Y48043D1*
X58125Y47897D1*
X58029Y47800D1*
X57931Y47751D1*
X57786D1*
X57688Y47800D1*
X57591Y47897D1*
X57277Y48771D2*
Y47751D1*
X56721Y48431D2*
X56817Y48383D1*
X56915Y48285D1*
X56963Y48139D1*
Y48043D1*
X56915Y47897D1*
X56817Y47800D1*
X56721Y47751D1*
X56575D1*
X56477Y47800D1*
X56380Y47897D1*
X56331Y48043D1*
Y48139D1*
X56380Y48285D1*
X56477Y48383D1*
X56575Y48431D1*
X56721D1*
X55483Y48285D2*
X55531Y48383D1*
X55677Y48431D1*
X55823D1*
X55969Y48383D1*
X56017Y48285D1*
X55969Y48189D1*
X55871Y48139D1*
X55629Y48091D1*
X55531Y48043D1*
X55483Y47945D1*
Y47897D1*
X55531Y47800D1*
X55677Y47751D1*
X55823D1*
X55969Y47800D1*
X56017Y47897D1*
X55169Y48139D2*
X54586D1*
Y48237D1*
X54634Y48335D1*
X54683Y48383D1*
X54780Y48431D1*
X54926D1*
X55023Y48383D1*
X55121Y48285D1*
X55169Y48139D1*
Y48043D1*
X55121Y47897D1*
X55023Y47800D1*
X54926Y47751D1*
X54780D1*
X54683Y47800D1*
X54586Y47897D1*
X53738Y48285D2*
X53786Y48383D1*
X53932Y48431D1*
X54078D1*
X54224Y48383D1*
X54272Y48285D1*
X54224Y48189D1*
X54126Y48139D1*
X53884Y48091D1*
X53786Y48043D1*
X53738Y47945D1*
Y47897D1*
X53786Y47800D1*
X53932Y47751D1*
X54078D1*
X54224Y47800D1*
X54272Y47897D1*
X53278Y48771D2*
Y47945D1*
X53230Y47800D1*
X53132Y47751D1*
X53035D1*
X53424Y48431D2*
X53084D1*
X51588Y48771D2*
Y47945D1*
X51540Y47800D1*
X51442Y47751D1*
X51345D1*
X51734Y48431D2*
X51394D1*
X50789D2*
X50886Y48383D1*
X50983Y48285D1*
X51032Y48139D1*
Y48043D1*
X50983Y47897D1*
X50886Y47800D1*
X50789Y47751D1*
X50643D1*
X50545Y47800D1*
X50449Y47897D1*
X50399Y48043D1*
Y48139D1*
X50449Y48285D1*
X50545Y48383D1*
X50643Y48431D1*
X50789D1*
X48952Y48771D2*
Y47945D1*
X48904Y47800D1*
X48806Y47751D1*
X48710D1*
X49098Y48431D2*
X48758D1*
X48396Y48771D2*
Y47751D1*
Y48237D2*
X48250Y48383D1*
X48152Y48431D1*
X48006D1*
X47910Y48383D1*
X47861Y48237D1*
Y47751D1*
X46965Y48431D2*
Y47751D1*
Y48285D2*
X47061Y48383D1*
X47159Y48431D1*
X47304D1*
X47402Y48383D1*
X47498Y48285D1*
X47548Y48139D1*
Y48043D1*
X47498Y47897D1*
X47402Y47800D1*
X47304Y47751D1*
X47159D1*
X47061Y47800D1*
X46965Y47897D1*
X46505Y48771D2*
Y47945D1*
X46457Y47800D1*
X46359Y47751D1*
X46262D1*
X46651Y48431D2*
X46311D1*
X64691Y46801D2*
Y45780D1*
Y46655D2*
X64593Y46752D1*
X64497Y46801D1*
X64351D1*
X64253Y46752D1*
X64156Y46655D1*
X64107Y46509D1*
Y46411D1*
X64156Y46267D1*
X64253Y46169D1*
X64351Y46121D1*
X64497D1*
X64593Y46169D1*
X64691Y46267D1*
X63210Y46801D2*
Y46121D1*
Y46655D2*
X63307Y46753D1*
X63405Y46801D1*
X63550D1*
X63647Y46753D1*
X63744Y46655D1*
X63793Y46509D1*
Y46413D1*
X63744Y46267D1*
X63647Y46170D1*
X63550Y46121D1*
X63405D1*
X63307Y46170D1*
X63210Y46267D1*
X62314Y47141D2*
Y46121D1*
Y46655D2*
X62410Y46753D1*
X62508Y46801D1*
X62654D1*
X62751Y46753D1*
X62848Y46655D1*
X62897Y46509D1*
Y46413D1*
X62848Y46267D1*
X62751Y46170D1*
X62654Y46121D1*
X62508D1*
X62410Y46170D1*
X62314Y46267D1*
X61952Y46218D2*
X62000Y46169D1*
X61952Y46121D1*
X61902Y46169D1*
X61952Y46218D1*
M02*
