G04 DipTrace 2.4.0.1*
%INBottom.gbr*%
%MOMM*%
%ADD13C,1.0*%
%ADD14C,0.33*%
%ADD15C,0.635*%
%ADD16C,2.0*%
%ADD20R,1.5X1.5*%
%ADD21C,1.5*%
%ADD22R,2.8X2.8*%
%ADD23C,2.8*%
%ADD24C,1.27*%
%ADD25R,1.27X1.27*%
%ADD26R,2.5X2.5*%
%ADD27C,2.5*%
%ADD28C,1.5*%
%ADD29R,1.9X1.9*%
%ADD30C,1.9*%
%ADD31C,1.524*%
%ADD32C,1.524*%
%ADD33R,3.0X3.0*%
%ADD34C,3.0*%
%ADD36R,1.8X1.4*%
%ADD37O,1.8X1.4*%
%ADD38C,1.016*%
%FSLAX53Y53*%
G04*
G71*
G90*
G75*
G01*
%LNBottom*%
%LPD*%
X71761Y51439D2*
D13*
X71760Y41912D1*
X43560Y36170D2*
X22995D1*
X16668Y29843D1*
X71760Y41912D2*
X61902D1*
X60640Y40650D1*
Y33410D1*
X51270D1*
X71761Y56519D2*
D14*
X73206Y55074D1*
Y38542D1*
X73155Y38492D1*
Y35072D1*
X71760D1*
X47310Y26670D2*
Y28522D1*
X45328Y30503D1*
X44668Y29843D1*
X41338D1*
X28575Y61282D2*
X22960Y55667D1*
Y48980D1*
X73155Y38492D2*
X71760D1*
X71761Y56519D2*
X67335D1*
X66675Y57179D1*
Y61282D1*
X28575D2*
X29843Y62550D1*
X33655D1*
Y63822D1*
X41275D2*
X41340D1*
Y62540D1*
X41750D1*
X42540Y61750D1*
Y60192D1*
X44015Y58717D1*
X46330D1*
X48895Y61282D1*
X45328Y30503D2*
Y40798D1*
X70808Y23972D2*
X72053Y22727D1*
Y17792D1*
X71393Y17132D1*
X64708D1*
X59853Y12276D1*
X71760Y35072D2*
X69810D1*
X69150Y34412D1*
Y25630D1*
X70808Y23972D1*
X41338Y29843D2*
X32735D1*
X25522Y22630D1*
X13730D1*
X59055Y63822D2*
X59120Y63756D1*
Y62520D1*
X54040D1*
Y63887D1*
X53975Y63822D1*
X66675Y61282D2*
X65430Y62527D1*
X59150D1*
Y63822D1*
X59055D1*
X33655Y62540D2*
X41360D1*
Y63736D1*
X41275Y63822D1*
X48895Y61282D2*
X50133Y62520D1*
X54020D1*
Y63822D1*
X53975D1*
X42770Y47440D2*
X44015Y48685D1*
Y58717D1*
X45328Y40798D2*
X42770Y43356D1*
Y47440D1*
X41275Y61282D2*
X38710Y58717D1*
X36267D1*
X32610Y55060D1*
X27530Y47440D2*
X28795Y48705D1*
X34490D1*
X35150Y49365D1*
Y55060D1*
X71760Y40202D2*
X62519D1*
X61859Y39542D1*
Y33122D1*
X59853Y31116D1*
X44930Y45870D2*
X44850D1*
Y44170D1*
X48555Y40465D1*
Y26035D1*
X47895Y25375D1*
X46065D1*
X44770Y26670D1*
X43363D1*
X38085Y21392D1*
Y13095D1*
X39480Y11700D1*
X56400D1*
X63592Y18892D1*
X70808D1*
X46040Y24130D2*
X49123D1*
X49500Y24507D1*
Y30470D1*
X51250Y32220D1*
X56770D1*
X58070Y30920D1*
Y29290D1*
X58330Y29030D1*
X63210D1*
X70808Y21432D1*
X14050Y53310D2*
X12800Y52060D1*
Y48980D1*
X62680Y32100D2*
X67362Y36782D1*
X71760D1*
X35150Y47440D2*
X42770Y55060D1*
X49840Y33350D2*
D13*
Y52390D1*
X51429Y53979D1*
X71761D1*
X65610Y24980D2*
X60810D1*
X57140Y28650D1*
Y30250D1*
X56250Y31140D1*
X51678D1*
X50720Y30182D1*
Y23822D1*
X49318Y22420D1*
X45210D1*
X43500Y24130D1*
D38*
X43560Y36170D3*
X51270Y33410D3*
X65610Y24980D3*
X62680Y32100D3*
X44930Y45870D3*
X49840Y33350D3*
X12227Y59088D2*
D15*
X11026Y57887D1*
X13848Y58912D2*
X11026Y56091D1*
X16949Y60217D2*
X13923Y57192D1*
X12711Y55980D2*
X11026Y54295D1*
X18345Y59817D2*
X15165Y56638D1*
X12697Y54170D2*
X11026Y52499D1*
X20281Y59958D2*
X14983Y54659D1*
X11918Y51595D2*
X11026Y50703D1*
X24940Y62820D2*
X24496Y62377D1*
X22400Y60281D2*
X15404Y53284D1*
X14079Y51960D2*
X13685Y51565D1*
X11350Y49231D2*
X11029Y48909D1*
X23768Y59853D2*
X13909Y49994D1*
X11792Y47877D2*
X11440Y47524D1*
X28125Y62413D2*
X27443Y61731D1*
X25585Y59874D2*
X14155Y48443D1*
X32482Y64974D2*
X32272Y64765D1*
X30174Y62666D2*
X14850Y47342D1*
X34278Y64974D2*
X31863Y62559D1*
X29837Y60533D2*
X15790Y46486D1*
X34734Y63634D2*
X33841Y62742D1*
X30924Y59824D2*
X27625Y56526D1*
X26062Y54963D2*
X16021Y44921D1*
X35442Y62547D2*
X34929Y62033D1*
X32903Y60007D2*
X28769Y55873D1*
X26715Y53819D2*
X16021Y43125D1*
X37582Y62890D2*
X37132Y62440D1*
X35042Y60351D2*
X30951Y56259D1*
X28876Y54184D2*
X16954Y42262D1*
X41462Y64974D2*
X40191Y63703D1*
X36312Y59824D2*
X36044Y59556D1*
X30082Y53594D2*
X18133Y41645D1*
X42381Y64097D2*
X40998Y62714D1*
X38193Y59909D2*
X37883Y59599D1*
X31998Y53714D2*
X27190Y48906D1*
X26062Y47778D2*
X18133Y39849D1*
X17615Y39331D2*
X16021Y37737D1*
X42809Y62729D2*
X42366Y62286D1*
X37912Y57832D2*
X36199Y56119D1*
X34095Y54015D2*
X29667Y49587D1*
X26062Y45982D2*
X16021Y35941D1*
X41820Y59944D2*
X38289Y56413D1*
X34271Y52395D2*
X31463Y49587D1*
X27851Y45975D2*
X16021Y34145D1*
X43511Y59839D2*
X40198Y56526D1*
X37309Y53637D2*
X36030Y52358D1*
X34271Y50599D2*
X33259Y49587D1*
X29682Y46010D2*
X16021Y32349D1*
X12150Y28478D2*
X11026Y27354D1*
X48064Y62596D2*
X47585Y62117D1*
X45524Y60056D2*
X41418Y55950D1*
X39336Y53868D2*
X36030Y50562D1*
X31717Y46249D2*
X22841Y37372D1*
X13946Y28478D2*
X13566Y28098D1*
X11764Y26296D2*
X11026Y25558D1*
X50225Y62961D2*
X43572Y56308D1*
X33899Y46635D2*
X24651Y37386D1*
X15637Y28373D2*
X15363Y28099D1*
X11764Y24500D2*
X11026Y23762D1*
X54034Y64974D2*
X52903Y63843D1*
X50000Y60940D2*
X44239Y55179D1*
X42655Y53594D2*
X37953Y48892D1*
X35035Y45975D2*
X26447Y37386D1*
X24014Y34953D2*
X18133Y29073D1*
X17433Y28373D2*
X15698Y26638D1*
X13223Y24163D2*
X11026Y21966D1*
X55143Y64287D2*
X53514Y62657D1*
X50800Y59944D2*
X39587Y48731D1*
X36986Y46130D2*
X28243Y37386D1*
X25810Y34953D2*
X15698Y24842D1*
X15019Y24163D2*
X11026Y20170D1*
X55445Y62792D2*
X55008Y62356D1*
X52905Y60252D2*
X41208Y48556D1*
X39112Y46459D2*
X30039Y37386D1*
X27606Y34953D2*
X11026Y18374D1*
X59422Y64974D2*
X57927Y63478D1*
X54315Y59867D2*
X41671Y47223D1*
X40445Y45996D2*
X31835Y37386D1*
X29402Y34953D2*
X11026Y16578D1*
X60131Y63887D2*
X58986Y62742D1*
X56104Y59860D2*
X51437Y55193D1*
X48625Y52381D2*
X33631Y37386D1*
X31198Y34953D2*
X13411Y17167D1*
X60685Y62645D2*
X60228Y62187D1*
X58146Y60105D2*
X53240Y55200D1*
X48625Y50585D2*
X45123Y47082D1*
X43714Y45674D2*
X35427Y37386D1*
X32994Y34953D2*
X14927Y16886D1*
X62874Y63038D2*
X62382Y62545D1*
X60335Y60498D2*
X55036Y55200D1*
X52596Y52760D2*
X51058Y51222D1*
X48625Y48789D2*
X46105Y46269D1*
X43967Y44130D2*
X37223Y37386D1*
X34790Y34953D2*
X16007Y16171D1*
X61450Y59817D2*
X56832Y55200D1*
X54392Y52760D2*
X51058Y49426D1*
X48625Y46993D2*
X47473Y45841D1*
X44689Y43057D2*
X39019Y37386D1*
X36586Y34953D2*
X20680Y19047D1*
X20169Y18536D2*
X16758Y15125D1*
X68403Y64974D2*
X67973Y64545D1*
X65954Y62526D2*
X65434Y62005D1*
X63414Y59986D2*
X58628Y55200D1*
X56188Y52760D2*
X51058Y47630D1*
X45587Y42159D2*
X40815Y37386D1*
X38382Y34953D2*
X22476Y19047D1*
X20169Y16740D2*
X17137Y13708D1*
X67884Y62659D2*
X60424Y55200D1*
X57984Y52760D2*
X51058Y45834D1*
X46485Y41261D2*
X42611Y37386D1*
X40178Y34953D2*
X24272Y19047D1*
X20169Y14944D2*
X16246Y11021D1*
X68143Y61122D2*
X62220Y55200D1*
X59780Y52760D2*
X51058Y44037D1*
X47383Y40363D2*
X44232Y37211D1*
X41974Y34953D2*
X24602Y17581D1*
X21628Y14607D2*
X18042Y11021D1*
X68845Y60028D2*
X64016Y55200D1*
X61576Y52760D2*
X51058Y42241D1*
X47671Y38854D2*
X44751Y35934D1*
X43798Y34981D2*
X27780Y18963D1*
X25003Y16186D2*
X24602Y15785D1*
X23424Y14607D2*
X19838Y11021D1*
X69877Y59264D2*
X65806Y55193D1*
X63373Y52760D2*
X51059Y40446D1*
X47672Y37059D2*
X28861Y18248D1*
X25712Y15099D2*
X21635Y11022D1*
X71287Y58878D2*
X67602Y55193D1*
X65169Y52760D2*
X51059Y38650D1*
X47672Y35263D2*
X31387Y18978D1*
X29732Y17323D2*
X29352Y16943D1*
X27017Y14608D2*
X23431Y11022D1*
X73974Y59769D2*
X69398Y55193D1*
X66965Y52760D2*
X51059Y36854D1*
X47672Y33467D2*
X32979Y18774D1*
X29936Y15731D2*
X25227Y11022D1*
X73974Y57973D2*
X71636Y55635D1*
X68761Y52760D2*
X51059Y35058D1*
X47672Y31671D2*
X43552Y27551D1*
X37204Y21203D2*
X33863Y17862D1*
X30848Y14847D2*
X27023Y11022D1*
X73974Y56177D2*
X72962Y55165D1*
X70557Y52760D2*
X52427Y34630D1*
X47672Y29875D2*
X45657Y27860D1*
X37204Y19407D2*
X33997Y16200D1*
X32518Y14721D2*
X28819Y11022D1*
X73974Y54381D2*
X73418Y53825D1*
X70263Y50670D2*
X62719Y43126D1*
X59423Y39830D2*
X54223Y34630D1*
X47672Y28079D2*
X46232Y26639D1*
X42256Y22662D2*
X39532Y19939D1*
X37204Y17611D2*
X30615Y11022D1*
X73974Y52585D2*
X73355Y51966D1*
X70543Y49154D2*
X67111Y45722D1*
X64833Y43443D2*
X64515Y43126D1*
X59423Y38034D2*
X56019Y34630D1*
X43638Y22249D2*
X41293Y19904D1*
X37204Y15815D2*
X32411Y11022D1*
X73974Y50789D2*
X72976Y49791D1*
X70543Y47358D2*
X68009Y44824D1*
X59423Y36238D2*
X57815Y34630D1*
X53109Y29924D2*
X51936Y28751D1*
X44557Y21372D2*
X42261Y19076D1*
X37204Y14019D2*
X34207Y11022D1*
X73974Y48993D2*
X72976Y47995D1*
X70543Y45562D2*
X68108Y43126D1*
X64299Y39318D2*
X62740Y37759D1*
X52878Y27896D2*
X51936Y26955D1*
X46184Y21203D2*
X42633Y17652D1*
X40453Y15471D2*
X38971Y13990D1*
X37443Y12461D2*
X36003Y11022D1*
X73974Y47197D2*
X72976Y46199D1*
X70543Y43766D2*
X69904Y43126D1*
X66095Y39318D2*
X62740Y35963D1*
X52878Y26100D2*
X51936Y25159D1*
X47981Y21203D2*
X39616Y12839D1*
X38341Y11563D2*
X37799Y11022D1*
X73974Y45401D2*
X72976Y44403D1*
X67891Y39318D2*
X62740Y34167D1*
X52878Y24304D2*
X41153Y12579D1*
X73974Y43605D2*
X73376Y43007D1*
X69687Y39318D2*
X68037Y37668D1*
X52878Y22508D2*
X50470Y20100D1*
X48163Y17794D2*
X42949Y12579D1*
X73974Y41809D2*
X73376Y41211D1*
X71035Y38869D2*
X69833Y37668D1*
X68067Y35901D2*
X63779Y31613D1*
X63163Y30997D2*
X62081Y29915D1*
X60314Y28149D2*
X59850Y27684D1*
X58104Y25939D2*
X57121Y24955D1*
X52878Y20712D2*
X51845Y19679D1*
X48584Y16418D2*
X44745Y12579D1*
X73974Y40013D2*
X72156Y38194D1*
X69863Y35901D2*
X63730Y29768D1*
X62110Y28149D2*
X60748Y26786D1*
X59002Y25041D2*
X57121Y23159D1*
X52878Y18916D2*
X52631Y18669D1*
X49587Y15626D2*
X46541Y12579D1*
X73974Y38217D2*
X73222Y37464D1*
X71168Y35410D2*
X64635Y28877D1*
X63359Y27602D2*
X61955Y26197D1*
X59900Y24143D2*
X57121Y21363D1*
X52878Y17120D2*
X52546Y16789D1*
X51467Y15710D2*
X48337Y12579D1*
X73974Y36421D2*
X65533Y27979D1*
X64257Y26704D2*
X63751Y26197D1*
X61318Y23764D2*
X57121Y19567D1*
X52878Y15324D2*
X50133Y12579D1*
X73974Y34624D2*
X66431Y27081D1*
X63114Y23764D2*
X57121Y17771D1*
X52920Y13570D2*
X51929Y12579D1*
X73974Y32828D2*
X71503Y30357D1*
X69498Y28352D2*
X67329Y26183D1*
X64910Y23764D2*
X57121Y15975D1*
X73974Y31032D2*
X72261Y29319D1*
X69344Y26402D2*
X68227Y25285D1*
X66951Y24010D2*
X57121Y14179D1*
X73974Y29236D2*
X72057Y27320D1*
X70003Y25265D2*
X69125Y24387D1*
X67849Y23112D2*
X64515Y19778D1*
X73974Y27440D2*
X70023Y23489D1*
X68747Y22213D2*
X66311Y19778D1*
X64545Y18011D2*
X57556Y11022D1*
X73974Y25644D2*
X71187Y22858D1*
X69379Y21049D2*
X68108Y19778D1*
X66341Y18011D2*
X59352Y11022D1*
X73974Y23848D2*
X72163Y22037D1*
X68137Y18011D2*
X61148Y11022D1*
X73974Y22052D2*
X71861Y19939D1*
X69758Y17836D2*
X62944Y11022D1*
X73974Y20256D2*
X72198Y18480D1*
X71217Y17499D2*
X70767Y17048D1*
X67955Y14236D2*
X64740Y11022D1*
X73974Y18460D2*
X72527Y17013D1*
X67983Y12469D2*
X66536Y11022D1*
X73974Y16664D2*
X73723Y16413D1*
X68579Y11269D2*
X68333Y11023D1*
X72780Y59081D2*
X73974Y57887D1*
X67483Y62582D2*
X67912Y62152D1*
X71152Y58912D2*
X73974Y56091D1*
X65329Y62940D2*
X73974Y54295D1*
X65561Y60912D2*
X70992Y55480D1*
X73257Y53216D2*
X73974Y52499D1*
X59703Y64974D2*
X60244Y64432D1*
X64747Y59930D2*
X69477Y55200D1*
X73426Y51251D2*
X73974Y50703D1*
X57906Y64974D2*
X60546Y62335D1*
X62649Y60231D2*
X67681Y55200D1*
X70121Y52760D2*
X70417Y52463D1*
X72976Y49904D2*
X73974Y48906D1*
X57864Y63220D2*
X58448Y62636D1*
X61204Y59881D2*
X65885Y55200D1*
X68325Y52760D2*
X70214Y50871D1*
X72976Y48108D2*
X73974Y47110D1*
X54314Y64974D2*
X55088Y64201D1*
X59436Y59853D2*
X64089Y55200D1*
X66529Y52760D2*
X70543Y48745D1*
X72976Y46312D2*
X73974Y45314D1*
X52518Y64974D2*
X55326Y62166D1*
X57401Y60091D2*
X62293Y55200D1*
X64733Y52760D2*
X70543Y46949D1*
X72976Y44516D2*
X73974Y43518D1*
X52680Y63017D2*
X53165Y62531D1*
X55219Y60477D2*
X60497Y55200D1*
X62937Y52760D2*
X70543Y45153D1*
X73376Y42320D2*
X73974Y41722D1*
X54083Y59817D2*
X58701Y55200D1*
X61141Y52760D2*
X70543Y43357D1*
X73376Y40524D2*
X73974Y39926D1*
X49593Y62512D2*
X50127Y61977D1*
X52132Y59972D2*
X56905Y55200D1*
X59345Y52760D2*
X66257Y45848D1*
X68136Y43969D2*
X68972Y43132D1*
X72948Y39156D2*
X73974Y38130D1*
X47467Y62841D2*
X55109Y55200D1*
X57549Y52760D2*
X65078Y45230D1*
X71524Y38784D2*
X72122Y38186D1*
X73362Y36946D2*
X73974Y36334D1*
X47741Y60772D2*
X53313Y55200D1*
X55753Y52760D2*
X64762Y43750D1*
X69195Y39317D2*
X70635Y37878D1*
X72857Y35655D2*
X73974Y34538D1*
X41742Y64974D2*
X42417Y64299D1*
X46836Y59881D2*
X51516Y55200D1*
X53957Y52760D2*
X63584Y43132D1*
X67399Y39317D2*
X69049Y37667D1*
X71321Y35395D2*
X73974Y32742D1*
X39946Y64974D2*
X42677Y62244D1*
X44773Y60147D2*
X50310Y54610D1*
X52161Y52760D2*
X61795Y43125D1*
X65603Y39317D2*
X67260Y37660D1*
X69020Y35901D2*
X73974Y30946D1*
X40030Y63094D2*
X40551Y62573D1*
X43066Y60058D2*
X49412Y53712D1*
X51164Y51960D2*
X60686Y42438D1*
X63807Y39317D2*
X66215Y36909D1*
X67490Y35634D2*
X73974Y29150D1*
X41503Y59824D2*
X48647Y52681D1*
X51059Y50269D2*
X59788Y41540D1*
X62740Y38588D2*
X65317Y36011D1*
X66592Y34736D2*
X70810Y30518D1*
X72275Y29053D2*
X73974Y27354D1*
X34558Y64974D2*
X34931Y64601D1*
X36971Y62561D2*
X37471Y62061D1*
X40402Y59130D2*
X43041Y56491D1*
X44205Y55327D2*
X48626Y50906D1*
X51059Y48473D2*
X59423Y40109D1*
X62740Y36792D2*
X64419Y35113D1*
X65694Y33838D2*
X69603Y29929D1*
X71679Y27853D2*
X73974Y25558D1*
X32762Y64974D2*
X35282Y62454D1*
X37364Y60372D2*
X38137Y59599D1*
X39504Y58232D2*
X41673Y56063D1*
X43770Y53966D2*
X48626Y49110D1*
X51059Y46677D2*
X59423Y38313D1*
X62740Y34995D2*
X63521Y34215D1*
X64796Y32940D2*
X69989Y27747D1*
X72043Y25693D2*
X73974Y23762D1*
X32530Y63410D2*
X33240Y62700D1*
X36122Y59817D2*
X36341Y59599D1*
X38108Y57832D2*
X39562Y56378D1*
X42465Y53475D2*
X48626Y47314D1*
X51059Y44881D2*
X59423Y36517D1*
X63905Y32035D2*
X69344Y26596D1*
X70893Y25047D2*
X73974Y21966D1*
X34228Y59916D2*
X35212Y58932D1*
X36487Y57657D2*
X37618Y56526D1*
X41567Y52577D2*
X48626Y45518D1*
X51059Y43085D2*
X59423Y34720D1*
X63175Y30968D2*
X71392Y22751D1*
X72128Y22016D2*
X73974Y20170D1*
X29598Y62750D2*
X30041Y62307D1*
X32144Y60203D2*
X34314Y58034D1*
X35589Y56759D2*
X36461Y55887D1*
X38522Y53826D2*
X39393Y52955D1*
X40669Y51679D2*
X45343Y47005D1*
X46064Y46284D2*
X46732Y45616D1*
X51059Y41289D2*
X57718Y34629D1*
X61969Y30379D2*
X62433Y29915D1*
X71910Y20438D2*
X73974Y18374D1*
X28096Y62455D2*
X29746Y60805D1*
X30636Y59916D2*
X33416Y57136D1*
X36354Y54198D2*
X38495Y52057D1*
X39771Y50781D2*
X43932Y46619D1*
X45734Y44818D2*
X45960Y44592D1*
X48084Y42467D2*
X48626Y41926D1*
X51059Y39493D2*
X55922Y34629D1*
X62404Y28148D2*
X64355Y26196D1*
X66473Y24079D2*
X69372Y21180D1*
X72191Y18361D2*
X73974Y16578D1*
X27500Y61256D2*
X32258Y56498D1*
X36031Y52724D2*
X37597Y51159D1*
X38873Y49883D2*
X39884Y48871D1*
X41665Y47091D2*
X43967Y44788D1*
X51059Y37697D2*
X54126Y34629D1*
X60608Y28148D2*
X62559Y26196D1*
X64992Y23763D2*
X68979Y19777D1*
X71272Y17484D2*
X71610Y17146D1*
X24350Y62610D2*
X24821Y62138D1*
X26890Y60070D2*
X30518Y56441D1*
X33239Y53721D2*
X34265Y52695D1*
X36031Y50928D2*
X36699Y50261D1*
X37975Y48985D2*
X38139Y48821D1*
X40858Y46102D2*
X47672Y39288D1*
X51059Y35901D2*
X52330Y34629D1*
X63196Y23763D2*
X67183Y19777D1*
X68949Y18010D2*
X70087Y16872D1*
X22182Y62982D2*
X22653Y62510D1*
X24722Y60442D2*
X29038Y56126D1*
X31134Y54029D2*
X34265Y50899D1*
X38760Y46403D2*
X47672Y37492D1*
X61400Y23763D2*
X65387Y19777D1*
X67153Y18010D2*
X69007Y16157D1*
X23550Y59817D2*
X26947Y56420D1*
X29717Y53651D2*
X33780Y49587D1*
X37336Y46031D2*
X47672Y35696D1*
X57121Y26247D2*
X63591Y19777D1*
X65357Y18010D2*
X68242Y15125D1*
X16597Y64974D2*
X17090Y64482D1*
X21614Y59958D2*
X26105Y55466D1*
X27935Y53637D2*
X31984Y49587D1*
X35554Y46017D2*
X47672Y33900D1*
X51936Y29635D2*
X52878Y28694D1*
X57121Y24451D2*
X62496Y19075D1*
X63772Y17800D2*
X67856Y13715D1*
X19881Y59895D2*
X30188Y49587D1*
X33512Y46263D2*
X42389Y37386D1*
X44464Y35311D2*
X47672Y32104D1*
X51936Y27839D2*
X52878Y26898D1*
X57121Y22655D2*
X61598Y18177D1*
X62874Y16902D2*
X68754Y11021D1*
X18162Y59817D2*
X28448Y49531D1*
X31331Y46649D2*
X40593Y37386D1*
X43026Y34953D2*
X47672Y30308D1*
X51936Y26043D2*
X52878Y25102D1*
X57121Y20859D2*
X60700Y17279D1*
X61976Y16004D2*
X66958Y11021D1*
X16155Y60028D2*
X27277Y48906D1*
X30208Y45975D2*
X38797Y37386D1*
X41230Y34953D2*
X47672Y28511D1*
X51936Y24247D2*
X52878Y23306D1*
X57121Y19063D2*
X59802Y16381D1*
X61078Y15106D2*
X65162Y11021D1*
X15123Y59264D2*
X26062Y48325D1*
X28418Y45969D2*
X37000Y37387D1*
X39433Y34954D2*
X47671Y26716D1*
X51514Y22873D2*
X52877Y21510D1*
X57127Y17260D2*
X58903Y15484D1*
X60179Y14208D2*
X63365Y11022D1*
X13713Y58878D2*
X26062Y46529D1*
X26622Y45969D2*
X35204Y37387D1*
X37637Y34954D2*
X44479Y28112D1*
X50616Y21975D2*
X52877Y19714D1*
X57127Y15464D2*
X58005Y14586D1*
X59281Y13310D2*
X61569Y11022D1*
X11026Y59769D2*
X13644Y57151D1*
X15355Y55440D2*
X33408Y37387D1*
X35841Y34954D2*
X43244Y27551D1*
X49571Y21224D2*
X50716Y20079D1*
X58383Y12412D2*
X59773Y11022D1*
X11026Y57973D2*
X12746Y56253D1*
X15404Y53595D2*
X31612Y37387D1*
X34045Y34954D2*
X42206Y26793D1*
X47796Y21203D2*
X49243Y19757D1*
X52461Y16538D2*
X52877Y16122D1*
X57485Y11514D2*
X57977Y11022D1*
X11026Y56177D2*
X12697Y54506D1*
X15242Y51961D2*
X29816Y37387D1*
X32249Y34954D2*
X41308Y25895D1*
X46000Y21203D2*
X48387Y18816D1*
X51514Y15689D2*
X52877Y14326D1*
X11026Y54381D2*
X12438Y52969D1*
X13713Y51694D2*
X28020Y37387D1*
X30453Y34954D2*
X40410Y24997D1*
X41685Y23722D2*
X42030Y23377D1*
X42744Y22662D2*
X48267Y17140D1*
X49837Y15569D2*
X52828Y12579D1*
X11026Y52585D2*
X11918Y51693D1*
X14197Y49414D2*
X26224Y37387D1*
X28657Y34954D2*
X39512Y24099D1*
X40787Y22824D2*
X51032Y12579D1*
X11026Y50789D2*
X11757Y50058D1*
X13874Y47941D2*
X14332Y47483D1*
X15979Y45836D2*
X24428Y37387D1*
X26861Y34954D2*
X38614Y23201D1*
X39889Y21926D2*
X49236Y12579D1*
X11026Y48993D2*
X11375Y48644D1*
X16021Y43998D2*
X17756Y42263D1*
X18133Y41886D2*
X22667Y37352D1*
X25065Y34954D2*
X37716Y22303D1*
X38991Y21028D2*
X39947Y20072D1*
X42611Y17408D2*
X47439Y12579D1*
X18133Y40090D2*
X21649Y36573D1*
X23395Y34828D2*
X37203Y21019D1*
X42029Y16194D2*
X45643Y12579D1*
X17095Y39332D2*
X20751Y35675D1*
X22497Y33930D2*
X37203Y19223D1*
X40899Y15527D2*
X43847Y12579D1*
X16021Y38609D2*
X19853Y34777D1*
X21599Y33032D2*
X37203Y17427D1*
X38970Y15661D2*
X42051Y12579D1*
X16021Y36813D2*
X18955Y33879D1*
X20701Y32134D2*
X37203Y15631D1*
X38970Y13865D2*
X40255Y12579D1*
X16021Y35017D2*
X18057Y32981D1*
X19803Y31236D2*
X31998Y19041D1*
X34094Y16945D2*
X37203Y13835D1*
X16021Y33221D2*
X17159Y32083D1*
X18905Y30338D2*
X30594Y18648D1*
X33708Y15534D2*
X38221Y11022D1*
X18133Y29313D2*
X29809Y17638D1*
X32698Y14749D2*
X36425Y11022D1*
X17277Y28373D2*
X26652Y18999D1*
X29309Y16341D2*
X30174Y15477D1*
X30532Y15119D2*
X34629Y11022D1*
X15081Y28773D2*
X25501Y18353D1*
X28664Y15191D2*
X32833Y11022D1*
X13580Y28479D2*
X13960Y28098D1*
X15698Y26360D2*
X23010Y19048D1*
X24602Y17457D2*
X24933Y17126D1*
X27436Y14622D2*
X31036Y11022D1*
X11784Y28479D2*
X12164Y28098D1*
X15698Y24564D2*
X21214Y19048D1*
X24602Y15661D2*
X29240Y11022D1*
X11026Y27440D2*
X11764Y26702D1*
X14302Y24164D2*
X20169Y18297D1*
X23858Y14608D2*
X27444Y11022D1*
X11026Y25644D2*
X11764Y24906D1*
X12506Y24164D2*
X20169Y16501D1*
X22062Y14608D2*
X25648Y11022D1*
X11026Y23848D2*
X23852Y11022D1*
X11026Y22052D2*
X22056Y11022D1*
X11026Y20256D2*
X14213Y17069D1*
X17038Y14244D2*
X20260Y11022D1*
X11026Y18460D2*
X12459Y17027D1*
X17003Y12483D2*
X18464Y11022D1*
X11026Y16664D2*
X11277Y16413D1*
X16414Y11276D2*
X16665Y11025D1*
X15320Y55536D2*
X15207Y55240D1*
X15026Y54980D1*
X14788Y54770D1*
X14478Y54618D1*
X15358D1*
Y52002D1*
X13919D1*
X13639Y51714D1*
X13638Y50145D1*
X13849Y49960D1*
X14038Y49706D1*
X14167Y49416D1*
X14235Y48980D1*
X14200Y48665D1*
X14097Y48366D1*
X13930Y48096D1*
X13709Y47869D1*
X13443Y47697D1*
X13146Y47587D1*
X12831Y47545D1*
X12516Y47574D1*
X12214Y47670D1*
X11941Y47831D1*
X11710Y48047D1*
X11532Y48309D1*
X11415Y48604D1*
X11366Y48917D1*
X11388Y49233D1*
X11478Y49537D1*
X11632Y49814D1*
X11844Y50050D1*
X11965Y50136D1*
X11962Y52060D1*
X12022Y52370D1*
X12208Y52653D1*
X12748Y53193D1*
X12742Y54618D1*
X13576Y54631D1*
X13296Y54781D1*
X13062Y54993D1*
X12885Y55256D1*
X12776Y55554D1*
X12742Y55869D1*
X12785Y56182D1*
X12902Y56477D1*
X13086Y56734D1*
X13327Y56940D1*
X13610Y57082D1*
X13919Y57151D1*
X14236Y57145D1*
X14542Y57062D1*
X14819Y56908D1*
X15051Y56692D1*
X15224Y56427D1*
X15328Y56128D1*
X15358Y55850D1*
X15320Y55536D1*
X12125Y28053D2*
X15653D1*
Y24207D1*
X11807D1*
Y28053D1*
X12125D1*
X43266Y22707D2*
X42077D1*
Y24206D1*
X38925Y21047D1*
X38924Y19574D1*
X39187Y19751D1*
X39472Y19889D1*
X39774Y19987D1*
X40087Y20041D1*
X40404Y20052D1*
X40719Y20018D1*
X41027Y19940D1*
X41321Y19821D1*
X41595Y19662D1*
X41845Y19466D1*
X42065Y19237D1*
X42250Y18980D1*
X42399Y18699D1*
X42506Y18401D1*
X42571Y18090D1*
X42593Y17780D1*
X42571Y17464D1*
X42505Y17153D1*
X42396Y16855D1*
X42247Y16575D1*
X42060Y16319D1*
X41840Y16091D1*
X41590Y15895D1*
X41315Y15737D1*
X41021Y15618D1*
X40713Y15542D1*
X40398Y15509D1*
X40080Y15520D1*
X39768Y15575D1*
X39466Y15674D1*
X39181Y15813D1*
X38927Y15985D1*
X38923Y13445D1*
X39821Y12544D1*
X46148Y12538D1*
X53539D1*
X53292Y12815D1*
X53087Y13201D1*
X52983Y13522D1*
X52921Y14000D1*
X52934Y29169D1*
X53038Y29685D1*
X53173Y29968D1*
X52172Y29967D1*
X51897Y29700D1*
X51893Y23822D1*
X51850Y23509D1*
X51674Y23139D1*
X51100Y22544D1*
X50147Y21591D1*
X49895Y21399D1*
X49509Y21263D1*
X48683Y21247D1*
X45210D1*
X44896Y21290D1*
X44527Y21466D1*
X43932Y22040D1*
X43265Y22706D1*
X52731Y17464D2*
X52665Y17153D1*
X52556Y16855D1*
X52407Y16575D1*
X52220Y16319D1*
X52000Y16091D1*
X51750Y15895D1*
X51475Y15737D1*
X51181Y15618D1*
X50873Y15542D1*
X50558Y15509D1*
X50240Y15520D1*
X49928Y15575D1*
X49626Y15674D1*
X49341Y15813D1*
X49079Y15991D1*
X48843Y16203D1*
X48639Y16446D1*
X48472Y16716D1*
X48343Y17006D1*
X48256Y17311D1*
X48212Y17625D1*
X48213Y17942D1*
X48257Y18256D1*
X48345Y18561D1*
X48475Y18851D1*
X48643Y19119D1*
X48848Y19362D1*
X49084Y19574D1*
X49347Y19751D1*
X49632Y19889D1*
X49934Y19987D1*
X50247Y20041D1*
X50564Y20052D1*
X50879Y20018D1*
X51187Y19940D1*
X51481Y19821D1*
X51755Y19662D1*
X52005Y19466D1*
X52225Y19237D1*
X52410Y18980D1*
X52559Y18699D1*
X52666Y18401D1*
X52731Y18090D1*
X52753Y17780D1*
X52731Y17464D1*
X68067Y43819D2*
X67978Y43515D1*
X67833Y43233D1*
X67717Y43085D1*
X70187D1*
Y43285D1*
X70594D1*
X70588Y46992D1*
Y50316D1*
X70420Y50525D1*
X70267Y50803D1*
X70172Y51105D1*
X70138Y51421D1*
X70165Y51736D1*
X70253Y52041D1*
X70399Y52322D1*
X70597Y52570D1*
X70756Y52704D1*
X70491Y52806D1*
X51907D1*
X51017Y51908D1*
X51013Y34560D1*
X51192Y34580D1*
X59475Y34583D1*
X59467Y35950D1*
Y40650D1*
X59510Y40964D1*
X59686Y41333D1*
X60260Y41928D1*
X61073Y42741D1*
X61325Y42933D1*
X61711Y43069D1*
X62537Y43085D1*
X65117Y43091D1*
X64944Y43356D1*
X64823Y43649D1*
X64760Y43960D1*
X64757Y44277D1*
X64814Y44589D1*
X64928Y44884D1*
X65097Y45153D1*
X65312Y45385D1*
X65568Y45572D1*
X65855Y45708D1*
X66162Y45787D1*
X66478Y45807D1*
X66793Y45767D1*
X67094Y45668D1*
X67371Y45514D1*
X67614Y45311D1*
X67815Y45065D1*
X67965Y44786D1*
X68060Y44484D1*
X68097Y44135D1*
X68067Y43819D1*
X48670Y42834D2*
X48329Y42616D1*
X48029Y42511D1*
X47745Y42469D1*
X48663Y41542D1*
X48667Y42825D1*
X20528Y19000D2*
X24557D1*
Y14654D1*
X20211D1*
Y19000D1*
X20528D1*
X29284Y16511D2*
X29215Y16201D1*
X29101Y15905D1*
X28946Y15628D1*
X28752Y15377D1*
X28524Y15157D1*
X28266Y14972D1*
X27984Y14827D1*
X27683Y14725D1*
X27372Y14667D1*
X27055Y14656D1*
X26739Y14690D1*
X26432Y14770D1*
X26140Y14894D1*
X25870Y15060D1*
X25626Y15263D1*
X25414Y15499D1*
X25239Y15763D1*
X25104Y16051D1*
X25013Y16354D1*
X24967Y16668D1*
Y16985D1*
X25013Y17299D1*
X25104Y17603D1*
X25239Y17890D1*
X25414Y18155D1*
X25626Y18391D1*
X25869Y18594D1*
X26140Y18759D1*
X26432Y18883D1*
X26739Y18964D1*
X27054Y18998D1*
X27371Y18987D1*
X27683Y18929D1*
X27983Y18827D1*
X28266Y18682D1*
X28524Y18497D1*
X28752Y18277D1*
X28946Y18026D1*
X29101Y17749D1*
X29215Y17453D1*
X29284Y17144D1*
X29307Y16827D1*
X29284Y16511D1*
X34034D2*
X33965Y16201D1*
X33851Y15905D1*
X33696Y15628D1*
X33502Y15377D1*
X33274Y15157D1*
X33016Y14972D1*
X32734Y14827D1*
X32433Y14725D1*
X32122Y14667D1*
X31805Y14656D1*
X31489Y14690D1*
X31182Y14770D1*
X30890Y14894D1*
X30620Y15060D1*
X30376Y15263D1*
X30164Y15499D1*
X29989Y15763D1*
X29854Y16051D1*
X29763Y16354D1*
X29717Y16668D1*
Y16985D1*
X29763Y17299D1*
X29854Y17603D1*
X29989Y17890D1*
X30164Y18155D1*
X30376Y18391D1*
X30619Y18594D1*
X30890Y18759D1*
X31182Y18883D1*
X31489Y18964D1*
X31804Y18998D1*
X32121Y18987D1*
X32433Y18929D1*
X32733Y18827D1*
X33016Y18682D1*
X33274Y18497D1*
X33502Y18277D1*
X33696Y18026D1*
X33851Y17749D1*
X33965Y17453D1*
X34034Y17144D1*
X34057Y16827D1*
X34034Y16511D1*
X72195Y28737D2*
X72091Y28438D1*
X71923Y28169D1*
X71700Y27944D1*
X71441Y27779D1*
X71661Y27651D1*
X71892Y27434D1*
X72069Y27171D1*
X72183Y26876D1*
X72231Y26512D1*
X72195Y26197D1*
X72091Y25898D1*
X71923Y25629D1*
X71700Y25404D1*
X71433Y25234D1*
X71135Y25127D1*
X70820Y25089D1*
X70505Y25122D1*
X70205Y25223D1*
X69935Y25388D1*
X69708Y25609D1*
X69535Y25875D1*
X69426Y26173D1*
X69385Y26487D1*
X69415Y26802D1*
X69513Y27103D1*
X69676Y27375D1*
X69895Y27604D1*
X70169Y27782D1*
X69935Y27928D1*
X69708Y28149D1*
X69535Y28415D1*
X69426Y28713D1*
X69385Y29027D1*
X69415Y29342D1*
X69513Y29643D1*
X69676Y29915D1*
X69895Y30144D1*
X70160Y30319D1*
X70456Y30431D1*
X70770Y30474D1*
X71086Y30448D1*
X71388Y30351D1*
X71661Y30191D1*
X71892Y29974D1*
X72069Y29711D1*
X72183Y29416D1*
X72231Y29052D1*
X72195Y28737D1*
X70163Y20169D2*
X69935Y20308D1*
X69708Y20529D1*
X69535Y20795D1*
X69426Y21093D1*
X69385Y21407D1*
X69408Y21653D1*
X66644Y24411D1*
X66427Y24127D1*
X66171Y23941D1*
X65875Y23829D1*
X65511Y23809D1*
X60810Y23807D1*
X60496Y23850D1*
X60127Y24026D1*
X59532Y24600D1*
X57083Y27048D1*
X57078Y13955D1*
X57016Y13516D1*
X57828Y14313D1*
X63000Y19485D1*
X63261Y19662D1*
X63592Y19730D1*
X69654D1*
X69895Y19984D1*
X70169Y20162D1*
X40174Y53644D2*
X39927Y53670D1*
X39627Y53771D1*
X39357Y53936D1*
X39130Y54157D1*
X38963Y54415D1*
X38806Y54177D1*
X38583Y53952D1*
X38315Y53782D1*
X38017Y53675D1*
X37703Y53637D1*
X37387Y53670D1*
X37087Y53771D1*
X36817Y53936D1*
X36590Y54157D1*
X36423Y54415D1*
X36266Y54177D1*
X35984Y53915D1*
X35988Y49467D1*
X40163Y53638D1*
X70489Y37626D2*
X70594Y37757D1*
X70843Y37953D1*
X71130Y38086D1*
X71441Y38150D1*
X71960Y38155D1*
X72157Y38141D1*
X72464Y38059D1*
X72743Y37910D1*
X72981Y37701D1*
X73164Y37442D1*
X73283Y37149D1*
X73333Y36782D1*
X73297Y36467D1*
X73189Y36170D1*
X73016Y35904D1*
X72786Y35686D1*
X72513Y35525D1*
X72210Y35432D1*
X71960Y35409D1*
X71563Y35415D1*
X71182Y35462D1*
X70889Y35584D1*
X70633Y35770D1*
X70484Y35942D1*
X67702Y35944D1*
X63864Y32099D1*
X63818Y31786D1*
X63694Y31495D1*
X63497Y31247D1*
X63241Y31061D1*
X62945Y30949D1*
X62630Y30920D1*
X62318Y30976D1*
X62033Y31112D1*
X61926Y31195D1*
Y29865D1*
X63210Y29868D1*
X63520Y29808D1*
X63802Y29623D1*
X70586Y22838D1*
X70770Y22854D1*
X71086Y22828D1*
X71388Y22731D1*
X71661Y22571D1*
X71892Y22354D1*
X72069Y22091D1*
X72183Y21796D1*
X72231Y21432D1*
X72195Y21117D1*
X72091Y20818D1*
X71923Y20549D1*
X71700Y20324D1*
X71441Y20159D1*
X71661Y20031D1*
X71892Y19814D1*
X72069Y19551D1*
X72183Y19256D1*
X72231Y18892D1*
X72195Y18577D1*
X72091Y18278D1*
X71923Y18009D1*
X71700Y17784D1*
X71433Y17614D1*
X71135Y17507D1*
X70820Y17469D1*
X70505Y17502D1*
X70205Y17603D1*
X69935Y17768D1*
X69670Y18048D1*
X66363Y18054D1*
X63932D1*
X57225Y11340D1*
X56858Y10977D1*
X68953D1*
X68617Y11322D1*
X68530Y11440D1*
X68086Y12319D1*
X68039Y12458D1*
X67889Y13432D1*
X67887Y13578D1*
X68044Y14551D1*
X68088Y14690D1*
X68537Y15567D1*
X68622Y15687D1*
X69320Y16381D1*
X69437Y16469D1*
X70315Y16913D1*
X70454Y16960D1*
X71426Y17111D1*
X71573Y17113D1*
X72544Y16956D1*
X72685Y16912D1*
X73560Y16462D1*
X73679Y16377D1*
X74023Y16033D1*
Y59984D1*
X73674Y59634D1*
X73556Y59547D1*
X72681Y59105D1*
X72542Y59059D1*
X71573Y58909D1*
X71427Y58907D1*
X70459Y59063D1*
X70319Y59107D1*
X69447Y59554D1*
X69327Y59639D1*
X68636Y60333D1*
X68548Y60451D1*
X68106Y61325D1*
X68059Y61464D1*
X67909Y62431D1*
X67907Y62578D1*
X68042Y63431D1*
X67958Y63208D1*
X67790Y62939D1*
X67567Y62714D1*
X67300Y62544D1*
X67002Y62437D1*
X66687Y62399D1*
X66372Y62431D1*
X66072Y62533D1*
X65802Y62698D1*
X65575Y62919D1*
X65408Y63177D1*
X65250Y62939D1*
X65027Y62714D1*
X64768Y62549D1*
X64988Y62421D1*
X65219Y62204D1*
X65396Y61941D1*
X65510Y61645D1*
X65558Y61282D1*
X65522Y60967D1*
X65418Y60668D1*
X65250Y60399D1*
X65027Y60174D1*
X64760Y60004D1*
X64462Y59897D1*
X64147Y59859D1*
X63832Y59891D1*
X63532Y59993D1*
X63262Y60158D1*
X63035Y60379D1*
X62868Y60637D1*
X62710Y60399D1*
X62487Y60174D1*
X62220Y60004D1*
X61922Y59897D1*
X61607Y59859D1*
X61292Y59891D1*
X60992Y59993D1*
X60722Y60158D1*
X60495Y60379D1*
X60328Y60637D1*
X60170Y60399D1*
X59947Y60174D1*
X59680Y60004D1*
X59382Y59897D1*
X59067Y59859D1*
X58752Y59891D1*
X58452Y59993D1*
X58182Y60158D1*
X57955Y60379D1*
X57788Y60637D1*
X57630Y60399D1*
X57407Y60174D1*
X57140Y60004D1*
X56842Y59897D1*
X56527Y59859D1*
X56212Y59891D1*
X55912Y59993D1*
X55642Y60158D1*
X55415Y60379D1*
X55248Y60637D1*
X55090Y60399D1*
X54867Y60174D1*
X54600Y60004D1*
X54302Y59897D1*
X53987Y59859D1*
X53672Y59891D1*
X53372Y59993D1*
X53102Y60158D1*
X52875Y60379D1*
X52708Y60637D1*
X52550Y60399D1*
X52327Y60174D1*
X52060Y60004D1*
X51762Y59897D1*
X51447Y59859D1*
X51132Y59891D1*
X50832Y59993D1*
X50562Y60158D1*
X50335Y60379D1*
X50162Y60645D1*
X50053Y60942D1*
X50012Y61256D1*
X50042Y61572D1*
X50140Y61873D1*
X50303Y62145D1*
X50522Y62374D1*
X50796Y62552D1*
X50562Y62698D1*
X50335Y62919D1*
X50168Y63177D1*
X50010Y62939D1*
X49787Y62714D1*
X49520Y62544D1*
X49222Y62437D1*
X48907Y62399D1*
X48592Y62431D1*
X48292Y62533D1*
X48022Y62698D1*
X47795Y62919D1*
X47628Y63177D1*
X47470Y62939D1*
X47247Y62714D1*
X46988Y62549D1*
X47208Y62421D1*
X47439Y62204D1*
X47616Y61941D1*
X47730Y61645D1*
X47778Y61282D1*
X47742Y60967D1*
X47638Y60668D1*
X47470Y60399D1*
X47247Y60174D1*
X46980Y60004D1*
X46682Y59897D1*
X46367Y59859D1*
X46052Y59891D1*
X45752Y59993D1*
X45482Y60158D1*
X45255Y60379D1*
X45088Y60637D1*
X44930Y60399D1*
X44707Y60174D1*
X44440Y60004D1*
X44142Y59897D1*
X43827Y59859D1*
X43512Y59891D1*
X43212Y59993D1*
X42942Y60158D1*
X42715Y60379D1*
X42548Y60637D1*
X42390Y60399D1*
X42167Y60174D1*
X41900Y60004D1*
X41602Y59897D1*
X41287Y59859D1*
X41061Y59882D1*
X39302Y58124D1*
X39041Y57947D1*
X38710Y57879D1*
X36616D1*
X35210Y56476D1*
X35428Y56456D1*
X35730Y56359D1*
X36003Y56199D1*
X36234Y55982D1*
X36422Y55691D1*
X36559Y55923D1*
X36778Y56152D1*
X37042Y56327D1*
X37338Y56439D1*
X37652Y56482D1*
X37968Y56456D1*
X38270Y56359D1*
X38543Y56199D1*
X38774Y55982D1*
X38962Y55691D1*
X39099Y55923D1*
X39318Y56152D1*
X39582Y56327D1*
X39878Y56439D1*
X40192Y56482D1*
X40508Y56456D1*
X40810Y56359D1*
X41083Y56199D1*
X41314Y55982D1*
X41502Y55691D1*
X41639Y55923D1*
X41858Y56152D1*
X42122Y56327D1*
X42418Y56439D1*
X42732Y56482D1*
X43048Y56456D1*
X43350Y56359D1*
X43623Y56199D1*
X43854Y55982D1*
X44031Y55719D1*
X44146Y55424D1*
X44193Y55060D1*
X44158Y54745D1*
X44054Y54446D1*
X43886Y54177D1*
X43663Y53952D1*
X43395Y53782D1*
X43097Y53675D1*
X42783Y53637D1*
X42556Y53661D1*
X37757Y48862D1*
X37968Y48836D1*
X38270Y48739D1*
X38543Y48579D1*
X38774Y48362D1*
X38962Y48071D1*
X39099Y48303D1*
X39318Y48532D1*
X39582Y48707D1*
X39878Y48819D1*
X40192Y48862D1*
X40508Y48836D1*
X40810Y48739D1*
X41083Y48579D1*
X41314Y48362D1*
X41491Y48099D1*
X41606Y47804D1*
X41653Y47440D1*
X41618Y47125D1*
X41514Y46826D1*
X41346Y46557D1*
X41123Y46332D1*
X40855Y46162D1*
X40557Y46055D1*
X40243Y46017D1*
X39927Y46050D1*
X39627Y46151D1*
X39357Y46316D1*
X39130Y46537D1*
X38963Y46795D1*
X38806Y46557D1*
X38583Y46332D1*
X38315Y46162D1*
X38017Y46055D1*
X37703Y46017D1*
X37387Y46050D1*
X37087Y46151D1*
X36817Y46316D1*
X36590Y46537D1*
X36423Y46795D1*
X36266Y46557D1*
X36043Y46332D1*
X35775Y46162D1*
X35477Y46055D1*
X35163Y46017D1*
X34847Y46050D1*
X34547Y46151D1*
X34277Y46316D1*
X34050Y46537D1*
X33883Y46795D1*
X33726Y46557D1*
X33503Y46332D1*
X33235Y46162D1*
X32937Y46055D1*
X32623Y46017D1*
X32307Y46050D1*
X32007Y46151D1*
X31737Y46316D1*
X31510Y46537D1*
X31343Y46795D1*
X31186Y46557D1*
X30963Y46332D1*
X30695Y46162D1*
X30397Y46055D1*
X30083Y46017D1*
X29767Y46050D1*
X29467Y46151D1*
X29197Y46316D1*
X28954Y46562D1*
X28953Y46017D1*
X26107D1*
Y48863D1*
X27764D1*
X28203Y49298D1*
X28464Y49475D1*
X28795Y49543D1*
X34143D1*
X34312Y49712D1*
X34319Y53911D1*
X34050Y54157D1*
X33883Y54415D1*
X33726Y54177D1*
X33503Y53952D1*
X33235Y53782D1*
X32937Y53675D1*
X32623Y53637D1*
X32307Y53670D1*
X32007Y53771D1*
X31737Y53936D1*
X31510Y54157D1*
X31343Y54415D1*
X31186Y54177D1*
X30963Y53952D1*
X30695Y53782D1*
X30397Y53675D1*
X30083Y53637D1*
X29767Y53670D1*
X29467Y53771D1*
X29197Y53936D1*
X28970Y54157D1*
X28803Y54415D1*
X28646Y54177D1*
X28423Y53952D1*
X28155Y53782D1*
X27857Y53675D1*
X27543Y53637D1*
X27227Y53670D1*
X26927Y53771D1*
X26657Y53936D1*
X26430Y54157D1*
X26258Y54423D1*
X26148Y54721D1*
X26107Y55035D1*
X26137Y55350D1*
X26236Y55651D1*
X26399Y55923D1*
X26618Y56152D1*
X26882Y56327D1*
X27178Y56439D1*
X27492Y56482D1*
X27808Y56456D1*
X28110Y56359D1*
X28383Y56199D1*
X28614Y55982D1*
X28802Y55691D1*
X28939Y55923D1*
X29158Y56152D1*
X29422Y56327D1*
X29718Y56439D1*
X30032Y56482D1*
X30348Y56456D1*
X30650Y56359D1*
X30923Y56199D1*
X31154Y55982D1*
X31342Y55691D1*
X31479Y55923D1*
X31698Y56152D1*
X31962Y56327D1*
X32258Y56439D1*
X32572Y56482D1*
X32819Y56461D1*
X35674Y59309D1*
X35935Y59486D1*
X36267Y59555D1*
X38360D1*
X38671Y59863D1*
X38432Y59891D1*
X38132Y59993D1*
X37862Y60158D1*
X37635Y60379D1*
X37468Y60637D1*
X37310Y60399D1*
X37087Y60174D1*
X36820Y60004D1*
X36522Y59897D1*
X36207Y59859D1*
X35892Y59891D1*
X35592Y59993D1*
X35322Y60158D1*
X35095Y60379D1*
X34928Y60637D1*
X34770Y60399D1*
X34547Y60174D1*
X34280Y60004D1*
X33982Y59897D1*
X33667Y59859D1*
X33352Y59891D1*
X33052Y59993D1*
X32782Y60158D1*
X32555Y60379D1*
X32388Y60637D1*
X32230Y60399D1*
X32007Y60174D1*
X31740Y60004D1*
X31442Y59897D1*
X31127Y59859D1*
X30812Y59891D1*
X30512Y59993D1*
X30242Y60158D1*
X30015Y60379D1*
X29842Y60645D1*
X29733Y60942D1*
X29692Y61256D1*
X29722Y61572D1*
X29820Y61873D1*
X29983Y62145D1*
X30202Y62374D1*
X30476Y62552D1*
X30242Y62698D1*
X30015Y62919D1*
X29848Y63177D1*
X29690Y62939D1*
X29467Y62714D1*
X29200Y62544D1*
X28902Y62437D1*
X28587Y62399D1*
X28272Y62431D1*
X27972Y62533D1*
X27702Y62698D1*
X27475Y62919D1*
X27308Y63177D1*
X27150Y62939D1*
X26927Y62714D1*
X26668Y62549D1*
X26888Y62421D1*
X27119Y62204D1*
X27296Y61941D1*
X27410Y61645D1*
X27458Y61282D1*
X27422Y60967D1*
X27318Y60668D1*
X27150Y60399D1*
X26927Y60174D1*
X26660Y60004D1*
X26362Y59897D1*
X26047Y59859D1*
X25732Y59891D1*
X25432Y59993D1*
X25162Y60158D1*
X24935Y60379D1*
X24768Y60637D1*
X24610Y60399D1*
X24387Y60174D1*
X24120Y60004D1*
X23822Y59897D1*
X23507Y59859D1*
X23192Y59891D1*
X22892Y59993D1*
X22622Y60158D1*
X22395Y60379D1*
X22228Y60637D1*
X22070Y60399D1*
X21847Y60174D1*
X21580Y60004D1*
X21282Y59897D1*
X20967Y59859D1*
X20652Y59891D1*
X20352Y59993D1*
X20082Y60158D1*
X19838Y60404D1*
Y59859D1*
X16992D1*
Y61734D1*
X16947Y61459D1*
X16903Y61319D1*
X16455Y60446D1*
X16370Y60327D1*
X15674Y59636D1*
X15557Y59548D1*
X14681Y59106D1*
X14543Y59059D1*
X13573Y58909D1*
X13427Y58907D1*
X12459Y59063D1*
X12319Y59107D1*
X11446Y59555D1*
X11327Y59640D1*
X10983Y59984D1*
X10978Y54384D1*
X10987Y47494D1*
X11361Y47478D1*
X14085Y47475D1*
X14553Y47402D1*
X15026Y47195D1*
X15430Y46871D1*
X15736Y46454D1*
X15924Y45972D1*
X15978Y45543D1*
X15970Y42221D1*
X18091D1*
Y39375D1*
X15978D1*
X15970Y31266D1*
X16426D1*
X22166Y36999D1*
X22418Y37191D1*
X22804Y37327D1*
X23630Y37343D1*
X43710Y37341D1*
X44016Y37260D1*
X44289Y37099D1*
X44509Y36872D1*
X44662Y36595D1*
X44741Y36170D1*
X44698Y35856D1*
X44574Y35565D1*
X44377Y35317D1*
X44121Y35131D1*
X43825Y35019D1*
X43461Y34999D1*
X23488Y34997D1*
X18212Y29728D1*
X18093Y29609D1*
X18091Y28420D1*
X15245D1*
Y28966D1*
X14954Y28764D1*
X14472Y28576D1*
X14043Y28523D1*
X10994Y28513D1*
X10978Y28139D1*
Y16025D1*
X11357Y16399D1*
X11475Y16487D1*
X12346Y16932D1*
X12486Y16980D1*
X13451Y17131D1*
X13599Y17133D1*
X14562Y16975D1*
X14704Y16931D1*
X15572Y16480D1*
X15691Y16394D1*
X16379Y15694D1*
X16466Y15576D1*
X16906Y14696D1*
X16952Y14558D1*
X17102Y13583D1*
X17103Y13438D1*
X16947Y12463D1*
X16905Y12325D1*
X16459Y11447D1*
X16375Y11327D1*
X16033Y10982D1*
X34633Y10978D1*
X39049D1*
X38888Y11108D1*
X37493Y12503D1*
X37315Y12764D1*
X37247Y13095D1*
Y21392D1*
X37307Y21702D1*
X37493Y21985D1*
X42770Y27263D1*
X43032Y27440D1*
X43363Y27508D1*
X43611D1*
X43858Y27762D1*
X44122Y27937D1*
X44418Y28049D1*
X44732Y28093D1*
X45048Y28066D1*
X45350Y27970D1*
X45623Y27809D1*
X45854Y27592D1*
X46031Y27329D1*
X46145Y27034D1*
X46193Y26670D1*
X46170Y26464D1*
X46408Y26217D1*
X47543Y26213D1*
X47717Y26383D1*
Y40118D1*
X44258Y43578D1*
X44080Y43839D1*
X44012Y44170D1*
X44016Y45131D1*
X43868Y45353D1*
X43769Y45654D1*
X43753Y45970D1*
X43822Y46279D1*
X43971Y46559D1*
X44188Y46789D1*
X44459Y46953D1*
X44763Y47039D1*
X45080Y47041D1*
X45386Y46960D1*
X45659Y46799D1*
X45879Y46572D1*
X46032Y46295D1*
X46111Y45870D1*
X46068Y45556D1*
X45944Y45265D1*
X45691Y44977D1*
X45688Y44511D1*
X45961Y44247D1*
X46018Y44589D1*
X46132Y44884D1*
X46301Y45153D1*
X46516Y45385D1*
X46772Y45572D1*
X47059Y45708D1*
X47366Y45787D1*
X47682Y45807D1*
X47997Y45767D1*
X48298Y45668D1*
X48575Y45514D1*
X48674Y45431D1*
X48667Y50178D1*
Y52390D1*
X48710Y52704D1*
X48886Y53073D1*
X49460Y53668D1*
X50600Y54808D1*
X50852Y55000D1*
X51238Y55136D1*
X52064Y55152D1*
X70648D1*
X70839Y55315D1*
X71116Y55468D1*
X71418Y55565D1*
X71733Y55602D1*
X72049Y55576D1*
X72354Y55490D1*
X72636Y55345D1*
X72885Y55149D1*
X73091Y54908D1*
X73246Y54632D1*
X73345Y54331D1*
X73383Y53979D1*
X73352Y53664D1*
X73261Y53360D1*
X73112Y53080D1*
X72911Y52835D1*
X72766Y52715D1*
X73091Y52368D1*
X73246Y52092D1*
X73345Y51791D1*
X73383Y51439D1*
X73352Y51124D1*
X73261Y50820D1*
X73112Y50540D1*
X72930Y50318D1*
X72933Y43293D1*
X73333Y43285D1*
Y40539D1*
X73284D1*
X73333Y40202D1*
X73297Y39887D1*
X73189Y39590D1*
X73016Y39324D1*
X72786Y39106D1*
X72513Y38945D1*
X72210Y38852D1*
X71960Y38829D1*
X71560Y38839D1*
X71182Y38882D1*
X70889Y39004D1*
X70633Y39190D1*
X70484Y39362D1*
X62860Y39364D1*
X62697Y39195D1*
Y33301D1*
X66770Y37375D1*
X67031Y37552D1*
X67362Y37620D1*
X70468D1*
X21594Y62546D2*
X21808Y62421D1*
X22039Y62204D1*
X22226Y61913D1*
X22363Y62145D1*
X22582Y62374D1*
X22856Y62552D1*
X22622Y62698D1*
X22395Y62919D1*
X22228Y63177D1*
X22070Y62939D1*
X21847Y62714D1*
X21588Y62549D1*
X24134Y62546D2*
X24348Y62421D1*
X24579Y62204D1*
X24766Y61913D1*
X24903Y62145D1*
X25122Y62374D1*
X25396Y62552D1*
X25162Y62698D1*
X24935Y62919D1*
X24768Y63177D1*
X24610Y62939D1*
X24387Y62714D1*
X24128Y62549D1*
X31754Y62546D2*
X31968Y62421D1*
X32199Y62204D1*
X32386Y61913D1*
X32523Y62145D1*
X32742Y62374D1*
X33007Y62548D1*
X33303Y62660D1*
X33617Y62704D1*
X33933Y62677D1*
X34235Y62581D1*
X34508Y62421D1*
X34739Y62204D1*
X34926Y61913D1*
X35063Y62145D1*
X35282Y62374D1*
X35556Y62552D1*
X35322Y62698D1*
X35095Y62919D1*
X34922Y63185D1*
X34813Y63482D1*
X34772Y63796D1*
X34802Y64112D1*
X34900Y64413D1*
X35063Y64685D1*
X35282Y64914D1*
X35439Y65017D1*
X31882Y65022D1*
X32199Y64744D1*
X32376Y64481D1*
X32490Y64185D1*
X32538Y63822D1*
X32502Y63507D1*
X32398Y63208D1*
X32230Y62939D1*
X32007Y62714D1*
X31748Y62549D1*
X36834Y62546D2*
X37048Y62421D1*
X37279Y62204D1*
X37466Y61913D1*
X37603Y62145D1*
X37822Y62374D1*
X38096Y62552D1*
X37862Y62698D1*
X37635Y62919D1*
X37468Y63177D1*
X37310Y62939D1*
X37087Y62714D1*
X36828Y62549D1*
X39374Y62546D2*
X39588Y62421D1*
X39819Y62204D1*
X40006Y61913D1*
X40143Y62145D1*
X40362Y62374D1*
X40627Y62548D1*
X40923Y62660D1*
X41237Y62704D1*
X41553Y62677D1*
X41855Y62581D1*
X42128Y62421D1*
X42359Y62204D1*
X42546Y61913D1*
X42683Y62145D1*
X42902Y62374D1*
X43176Y62552D1*
X42942Y62698D1*
X42715Y62919D1*
X42542Y63185D1*
X42433Y63482D1*
X42392Y63796D1*
X42422Y64112D1*
X42520Y64413D1*
X42683Y64685D1*
X42902Y64914D1*
X43059Y65017D1*
X39502Y65022D1*
X39819Y64744D1*
X39996Y64481D1*
X40110Y64185D1*
X40158Y63822D1*
X40122Y63507D1*
X40018Y63208D1*
X39850Y62939D1*
X39627Y62714D1*
X39368Y62549D1*
X44454Y62546D2*
X44668Y62421D1*
X44899Y62204D1*
X45086Y61913D1*
X45223Y62145D1*
X45442Y62374D1*
X45716Y62552D1*
X45482Y62698D1*
X45255Y62919D1*
X45088Y63177D1*
X44930Y62939D1*
X44707Y62714D1*
X44448Y62549D1*
X52074Y62546D2*
X52288Y62421D1*
X52519Y62204D1*
X52706Y61913D1*
X52843Y62145D1*
X53062Y62374D1*
X53327Y62548D1*
X53623Y62660D1*
X53937Y62704D1*
X54253Y62677D1*
X54555Y62581D1*
X54828Y62421D1*
X55059Y62204D1*
X55246Y61913D1*
X55383Y62145D1*
X55602Y62374D1*
X55876Y62552D1*
X55642Y62698D1*
X55415Y62919D1*
X55242Y63185D1*
X55133Y63482D1*
X55092Y63796D1*
X55122Y64112D1*
X55220Y64413D1*
X55383Y64685D1*
X55602Y64914D1*
X55759Y65017D1*
X52202Y65023D1*
X52519Y64744D1*
X52696Y64481D1*
X52810Y64185D1*
X52858Y63822D1*
X52822Y63507D1*
X52718Y63208D1*
X52550Y62939D1*
X52327Y62714D1*
X52068Y62549D1*
X57154Y62546D2*
X57368Y62421D1*
X57599Y62204D1*
X57786Y61913D1*
X57923Y62145D1*
X58142Y62374D1*
X58407Y62548D1*
X58703Y62660D1*
X59017Y62704D1*
X59333Y62677D1*
X59635Y62581D1*
X59908Y62421D1*
X60139Y62204D1*
X60326Y61913D1*
X60463Y62145D1*
X60682Y62374D1*
X60956Y62552D1*
X60722Y62698D1*
X60495Y62919D1*
X60322Y63185D1*
X60213Y63482D1*
X60172Y63796D1*
X60202Y64112D1*
X60300Y64413D1*
X60463Y64685D1*
X60682Y64914D1*
X60839Y65017D1*
X57282Y65023D1*
X57599Y64744D1*
X57776Y64481D1*
X57890Y64185D1*
X57938Y63822D1*
X57902Y63507D1*
X57798Y63208D1*
X57630Y62939D1*
X57407Y62714D1*
X57148Y62549D1*
X62234Y62546D2*
X62448Y62421D1*
X62679Y62204D1*
X62866Y61913D1*
X63003Y62145D1*
X63222Y62374D1*
X63496Y62552D1*
X63262Y62698D1*
X63035Y62919D1*
X62868Y63177D1*
X62710Y62939D1*
X62487Y62714D1*
X62228Y62549D1*
X67417Y65026D2*
X67528Y64961D1*
X67759Y64744D1*
X67936Y64481D1*
X68050Y64185D1*
X68098Y63822D1*
X68072Y63595D1*
X68548Y64549D1*
X68640Y64675D1*
X68984Y65019D1*
X67442Y65023D1*
X17001Y63229D2*
X17081Y62705D1*
X17537D1*
X17315Y62919D1*
X17142Y63185D1*
X17033Y63482D1*
X16992Y63796D1*
X17022Y64112D1*
X17120Y64413D1*
X17283Y64685D1*
X17502Y64914D1*
X17659Y65017D1*
X16027Y65022D1*
X16374Y64674D1*
X16462Y64557D1*
X16904Y63681D1*
X16951Y63543D1*
X17083Y62710D1*
X62862Y28192D2*
X59251D1*
X61302Y26147D1*
X64908Y26153D1*
X62856Y28199D1*
D20*
X16668Y29843D3*
D21*
X41338D3*
D20*
X16668Y40798D3*
D21*
X45328D3*
D22*
X59853Y31116D3*
D23*
Y12276D3*
D24*
X14050Y55850D3*
D25*
Y53310D3*
D26*
X13730Y26130D3*
D27*
Y22630D3*
D20*
X43500Y24130D3*
D28*
X44770Y26670D3*
X46040Y24130D3*
X47310Y26670D3*
D16*
X66424Y44135D3*
X47628D3*
D29*
X71761Y56519D3*
D30*
Y53979D3*
Y51439D3*
D31*
X12800Y48980D3*
D32*
X22960D3*
D33*
X22384Y16827D3*
D34*
X27134D3*
X31884D3*
D28*
X70808Y29052D3*
Y26512D3*
Y23972D3*
Y21432D3*
Y18892D3*
D20*
X27530Y47440D3*
D21*
X30070D3*
X32610D3*
X35150D3*
X37690D3*
X40230D3*
X42770D3*
Y55060D3*
X40230D3*
X37690D3*
X35150D3*
X32610D3*
X30070D3*
X27530D3*
D36*
X71760Y41912D3*
D37*
Y40202D3*
Y38492D3*
Y36782D3*
Y35072D3*
D20*
X18415Y61282D3*
D28*
X20955D3*
X23495D3*
X26035D3*
X28575D3*
X31115D3*
X33655D3*
X36195D3*
X38735D3*
X41275D3*
X43815D3*
X46355D3*
X48895D3*
X51435D3*
X53975D3*
X56515D3*
X59055D3*
X61595D3*
X64135D3*
X66675D3*
Y63822D3*
X64135D3*
X61595D3*
X59055D3*
X56515D3*
X53975D3*
X51435D3*
X48895D3*
X46355D3*
X43815D3*
X41275D3*
X38735D3*
X36195D3*
X33655D3*
X31115D3*
X28575D3*
X26035D3*
X23495D3*
X20955D3*
X18415D3*
M02*
