G04 DipTrace 2.4.0.1*
%INBottomMask.gbr*%
%MOMM*%
%ADD18O,3.199X3.202*%
%ADD33R,3.0X3.0*%
%ADD40C,1.7*%
%ADD50O,2.0X1.6*%
%ADD52R,2.0X1.6*%
%ADD55R,3.2X3.2*%
%ADD56C,1.724*%
%ADD58C,2.1*%
%ADD59C,1.7*%
%ADD60R,2.1X2.1*%
%ADD61R,1.7X1.7*%
%ADD62C,2.2*%
%ADD64C,1.724*%
%ADD66R,1.724X1.724*%
%ADD68R,2.7X2.7*%
%ADD71C,2.7*%
%ADD73R,1.47X1.47*%
%ADD75C,1.47*%
%ADD77C,3.0*%
%FSLAX53Y53*%
G04*
G71*
G90*
G75*
G01*
%LNBotMask*%
%LPD*%
D61*
X16560Y29950D3*
D59*
X41230D3*
D61*
X16668Y40796D3*
D59*
X45328D3*
D33*
X59853Y31116D3*
D77*
Y12276D3*
D75*
X13920Y51320D3*
D73*
Y48780D3*
D71*
X65200Y13800D3*
Y19600D3*
D61*
X18365Y61232D3*
D40*
X20905D3*
X23445D3*
X25985D3*
X28525D3*
X31065D3*
X33605D3*
X36145D3*
X38685D3*
X41225D3*
X43765D3*
X46305D3*
X48845D3*
X51385D3*
X53925D3*
X56465D3*
X59005D3*
X61545D3*
X64085D3*
X66625D3*
Y63772D3*
X64085D3*
X61545D3*
X59005D3*
X56465D3*
X53925D3*
X51385D3*
X48845D3*
X46305D3*
X43765D3*
X41225D3*
X38685D3*
X36145D3*
X33605D3*
X31065D3*
X28525D3*
X25985D3*
X23445D3*
X20905D3*
X18365D3*
D68*
X13950Y26430D3*
D71*
Y22930D3*
D61*
X41305Y23970D3*
D40*
X42575Y26510D3*
X43845Y23970D3*
X45115Y26510D3*
X46385Y23970D3*
X47655Y26510D3*
X48925Y23970D3*
X50195Y26510D3*
D66*
X12570Y55930D3*
D64*
X15110D3*
D62*
X66424Y44955D3*
X47628D3*
D60*
X71351Y56519D3*
D58*
Y53979D3*
Y51439D3*
D64*
X19090Y44920D3*
D56*
Y55080D3*
D55*
X22384Y16827D3*
D18*
X27134D3*
X31884D3*
D40*
X71130Y28450D3*
Y25910D3*
Y23370D3*
Y20830D3*
Y18290D3*
D61*
X27640Y47620D3*
D59*
X30180D3*
X32720D3*
X35260D3*
X37800D3*
X40340D3*
X42880D3*
Y55240D3*
X40340D3*
X37800D3*
X35260D3*
X32720D3*
X30180D3*
X27640D3*
D52*
X71560Y42820D3*
D50*
Y41110D3*
Y39400D3*
Y37690D3*
Y35980D3*
M02*
