G04 DipTrace 2.4.0.1*
%INBottom.gbr*%
%MOMM*%
%ADD13C,1.0*%
%ADD14C,0.33*%
%ADD15C,0.635*%
%ADD16C,2.0*%
%ADD19R,1.5X1.5*%
%ADD20C,1.5*%
%ADD21R,2.8X2.8*%
%ADD22C,2.8*%
%ADD23C,1.27*%
%ADD24R,1.27X1.27*%
%ADD25C,2.5*%
%ADD26C,1.5*%
%ADD27R,2.5X2.5*%
%ADD28R,1.524X1.524*%
%ADD29C,1.524*%
%ADD30R,1.9X1.9*%
%ADD31C,1.9*%
%ADD32C,1.524*%
%ADD33R,3.0X3.0*%
%ADD34C,3.0*%
%ADD35R,1.8X1.4*%
%ADD36O,1.8X1.4*%
%ADD37C,1.016*%
%FSLAX53Y53*%
G04*
G71*
G90*
G75*
G01*
%LNBottom*%
%LPD*%
X48925Y23970D2*
D13*
Y22135D1*
X47920Y21130D1*
Y14880D1*
X51190Y11610D1*
X56490D1*
X57230Y12350D1*
Y13650D1*
X60460Y16880D1*
X66590D1*
X68000Y18290D1*
X71130D1*
X50195Y26510D2*
D14*
Y35734D1*
X49535Y36394D1*
X38460D1*
X37800Y37054D1*
Y47620D1*
X35260Y55240D2*
Y53100D1*
X35060Y52900D1*
X32920D1*
X27640Y47620D1*
X42880Y55240D2*
Y53180D1*
X42550Y52850D1*
X40490D1*
X35260Y47620D1*
X41225Y63772D2*
X41300Y63847D1*
Y62460D1*
X33670D1*
Y63837D1*
X33605Y63772D1*
X41300Y62460D2*
X48845D1*
X53925D1*
Y63772D1*
Y62460D2*
X59060D1*
Y63827D1*
X59005Y63772D1*
X28525Y61232D2*
Y61205D1*
X25400Y58080D1*
X22090D1*
X19090Y55080D1*
X28525Y61232D2*
Y62460D1*
X33670D1*
X48845Y61232D2*
Y62460D1*
X59060D2*
X66650D1*
Y61257D1*
X66625Y61232D1*
X66638D2*
X71351Y56519D1*
X73940D1*
Y39320D1*
X71640D1*
X71560Y39400D1*
X73940Y39320D2*
Y35770D1*
X71770D1*
X71560Y35980D1*
X73940Y35770D2*
Y23330D1*
X71170D1*
X71130Y23370D1*
X73940Y23330D2*
Y18500D1*
X72540Y17100D1*
X70310D1*
X67610Y14400D1*
Y11980D1*
X59800D1*
Y12223D1*
X59853Y12276D1*
X43845Y23970D2*
X41305D1*
Y25240D1*
X42575Y26510D1*
X41305Y23970D2*
Y29875D1*
X41230Y29950D1*
X43845Y23970D2*
X44030D1*
X45220Y25160D1*
X46305D1*
X47655Y26510D1*
X13950Y22930D2*
Y20010D1*
X21970Y11990D1*
X43980D1*
Y23835D1*
X43845Y23970D1*
X45328Y40796D2*
Y45172D1*
X42880Y47620D1*
X45328Y40796D2*
X48016D1*
X63739Y56519D1*
X71351D1*
X42233Y34357D2*
D13*
X39914D1*
X22384Y16827D1*
X46385Y23970D2*
D14*
X47735Y25320D1*
X48900D1*
X51100D1*
X52590Y26810D1*
Y29860D1*
X53840Y31110D1*
X55880D1*
X58530Y28460D1*
X59070D1*
Y28450D1*
X71130D1*
X48900Y25320D2*
Y34700D1*
X48240Y35360D1*
X33380D1*
X32720Y36020D1*
Y47620D1*
X16668Y40796D2*
Y53208D1*
X17210Y53750D1*
X33640D1*
X33970Y54080D1*
Y55780D1*
X34520Y56330D1*
X38800D1*
X39190Y55940D1*
Y54410D1*
X39690Y53910D1*
X41080D1*
X41550Y54380D1*
Y55790D1*
X42130Y56370D1*
X47040D1*
X47760Y55650D1*
Y45087D1*
X47628Y44955D1*
X40340Y55240D2*
Y57620D1*
X42060Y59340D1*
X44413D1*
X46305Y61232D1*
X32720Y55240D2*
Y57280D1*
X37273D1*
X41225Y61232D1*
X66424Y44955D2*
Y37687D1*
X59853Y31116D1*
D37*
X42233Y34357D3*
X12227Y59088D2*
D15*
X11026Y57887D1*
X13848Y58912D2*
X12345Y57410D1*
X16900Y60168D2*
X14050Y57318D1*
X11182Y54450D2*
X11026Y54295D1*
X18289Y59761D2*
X15790Y57262D1*
X12978Y54450D2*
X11026Y52499D1*
X20232Y59909D2*
X16561Y56238D1*
X14802Y54478D2*
X11026Y50703D1*
X24891Y62771D2*
X24447Y62328D1*
X22351Y60231D2*
X14618Y52499D1*
X12739Y50620D2*
X11026Y48906D1*
X23719Y59803D2*
X18547Y54631D1*
X15784Y51869D2*
X15270Y51355D1*
X12571Y48655D2*
X11440Y47524D1*
X28076Y62364D2*
X27394Y61682D1*
X25536Y59824D2*
X20343Y54631D1*
X18576Y52865D2*
X17551Y51839D1*
X15784Y50072D2*
X15270Y49559D1*
X32482Y64974D2*
X32217Y64709D1*
X30124Y62617D2*
X22139Y54631D1*
X20372Y52865D2*
X17551Y50043D1*
X15784Y48276D2*
X15270Y47763D1*
X34278Y64974D2*
X32151Y62847D1*
X31995Y62691D2*
X31811Y62507D1*
X29788Y60484D2*
X23935Y54631D1*
X22168Y52865D2*
X17551Y48247D1*
X34685Y63585D2*
X33792Y62693D1*
X30875Y59775D2*
X27801Y56701D1*
X26174Y55075D2*
X25731Y54631D1*
X23965Y52865D2*
X17551Y46451D1*
X35393Y62498D2*
X34880Y61984D1*
X32854Y59958D2*
X28909Y56013D1*
X25761Y52865D2*
X19291Y46395D1*
X37533Y62841D2*
X37076Y62384D1*
X34986Y60295D2*
X32852Y58160D1*
X31836Y57144D2*
X31098Y56406D1*
X27557Y52865D2*
X20378Y45686D1*
X18324Y43632D2*
X17551Y42859D1*
X41462Y64974D2*
X40142Y63654D1*
X36263Y59775D2*
X34648Y58160D1*
X29353Y52865D2*
X18133Y41645D1*
X42332Y64048D2*
X40948Y62664D1*
X38136Y59853D2*
X36444Y58160D1*
X31149Y52865D2*
X27373Y49089D1*
X26174Y47891D2*
X18133Y39849D1*
X17615Y39331D2*
X16021Y37737D1*
X42760Y62680D2*
X42317Y62237D1*
X26231Y46151D2*
X16021Y35941D1*
X39455Y57579D2*
X39061Y57185D1*
X33892Y52016D2*
X30832Y48956D1*
X28027Y46151D2*
X16021Y34145D1*
X37470Y53798D2*
X32761Y49089D1*
X29851Y46179D2*
X16021Y32349D1*
X12150Y28478D2*
X11026Y27354D1*
X48015Y62547D2*
X47536Y62068D1*
X43925Y58456D2*
X42723Y57255D1*
X38894Y53426D2*
X33940Y48471D1*
X31836Y46368D2*
X16884Y31416D1*
X11981Y26513D2*
X11026Y25558D1*
X50176Y62911D2*
X44519Y57255D1*
X34039Y46775D2*
X33603Y46339D1*
X31836Y44572D2*
X18028Y30764D1*
X11981Y24717D2*
X11026Y23762D1*
X54034Y64974D2*
X52854Y63794D1*
X49951Y60891D2*
X46316Y57255D1*
X44549Y55489D2*
X44353Y55293D1*
X41027Y51967D2*
X38121Y49061D1*
X35211Y46151D2*
X33603Y44543D1*
X31836Y42776D2*
X18028Y28967D1*
X17545Y28485D2*
X15916Y26856D1*
X13525Y24465D2*
X11026Y21966D1*
X55094Y64237D2*
X53465Y62608D1*
X50751Y59895D2*
X47768Y56912D1*
X46345Y55489D2*
X43628Y52772D1*
X42956Y52100D2*
X39833Y48977D1*
X36916Y46059D2*
X33603Y42747D1*
X31836Y40980D2*
X15916Y25060D1*
X15321Y24465D2*
X11026Y20170D1*
X55395Y62743D2*
X54952Y62300D1*
X52856Y60203D2*
X48603Y55950D1*
X46878Y54226D2*
X41355Y48703D1*
X39259Y46607D2*
X38682Y46030D1*
X36916Y44263D2*
X33603Y40951D1*
X31836Y39184D2*
X11026Y18374D1*
X59422Y64974D2*
X57878Y63429D1*
X54266Y59817D2*
X48645Y54196D1*
X46878Y52430D2*
X41762Y47314D1*
X40641Y46193D2*
X38682Y44234D1*
X36916Y42467D2*
X33603Y39154D1*
X31836Y37388D2*
X11026Y16578D1*
X60082Y63838D2*
X58937Y62693D1*
X56055Y59810D2*
X48645Y52400D1*
X46878Y50634D2*
X38682Y42438D1*
X36916Y40671D2*
X33603Y37358D1*
X31899Y35655D2*
X13411Y17167D1*
X60636Y62596D2*
X60179Y62138D1*
X58096Y60056D2*
X48645Y50604D1*
X46878Y48838D2*
X38682Y40642D1*
X36916Y38875D2*
X34283Y36243D1*
X32755Y34715D2*
X14927Y16886D1*
X62825Y62989D2*
X62326Y62489D1*
X60285Y60449D2*
X48645Y48808D1*
X46878Y47042D2*
X38682Y38846D1*
X36916Y37079D2*
X36079Y36243D1*
X34313Y34476D2*
X16007Y16171D1*
X61401Y59768D2*
X48645Y47012D1*
X46001Y44369D2*
X38907Y37274D1*
X36109Y34476D2*
X20680Y19047D1*
X20169Y18536D2*
X16758Y15125D1*
X68403Y64974D2*
X67924Y64496D1*
X65905Y62476D2*
X65385Y61956D1*
X63365Y59937D2*
X49171Y45742D1*
X46843Y43414D2*
X40703Y37274D1*
X37905Y34476D2*
X22476Y19047D1*
X20169Y16740D2*
X17137Y13708D1*
X67884Y62659D2*
X42499Y37274D1*
X20169Y14944D2*
X16246Y11021D1*
X68143Y61122D2*
X44295Y37274D1*
X21628Y14607D2*
X18042Y11021D1*
X68845Y60028D2*
X46091Y37274D1*
X41953Y33136D2*
X27780Y18963D1*
X25003Y16186D2*
X24602Y15785D1*
X23424Y14607D2*
X19838Y11021D1*
X69877Y59264D2*
X47888Y37275D1*
X45090Y34477D2*
X28861Y18248D1*
X25712Y15099D2*
X21635Y11022D1*
X71287Y58878D2*
X49677Y37268D1*
X46886Y34477D2*
X31387Y18978D1*
X29732Y17323D2*
X29352Y16943D1*
X27017Y14608D2*
X23431Y11022D1*
X73974Y59769D2*
X50701Y36496D1*
X48016Y33811D2*
X32979Y18774D1*
X29936Y15731D2*
X25227Y11022D1*
X73974Y57973D2*
X71629Y55628D1*
X69702Y53701D2*
X51080Y35079D1*
X48016Y32015D2*
X33863Y17862D1*
X30848Y14847D2*
X27023Y11022D1*
X73974Y56177D2*
X72738Y54941D1*
X69800Y52003D2*
X51080Y33283D1*
X48016Y30219D2*
X45678Y27881D1*
X43743Y25946D2*
X33997Y16200D1*
X32518Y14721D2*
X28819Y11022D1*
X73974Y54381D2*
X72794Y53201D1*
X70010Y50417D2*
X66248Y46655D1*
X64720Y45127D2*
X51080Y31487D1*
X48016Y28422D2*
X46527Y26934D1*
X44690Y25097D2*
X39925Y20332D1*
X37323Y17730D2*
X30615Y11022D1*
X73974Y52585D2*
X73012Y51622D1*
X71168Y49779D2*
X67609Y46220D1*
X65155Y43766D2*
X51080Y29691D1*
X48016Y26626D2*
X47565Y26176D1*
X44964Y23575D2*
X41377Y19988D1*
X37667Y16278D2*
X32411Y11022D1*
X73974Y50789D2*
X68143Y44957D1*
X65541Y42356D2*
X55177Y31992D1*
X51706Y28521D2*
X51080Y27895D1*
X45799Y22613D2*
X42317Y19132D1*
X38523Y15338D2*
X34207Y11022D1*
X73974Y48993D2*
X67308Y42326D1*
X65541Y40560D2*
X58215Y33234D1*
X57733Y32751D2*
X56623Y31641D1*
X47707Y22726D2*
X42752Y17771D1*
X39884Y14903D2*
X36003Y11022D1*
X73974Y47197D2*
X71012Y44235D1*
X69940Y43163D2*
X67308Y40530D1*
X65541Y38764D2*
X60011Y33234D1*
X57733Y30955D2*
X57517Y30740D1*
X51236Y24459D2*
X50308Y23531D1*
X46704Y19926D2*
X37799Y11022D1*
X73974Y45401D2*
X72808Y44235D1*
X69975Y41402D2*
X67308Y38734D1*
X52878Y24304D2*
X49137Y20563D1*
X46704Y18130D2*
X39595Y11022D1*
X73974Y43605D2*
X73180Y42811D1*
X70403Y40034D2*
X61969Y31599D1*
X58062Y27693D2*
X57121Y26751D1*
X52878Y22508D2*
X50512Y20142D1*
X46704Y16334D2*
X41391Y11022D1*
X73974Y41809D2*
X73166Y41000D1*
X71869Y39704D2*
X71265Y39099D1*
X69947Y37782D2*
X61969Y29803D1*
X59732Y27567D2*
X57121Y24955D1*
X52878Y20712D2*
X52371Y20206D1*
X46732Y14566D2*
X43187Y11022D1*
X73974Y40013D2*
X72717Y38755D1*
X70501Y36540D2*
X63295Y29333D1*
X61528Y27567D2*
X57121Y23159D1*
X49601Y15640D2*
X49256Y15294D1*
X47503Y13542D2*
X44983Y11022D1*
X73974Y38217D2*
X73131Y37373D1*
X72080Y36322D2*
X65091Y29333D1*
X63324Y27567D2*
X57121Y21363D1*
X50745Y14987D2*
X50154Y14396D1*
X48401Y12644D2*
X46779Y11022D1*
X73974Y36421D2*
X66887Y29333D1*
X65120Y27567D2*
X57121Y19567D1*
X52878Y15324D2*
X51052Y13498D1*
X49299Y11746D2*
X48575Y11022D1*
X73974Y34624D2*
X68683Y29333D1*
X66916Y27567D2*
X57121Y17771D1*
X52920Y13570D2*
X52175Y12825D1*
X73974Y32828D2*
X71061Y29915D1*
X68712Y27567D2*
X57121Y15975D1*
X73974Y31032D2*
X72303Y29361D1*
X70221Y27279D2*
X64200Y21258D1*
X63542Y20600D2*
X61043Y18101D1*
X73974Y29236D2*
X71910Y27172D1*
X69870Y25132D2*
X66101Y21363D1*
X63436Y18699D2*
X62839Y18101D1*
X73974Y27440D2*
X72591Y26057D1*
X70978Y24445D2*
X66992Y20458D1*
X62195Y15661D2*
X58159Y11625D1*
X73974Y25644D2*
X70395Y22065D1*
X69898Y21568D2*
X67813Y19483D1*
X63991Y15661D2*
X59352Y11022D1*
X73974Y23848D2*
X72092Y21967D1*
X69996Y19870D2*
X69637Y19511D1*
X63317Y13191D2*
X61148Y11022D1*
X73974Y22052D2*
X72584Y20662D1*
X68993Y17071D2*
X66838Y14916D1*
X64082Y12160D2*
X62944Y11022D1*
X73974Y20256D2*
X72520Y18802D1*
X67955Y14236D2*
X67111Y13393D1*
X65604Y11886D2*
X64740Y11022D1*
X73974Y18460D2*
X72527Y17013D1*
X67983Y12469D2*
X66536Y11022D1*
X73974Y16664D2*
X73723Y16413D1*
X68579Y11269D2*
X68333Y11023D1*
X72780Y59081D2*
X73974Y57887D1*
X67497Y62568D2*
X67912Y62152D1*
X71152Y58912D2*
X73974Y56091D1*
X65322Y62947D2*
X73974Y54295D1*
X65533Y60940D2*
X70880Y55593D1*
X72962Y53510D2*
X73974Y52499D1*
X59703Y64974D2*
X60223Y64454D1*
X64761Y59916D2*
X69877Y54800D1*
X72991Y51686D2*
X73974Y50703D1*
X57906Y64974D2*
X60546Y62335D1*
X62649Y60231D2*
X70207Y52674D1*
X72591Y50290D2*
X73974Y48906D1*
X57843Y63241D2*
X58469Y62615D1*
X61288Y59796D2*
X69687Y51397D1*
X71314Y49771D2*
X73974Y47110D1*
X54314Y64974D2*
X55059Y64229D1*
X59464Y59824D2*
X73974Y45314D1*
X52518Y64974D2*
X55319Y62173D1*
X57408Y60084D2*
X73974Y43518D1*
X52666Y63031D2*
X53179Y62517D1*
X55614Y60083D2*
X71455Y44241D1*
X73180Y42516D2*
X73974Y41722D1*
X54125Y59775D2*
X69940Y43960D1*
X73145Y40755D2*
X73974Y39926D1*
X49607Y62498D2*
X50113Y61991D1*
X52147Y59958D2*
X65618Y46486D1*
X67960Y44144D2*
X69940Y42164D1*
X72317Y39787D2*
X73974Y38130D1*
X47467Y62841D2*
X64790Y45518D1*
X67308Y43001D2*
X71203Y39105D1*
X73103Y37205D2*
X73974Y36334D1*
X47720Y60793D2*
X65541Y42971D1*
X67308Y41204D2*
X70115Y38397D1*
X72184Y36328D2*
X73974Y34538D1*
X41742Y64974D2*
X42389Y64327D1*
X46857Y59860D2*
X65541Y41175D1*
X67308Y39408D2*
X73974Y32742D1*
X39946Y64974D2*
X42677Y62244D1*
X45636Y59284D2*
X65541Y39379D1*
X67308Y37612D2*
X73974Y30946D1*
X40009Y63115D2*
X40565Y62559D1*
X44647Y58477D2*
X45869Y57255D1*
X48646Y54478D2*
X65296Y37828D1*
X66571Y36553D2*
X73974Y29150D1*
X42872Y58456D2*
X44073Y57255D1*
X45839Y55489D2*
X46879Y54449D1*
X48646Y52682D2*
X64398Y36930D1*
X65673Y35655D2*
X71462Y29866D1*
X72549Y28779D2*
X73974Y27354D1*
X34558Y64974D2*
X34917Y64615D1*
X36985Y62547D2*
X37457Y62075D1*
X41763Y57769D2*
X42277Y57255D1*
X44345Y55187D2*
X46879Y52653D1*
X48646Y50886D2*
X63500Y36032D1*
X64775Y34757D2*
X70052Y29480D1*
X72156Y27376D2*
X73974Y25558D1*
X32762Y64974D2*
X35289Y62447D1*
X37357Y60379D2*
X38229Y59507D1*
X43763Y53973D2*
X46879Y50857D1*
X48646Y49090D2*
X62601Y35134D1*
X63877Y33859D2*
X68404Y29332D1*
X72464Y25272D2*
X73974Y23762D1*
X32502Y63438D2*
X33268Y62672D1*
X36178Y59761D2*
X37330Y58609D1*
X43454Y52486D2*
X46879Y49061D1*
X48646Y47294D2*
X61703Y34236D1*
X62979Y32961D2*
X66608Y29332D1*
X68374Y27566D2*
X69694Y26245D1*
X71468Y24472D2*
X73974Y21966D1*
X34249Y59895D2*
X35983Y58160D1*
X42177Y51967D2*
X46879Y47265D1*
X49340Y44804D2*
X60805Y33338D1*
X62081Y32063D2*
X64811Y29332D1*
X66578Y27566D2*
X73974Y20170D1*
X29598Y62750D2*
X30041Y62307D1*
X32137Y60210D2*
X34187Y58160D1*
X38445Y53903D2*
X39358Y52990D1*
X40634Y51714D2*
X46290Y46058D1*
X48730Y43618D2*
X59115Y33233D1*
X61969Y30379D2*
X63015Y29332D1*
X64782Y27566D2*
X70291Y22057D1*
X72359Y19989D2*
X73974Y18374D1*
X28194Y62357D2*
X29648Y60904D1*
X30734Y59817D2*
X32426Y58125D1*
X36333Y54219D2*
X38460Y52092D1*
X39736Y50816D2*
X45960Y44592D1*
X47263Y43288D2*
X57733Y32819D1*
X62986Y27566D2*
X69659Y20892D1*
X72570Y17982D2*
X73974Y16578D1*
X27451Y61305D2*
X31837Y56919D1*
X36059Y52696D2*
X37562Y51194D1*
X38837Y49918D2*
X39772Y48984D1*
X41707Y47049D2*
X57733Y31023D1*
X61190Y27566D2*
X69245Y19510D1*
X24357Y62603D2*
X24814Y62145D1*
X26897Y60063D2*
X30259Y56701D1*
X34944Y52016D2*
X36664Y50296D1*
X40760Y46200D2*
X49713Y37246D1*
X51045Y35915D2*
X54968Y31991D1*
X59394Y27566D2*
X65408Y21552D1*
X67153Y19806D2*
X67534Y19426D1*
X69890Y17070D2*
X70088Y16872D1*
X22168Y62996D2*
X22667Y62496D1*
X24708Y60456D2*
X29010Y56154D1*
X33232Y51932D2*
X35766Y49398D1*
X38711Y46452D2*
X47889Y37274D1*
X51080Y34083D2*
X53320Y31844D1*
X57121Y28043D2*
X63991Y21173D1*
X68311Y16853D2*
X69007Y16157D1*
X23599Y59768D2*
X26863Y56505D1*
X30503Y52865D2*
X31058Y52309D1*
X32334Y51034D2*
X34482Y48885D1*
X36522Y46845D2*
X36917Y46451D1*
X38683Y44684D2*
X46093Y37274D1*
X51080Y32287D2*
X52415Y30953D1*
X57121Y26247D2*
X63282Y20085D1*
X67413Y15955D2*
X68242Y15125D1*
X16597Y64974D2*
X17069Y64503D1*
X21635Y59937D2*
X26175Y55396D1*
X28707Y52865D2*
X30160Y51411D1*
X31436Y50136D2*
X32497Y49075D1*
X35414Y46158D2*
X36917Y44655D1*
X38683Y42888D2*
X44297Y37274D1*
X47095Y34476D2*
X48016Y33556D1*
X51080Y30491D2*
X51706Y29866D1*
X57121Y24451D2*
X63471Y18100D1*
X66971Y14600D2*
X67856Y13715D1*
X19832Y59944D2*
X25144Y54631D1*
X26911Y52865D2*
X29262Y50513D1*
X30538Y49238D2*
X30932Y48843D1*
X33604Y46172D2*
X36917Y42859D1*
X38683Y41092D2*
X42501Y37274D1*
X45299Y34476D2*
X48016Y31760D1*
X51080Y28695D2*
X51706Y28069D1*
X57121Y22655D2*
X61675Y18100D1*
X66936Y12840D2*
X68754Y11021D1*
X18218Y59761D2*
X23348Y54631D1*
X25115Y52865D2*
X28364Y49615D1*
X31317Y46663D2*
X31837Y46142D1*
X33604Y44376D2*
X36917Y41063D1*
X38683Y39296D2*
X40705Y37274D1*
X43503Y34476D2*
X48016Y29964D1*
X52518Y25461D2*
X52878Y25102D1*
X57121Y20859D2*
X59971Y18009D1*
X62319Y15660D2*
X63387Y14592D1*
X65996Y11984D2*
X66958Y11021D1*
X16155Y60028D2*
X21552Y54631D1*
X23318Y52865D2*
X27094Y49089D1*
X30019Y46165D2*
X31837Y44346D1*
X33604Y42580D2*
X36917Y39267D1*
X38683Y37500D2*
X38904Y37279D1*
X42886Y33298D2*
X48016Y28168D1*
X51606Y24577D2*
X52878Y23306D1*
X57121Y19063D2*
X59009Y17174D1*
X60755Y15428D2*
X65162Y11021D1*
X15123Y59264D2*
X19755Y54632D1*
X21522Y52866D2*
X26174Y48213D1*
X28236Y46151D2*
X31836Y42551D1*
X33603Y40784D2*
X36916Y37471D1*
X41250Y33137D2*
X48015Y26372D1*
X50392Y23996D2*
X52877Y21510D1*
X57127Y17260D2*
X58111Y16277D1*
X59856Y14531D2*
X63365Y11022D1*
X13713Y58878D2*
X15188Y57403D1*
X16582Y56009D2*
X17959Y54632D1*
X19726Y52866D2*
X26174Y46417D1*
X26439Y46152D2*
X31836Y40755D1*
X33603Y38988D2*
X36347Y36244D1*
X39945Y32646D2*
X44668Y27923D1*
X46526Y26065D2*
X46864Y25727D1*
X50139Y22452D2*
X52484Y20107D1*
X58958Y13633D2*
X61569Y11022D1*
X11026Y59769D2*
X13385Y57410D1*
X16042Y54753D2*
X16493Y54302D1*
X17929Y52866D2*
X31836Y38959D1*
X33603Y37192D2*
X34551Y36244D1*
X36318Y34477D2*
X37302Y33494D1*
X39047Y31748D2*
X43742Y27053D1*
X49669Y21126D2*
X50583Y20213D1*
X58446Y12349D2*
X59773Y11022D1*
X11026Y57973D2*
X11589Y57410D1*
X14050Y54949D2*
X15784Y53215D1*
X17551Y51448D2*
X31836Y37163D1*
X34522Y34477D2*
X36404Y32596D1*
X38149Y30850D2*
X44921Y24078D1*
X46498Y22501D2*
X47019Y21981D1*
X49136Y19863D2*
X49495Y19504D1*
X57814Y11185D2*
X57974Y11025D1*
X12752Y54451D2*
X15784Y51419D1*
X17551Y49652D2*
X35506Y31697D1*
X37251Y29952D2*
X46703Y20500D1*
X52209Y14994D2*
X52877Y14326D1*
X11026Y54381D2*
X13041Y52366D1*
X14969Y50438D2*
X15784Y49623D1*
X17551Y47856D2*
X19011Y46396D1*
X20567Y44840D2*
X34608Y30799D1*
X36353Y29054D2*
X46703Y18704D1*
X50097Y15310D2*
X52582Y12825D1*
X11026Y52585D2*
X12620Y50991D1*
X15270Y48340D2*
X15784Y47827D1*
X17551Y46060D2*
X17845Y45766D1*
X19929Y43682D2*
X33709Y29901D1*
X35455Y28156D2*
X46703Y16908D1*
X11026Y50789D2*
X12571Y49244D1*
X17551Y44264D2*
X32811Y29003D1*
X34557Y27258D2*
X46703Y15112D1*
X11026Y48993D2*
X12494Y47525D1*
X17551Y42468D2*
X17751Y42268D1*
X18132Y41887D2*
X31913Y28105D1*
X33659Y26360D2*
X39708Y20311D1*
X42730Y17288D2*
X48997Y11022D1*
X18133Y40090D2*
X31015Y27207D1*
X32761Y25462D2*
X38403Y19820D1*
X42239Y15983D2*
X47201Y11022D1*
X17102Y39325D2*
X30117Y26309D1*
X31863Y24564D2*
X37596Y18830D1*
X41243Y15184D2*
X45405Y11022D1*
X16021Y38609D2*
X29219Y25411D1*
X30965Y23666D2*
X37358Y17273D1*
X39686Y14945D2*
X43609Y11022D1*
X16021Y36813D2*
X28321Y24513D1*
X30067Y22768D2*
X41813Y11022D1*
X16021Y35017D2*
X27423Y23615D1*
X29169Y21870D2*
X31998Y19041D1*
X34094Y16945D2*
X40017Y11022D1*
X16021Y33221D2*
X17826Y31417D1*
X18029Y31213D2*
X26525Y22717D1*
X28271Y20972D2*
X30594Y18648D1*
X33708Y15534D2*
X38221Y11022D1*
X18028Y29419D2*
X25627Y21819D1*
X27373Y20074D2*
X29809Y17638D1*
X32698Y14749D2*
X36425Y11022D1*
X17165Y28486D2*
X24729Y20921D1*
X26475Y19176D2*
X26652Y18999D1*
X29309Y16341D2*
X30174Y15477D1*
X30532Y15119D2*
X34629Y11022D1*
X15916Y27938D2*
X23831Y20023D1*
X28664Y15191D2*
X32833Y11022D1*
X15916Y26142D2*
X22933Y19125D1*
X24679Y17380D2*
X24933Y17126D1*
X27436Y14622D2*
X31036Y11022D1*
X11784Y28479D2*
X11982Y28280D1*
X15797Y24466D2*
X21214Y19048D1*
X24602Y15661D2*
X29240Y11022D1*
X11026Y27440D2*
X11981Y26485D1*
X14001Y24466D2*
X20169Y18297D1*
X23858Y14608D2*
X27444Y11022D1*
X11026Y25644D2*
X11981Y24689D1*
X12206Y24464D2*
X20169Y16501D1*
X22062Y14608D2*
X25648Y11022D1*
X11026Y23848D2*
X23852Y11022D1*
X11026Y22052D2*
X22056Y11022D1*
X11026Y20256D2*
X14213Y17069D1*
X17038Y14244D2*
X20260Y11022D1*
X11026Y18460D2*
X12459Y17027D1*
X17003Y12483D2*
X18464Y11022D1*
X11026Y16664D2*
X11277Y16413D1*
X16414Y11276D2*
X16665Y11025D1*
X15190Y51006D2*
X15077Y50710D1*
X14896Y50450D1*
X14658Y50240D1*
X14348Y50088D1*
X15228D1*
Y47472D1*
X14107D1*
X14552Y47402D1*
X15026Y47195D1*
X15430Y46871D1*
X15736Y46454D1*
X15830Y46228D1*
Y53208D1*
X15890Y53518D1*
X16076Y53801D1*
X16618Y54343D1*
X16879Y54520D1*
X17210Y54588D1*
X26368Y54603D1*
X26258Y54901D1*
X26217Y55215D1*
X26247Y55530D1*
X26346Y55831D1*
X26509Y56103D1*
X26728Y56332D1*
X26992Y56507D1*
X27288Y56619D1*
X27602Y56662D1*
X27918Y56636D1*
X28220Y56539D1*
X28493Y56379D1*
X28724Y56162D1*
X28912Y55871D1*
X29049Y56103D1*
X29268Y56332D1*
X29532Y56507D1*
X29828Y56619D1*
X30142Y56662D1*
X30458Y56636D1*
X30760Y56539D1*
X31033Y56379D1*
X31264Y56162D1*
X31452Y55871D1*
X31589Y56103D1*
X31882Y56381D1*
Y57280D1*
X31942Y57590D1*
X32111Y57856D1*
X32368Y58040D1*
X32720Y58118D1*
X36917D1*
X38624Y59816D1*
X38382Y59842D1*
X38082Y59943D1*
X37812Y60108D1*
X37585Y60329D1*
X37418Y60587D1*
X37261Y60349D1*
X37038Y60124D1*
X36770Y59954D1*
X36472Y59847D1*
X36158Y59809D1*
X35842Y59842D1*
X35542Y59943D1*
X35272Y60108D1*
X35045Y60329D1*
X34878Y60587D1*
X34721Y60349D1*
X34498Y60124D1*
X34230Y59954D1*
X33932Y59847D1*
X33618Y59809D1*
X33302Y59842D1*
X33002Y59943D1*
X32732Y60108D1*
X32505Y60329D1*
X32338Y60587D1*
X32181Y60349D1*
X31958Y60124D1*
X31690Y59954D1*
X31392Y59847D1*
X31078Y59809D1*
X30762Y59842D1*
X30462Y59943D1*
X30192Y60108D1*
X29965Y60329D1*
X29793Y60595D1*
X29683Y60893D1*
X29642Y61207D1*
X29672Y61522D1*
X29771Y61823D1*
X29934Y62095D1*
X30153Y62324D1*
X30426Y62502D1*
X30192Y62648D1*
X29965Y62869D1*
X29798Y63127D1*
X29641Y62889D1*
X29418Y62664D1*
X29150Y62494D1*
X28852Y62387D1*
X28538Y62349D1*
X28222Y62382D1*
X27922Y62483D1*
X27652Y62648D1*
X27425Y62869D1*
X27258Y63127D1*
X27101Y62889D1*
X26878Y62664D1*
X26619Y62499D1*
X26838Y62371D1*
X27069Y62154D1*
X27246Y61891D1*
X27361Y61596D1*
X27408Y61232D1*
X27373Y60917D1*
X27269Y60618D1*
X27101Y60349D1*
X26878Y60124D1*
X26610Y59954D1*
X26312Y59847D1*
X25998Y59809D1*
X25682Y59842D1*
X25382Y59943D1*
X25112Y60108D1*
X24885Y60329D1*
X24718Y60587D1*
X24561Y60349D1*
X24338Y60124D1*
X24070Y59954D1*
X23772Y59847D1*
X23458Y59809D1*
X23142Y59842D1*
X22842Y59943D1*
X22572Y60108D1*
X22345Y60329D1*
X22178Y60587D1*
X22021Y60349D1*
X21798Y60124D1*
X21530Y59954D1*
X21232Y59847D1*
X20918Y59809D1*
X20602Y59842D1*
X20302Y59943D1*
X20032Y60108D1*
X19789Y60354D1*
X19788Y59809D1*
X16942D1*
Y61426D1*
X16759Y61036D1*
X16455Y60446D1*
X16370Y60327D1*
X15674Y59636D1*
X15557Y59548D1*
X14681Y59106D1*
X14543Y59059D1*
X13573Y58909D1*
X13427Y58907D1*
X12459Y59063D1*
X12319Y59107D1*
X11446Y59555D1*
X11327Y59640D1*
X10983Y59984D1*
X10978Y54384D1*
X10987Y47494D1*
X11361Y47478D1*
X12621Y47477D1*
X12612Y50088D1*
X13446Y50101D1*
X13166Y50251D1*
X12932Y50463D1*
X12755Y50726D1*
X12646Y51024D1*
X12612Y51339D1*
X12655Y51652D1*
X12772Y51947D1*
X12956Y52204D1*
X13197Y52410D1*
X13480Y52552D1*
X13789Y52621D1*
X14106Y52615D1*
X14412Y52532D1*
X14689Y52378D1*
X14921Y52162D1*
X15094Y51897D1*
X15198Y51598D1*
X15228Y51320D1*
X15190Y51006D1*
X67097Y13484D2*
X67019Y13176D1*
X66892Y12886D1*
X66719Y12620D1*
X66504Y12387D1*
X66254Y12192D1*
X65975Y12040D1*
X65676Y11937D1*
X65363Y11884D1*
X65046Y11883D1*
X64733Y11935D1*
X64432Y12037D1*
X64153Y12187D1*
X63902Y12381D1*
X63687Y12614D1*
X63512Y12879D1*
X63384Y13168D1*
X63305Y13476D1*
X63277Y13792D1*
X63302Y14108D1*
X63378Y14416D1*
X63504Y14707D1*
X63676Y14973D1*
X63890Y15207D1*
X64139Y15404D1*
X64417Y15556D1*
X64716Y15661D1*
X64980Y15707D1*
X60944D1*
X58406Y13167D1*
X58403Y12350D1*
X58360Y12036D1*
X58184Y11667D1*
X57610Y11072D1*
X57519Y10980D1*
X68953Y10977D1*
X68617Y11322D1*
X68530Y11440D1*
X68086Y12319D1*
X68039Y12458D1*
X67889Y13432D1*
X67887Y13578D1*
X68044Y14551D1*
X68088Y14690D1*
X68537Y15567D1*
X68622Y15687D1*
X69320Y16381D1*
X69437Y16469D1*
X70315Y16913D1*
X70582Y16981D1*
X70333Y17120D1*
X68481Y17117D1*
X67419Y16051D1*
X67167Y15859D1*
X66781Y15723D1*
X65955Y15707D1*
X65449D1*
X65659Y15667D1*
X65960Y15566D1*
X66240Y15418D1*
X66492Y15225D1*
X66708Y14993D1*
X66884Y14729D1*
X67013Y14440D1*
X67094Y14133D1*
X67123Y13800D1*
X67097Y13484D1*
X21545Y62496D2*
X21758Y62371D1*
X21989Y62154D1*
X22177Y61863D1*
X22314Y62095D1*
X22533Y62324D1*
X22806Y62502D1*
X22572Y62648D1*
X22345Y62869D1*
X22178Y63127D1*
X22021Y62889D1*
X21798Y62664D1*
X21539Y62499D1*
X24085Y62496D2*
X24298Y62371D1*
X24529Y62154D1*
X24717Y61863D1*
X24854Y62095D1*
X25073Y62324D1*
X25346Y62502D1*
X25112Y62648D1*
X24885Y62869D1*
X24718Y63127D1*
X24561Y62889D1*
X24338Y62664D1*
X24079Y62499D1*
X31705Y62496D2*
X31918Y62371D1*
X32149Y62154D1*
X32337Y61863D1*
X32474Y62095D1*
X32693Y62324D1*
X32957Y62499D1*
X33253Y62611D1*
X33567Y62654D1*
X33883Y62628D1*
X34185Y62531D1*
X34458Y62371D1*
X34689Y62154D1*
X34877Y61863D1*
X35014Y62095D1*
X35233Y62324D1*
X35506Y62502D1*
X35272Y62648D1*
X35045Y62869D1*
X34873Y63135D1*
X34763Y63433D1*
X34722Y63747D1*
X34752Y64062D1*
X34851Y64363D1*
X35014Y64635D1*
X35233Y64864D1*
X35472Y65022D1*
X31743D1*
X31918Y64911D1*
X32149Y64694D1*
X32326Y64431D1*
X32441Y64136D1*
X32488Y63772D1*
X32453Y63457D1*
X32349Y63158D1*
X32181Y62889D1*
X31958Y62664D1*
X31699Y62499D1*
X36785Y62496D2*
X36998Y62371D1*
X37229Y62154D1*
X37417Y61863D1*
X37554Y62095D1*
X37773Y62324D1*
X38046Y62502D1*
X37812Y62648D1*
X37585Y62869D1*
X37418Y63127D1*
X37261Y62889D1*
X37038Y62664D1*
X36779Y62499D1*
X39325Y62496D2*
X39538Y62371D1*
X39769Y62154D1*
X39957Y61863D1*
X40094Y62095D1*
X40313Y62324D1*
X40577Y62499D1*
X40873Y62611D1*
X41187Y62654D1*
X41503Y62628D1*
X41805Y62531D1*
X42078Y62371D1*
X42309Y62154D1*
X42497Y61863D1*
X42634Y62095D1*
X42853Y62324D1*
X43126Y62502D1*
X42892Y62648D1*
X42665Y62869D1*
X42493Y63135D1*
X42383Y63433D1*
X42342Y63747D1*
X42372Y64062D1*
X42471Y64363D1*
X42634Y64635D1*
X42853Y64864D1*
X43092Y65022D1*
X39363D1*
X39538Y64911D1*
X39769Y64694D1*
X39946Y64431D1*
X40061Y64136D1*
X40108Y63772D1*
X40073Y63457D1*
X39969Y63158D1*
X39801Y62889D1*
X39578Y62664D1*
X39319Y62499D1*
X41365Y59825D2*
X41238Y59809D1*
X41011Y59833D1*
X38345Y57167D1*
X38800Y57168D1*
X39110Y57108D1*
X39393Y56923D1*
X39502Y56828D1*
Y57620D1*
X39562Y57930D1*
X39748Y58213D1*
X41352Y59817D1*
X44405Y62496D2*
X44618Y62371D1*
X44849Y62154D1*
X45037Y61863D1*
X45174Y62095D1*
X45393Y62324D1*
X45666Y62502D1*
X45432Y62648D1*
X45205Y62869D1*
X45038Y63127D1*
X44881Y62889D1*
X44658Y62664D1*
X44399Y62499D1*
X52025Y62496D2*
X52238Y62371D1*
X52469Y62154D1*
X52657Y61863D1*
X52794Y62095D1*
X53013Y62324D1*
X53277Y62499D1*
X53573Y62611D1*
X53887Y62654D1*
X54203Y62628D1*
X54505Y62531D1*
X54778Y62371D1*
X55009Y62154D1*
X55197Y61863D1*
X55334Y62095D1*
X55553Y62324D1*
X55826Y62502D1*
X55592Y62648D1*
X55365Y62869D1*
X55193Y63135D1*
X55083Y63433D1*
X55042Y63747D1*
X55072Y64062D1*
X55171Y64363D1*
X55334Y64635D1*
X55553Y64864D1*
X55792Y65022D1*
X52063Y65023D1*
X52238Y64911D1*
X52469Y64694D1*
X52646Y64431D1*
X52761Y64136D1*
X52808Y63772D1*
X52773Y63457D1*
X52669Y63158D1*
X52501Y62889D1*
X52278Y62664D1*
X52019Y62499D1*
X57105Y62496D2*
X57318Y62371D1*
X57549Y62154D1*
X57737Y61863D1*
X57874Y62095D1*
X58093Y62324D1*
X58357Y62499D1*
X58653Y62611D1*
X58967Y62654D1*
X59283Y62628D1*
X59585Y62531D1*
X59858Y62371D1*
X60089Y62154D1*
X60277Y61863D1*
X60414Y62095D1*
X60633Y62324D1*
X60906Y62502D1*
X60672Y62648D1*
X60445Y62869D1*
X60273Y63135D1*
X60163Y63433D1*
X60122Y63747D1*
X60152Y64062D1*
X60251Y64363D1*
X60414Y64635D1*
X60633Y64864D1*
X60872Y65022D1*
X57143Y65023D1*
X57318Y64911D1*
X57549Y64694D1*
X57726Y64431D1*
X57841Y64136D1*
X57888Y63772D1*
X57853Y63457D1*
X57749Y63158D1*
X57581Y62889D1*
X57358Y62664D1*
X57099Y62499D1*
X62185Y62496D2*
X62398Y62371D1*
X62629Y62154D1*
X62817Y61863D1*
X62954Y62095D1*
X63173Y62324D1*
X63446Y62502D1*
X63212Y62648D1*
X62985Y62869D1*
X62818Y63127D1*
X62661Y62889D1*
X62438Y62664D1*
X62179Y62499D1*
X67282Y65026D2*
X67478Y64911D1*
X67709Y64694D1*
X67886Y64431D1*
X68001Y64136D1*
X68048Y63772D1*
X68013Y63457D1*
X68555Y64556D1*
X68640Y64675D1*
X68984Y65019D1*
X67303Y65023D1*
X12345Y28353D2*
X15873D1*
Y24507D1*
X12027D1*
Y28353D1*
X12345D1*
X50313Y23655D2*
X50209Y23356D1*
X50098Y23179D1*
Y22135D1*
X50055Y21821D1*
X49879Y21452D1*
X49305Y20857D1*
X49088Y20639D1*
X49093Y18818D1*
X49209Y19051D1*
X49408Y19324D1*
X49761Y19678D1*
X50035Y19877D1*
X50481Y20104D1*
X50802Y20209D1*
X51296Y20287D1*
X51634D1*
X52129Y20209D1*
X52450Y20104D1*
X52904Y19871D1*
X52921Y20350D1*
Y25956D1*
X51693Y24728D1*
X51431Y24550D1*
X51100Y24482D1*
X50257D1*
X50347Y24020D1*
X50313Y23655D1*
X11453Y57365D2*
X14005D1*
Y56839D1*
X14154Y57000D1*
X14412Y57184D1*
X14704Y57306D1*
X15016Y57362D1*
X15332Y57348D1*
X15638Y57264D1*
X15918Y57116D1*
X16159Y56910D1*
X16348Y56656D1*
X16477Y56366D1*
X16545Y55930D1*
X16510Y55615D1*
X16407Y55316D1*
X16240Y55046D1*
X16019Y54819D1*
X15753Y54647D1*
X15456Y54537D1*
X15141Y54495D1*
X14826Y54524D1*
X14524Y54620D1*
X14251Y54781D1*
X14003Y55022D1*
X14005Y54495D1*
X11135D1*
Y57365D1*
X11453D1*
X72942Y53664D2*
X72851Y53360D1*
X72702Y53080D1*
X72501Y52835D1*
X72356Y52715D1*
X72681Y52368D1*
X72836Y52092D1*
X72935Y51791D1*
X72973Y51439D1*
X72942Y51124D1*
X72851Y50820D1*
X72702Y50540D1*
X72501Y50295D1*
X72257Y50093D1*
X71978Y49942D1*
X71675Y49849D1*
X71360Y49816D1*
X71044Y49845D1*
X70740Y49935D1*
X70460Y50083D1*
X70213Y50282D1*
X70010Y50525D1*
X69857Y50803D1*
X69762Y51105D1*
X69728Y51421D1*
X69755Y51736D1*
X69843Y52041D1*
X69989Y52322D1*
X70187Y52570D1*
X70346Y52704D1*
X70213Y52822D1*
X70010Y53065D1*
X69857Y53343D1*
X69762Y53645D1*
X69728Y53961D1*
X69755Y54276D1*
X69843Y54581D1*
X69989Y54862D1*
X70187Y55110D1*
X70429Y55315D1*
X70706Y55468D1*
X71008Y55565D1*
X71323Y55602D1*
X71639Y55576D1*
X71944Y55490D1*
X72226Y55345D1*
X72475Y55149D1*
X72681Y54908D1*
X72836Y54632D1*
X72935Y54331D1*
X72973Y53979D1*
X72942Y53664D1*
X20490Y44605D2*
X20387Y44306D1*
X20220Y44036D1*
X19999Y43809D1*
X19733Y43637D1*
X19436Y43527D1*
X19121Y43485D1*
X18806Y43514D1*
X18504Y43610D1*
X18231Y43771D1*
X18000Y43987D1*
X17822Y44249D1*
X17705Y44544D1*
X17656Y44857D1*
X17678Y45173D1*
X17768Y45477D1*
X17922Y45754D1*
X18134Y45990D1*
X18392Y46174D1*
X18684Y46296D1*
X18996Y46352D1*
X19312Y46338D1*
X19618Y46254D1*
X19898Y46106D1*
X20139Y45900D1*
X20328Y45646D1*
X20457Y45356D1*
X20525Y44920D1*
X20490Y44605D1*
X29284Y16511D2*
X29215Y16201D1*
X29101Y15905D1*
X28946Y15628D1*
X28752Y15377D1*
X28524Y15157D1*
X28266Y14972D1*
X27984Y14827D1*
X27683Y14725D1*
X27372Y14667D1*
X27055Y14656D1*
X26739Y14690D1*
X26432Y14770D1*
X26140Y14894D1*
X25870Y15060D1*
X25626Y15263D1*
X25414Y15499D1*
X25239Y15763D1*
X25104Y16051D1*
X25013Y16354D1*
X24967Y16668D1*
Y16985D1*
X25013Y17299D1*
X25104Y17603D1*
X25239Y17890D1*
X25414Y18155D1*
X25626Y18391D1*
X25869Y18594D1*
X26140Y18759D1*
X26432Y18883D1*
X26739Y18964D1*
X27054Y18998D1*
X27371Y18987D1*
X27683Y18929D1*
X27983Y18827D1*
X28266Y18682D1*
X28524Y18497D1*
X28752Y18277D1*
X28946Y18026D1*
X29101Y17749D1*
X29215Y17453D1*
X29284Y17144D1*
X29307Y16827D1*
X29284Y16511D1*
X34034D2*
X33965Y16201D1*
X33851Y15905D1*
X33696Y15628D1*
X33502Y15377D1*
X33274Y15157D1*
X33016Y14972D1*
X32734Y14827D1*
X32433Y14725D1*
X32122Y14667D1*
X31805Y14656D1*
X31489Y14690D1*
X31182Y14770D1*
X30890Y14894D1*
X30620Y15060D1*
X30376Y15263D1*
X30164Y15499D1*
X29989Y15763D1*
X29854Y16051D1*
X29763Y16354D1*
X29717Y16668D1*
Y16985D1*
X29763Y17299D1*
X29854Y17603D1*
X29989Y17890D1*
X30164Y18155D1*
X30376Y18391D1*
X30619Y18594D1*
X30890Y18759D1*
X31182Y18883D1*
X31489Y18964D1*
X31804Y18998D1*
X32121Y18987D1*
X32433Y18929D1*
X32733Y18827D1*
X33016Y18682D1*
X33274Y18497D1*
X33502Y18277D1*
X33696Y18026D1*
X33851Y17749D1*
X33965Y17453D1*
X34034Y17144D1*
X34057Y16827D1*
X34034Y16511D1*
X30231Y49035D2*
X30458Y49016D1*
X30760Y48919D1*
X31033Y48759D1*
X31264Y48542D1*
X31452Y48251D1*
X31589Y48483D1*
X31808Y48712D1*
X32072Y48887D1*
X32368Y48999D1*
X32682Y49042D1*
X32998Y49016D1*
X33300Y48919D1*
X33573Y48759D1*
X33804Y48542D1*
X33992Y48251D1*
X34129Y48483D1*
X34348Y48712D1*
X34612Y48887D1*
X34908Y48999D1*
X35222Y49042D1*
X35469Y49021D1*
X39544Y53088D1*
X39445Y53109D1*
X39166Y53256D1*
X38592Y53826D1*
X38425Y53962D1*
X38127Y53855D1*
X37813Y53817D1*
X37497Y53850D1*
X37197Y53951D1*
X36927Y54116D1*
X36700Y54337D1*
X36533Y54595D1*
X36376Y54357D1*
X36094Y54095D1*
X36098Y53100D1*
X36038Y52790D1*
X35853Y52508D1*
X35505Y52190D1*
X35336Y52109D1*
X35060Y52062D1*
X33264D1*
X30250Y49045D1*
X70305Y44193D2*
X73133D1*
Y41447D1*
X73083D1*
X73133Y41110D1*
X73096Y40795D1*
X72989Y40497D1*
X72816Y40232D1*
X72586Y40014D1*
X72313Y39853D1*
X72010Y39760D1*
X71760Y39737D1*
X71360Y39747D1*
X70982Y39790D1*
X70689Y39912D1*
X70432Y40098D1*
X70225Y40337D1*
X70078Y40618D1*
X70000Y40925D1*
X69993Y41242D1*
X70037Y41445D1*
X69987Y41447D1*
Y44193D1*
X70305D1*
X71363Y36323D2*
X70982Y36370D1*
X70689Y36492D1*
X70432Y36678D1*
X70225Y36917D1*
X70078Y37198D1*
X70000Y37505D1*
X69993Y37822D1*
X70060Y38131D1*
X70196Y38418D1*
X70394Y38665D1*
X70643Y38861D1*
X70930Y38994D1*
X71241Y39058D1*
X71760Y39063D1*
X71957Y39049D1*
X72263Y38967D1*
X72543Y38818D1*
X72780Y38609D1*
X72964Y38350D1*
X73083Y38057D1*
X73133Y37690D1*
X73096Y37375D1*
X72989Y37077D1*
X72816Y36812D1*
X72586Y36594D1*
X72313Y36433D1*
X72010Y36340D1*
X71760Y36317D1*
X71360Y36327D1*
X43397Y34522D2*
X43414Y34357D1*
X43371Y34043D1*
X43247Y33752D1*
X43050Y33504D1*
X42794Y33318D1*
X42498Y33206D1*
X42134Y33186D1*
X40397Y33184D1*
X24557Y17343D1*
Y14654D1*
X20211D1*
Y19000D1*
X22901Y19003D1*
X38428Y34529D1*
X36810Y34522D1*
X33380D1*
X33070Y34582D1*
X32788Y34768D1*
X32128Y35428D1*
X31950Y35689D1*
X31882Y36020D1*
Y46468D1*
X31620Y46717D1*
X31453Y46975D1*
X31296Y46737D1*
X31073Y46512D1*
X30805Y46342D1*
X30507Y46235D1*
X30193Y46197D1*
X29877Y46230D1*
X29577Y46331D1*
X29307Y46496D1*
X29064Y46742D1*
X29063Y46197D1*
X26217D1*
Y49043D1*
X27874D1*
X31741Y52906D1*
X29513Y52912D1*
X17557D1*
X17506Y52573D1*
X17498Y42219D1*
X18091D1*
Y39373D1*
X15978D1*
X15980Y31373D1*
X17983D1*
Y28527D1*
X15137D1*
Y28894D1*
X14954Y28764D1*
X14472Y28576D1*
X14043Y28523D1*
X10994Y28513D1*
X10978Y28139D1*
Y16025D1*
X11357Y16399D1*
X11475Y16487D1*
X12346Y16932D1*
X12486Y16980D1*
X13451Y17131D1*
X13599Y17133D1*
X14562Y16975D1*
X14704Y16931D1*
X15572Y16480D1*
X15691Y16394D1*
X16379Y15694D1*
X16466Y15576D1*
X16906Y14696D1*
X16952Y14558D1*
X17102Y13583D1*
X17103Y13438D1*
X16947Y12463D1*
X16905Y12325D1*
X16459Y11447D1*
X16375Y11327D1*
X16033Y10982D1*
X34633Y10978D1*
X50161Y10977D1*
X47091Y14051D1*
X46899Y14303D1*
X46763Y14689D1*
X46747Y15515D1*
Y21130D1*
X46790Y21444D1*
X46966Y21813D1*
X47540Y22408D1*
X47757Y22626D1*
X47752Y23157D1*
X47501Y23087D1*
X47278Y22862D1*
X47010Y22692D1*
X46712Y22585D1*
X46398Y22547D1*
X46082Y22580D1*
X45782Y22681D1*
X45512Y22846D1*
X45285Y23067D1*
X45113Y23333D1*
X45003Y23631D1*
X44962Y23945D1*
X44992Y24260D1*
X45091Y24561D1*
X45254Y24833D1*
X45473Y25062D1*
X45712Y25220D1*
X45442Y25125D1*
X45128Y25087D1*
X44812Y25120D1*
X44512Y25221D1*
X44242Y25386D1*
X44015Y25607D1*
X43843Y25873D1*
X43733Y26171D1*
X43692Y26485D1*
X43722Y26800D1*
X43821Y27101D1*
X43984Y27373D1*
X44203Y27602D1*
X44467Y27777D1*
X44763Y27889D1*
X45077Y27932D1*
X45393Y27906D1*
X45695Y27809D1*
X45968Y27649D1*
X46199Y27432D1*
X46376Y27169D1*
X46491Y26874D1*
X46538Y26510D1*
X46503Y26195D1*
X46399Y25896D1*
X46231Y25627D1*
X46008Y25402D1*
X45782Y25259D1*
X46033Y25349D1*
X46347Y25392D1*
X46594Y25371D1*
X47143Y25913D1*
X47404Y26090D1*
X47735Y26158D1*
X48062D1*
Y34359D1*
X47893Y34522D1*
X43408D1*
X17001Y63229D2*
X17091Y62655D1*
X17488D1*
X17265Y62869D1*
X17093Y63135D1*
X16983Y63433D1*
X16942Y63747D1*
X16972Y64062D1*
X17071Y64363D1*
X17234Y64635D1*
X17453Y64864D1*
X17692Y65022D1*
X16027D1*
X16374Y64674D1*
X16462Y64557D1*
X16904Y63681D1*
X16951Y63543D1*
X17092Y62651D1*
X52921Y14318D2*
X52906Y15370D1*
X52450Y15136D1*
X52129Y15031D1*
X51634Y14953D1*
X51296D1*
X50802Y15031D1*
X50481Y15136D1*
X50035Y15363D1*
X49761Y15562D1*
X49408Y15916D1*
X49209Y16189D1*
X49097Y16410D1*
X49093Y15365D1*
X51675Y12784D1*
X53323Y12783D1*
X53229Y12922D1*
X53010Y13401D1*
X52925Y13914D1*
X52921Y14318D1*
X42672Y17970D2*
X42701Y17789D1*
Y17463D1*
X42672Y17970D1*
X42701Y17789D1*
Y17451D1*
X42622Y16957D1*
X42518Y16636D1*
X42291Y16189D1*
X42092Y15916D1*
X41739Y15562D1*
X41465Y15363D1*
X41019Y15136D1*
X40698Y15031D1*
X40204Y14953D1*
X39866D1*
X39371Y15031D1*
X39050Y15136D1*
X38604Y15363D1*
X38331Y15562D1*
X37977Y15916D1*
X37779Y16189D1*
X37551Y16636D1*
X37447Y16957D1*
X37369Y17451D1*
Y17789D1*
X37447Y18284D1*
X37551Y18605D1*
X37779Y19051D1*
X37977Y19324D1*
X38331Y19678D1*
X38604Y19877D1*
X39050Y20104D1*
X39371Y20209D1*
X39866Y20287D1*
X40204D1*
X40698Y20209D1*
X41019Y20104D1*
X41465Y19877D1*
X41739Y19678D1*
X42092Y19324D1*
X42291Y19051D1*
X42518Y18605D1*
X42622Y18284D1*
X42672Y17970D1*
X50352Y36762D2*
X50788Y36326D1*
X50965Y36065D1*
X51033Y35734D1*
X51048Y27649D1*
X51279Y27432D1*
X51456Y27169D1*
X51546Y26938D1*
X51749Y27154D1*
X51752Y29860D1*
X51812Y30170D1*
X51998Y30453D1*
X53248Y31703D1*
X53509Y31880D1*
X53840Y31948D1*
X55880D1*
X56190Y31888D1*
X56473Y31703D1*
X57780Y30402D1*
Y33189D1*
X60746D1*
X65582Y38030D1*
X65586Y43511D1*
X65338Y43683D1*
X65117Y43911D1*
X64944Y44176D1*
X64823Y44469D1*
X64760Y44780D1*
X64757Y45097D1*
X64814Y45409D1*
X64928Y45704D1*
X65097Y45973D1*
X65312Y46205D1*
X65568Y46392D1*
X65855Y46528D1*
X66162Y46607D1*
X66478Y46627D1*
X66793Y46587D1*
X67094Y46488D1*
X67371Y46334D1*
X67614Y46131D1*
X67815Y45885D1*
X67965Y45606D1*
X68060Y45304D1*
X68097Y44955D1*
X68067Y44639D1*
X67978Y44335D1*
X67833Y44053D1*
X67638Y43804D1*
X67399Y43595D1*
X67270Y43521D1*
X67262Y41463D1*
Y37687D1*
X67202Y37377D1*
X67017Y37095D1*
X61930Y32008D1*
X61928Y29288D1*
X69974D1*
X70218Y29542D1*
X70482Y29717D1*
X70778Y29829D1*
X71092Y29872D1*
X71408Y29846D1*
X71710Y29749D1*
X71983Y29589D1*
X72214Y29372D1*
X72391Y29109D1*
X72506Y28814D1*
X72553Y28450D1*
X72518Y28135D1*
X72414Y27836D1*
X72246Y27567D1*
X72023Y27342D1*
X71764Y27177D1*
X71983Y27049D1*
X72214Y26832D1*
X72391Y26569D1*
X72506Y26274D1*
X72553Y25910D1*
X72518Y25595D1*
X72414Y25296D1*
X72246Y25027D1*
X72023Y24802D1*
X71755Y24632D1*
X71457Y24525D1*
X71143Y24487D1*
X70827Y24520D1*
X70527Y24621D1*
X70257Y24786D1*
X70030Y25007D1*
X69858Y25273D1*
X69748Y25571D1*
X69707Y25885D1*
X69737Y26200D1*
X69836Y26501D1*
X69999Y26773D1*
X70218Y27002D1*
X70491Y27180D1*
X70257Y27326D1*
X69992Y27606D1*
X66685Y27612D1*
X58530Y27622D1*
X58220Y27682D1*
X57938Y27868D1*
X57075Y28730D1*
X57080Y23603D1*
Y15159D1*
X59631Y17709D1*
X59883Y17901D1*
X60269Y18037D1*
X61095Y18053D1*
X64062D1*
X63902Y18181D1*
X63687Y18414D1*
X63512Y18679D1*
X63384Y18968D1*
X63305Y19276D1*
X63277Y19592D1*
X63302Y19908D1*
X63378Y20216D1*
X63504Y20507D1*
X63676Y20773D1*
X63890Y21007D1*
X64139Y21204D1*
X64417Y21356D1*
X64716Y21461D1*
X65029Y21515D1*
X65346Y21517D1*
X65659Y21467D1*
X65960Y21366D1*
X66240Y21218D1*
X66492Y21025D1*
X66708Y20793D1*
X66884Y20529D1*
X67013Y20240D1*
X67094Y19933D1*
X67123Y19600D1*
X67097Y19284D1*
X67015Y18967D1*
X67171Y19119D1*
X67423Y19311D1*
X67809Y19447D1*
X68635Y19463D1*
X70332D1*
X70491Y19560D1*
X70257Y19706D1*
X70030Y19927D1*
X69858Y20193D1*
X69748Y20491D1*
X69707Y20805D1*
X69737Y21120D1*
X69836Y21421D1*
X69999Y21693D1*
X70218Y21922D1*
X70482Y22097D1*
X70778Y22209D1*
X71092Y22252D1*
X71408Y22226D1*
X71710Y22129D1*
X71983Y21969D1*
X72214Y21752D1*
X72391Y21489D1*
X72506Y21194D1*
X72553Y20830D1*
X72518Y20515D1*
X72414Y20216D1*
X72246Y19947D1*
X72023Y19722D1*
X71764Y19557D1*
X71983Y19429D1*
X72214Y19212D1*
X72391Y18949D1*
X72506Y18654D1*
X72553Y18290D1*
X72518Y17975D1*
X72414Y17676D1*
X72246Y17407D1*
X72023Y17182D1*
X71847Y17070D1*
X72544Y16956D1*
X72685Y16912D1*
X73560Y16462D1*
X73679Y16377D1*
X74023Y16033D1*
Y59984D1*
X73674Y59634D1*
X73556Y59547D1*
X72681Y59105D1*
X72542Y59059D1*
X71573Y58909D1*
X71427Y58907D1*
X70459Y59063D1*
X70319Y59107D1*
X69447Y59554D1*
X69327Y59639D1*
X68636Y60333D1*
X68548Y60451D1*
X68106Y61325D1*
X68059Y61464D1*
X67909Y62431D1*
X67907Y62578D1*
X68063Y63545D1*
X67909Y63158D1*
X67741Y62889D1*
X67518Y62664D1*
X67250Y62494D1*
X66952Y62387D1*
X66638Y62349D1*
X66322Y62382D1*
X66022Y62483D1*
X65752Y62648D1*
X65525Y62869D1*
X65358Y63127D1*
X65201Y62889D1*
X64978Y62664D1*
X64719Y62499D1*
X64938Y62371D1*
X65169Y62154D1*
X65346Y61891D1*
X65461Y61596D1*
X65508Y61232D1*
X65473Y60917D1*
X65369Y60618D1*
X65201Y60349D1*
X64978Y60124D1*
X64710Y59954D1*
X64412Y59847D1*
X64098Y59809D1*
X63782Y59842D1*
X63482Y59943D1*
X63212Y60108D1*
X62985Y60329D1*
X62818Y60587D1*
X62661Y60349D1*
X62438Y60124D1*
X62170Y59954D1*
X61872Y59847D1*
X61558Y59809D1*
X61242Y59842D1*
X60942Y59943D1*
X60672Y60108D1*
X60445Y60329D1*
X60278Y60587D1*
X60121Y60349D1*
X59898Y60124D1*
X59630Y59954D1*
X59332Y59847D1*
X59018Y59809D1*
X58702Y59842D1*
X58402Y59943D1*
X58132Y60108D1*
X57905Y60329D1*
X57738Y60587D1*
X57581Y60349D1*
X57358Y60124D1*
X57090Y59954D1*
X56792Y59847D1*
X56478Y59809D1*
X56162Y59842D1*
X55862Y59943D1*
X55592Y60108D1*
X55365Y60329D1*
X55198Y60587D1*
X55041Y60349D1*
X54818Y60124D1*
X54550Y59954D1*
X54252Y59847D1*
X53938Y59809D1*
X53622Y59842D1*
X53322Y59943D1*
X53052Y60108D1*
X52825Y60329D1*
X52658Y60587D1*
X52501Y60349D1*
X52278Y60124D1*
X52010Y59954D1*
X51712Y59847D1*
X51398Y59809D1*
X51082Y59842D1*
X50782Y59943D1*
X50512Y60108D1*
X50285Y60329D1*
X50113Y60595D1*
X50003Y60893D1*
X49962Y61207D1*
X49992Y61522D1*
X50091Y61823D1*
X50254Y62095D1*
X50473Y62324D1*
X50746Y62502D1*
X50512Y62648D1*
X50285Y62869D1*
X50118Y63127D1*
X49961Y62889D1*
X49738Y62664D1*
X49470Y62494D1*
X49172Y62387D1*
X48858Y62349D1*
X48542Y62382D1*
X48242Y62483D1*
X47972Y62648D1*
X47745Y62869D1*
X47578Y63127D1*
X47421Y62889D1*
X47198Y62664D1*
X46939Y62499D1*
X47158Y62371D1*
X47389Y62154D1*
X47566Y61891D1*
X47681Y61596D1*
X47728Y61232D1*
X47693Y60917D1*
X47589Y60618D1*
X47421Y60349D1*
X47198Y60124D1*
X46930Y59954D1*
X46632Y59847D1*
X46318Y59809D1*
X46091Y59833D1*
X45006Y58748D1*
X44744Y58570D1*
X44413Y58502D1*
X42399D1*
X41172Y57267D1*
X41182Y56607D1*
X41538Y56963D1*
X41799Y57140D1*
X42130Y57208D1*
X47040D1*
X47350Y57148D1*
X47633Y56963D1*
X48353Y56243D1*
X48530Y55981D1*
X48598Y55650D1*
Y46314D1*
X48818Y46131D1*
X49019Y45885D1*
X49169Y45606D1*
X49264Y45304D1*
X49301Y44955D1*
X49271Y44639D1*
X49182Y44335D1*
X49037Y44053D1*
X48842Y43804D1*
X48603Y43595D1*
X48329Y43436D1*
X48029Y43331D1*
X47716Y43284D1*
X47399Y43298D1*
X47091Y43371D1*
X46801Y43501D1*
X46542Y43683D1*
X46321Y43911D1*
X46148Y44176D1*
X46027Y44469D1*
X45964Y44780D1*
X45961Y45097D1*
X46018Y45409D1*
X46132Y45704D1*
X46301Y45973D1*
X46516Y46205D1*
X46772Y46392D1*
X46924Y46465D1*
X46922Y55297D1*
X46697Y55528D1*
X44272Y55532D1*
X44303Y55240D1*
X44268Y54925D1*
X44164Y54626D1*
X43996Y54357D1*
X43714Y54095D1*
X43718Y53180D1*
X43658Y52870D1*
X43473Y52588D1*
X43143Y52258D1*
X42887Y52083D1*
X42550Y52012D1*
X40834D1*
X37862Y49037D1*
X38078Y49016D1*
X38380Y48919D1*
X38653Y48759D1*
X38884Y48542D1*
X39072Y48251D1*
X39209Y48483D1*
X39428Y48712D1*
X39692Y48887D1*
X39988Y48999D1*
X40302Y49042D1*
X40618Y49016D1*
X40920Y48919D1*
X41193Y48759D1*
X41424Y48542D1*
X41601Y48279D1*
X41716Y47984D1*
X41763Y47620D1*
X41728Y47305D1*
X41624Y47006D1*
X41456Y46737D1*
X41233Y46512D1*
X40965Y46342D1*
X40667Y46235D1*
X40353Y46197D1*
X40037Y46230D1*
X39737Y46331D1*
X39467Y46496D1*
X39240Y46717D1*
X39073Y46975D1*
X38916Y46737D1*
X38634Y46475D1*
X38638Y37410D1*
X38807Y37232D1*
X49535D1*
X49845Y37172D1*
X50128Y36986D1*
X50352Y36762D1*
X37468Y36201D2*
X37208Y36461D1*
X37030Y36723D1*
X36962Y37054D1*
X36969Y46471D1*
X36700Y46717D1*
X36528Y46981D1*
X36376Y46737D1*
X36153Y46512D1*
X35885Y46342D1*
X35587Y46235D1*
X35273Y46197D1*
X34957Y46230D1*
X34657Y46331D1*
X34387Y46496D1*
X34160Y46717D1*
X33988Y46981D1*
X33836Y46737D1*
X33554Y46475D1*
X33558Y36359D1*
X33727Y36198D1*
X37478D1*
D19*
X16560Y29950D3*
D20*
X41230D3*
D19*
X16668Y40796D3*
D20*
X45328D3*
D21*
X59853Y31116D3*
D22*
Y12276D3*
D23*
X13920Y51320D3*
D24*
Y48780D3*
D25*
X65200Y13800D3*
Y19600D3*
D19*
X18365Y61232D3*
D26*
X20905D3*
X23445D3*
X25985D3*
X28525D3*
X31065D3*
X33605D3*
X36145D3*
X38685D3*
X41225D3*
X43765D3*
X46305D3*
X48845D3*
X51385D3*
X53925D3*
X56465D3*
X59005D3*
X61545D3*
X64085D3*
X66625D3*
Y63772D3*
X64085D3*
X61545D3*
X59005D3*
X56465D3*
X53925D3*
X51385D3*
X48845D3*
X46305D3*
X43765D3*
X41225D3*
X38685D3*
X36145D3*
X33605D3*
X31065D3*
X28525D3*
X25985D3*
X23445D3*
X20905D3*
X18365D3*
D27*
X13950Y26430D3*
D25*
Y22930D3*
D19*
X41305Y23970D3*
D26*
X42575Y26510D3*
X43845Y23970D3*
X45115Y26510D3*
X46385Y23970D3*
X47655Y26510D3*
X48925Y23970D3*
X50195Y26510D3*
D28*
X12570Y55930D3*
D29*
X15110D3*
D16*
X66424Y44955D3*
X47628D3*
D30*
X71351Y56519D3*
D31*
Y53979D3*
Y51439D3*
D29*
X19090Y44920D3*
D32*
Y55080D3*
D33*
X22384Y16827D3*
D34*
X27134D3*
X31884D3*
D26*
X71130Y28450D3*
Y25910D3*
Y23370D3*
Y20830D3*
Y18290D3*
D19*
X27640Y47620D3*
D20*
X30180D3*
X32720D3*
X35260D3*
X37800D3*
X40340D3*
X42880D3*
Y55240D3*
X40340D3*
X37800D3*
X35260D3*
X32720D3*
X30180D3*
X27640D3*
D35*
X71560Y42820D3*
D36*
Y41110D3*
Y39400D3*
Y37690D3*
Y35980D3*
M02*
