G04 DipTrace 2.4.0.1*
%INTop.gbr*%
%MOMM*%
%ADD13C,1.0*%
%ADD14C,0.33*%
%ADD15C,0.635*%
%ADD16C,2.0*%
%ADD20R,1.5X1.5*%
%ADD21C,1.5*%
%ADD22R,2.8X2.8*%
%ADD23C,2.8*%
%ADD24C,1.27*%
%ADD25R,1.27X1.27*%
%ADD26R,2.5X2.5*%
%ADD27C,2.5*%
%ADD28C,1.5*%
%ADD29R,1.9X1.9*%
%ADD30C,1.9*%
%ADD31C,1.524*%
%ADD32C,1.524*%
%ADD33R,3.0X3.0*%
%ADD34C,3.0*%
%ADD35R,2.5X1.2*%
%ADD36R,1.8X1.4*%
%ADD37O,1.8X1.4*%
%ADD38C,1.016*%
%FSLAX53Y53*%
G04*
G71*
G90*
G75*
G01*
%LNTop*%
%LPD*%
X71760Y41912D2*
D13*
X73620D1*
Y17270D1*
X66840D1*
Y18962D1*
X51270Y33410D2*
Y36170D1*
X43560D1*
X30070Y47440D2*
D14*
Y55060D1*
X14050Y55850D2*
X17122Y58922D1*
Y62529D1*
X18415Y63822D1*
X37690Y47440D2*
X38955Y48705D1*
X63666D1*
X64326Y48045D1*
Y29712D1*
X63323Y28709D1*
Y13742D1*
X63983Y13082D1*
X65893D1*
X14050Y55850D2*
X19824D1*
X20614Y55060D1*
X27530D1*
X18415Y63822D2*
X20955D1*
X64326Y29712D2*
X64986Y29052D1*
X66838D1*
X37690Y55060D2*
Y47440D1*
X30070Y55060D2*
X31955Y53175D1*
X35805D1*
X37690Y55060D1*
X66838Y29052D2*
X70808D1*
X27530Y55060D2*
X30070D1*
X13730Y26130D2*
D13*
X13850D1*
X22384Y17596D1*
Y16827D1*
X71760Y40202D2*
D14*
X70357D1*
X66424Y44135D1*
X44930Y45870D2*
X41800D1*
X40230Y47440D1*
X46040Y24130D2*
Y32696D1*
X45380Y33356D1*
X40894D1*
X32610Y41640D1*
Y47440D1*
X16668Y40798D2*
X30655D1*
X31315Y41458D1*
Y48045D1*
X31975Y48705D1*
X33195D1*
X33855Y48045D1*
Y44795D1*
X34515Y44135D1*
X47628D1*
X62680Y32100D2*
Y12325D1*
X63323Y11682D1*
X65893D1*
X47628Y44135D2*
X52643Y39120D1*
X60985D1*
X62680Y37425D1*
Y32100D1*
X46355Y61282D2*
X40230Y55157D1*
Y55060D1*
X49840Y33350D2*
D13*
Y22330D1*
X32637D1*
X27134Y16827D1*
X66840Y24042D2*
Y23750D1*
X69602Y26512D1*
X70808D1*
X65610Y24980D2*
X66840Y23750D1*
D38*
X43560Y36170D3*
X51270Y33410D3*
X65610Y24980D3*
X62680Y32100D3*
X44930Y45870D3*
X49840Y33350D3*
X18113Y64974D2*
D15*
X16912Y63773D1*
X12227Y59088D2*
X11026Y57887D1*
X19909Y64974D2*
X17684Y62749D1*
X13848Y58912D2*
X11026Y56091D1*
X21705Y64974D2*
X19480Y62749D1*
X16949Y60217D2*
X11026Y54295D1*
X22049Y63522D2*
X21255Y62728D1*
X18345Y59817D2*
X13187Y54659D1*
X12697Y54170D2*
X11026Y52499D1*
X20281Y59958D2*
X14983Y54659D1*
X12697Y52374D2*
X11026Y50703D1*
X24940Y62820D2*
X24496Y62377D1*
X22400Y60281D2*
X15404Y53284D1*
X14079Y51960D2*
X12548Y50429D1*
X11350Y49231D2*
X11029Y48909D1*
X23768Y59853D2*
X13909Y49994D1*
X11792Y47877D2*
X11440Y47524D1*
X25585Y59874D2*
X14155Y48443D1*
X30174Y62666D2*
X29730Y62223D1*
X27634Y60126D2*
X14850Y47342D1*
X32376Y63073D2*
X31863Y62559D1*
X29837Y60533D2*
X29661Y60357D1*
X29503Y60199D2*
X15790Y46486D1*
X30924Y59824D2*
X16021Y44921D1*
X35442Y62547D2*
X34929Y62033D1*
X32903Y60007D2*
X23318Y50422D1*
X21516Y48620D2*
X16021Y43125D1*
X37582Y62890D2*
X37132Y62440D1*
X35042Y60351D2*
X24314Y49622D1*
X22323Y47631D2*
X16954Y42262D1*
X36312Y59824D2*
X32978Y56491D1*
X31177Y54689D2*
X18168Y41680D1*
X38193Y59909D2*
X34732Y56448D1*
X31998Y53714D2*
X27190Y48906D1*
X26062Y47778D2*
X19964Y41680D1*
X17615Y39331D2*
X16021Y37737D1*
X42809Y62729D2*
X42366Y62286D1*
X40269Y60189D2*
X36199Y56119D1*
X34095Y54015D2*
X28986Y48906D1*
X26062Y45982D2*
X21760Y41680D1*
X19994Y39914D2*
X16021Y35941D1*
X41820Y59944D2*
X36549Y54673D1*
X35534Y53658D2*
X29000Y47124D1*
X27851Y45975D2*
X23556Y41680D1*
X21790Y39914D2*
X16021Y34145D1*
X43511Y59839D2*
X40198Y56526D1*
X38768Y55096D2*
X33259Y49587D1*
X30433Y46761D2*
X25352Y41680D1*
X23586Y39914D2*
X16021Y32349D1*
X12150Y28478D2*
X11026Y27354D1*
X48064Y62596D2*
X47585Y62117D1*
X39336Y53868D2*
X34318Y48850D1*
X30433Y44965D2*
X27148Y41680D1*
X25382Y39914D2*
X16779Y31311D1*
X13946Y28478D2*
X13566Y28098D1*
X11764Y26296D2*
X11026Y25558D1*
X50225Y62961D2*
X49753Y62489D1*
X47685Y60421D2*
X43572Y56308D1*
X41518Y54254D2*
X35953Y48689D1*
X30433Y43169D2*
X28944Y41680D1*
X27178Y39914D2*
X18133Y30869D1*
X15637Y28373D2*
X15363Y28099D1*
X11764Y24500D2*
X11026Y23762D1*
X48878Y59817D2*
X44239Y55179D1*
X42655Y53594D2*
X36613Y47552D1*
X35035Y45975D2*
X34739Y45679D1*
X28974Y39914D2*
X18133Y29073D1*
X17433Y28373D2*
X15698Y26638D1*
X11764Y22704D2*
X11026Y21966D1*
X50800Y59944D2*
X39587Y48731D1*
X38943Y48087D2*
X35876Y45020D1*
X34166Y43309D2*
X33491Y42634D1*
X30791Y39935D2*
X16295Y25439D1*
X12206Y21350D2*
X11026Y20170D1*
X55445Y62792D2*
X55008Y62356D1*
X52905Y60252D2*
X41208Y48556D1*
X39112Y46459D2*
X37672Y45020D1*
X35905Y43253D2*
X34087Y41435D1*
X32811Y40159D2*
X17193Y24541D1*
X13343Y20690D2*
X11026Y18374D1*
X54315Y59867D2*
X43278Y48829D1*
X40424Y45975D2*
X39468Y45020D1*
X37701Y43253D2*
X34985Y40537D1*
X33709Y39261D2*
X18091Y23642D1*
X16338Y21890D2*
X11026Y16578D1*
X56104Y59860D2*
X44169Y47924D1*
X39498Y43253D2*
X35883Y39639D1*
X34608Y38363D2*
X18989Y22744D1*
X17236Y20992D2*
X13362Y17118D1*
X60685Y62645D2*
X60228Y62187D1*
X58146Y60105D2*
X45123Y47082D1*
X41294Y43253D2*
X36781Y38741D1*
X35506Y37465D2*
X19887Y21846D1*
X18134Y20094D2*
X14899Y16858D1*
X62874Y63038D2*
X62382Y62545D1*
X60335Y60498D2*
X46105Y46269D1*
X43090Y43253D2*
X37679Y37843D1*
X36404Y36567D2*
X20785Y20948D1*
X19032Y19196D2*
X15986Y16150D1*
X61450Y59817D2*
X47473Y45841D1*
X44886Y43253D2*
X38577Y36944D1*
X37302Y35669D2*
X21683Y20050D1*
X19930Y18298D2*
X16751Y15118D1*
X68403Y64974D2*
X67973Y64545D1*
X63414Y59986D2*
X48820Y45392D1*
X46366Y42937D2*
X45663Y42234D1*
X43889Y40461D2*
X39475Y36046D1*
X38200Y34771D2*
X22581Y19152D1*
X20169Y16740D2*
X17137Y13708D1*
X65540Y60316D2*
X49346Y44122D1*
X47643Y42418D2*
X46666Y41442D1*
X44689Y39465D2*
X40373Y35148D1*
X39098Y33873D2*
X24272Y19047D1*
X20169Y14944D2*
X16246Y11021D1*
X66852Y59832D2*
X50027Y43006D1*
X48751Y41731D2*
X44407Y37386D1*
X42514Y35494D2*
X41271Y34250D1*
X39996Y32975D2*
X24602Y17581D1*
X21628Y14607D2*
X18042Y11021D1*
X68852Y60035D2*
X50925Y42108D1*
X49649Y40833D2*
X46203Y37386D1*
X43770Y34953D2*
X43053Y34236D1*
X41294Y32477D2*
X32298Y23481D1*
X25003Y16186D2*
X24602Y15785D1*
X23424Y14607D2*
X19838Y11021D1*
X69877Y59264D2*
X51824Y41211D1*
X50548Y39935D2*
X48000Y37387D1*
X45567Y34954D2*
X44850Y34237D1*
X43083Y32471D2*
X41847Y31234D1*
X39947Y29335D2*
X34158Y23545D1*
X25712Y15099D2*
X21635Y11022D1*
X71287Y58878D2*
X70598Y58189D1*
X70094Y57685D2*
X52722Y40313D1*
X51446Y39037D2*
X49796Y37387D1*
X47363Y34954D2*
X46211Y33802D1*
X44880Y32471D2*
X42738Y30329D1*
X40852Y28444D2*
X35954Y23545D1*
X33521Y21112D2*
X31387Y18978D1*
X29732Y17323D2*
X29352Y16943D1*
X27017Y14608D2*
X23431Y11022D1*
X73974Y59769D2*
X72394Y58189D1*
X70094Y55889D2*
X54209Y40004D1*
X52457Y38252D2*
X51564Y37359D1*
X49159Y34954D2*
X46920Y32715D1*
X45160Y30955D2*
X37750Y23545D1*
X35317Y21112D2*
X32979Y18774D1*
X29936Y15731D2*
X25227Y11022D1*
X73974Y57973D2*
X73426Y57425D1*
X70101Y54100D2*
X56005Y40004D1*
X54239Y38238D2*
X52462Y36461D1*
X48626Y32625D2*
X46920Y30919D1*
X45160Y29159D2*
X39546Y23545D1*
X37113Y21112D2*
X33863Y17862D1*
X30848Y14847D2*
X27023Y11022D1*
X73974Y56177D2*
X73426Y55628D1*
X70578Y52781D2*
X57801Y40004D1*
X56035Y38238D2*
X52490Y34693D1*
X48626Y30829D2*
X46920Y29123D1*
X43582Y25785D2*
X43395Y25598D1*
X42031Y24234D2*
X41342Y23545D1*
X38909Y21112D2*
X33997Y16200D1*
X32518Y14721D2*
X28819Y11022D1*
X73974Y54381D2*
X73418Y53825D1*
X70263Y50670D2*
X59597Y40004D1*
X57831Y38238D2*
X51059Y31466D1*
X48626Y29033D2*
X47691Y28098D1*
X40705Y21112D2*
X39532Y19939D1*
X38158Y18565D2*
X30615Y11022D1*
X73974Y52585D2*
X73355Y51966D1*
X71231Y49842D2*
X67111Y45722D1*
X64833Y43443D2*
X61337Y39948D1*
X59627Y38238D2*
X51059Y29670D1*
X42501Y21112D2*
X41293Y19904D1*
X38200Y16811D2*
X32411Y11022D1*
X73974Y50789D2*
X68009Y44824D1*
X65731Y42545D2*
X62284Y39099D1*
X61009Y37824D2*
X54034Y30849D1*
X53151Y29966D2*
X51059Y27874D1*
X48626Y25441D2*
X47502Y24317D1*
X44297Y21112D2*
X42261Y19076D1*
X39021Y15836D2*
X34207Y11022D1*
X73974Y48993D2*
X68409Y43428D1*
X67134Y42152D2*
X63182Y38201D1*
X61795Y36813D2*
X58215Y33234D1*
X57733Y32751D2*
X55907Y30926D1*
X52878Y27896D2*
X51059Y26078D1*
X46093Y21112D2*
X42633Y17652D1*
X40453Y15471D2*
X36003Y11022D1*
X73974Y47197D2*
X69307Y42530D1*
X68032Y41254D2*
X63561Y36784D1*
X61795Y35017D2*
X60011Y33234D1*
X57733Y30955D2*
X56847Y30070D1*
X52878Y26100D2*
X51059Y24282D1*
X47889Y21112D2*
X37799Y11022D1*
X73974Y45401D2*
X71903Y43330D1*
X68930Y40356D2*
X63561Y34988D1*
X57733Y29159D2*
X57121Y28547D1*
X52878Y24304D2*
X51059Y22486D1*
X49685Y21112D2*
X39595Y11022D1*
X73974Y43605D2*
X73496Y43126D1*
X69835Y39465D2*
X63561Y33192D1*
X59367Y28998D2*
X57121Y26751D1*
X52878Y22508D2*
X50470Y20100D1*
X48163Y17794D2*
X41391Y11022D1*
X70207Y38041D2*
X63779Y31613D1*
X61163Y28998D2*
X57121Y24955D1*
X52878Y20712D2*
X51845Y19679D1*
X48584Y16418D2*
X43187Y11022D1*
X70228Y36266D2*
X63561Y29600D1*
X61795Y27833D2*
X57121Y23159D1*
X52878Y18916D2*
X52631Y18669D1*
X49587Y15626D2*
X44983Y11022D1*
X70249Y34491D2*
X63561Y27804D1*
X61795Y26037D2*
X57121Y21363D1*
X52878Y17120D2*
X52546Y16789D1*
X51467Y15710D2*
X46779Y11022D1*
X71238Y33684D2*
X66515Y28961D1*
X64875Y27321D2*
X63561Y26008D1*
X61795Y24241D2*
X57121Y19567D1*
X52878Y15324D2*
X48575Y11022D1*
X72403Y33053D2*
X68290Y28940D1*
X64391Y25041D2*
X63561Y24212D1*
X61795Y22445D2*
X57121Y17771D1*
X52920Y13570D2*
X50372Y11022D1*
X72403Y31257D2*
X68809Y27663D1*
X64994Y23848D2*
X63561Y22416D1*
X61795Y20649D2*
X57121Y15975D1*
X53565Y12419D2*
X52168Y11022D1*
X72403Y29461D2*
X70921Y27979D1*
X65822Y22880D2*
X63561Y20619D1*
X61795Y18853D2*
X57121Y14179D1*
X54828Y11886D2*
X53964Y11022D1*
X72403Y27665D2*
X72054Y27316D1*
X64875Y20137D2*
X63561Y18823D1*
X61795Y17057D2*
X58840Y14102D1*
X58027Y13289D2*
X55760Y11022D1*
X72403Y25869D2*
X71700Y25166D1*
X69617Y23083D2*
X68276Y21742D1*
X64875Y18341D2*
X63561Y17027D1*
X61795Y15261D2*
X60748Y14214D1*
X57915Y11381D2*
X57556Y11022D1*
X69379Y21049D2*
X68809Y20479D1*
X65625Y17295D2*
X63561Y15231D1*
X72403Y22277D2*
X72165Y22039D1*
X69407Y19281D2*
X68809Y18683D1*
X66292Y16166D2*
X63561Y13435D1*
X72403Y20481D2*
X71861Y19939D1*
X67976Y16054D2*
X64922Y13000D1*
X72403Y18685D2*
X72207Y18489D1*
X67976Y14258D2*
X66718Y13000D1*
X68004Y12490D2*
X67864Y12350D1*
X68593Y11283D2*
X68332Y11022D1*
X72773Y59088D2*
X73974Y57887D1*
X71152Y58912D2*
X71876Y58188D1*
X73426Y56639D2*
X73974Y56091D1*
X65329Y62940D2*
X65794Y62475D1*
X67869Y60400D2*
X70094Y58174D1*
X73418Y54850D2*
X73974Y54295D1*
X66655Y59817D2*
X70094Y56378D1*
X73257Y53216D2*
X73974Y52499D1*
X64747Y59930D2*
X70165Y54512D1*
X73426Y51251D2*
X73974Y50703D1*
X60109Y62771D2*
X60546Y62335D1*
X62649Y60231D2*
X70417Y52463D1*
X72780Y50101D2*
X73974Y48906D1*
X61204Y59881D2*
X70214Y50871D1*
X71194Y49890D2*
X73974Y47110D1*
X59436Y59853D2*
X73974Y45314D1*
X54862Y62631D2*
X55326Y62166D1*
X57401Y60091D2*
X73974Y43518D1*
X52680Y63017D2*
X53165Y62531D1*
X55219Y60477D2*
X72368Y43329D1*
X54083Y59817D2*
X70571Y43329D1*
X52132Y59972D2*
X66257Y45848D1*
X68136Y43969D2*
X70144Y41961D1*
X47467Y62841D2*
X47910Y62398D1*
X50007Y60302D2*
X65078Y45230D1*
X48674Y59839D2*
X64762Y43750D1*
X66038Y42474D2*
X70158Y38355D1*
X46836Y59881D2*
X70172Y36545D1*
X42233Y62687D2*
X42677Y62244D1*
X45636Y59284D2*
X70200Y34720D1*
X71209Y33712D2*
X72403Y32517D1*
X43066Y60058D2*
X43462Y59662D1*
X44738Y58386D2*
X72403Y30721D1*
X41503Y59824D2*
X42564Y58764D1*
X43840Y57488D2*
X72403Y28925D1*
X36971Y62561D2*
X37471Y62061D1*
X39511Y60021D2*
X41666Y57866D1*
X44205Y55327D2*
X59529Y40003D1*
X63561Y35971D2*
X72403Y27129D1*
X34824Y62911D2*
X35282Y62454D1*
X37364Y60372D2*
X40768Y56968D1*
X43770Y53966D2*
X57733Y40003D1*
X59499Y38237D2*
X61795Y35941D1*
X63561Y34175D2*
X69989Y27747D1*
X72043Y25693D2*
X72403Y25333D1*
X36122Y59817D2*
X39562Y56378D1*
X42212Y53728D2*
X55936Y40003D1*
X57703Y38237D2*
X61795Y34145D1*
X63905Y32035D2*
X66979Y28960D1*
X72254Y23686D2*
X72402Y23538D1*
X34228Y59916D2*
X38783Y55361D1*
X40528Y53615D2*
X54140Y40003D1*
X55907Y38237D2*
X60911Y33233D1*
X63561Y30583D2*
X65253Y28890D1*
X72128Y22016D2*
X72400Y21743D1*
X29598Y62750D2*
X30041Y62307D1*
X32144Y60203D2*
X45343Y47005D1*
X46064Y46284D2*
X46732Y45616D1*
X54111Y38237D2*
X59115Y33233D1*
X63561Y28786D2*
X64875Y27473D1*
X68592Y23756D2*
X69814Y22534D1*
X71910Y20438D2*
X72403Y19945D1*
X30636Y59916D2*
X34286Y56266D1*
X36354Y54198D2*
X41905Y48647D1*
X48084Y42467D2*
X57733Y32819D1*
X61555Y28997D2*
X61800Y28752D1*
X63561Y26990D2*
X64713Y25838D1*
X67855Y22697D2*
X69372Y21180D1*
X28910Y59846D2*
X32258Y56498D1*
X35161Y53594D2*
X39884Y48871D1*
X45503Y43253D2*
X51376Y37379D1*
X52476Y36279D2*
X57733Y31023D1*
X59759Y28997D2*
X61795Y26961D1*
X63561Y25194D2*
X65822Y22934D1*
X68809Y19947D2*
X69400Y19356D1*
X21985Y64974D2*
X22279Y64681D1*
X24350Y62610D2*
X24821Y62138D1*
X26890Y60070D2*
X31269Y55691D1*
X33239Y53721D2*
X38888Y48072D1*
X43706Y43253D2*
X44781Y42178D1*
X46702Y40257D2*
X49573Y37386D1*
X52490Y34469D2*
X57733Y29227D1*
X57961Y28999D2*
X61795Y25165D1*
X63561Y23398D2*
X65260Y21699D1*
X20189Y64974D2*
X22653Y62510D1*
X24722Y60442D2*
X40144Y45020D1*
X41910Y43253D2*
X43918Y41245D1*
X45776Y39387D2*
X47777Y37386D1*
X52357Y32807D2*
X54190Y30974D1*
X57121Y28043D2*
X61795Y23369D1*
X63561Y21602D2*
X64875Y20289D1*
X18393Y64974D2*
X20647Y62721D1*
X23550Y59817D2*
X34566Y48801D1*
X36508Y46859D2*
X38348Y45020D1*
X40114Y43253D2*
X45981Y37386D1*
X48414Y34953D2*
X49054Y34314D1*
X51171Y32196D2*
X53207Y30160D1*
X57121Y26247D2*
X61795Y21573D1*
X63561Y19806D2*
X64875Y18493D1*
X67315Y16053D2*
X68256Y15111D1*
X16597Y64974D2*
X18823Y62749D1*
X21614Y59958D2*
X31984Y49587D1*
X35554Y46017D2*
X36552Y45020D1*
X38318Y43253D2*
X44185Y37386D1*
X46618Y34953D2*
X48626Y32945D1*
X51059Y30512D2*
X52878Y28694D1*
X57121Y24451D2*
X61795Y19777D1*
X63561Y18010D2*
X67877Y13694D1*
X19881Y59895D2*
X30883Y48892D1*
X36522Y43253D2*
X42705Y37071D1*
X44822Y34953D2*
X45567Y34208D1*
X46892Y32884D2*
X48626Y31149D1*
X51059Y28716D2*
X52878Y26898D1*
X57121Y22655D2*
X61795Y17981D1*
X63561Y16214D2*
X66776Y12999D1*
X67862Y11913D2*
X68754Y11021D1*
X18162Y59817D2*
X30434Y47545D1*
X34726Y43253D2*
X43743Y34236D1*
X46920Y31060D2*
X48626Y29353D1*
X51059Y26920D2*
X52878Y25102D1*
X57121Y20859D2*
X61795Y16185D1*
X63561Y14418D2*
X64980Y12999D1*
X16155Y60028D2*
X27277Y48906D1*
X28994Y47189D2*
X30434Y45749D1*
X33491Y42692D2*
X41947Y34236D1*
X43706Y32477D2*
X45160Y31023D1*
X46920Y29264D2*
X48626Y27557D1*
X51059Y25124D2*
X52878Y23306D1*
X57121Y19063D2*
X61795Y14389D1*
X15123Y59264D2*
X26062Y48325D1*
X28418Y45969D2*
X30433Y43954D1*
X41917Y32471D2*
X45159Y29228D1*
X51058Y23329D2*
X52877Y21510D1*
X57127Y17260D2*
X60005Y14382D1*
X13713Y58878D2*
X22281Y50310D1*
X24293Y48298D2*
X26062Y46529D1*
X26622Y45969D2*
X30433Y42158D1*
X31863Y40728D2*
X41280Y31312D1*
X42808Y29784D2*
X44479Y28112D1*
X47389Y25202D2*
X48625Y23966D1*
X50897Y21694D2*
X52877Y19714D1*
X57127Y15464D2*
X58595Y13997D1*
X11026Y59769D2*
X21502Y49293D1*
X23269Y47527D2*
X29114Y41681D1*
X30867Y39928D2*
X40115Y30680D1*
X42176Y28619D2*
X43447Y27348D1*
X49683Y21112D2*
X50716Y20079D1*
X57099Y13696D2*
X57837Y12958D1*
X11026Y57973D2*
X14339Y54660D1*
X15404Y53595D2*
X27318Y41681D1*
X29085Y39914D2*
X43398Y25601D1*
X47887Y21112D2*
X49243Y19757D1*
X52461Y16538D2*
X52877Y16122D1*
X56503Y12497D2*
X57977Y11022D1*
X11026Y56177D2*
X12697Y54506D1*
X15242Y51961D2*
X25522Y41681D1*
X27289Y39914D2*
X42030Y25173D1*
X46091Y21112D2*
X48387Y18816D1*
X51514Y15689D2*
X52877Y14326D1*
X55303Y11900D2*
X56181Y11022D1*
X11026Y54381D2*
X12697Y52710D1*
X13446Y51961D2*
X23726Y41681D1*
X25493Y39914D2*
X41862Y23545D1*
X44295Y21112D2*
X48267Y17140D1*
X49837Y15569D2*
X54385Y11022D1*
X11026Y52585D2*
X13230Y50381D1*
X14197Y49414D2*
X21930Y41681D1*
X23697Y39914D2*
X40066Y23545D1*
X42499Y21112D2*
X52589Y11022D1*
X11026Y50789D2*
X11757Y50058D1*
X13874Y47941D2*
X14332Y47483D1*
X15979Y45836D2*
X20134Y41681D1*
X21900Y39914D2*
X38270Y23545D1*
X40703Y21112D2*
X50793Y11022D1*
X11026Y48993D2*
X11375Y48644D1*
X16021Y43998D2*
X17756Y42263D1*
X18133Y41886D2*
X18337Y41682D1*
X20104Y39914D2*
X36474Y23545D1*
X38907Y21112D2*
X39947Y20072D1*
X42611Y17408D2*
X48997Y11022D1*
X18308Y39914D2*
X34678Y23545D1*
X37111Y21112D2*
X38733Y19490D1*
X42029Y16194D2*
X47201Y11022D1*
X17095Y39332D2*
X32882Y23545D1*
X35315Y21112D2*
X38066Y18360D1*
X40899Y15527D2*
X45405Y11022D1*
X16021Y38609D2*
X31598Y23033D1*
X33519Y21112D2*
X43609Y11022D1*
X16021Y36813D2*
X30700Y22135D1*
X32445Y20389D2*
X41813Y11022D1*
X16021Y35017D2*
X29802Y21237D1*
X31547Y19491D2*
X31998Y19041D1*
X34094Y16945D2*
X40017Y11022D1*
X16021Y33221D2*
X28904Y20339D1*
X33708Y15534D2*
X38221Y11022D1*
X18133Y29313D2*
X28006Y19441D1*
X32698Y14749D2*
X36425Y11022D1*
X17277Y28373D2*
X26652Y18999D1*
X29309Y16341D2*
X30174Y15477D1*
X30532Y15119D2*
X34629Y11022D1*
X15081Y28773D2*
X25501Y18353D1*
X28664Y15191D2*
X32833Y11022D1*
X13580Y28479D2*
X13960Y28098D1*
X15698Y26360D2*
X23010Y19048D1*
X24602Y17457D2*
X24933Y17126D1*
X27436Y14622D2*
X31036Y11022D1*
X11784Y28479D2*
X12164Y28098D1*
X24602Y15661D2*
X29240Y11022D1*
X11026Y27440D2*
X11764Y26702D1*
X23858Y14608D2*
X27444Y11022D1*
X11026Y25644D2*
X11764Y24906D1*
X15278Y21393D2*
X20169Y16501D1*
X22062Y14608D2*
X25648Y11022D1*
X11026Y23848D2*
X11806Y23068D1*
X14169Y20705D2*
X23852Y11022D1*
X11026Y22052D2*
X22056Y11022D1*
X11026Y20256D2*
X14262Y17020D1*
X17031Y14251D2*
X20260Y11022D1*
X11026Y18460D2*
X12487Y16999D1*
X17003Y12483D2*
X18464Y11022D1*
X11026Y16664D2*
X11277Y16413D1*
X16414Y11276D2*
X16665Y11025D1*
X42726Y29528D2*
X42622Y29229D1*
X42454Y28960D1*
X42231Y28735D1*
X41964Y28565D1*
X41665Y28458D1*
X41351Y28420D1*
X41036Y28453D1*
X40735Y28554D1*
X40465Y28720D1*
X40238Y28941D1*
X40066Y29206D1*
X39956Y29504D1*
X39916Y29818D1*
X39945Y30133D1*
X40044Y30434D1*
X40207Y30706D1*
X40426Y30935D1*
X40690Y31110D1*
X40987Y31222D1*
X41300Y31266D1*
X41616Y31239D1*
X41918Y31143D1*
X42191Y30982D1*
X42422Y30765D1*
X42599Y30502D1*
X42714Y30207D1*
X42761Y29843D1*
X42726Y29528D1*
X18091Y39969D2*
Y39375D1*
X15978D1*
X15970Y31266D1*
X18091D1*
Y28420D1*
X15245D1*
Y28966D1*
X14954Y28764D1*
X14472Y28576D1*
X14043Y28523D1*
X10994Y28513D1*
X10978Y28139D1*
Y16005D1*
X11336Y16366D1*
X11454Y16453D1*
X12329Y16895D1*
X12468Y16941D1*
X13437Y17091D1*
X13583Y17093D1*
X14551Y16937D1*
X14691Y16893D1*
X15563Y16446D1*
X15683Y16361D1*
X16374Y15667D1*
X16462Y15549D1*
X16904Y14675D1*
X16951Y14536D1*
X17101Y13569D1*
X17103Y13422D1*
X16947Y12455D1*
X16903Y12315D1*
X16455Y11444D1*
X16370Y11325D1*
X16026Y10981D1*
X44793Y10977D1*
X58237D1*
X58072Y11214D1*
X57931Y11498D1*
X57835Y11801D1*
X57786Y12114D1*
Y12431D1*
X57834Y12745D1*
X57929Y13047D1*
X58069Y13332D1*
X58251Y13592D1*
X58470Y13821D1*
X58722Y14013D1*
X59000Y14166D1*
X59299Y14273D1*
X59610Y14335D1*
X59927Y14348D1*
X60242Y14312D1*
X60548Y14229D1*
X60838Y14100D1*
X61105Y13928D1*
X61342Y13718D1*
X61545Y13474D1*
X61708Y13202D1*
X61843Y12840D1*
X61842Y29043D1*
X57780D1*
Y33189D1*
X61838D1*
X61842Y37071D1*
X60635Y38285D1*
X52643Y38282D1*
X52333Y38342D1*
X52051Y38528D1*
X48059Y42520D1*
X47716Y42464D1*
X47399Y42478D1*
X47091Y42551D1*
X46801Y42681D1*
X46542Y42863D1*
X46321Y43091D1*
X46186Y43298D1*
X34515Y43297D1*
X34205Y43357D1*
X33923Y43543D1*
X33454Y44011D1*
X33448Y41993D1*
X41236Y34199D1*
X45380Y34194D1*
X45690Y34135D1*
X45972Y33949D1*
X46632Y33289D1*
X46809Y33028D1*
X46878Y32696D1*
Y28023D1*
X47272Y28093D1*
X47588Y28066D1*
X47890Y27970D1*
X48163Y27809D1*
X48394Y27592D1*
X48571Y27329D1*
X48667Y27080D1*
X48663Y33450D1*
X48732Y33759D1*
X48881Y34039D1*
X49098Y34269D1*
X49369Y34433D1*
X49673Y34519D1*
X49990Y34521D1*
X50076Y34498D1*
X50097Y34988D1*
X49048Y34997D1*
X43510Y34990D1*
X43198Y35046D1*
X42913Y35182D1*
X42674Y35390D1*
X42498Y35653D1*
X42399Y35954D1*
X42383Y36270D1*
X42452Y36579D1*
X42601Y36859D1*
X42818Y37089D1*
X43089Y37253D1*
X43393Y37339D1*
X51270Y37343D1*
X51584Y37300D1*
X51874Y37175D1*
X52121Y36977D1*
X52306Y36720D1*
X52427Y36361D1*
X52443Y35535D1*
X52451Y33410D1*
X52408Y33096D1*
X52284Y32805D1*
X52087Y32557D1*
X51831Y32371D1*
X51535Y32259D1*
X51220Y32230D1*
X51132Y32246D1*
X51013Y32080D1*
Y22330D1*
X50970Y22016D1*
X50845Y21726D1*
X50647Y21479D1*
X50390Y21294D1*
X50031Y21173D1*
X49205Y21157D1*
X33122D1*
X29250Y17284D1*
X29284Y17144D1*
X29307Y16827D1*
X29284Y16511D1*
X29215Y16201D1*
X29101Y15905D1*
X28946Y15628D1*
X28752Y15377D1*
X28524Y15157D1*
X28266Y14972D1*
X27984Y14827D1*
X27683Y14725D1*
X27372Y14667D1*
X27055Y14656D1*
X26739Y14690D1*
X26432Y14770D1*
X26140Y14894D1*
X25870Y15060D1*
X25626Y15263D1*
X25414Y15499D1*
X25239Y15763D1*
X25104Y16051D1*
X25013Y16354D1*
X24967Y16668D1*
Y16985D1*
X25013Y17299D1*
X25104Y17603D1*
X25239Y17890D1*
X25414Y18155D1*
X25626Y18391D1*
X25869Y18594D1*
X26140Y18759D1*
X26432Y18883D1*
X26739Y18964D1*
X27054Y18998D1*
X27371Y18987D1*
X27596Y18945D1*
X31807Y23159D1*
X32059Y23351D1*
X32445Y23487D1*
X33272Y23503D1*
X42073D1*
X42077Y25553D1*
X43893D1*
X43670Y25768D1*
X43497Y26034D1*
X43388Y26331D1*
X43347Y26645D1*
X43377Y26961D1*
X43476Y27262D1*
X43639Y27533D1*
X43858Y27762D1*
X44122Y27937D1*
X44418Y28049D1*
X44732Y28093D1*
X45048Y28066D1*
X45208Y28015D1*
X45202Y32355D1*
X45032Y32519D1*
X40894D1*
X40584Y32578D1*
X40301Y32764D1*
X32036Y41029D1*
X31908Y40866D1*
X31248Y40206D1*
X30986Y40028D1*
X30655Y39960D1*
X18084D1*
X46716Y40483D2*
X46612Y40184D1*
X46444Y39915D1*
X46221Y39690D1*
X45954Y39520D1*
X45655Y39413D1*
X45341Y39375D1*
X45026Y39408D1*
X44725Y39509D1*
X44455Y39674D1*
X44228Y39895D1*
X44056Y40161D1*
X43946Y40459D1*
X43906Y40773D1*
X43935Y41088D1*
X44034Y41389D1*
X44197Y41661D1*
X44416Y41890D1*
X44680Y42065D1*
X44977Y42177D1*
X45290Y42220D1*
X45606Y42194D1*
X45908Y42097D1*
X46181Y41937D1*
X46412Y41720D1*
X46589Y41457D1*
X46704Y41162D1*
X46751Y40798D1*
X46716Y40483D1*
X61905Y12009D2*
X61829Y11651D1*
X61711Y11357D1*
X61467Y10985D1*
X62861Y10977D1*
X62282Y11538D1*
X62088Y11732D1*
X61908Y12003D1*
X61937Y11941D1*
X13060Y54618D2*
X15358D1*
Y52002D1*
X12742D1*
Y54618D1*
X13060D1*
X12125Y28053D2*
X15653D1*
Y25979D1*
X22642Y18996D1*
X24557Y19000D1*
Y14654D1*
X20211D1*
X20207Y18114D1*
X15653Y22647D1*
X15627Y22314D1*
X15549Y22006D1*
X15422Y21716D1*
X15249Y21450D1*
X15034Y21217D1*
X14784Y21022D1*
X14505Y20870D1*
X14206Y20767D1*
X13893Y20714D1*
X13576Y20713D1*
X13263Y20765D1*
X12962Y20867D1*
X12683Y21017D1*
X12432Y21211D1*
X12217Y21444D1*
X12042Y21709D1*
X11914Y21998D1*
X11835Y22306D1*
X11807Y22622D1*
X11832Y22938D1*
X11908Y23246D1*
X12034Y23537D1*
X12206Y23803D1*
X12420Y24037D1*
X12630Y24203D1*
X11807Y24207D1*
Y28053D1*
X12125D1*
X47427Y23815D2*
X47318Y23508D1*
X48661Y23503D1*
X48667Y26249D1*
X48593Y26056D1*
X48426Y25787D1*
X48203Y25562D1*
X47935Y25392D1*
X47637Y25285D1*
X47322Y25247D1*
X47007Y25280D1*
X46885Y25321D1*
X46893Y25269D1*
X47124Y25052D1*
X47301Y24789D1*
X47415Y24494D1*
X47463Y24130D1*
X47427Y23815D1*
X42571Y17464D2*
X42505Y17153D1*
X42396Y16855D1*
X42247Y16575D1*
X42060Y16319D1*
X41840Y16091D1*
X41590Y15895D1*
X41315Y15737D1*
X41021Y15618D1*
X40713Y15542D1*
X40398Y15509D1*
X40080Y15520D1*
X39768Y15575D1*
X39466Y15674D1*
X39181Y15813D1*
X38919Y15991D1*
X38683Y16203D1*
X38479Y16446D1*
X38312Y16716D1*
X38183Y17006D1*
X38096Y17311D1*
X38052Y17625D1*
X38053Y17942D1*
X38097Y18256D1*
X38185Y18561D1*
X38315Y18851D1*
X38483Y19119D1*
X38688Y19362D1*
X38924Y19574D1*
X39187Y19751D1*
X39472Y19889D1*
X39774Y19987D1*
X40087Y20041D1*
X40404Y20052D1*
X40719Y20018D1*
X41027Y19940D1*
X41321Y19821D1*
X41595Y19662D1*
X41845Y19466D1*
X42065Y19237D1*
X42250Y18980D1*
X42399Y18699D1*
X42506Y18401D1*
X42571Y18090D1*
X42593Y17780D1*
X42571Y17464D1*
X52731D2*
X52665Y17153D1*
X52556Y16855D1*
X52407Y16575D1*
X52220Y16319D1*
X52000Y16091D1*
X51750Y15895D1*
X51475Y15737D1*
X51181Y15618D1*
X50873Y15542D1*
X50558Y15509D1*
X50240Y15520D1*
X49928Y15575D1*
X49626Y15674D1*
X49341Y15813D1*
X49079Y15991D1*
X48843Y16203D1*
X48639Y16446D1*
X48472Y16716D1*
X48343Y17006D1*
X48256Y17311D1*
X48212Y17625D1*
X48213Y17942D1*
X48257Y18256D1*
X48345Y18561D1*
X48475Y18851D1*
X48643Y19119D1*
X48848Y19362D1*
X49084Y19574D1*
X49347Y19751D1*
X49632Y19889D1*
X49934Y19987D1*
X50247Y20041D1*
X50564Y20052D1*
X50879Y20018D1*
X51187Y19940D1*
X51481Y19821D1*
X51755Y19662D1*
X52005Y19466D1*
X52225Y19237D1*
X52410Y18980D1*
X52559Y18699D1*
X52666Y18401D1*
X52731Y18090D1*
X52753Y17780D1*
X52731Y17464D1*
X70455Y58142D2*
X73383D1*
Y54896D1*
X73096D1*
X73246Y54632D1*
X73345Y54331D1*
X73383Y53979D1*
X73352Y53664D1*
X73261Y53360D1*
X73112Y53080D1*
X72911Y52835D1*
X72766Y52715D1*
X73091Y52368D1*
X73246Y52092D1*
X73345Y51791D1*
X73383Y51439D1*
X73352Y51124D1*
X73261Y50820D1*
X73112Y50540D1*
X72911Y50295D1*
X72667Y50093D1*
X72388Y49942D1*
X72085Y49849D1*
X71770Y49816D1*
X71454Y49845D1*
X71150Y49935D1*
X70870Y50083D1*
X70623Y50282D1*
X70420Y50525D1*
X70267Y50803D1*
X70172Y51105D1*
X70138Y51421D1*
X70165Y51736D1*
X70253Y52041D1*
X70399Y52322D1*
X70597Y52570D1*
X70756Y52704D1*
X70623Y52822D1*
X70420Y53065D1*
X70267Y53343D1*
X70172Y53645D1*
X70138Y53961D1*
X70165Y54276D1*
X70253Y54581D1*
X70430Y54901D1*
X70138Y54896D1*
Y58142D1*
X70455D1*
X14200Y48665D2*
X14097Y48366D1*
X13930Y48096D1*
X13709Y47869D1*
X13443Y47697D1*
X13146Y47587D1*
X12831Y47545D1*
X12516Y47574D1*
X12214Y47670D1*
X11941Y47831D1*
X11710Y48047D1*
X11532Y48309D1*
X11415Y48604D1*
X11366Y48917D1*
X11388Y49233D1*
X11478Y49537D1*
X11632Y49814D1*
X11844Y50050D1*
X12102Y50234D1*
X12394Y50356D1*
X12706Y50412D1*
X13022Y50398D1*
X13328Y50314D1*
X13608Y50166D1*
X13849Y49960D1*
X14038Y49706D1*
X14167Y49416D1*
X14235Y48980D1*
X14200Y48665D1*
X24360D2*
X24257Y48366D1*
X24090Y48096D1*
X23869Y47869D1*
X23603Y47697D1*
X23306Y47587D1*
X22991Y47545D1*
X22676Y47574D1*
X22374Y47670D1*
X22101Y47831D1*
X21870Y48047D1*
X21692Y48309D1*
X21575Y48604D1*
X21526Y48917D1*
X21548Y49233D1*
X21638Y49537D1*
X21792Y49814D1*
X22004Y50050D1*
X22262Y50234D1*
X22554Y50356D1*
X22866Y50412D1*
X23182Y50398D1*
X23488Y50314D1*
X23768Y50166D1*
X24009Y49960D1*
X24198Y49706D1*
X24327Y49416D1*
X24395Y48980D1*
X24360Y48665D1*
X34034Y16511D2*
X33965Y16201D1*
X33851Y15905D1*
X33696Y15628D1*
X33502Y15377D1*
X33274Y15157D1*
X33016Y14972D1*
X32734Y14827D1*
X32433Y14725D1*
X32122Y14667D1*
X31805Y14656D1*
X31489Y14690D1*
X31182Y14770D1*
X30890Y14894D1*
X30620Y15060D1*
X30376Y15263D1*
X30164Y15499D1*
X29989Y15763D1*
X29854Y16051D1*
X29763Y16354D1*
X29717Y16668D1*
Y16985D1*
X29763Y17299D1*
X29854Y17603D1*
X29989Y17890D1*
X30164Y18155D1*
X30376Y18391D1*
X30619Y18594D1*
X30890Y18759D1*
X31182Y18883D1*
X31489Y18964D1*
X31804Y18998D1*
X32121Y18987D1*
X32433Y18929D1*
X32733Y18827D1*
X33016Y18682D1*
X33274Y18497D1*
X33502Y18277D1*
X33696Y18026D1*
X33851Y17749D1*
X33965Y17453D1*
X34034Y17144D1*
X34057Y16827D1*
X34034Y16511D1*
X67813Y22597D2*
Y21714D1*
X68090Y21715D1*
X68396Y21641D1*
X68635Y21437D1*
X68754Y21136D1*
X68763Y19842D1*
Y18439D1*
X69449Y18443D1*
X69385Y18867D1*
X69415Y19182D1*
X69513Y19483D1*
X69676Y19755D1*
X69895Y19984D1*
X70169Y20162D1*
X69935Y20308D1*
X69708Y20529D1*
X69535Y20795D1*
X69426Y21093D1*
X69385Y21407D1*
X69415Y21722D1*
X69513Y22023D1*
X69676Y22295D1*
X69895Y22524D1*
X70169Y22702D1*
X69935Y22848D1*
X69708Y23069D1*
X69535Y23335D1*
X69426Y23633D1*
X69385Y23947D1*
X69415Y24262D1*
X69513Y24563D1*
X69676Y24835D1*
X69895Y25064D1*
X70169Y25242D1*
X69982Y25234D1*
X67814Y23066D1*
X67813Y22597D1*
X26425Y48863D2*
X28953D1*
Y46017D1*
X26107D1*
Y48863D1*
X26425D1*
X34428Y48658D2*
X34798Y48819D1*
X35112Y48862D1*
X35428Y48836D1*
X35730Y48739D1*
X36003Y48579D1*
X36234Y48362D1*
X36411Y48099D1*
X36526Y47804D1*
X36573Y47440D1*
X36538Y47125D1*
X36434Y46826D1*
X36266Y46557D1*
X36043Y46332D1*
X35775Y46162D1*
X35477Y46055D1*
X35163Y46017D1*
X34847Y46050D1*
X34688Y46104D1*
X34693Y45138D1*
X34862Y44973D1*
X44169D1*
X44107Y45032D1*
X41800D1*
X41490Y45092D1*
X41208Y45278D1*
X40449Y46042D1*
X40243Y46017D1*
X39927Y46050D1*
X39627Y46151D1*
X39357Y46316D1*
X39130Y46537D1*
X38958Y46803D1*
X38848Y47101D1*
X38807Y47415D1*
X38837Y47730D1*
X38936Y48031D1*
X39099Y48303D1*
X39318Y48532D1*
X39582Y48707D1*
X39878Y48819D1*
X40192Y48862D1*
X40508Y48836D1*
X40810Y48739D1*
X41083Y48579D1*
X41314Y48362D1*
X41502Y48071D1*
X41639Y48303D1*
X41858Y48532D1*
X42122Y48707D1*
X42418Y48819D1*
X42732Y48862D1*
X43048Y48836D1*
X43350Y48739D1*
X43623Y48579D1*
X43854Y48362D1*
X44031Y48099D1*
X44146Y47804D1*
X44193Y47440D1*
X44158Y47125D1*
X44054Y46826D1*
X43975Y46700D1*
X44092Y46708D1*
X44459Y46953D1*
X44763Y47039D1*
X45080Y47041D1*
X45386Y46960D1*
X45659Y46799D1*
X45879Y46572D1*
X46032Y46295D1*
X46111Y45870D1*
X46068Y45556D1*
X45944Y45265D1*
X45691Y44977D1*
X46190D1*
X46301Y45153D1*
X46516Y45385D1*
X46772Y45572D1*
X47059Y45708D1*
X47366Y45787D1*
X47682Y45807D1*
X47997Y45767D1*
X48298Y45668D1*
X48575Y45514D1*
X48818Y45311D1*
X49019Y45065D1*
X49169Y44786D1*
X49264Y44484D1*
X49301Y44135D1*
X49240Y43715D1*
X52984Y39964D1*
X59628Y39958D1*
X60985D1*
X61295Y39898D1*
X61578Y39713D1*
X63273Y38018D1*
X63450Y37757D1*
X63518Y37425D1*
Y32931D1*
X63629Y32802D1*
X63782Y32525D1*
X63861Y32100D1*
X63818Y31786D1*
X63694Y31495D1*
X63516Y31271D1*
X63518Y12663D1*
X63970Y12631D1*
Y12954D1*
X67816D1*
Y10980D1*
X68993Y10977D1*
X68635Y11334D1*
X68547Y11451D1*
X68105Y12325D1*
X68059Y12464D1*
X67909Y13432D1*
X67907Y13578D1*
X68063Y14545D1*
X68107Y14685D1*
X68554Y15556D1*
X68639Y15675D1*
X69067Y16103D1*
X66840Y16097D1*
X66526Y16140D1*
X66235Y16265D1*
X65989Y16463D1*
X65804Y16720D1*
X65683Y17079D1*
X65667Y17697D1*
X64917Y17689D1*
X64927Y20235D1*
X64917Y20477D1*
Y21042D1*
X64990Y21348D1*
X65195Y21587D1*
X65495Y21706D1*
X65858Y21715D1*
X65867Y23056D1*
X64724Y24200D1*
X64548Y24463D1*
X64449Y24764D1*
X64433Y25080D1*
X64502Y25389D1*
X64651Y25669D1*
X64868Y25899D1*
X65139Y26063D1*
X65443Y26149D1*
X65760Y26151D1*
X65846Y26128D1*
X65590Y26369D1*
X65284Y26443D1*
X65045Y26647D1*
X64926Y26948D1*
X64917Y28242D1*
X64990Y28548D1*
X65195Y28787D1*
X65495Y28906D1*
X66860Y28915D1*
X68090D1*
X68396Y28841D1*
X68635Y28637D1*
X68754Y28336D1*
X68763Y27339D1*
X69025Y27533D1*
X69411Y27669D1*
X70009Y27685D1*
X70160Y27779D1*
X70456Y27891D1*
X70770Y27934D1*
X71086Y27908D1*
X71388Y27811D1*
X71661Y27651D1*
X71892Y27434D1*
X72069Y27171D1*
X72183Y26876D1*
X72231Y26512D1*
X72195Y26197D1*
X72091Y25898D1*
X71923Y25629D1*
X71700Y25404D1*
X71441Y25239D1*
X71661Y25111D1*
X71892Y24894D1*
X72069Y24631D1*
X72183Y24336D1*
X72231Y23972D1*
X72195Y23657D1*
X72091Y23358D1*
X71923Y23089D1*
X71700Y22864D1*
X71441Y22699D1*
X71661Y22571D1*
X71892Y22354D1*
X72069Y22091D1*
X72183Y21796D1*
X72231Y21432D1*
X72195Y21117D1*
X72091Y20818D1*
X71923Y20549D1*
X71700Y20324D1*
X71441Y20159D1*
X71661Y20031D1*
X71892Y19814D1*
X72069Y19551D1*
X72183Y19256D1*
X72231Y18892D1*
X72195Y18577D1*
X72146Y18437D1*
X72446Y18443D1*
X72447Y33790D1*
X72210Y33722D1*
X71960Y33699D1*
X71560Y33709D1*
X71182Y33752D1*
X70889Y33874D1*
X70633Y34060D1*
X70425Y34300D1*
X70279Y34580D1*
X70200Y34887D1*
X70194Y35204D1*
X70260Y35514D1*
X70396Y35800D1*
X70489Y35916D1*
X70279Y36290D1*
X70200Y36597D1*
X70194Y36914D1*
X70260Y37224D1*
X70396Y37510D1*
X70489Y37626D1*
X70279Y38000D1*
X70200Y38307D1*
X70194Y38624D1*
X70260Y38934D1*
X70396Y39220D1*
X70489Y39336D1*
X70047Y39424D1*
X69764Y39610D1*
X66853Y42521D1*
X66512Y42464D1*
X66195Y42478D1*
X65887Y42551D1*
X65597Y42681D1*
X65338Y42863D1*
X65117Y43091D1*
X64944Y43356D1*
X64823Y43649D1*
X64760Y43960D1*
X64757Y44277D1*
X64814Y44589D1*
X64928Y44884D1*
X65097Y45153D1*
X65312Y45385D1*
X65568Y45572D1*
X65855Y45708D1*
X66162Y45787D1*
X66478Y45807D1*
X66793Y45767D1*
X67094Y45668D1*
X67371Y45514D1*
X67614Y45311D1*
X67815Y45065D1*
X67965Y44786D1*
X68060Y44484D1*
X68097Y44135D1*
X68036Y43715D1*
X70195Y41549D1*
X70187Y43285D1*
X73333D1*
X73348Y43085D1*
X73620D1*
X74002Y43020D1*
X74023Y43523D1*
Y59984D1*
X73669Y59635D1*
X73551Y59547D1*
X72679Y59106D1*
X72540Y59059D1*
X71574Y58909D1*
X71427Y58907D1*
X70462Y59063D1*
X70322Y59107D1*
X69452Y59554D1*
X69333Y59639D1*
X68643Y60334D1*
X68556Y60452D1*
X68115Y61325D1*
X68097Y61332D1*
X68062Y60967D1*
X67958Y60668D1*
X67790Y60399D1*
X67567Y60174D1*
X67300Y60004D1*
X67002Y59897D1*
X66687Y59859D1*
X66372Y59891D1*
X66072Y59993D1*
X65802Y60158D1*
X65575Y60379D1*
X65408Y60637D1*
X65250Y60399D1*
X65027Y60174D1*
X64760Y60004D1*
X64462Y59897D1*
X64147Y59859D1*
X63832Y59891D1*
X63532Y59993D1*
X63262Y60158D1*
X63035Y60379D1*
X62868Y60637D1*
X62710Y60399D1*
X62487Y60174D1*
X62220Y60004D1*
X61922Y59897D1*
X61607Y59859D1*
X61292Y59891D1*
X60992Y59993D1*
X60722Y60158D1*
X60495Y60379D1*
X60328Y60637D1*
X60170Y60399D1*
X59947Y60174D1*
X59680Y60004D1*
X59382Y59897D1*
X59067Y59859D1*
X58752Y59891D1*
X58452Y59993D1*
X58182Y60158D1*
X57955Y60379D1*
X57788Y60637D1*
X57630Y60399D1*
X57407Y60174D1*
X57140Y60004D1*
X56842Y59897D1*
X56527Y59859D1*
X56212Y59891D1*
X55912Y59993D1*
X55642Y60158D1*
X55415Y60379D1*
X55248Y60637D1*
X55090Y60399D1*
X54867Y60174D1*
X54600Y60004D1*
X54302Y59897D1*
X53987Y59859D1*
X53672Y59891D1*
X53372Y59993D1*
X53102Y60158D1*
X52875Y60379D1*
X52708Y60637D1*
X52550Y60399D1*
X52327Y60174D1*
X52060Y60004D1*
X51762Y59897D1*
X51447Y59859D1*
X51132Y59891D1*
X50832Y59993D1*
X50562Y60158D1*
X50335Y60379D1*
X50168Y60637D1*
X50010Y60399D1*
X49787Y60174D1*
X49520Y60004D1*
X49222Y59897D1*
X48907Y59859D1*
X48592Y59891D1*
X48292Y59993D1*
X48022Y60158D1*
X47795Y60379D1*
X47628Y60637D1*
X47470Y60399D1*
X47247Y60174D1*
X46980Y60004D1*
X46682Y59897D1*
X46367Y59859D1*
X46141Y59882D1*
X42745Y56487D1*
X43048Y56456D1*
X43350Y56359D1*
X43623Y56199D1*
X43854Y55982D1*
X44031Y55719D1*
X44146Y55424D1*
X44193Y55060D1*
X44158Y54745D1*
X44054Y54446D1*
X43886Y54177D1*
X43663Y53952D1*
X43395Y53782D1*
X43097Y53675D1*
X42783Y53637D1*
X42467Y53670D1*
X42167Y53771D1*
X41897Y53936D1*
X41670Y54157D1*
X41503Y54415D1*
X41346Y54177D1*
X41123Y53952D1*
X40855Y53782D1*
X40557Y53675D1*
X40243Y53637D1*
X39927Y53670D1*
X39627Y53771D1*
X39357Y53936D1*
X39130Y54157D1*
X38958Y54423D1*
X38848Y54721D1*
X38807Y55035D1*
X38837Y55350D1*
X38936Y55651D1*
X39099Y55923D1*
X39318Y56152D1*
X39582Y56327D1*
X39878Y56439D1*
X40192Y56482D1*
X40360Y56468D1*
X43742Y59854D1*
X43512Y59891D1*
X43212Y59993D1*
X42942Y60158D1*
X42715Y60379D1*
X42548Y60637D1*
X42390Y60399D1*
X42167Y60174D1*
X41900Y60004D1*
X41602Y59897D1*
X41287Y59859D1*
X40972Y59891D1*
X40672Y59993D1*
X40402Y60158D1*
X40175Y60379D1*
X40008Y60637D1*
X39850Y60399D1*
X39627Y60174D1*
X39360Y60004D1*
X39062Y59897D1*
X38747Y59859D1*
X38432Y59891D1*
X38132Y59993D1*
X37862Y60158D1*
X37635Y60379D1*
X37468Y60637D1*
X37310Y60399D1*
X37087Y60174D1*
X36820Y60004D1*
X36522Y59897D1*
X36207Y59859D1*
X35892Y59891D1*
X35592Y59993D1*
X35322Y60158D1*
X35095Y60379D1*
X34928Y60637D1*
X34770Y60399D1*
X34547Y60174D1*
X34280Y60004D1*
X33982Y59897D1*
X33667Y59859D1*
X33352Y59891D1*
X33052Y59993D1*
X32782Y60158D1*
X32555Y60379D1*
X32388Y60637D1*
X32230Y60399D1*
X32007Y60174D1*
X31740Y60004D1*
X31442Y59897D1*
X31127Y59859D1*
X30812Y59891D1*
X30512Y59993D1*
X30242Y60158D1*
X30015Y60379D1*
X29848Y60637D1*
X29690Y60399D1*
X29467Y60174D1*
X29200Y60004D1*
X28902Y59897D1*
X28587Y59859D1*
X28272Y59891D1*
X27972Y59993D1*
X27702Y60158D1*
X27475Y60379D1*
X27308Y60637D1*
X27150Y60399D1*
X26927Y60174D1*
X26660Y60004D1*
X26362Y59897D1*
X26047Y59859D1*
X25732Y59891D1*
X25432Y59993D1*
X25162Y60158D1*
X24935Y60379D1*
X24768Y60637D1*
X24610Y60399D1*
X24387Y60174D1*
X24120Y60004D1*
X23822Y59897D1*
X23507Y59859D1*
X23192Y59891D1*
X22892Y59993D1*
X22622Y60158D1*
X22395Y60379D1*
X22228Y60637D1*
X22070Y60399D1*
X21847Y60174D1*
X21580Y60004D1*
X21282Y59897D1*
X20967Y59859D1*
X20652Y59891D1*
X20352Y59993D1*
X20082Y60158D1*
X19838Y60404D1*
Y59859D1*
X16992D1*
Y61774D1*
X16937Y61455D1*
X16893Y61316D1*
X16447Y60445D1*
X16362Y60325D1*
X15669Y59635D1*
X15551Y59547D1*
X14679Y59106D1*
X14540Y59059D1*
X13574Y58909D1*
X13427Y58907D1*
X12462Y59063D1*
X12322Y59107D1*
X11452Y59554D1*
X11333Y59639D1*
X10975Y59997D1*
X10978Y47559D1*
X10987Y47494D1*
X11361Y47478D1*
X14085Y47475D1*
X14553Y47402D1*
X15026Y47195D1*
X15430Y46871D1*
X15736Y46454D1*
X15924Y45972D1*
X15978Y45543D1*
X15970Y42221D1*
X18091D1*
Y41636D1*
X30311D1*
X30477Y41805D1*
Y48045D1*
X30537Y48355D1*
X30723Y48638D1*
X31383Y49298D1*
X31644Y49475D1*
X31975Y49543D1*
X33195D1*
X33505Y49483D1*
X33788Y49298D1*
X34428Y48657D1*
X36538Y54745D2*
X36434Y54446D1*
X36266Y54177D1*
X36043Y53952D1*
X35775Y53782D1*
X35477Y53675D1*
X35163Y53637D1*
X34847Y53670D1*
X34547Y53771D1*
X34277Y53936D1*
X34050Y54157D1*
X33883Y54415D1*
X33726Y54177D1*
X33503Y53952D1*
X33235Y53782D1*
X32937Y53675D1*
X32623Y53637D1*
X32307Y53670D1*
X32007Y53771D1*
X31737Y53936D1*
X31510Y54157D1*
X31338Y54423D1*
X31228Y54721D1*
X31187Y55035D1*
X31217Y55350D1*
X31316Y55651D1*
X31479Y55923D1*
X31698Y56152D1*
X31962Y56327D1*
X32258Y56439D1*
X32572Y56482D1*
X32888Y56456D1*
X33190Y56359D1*
X33463Y56199D1*
X33694Y55982D1*
X33882Y55691D1*
X34019Y55923D1*
X34238Y56152D1*
X34502Y56327D1*
X34798Y56439D1*
X35112Y56482D1*
X35428Y56456D1*
X35730Y56359D1*
X36003Y56199D1*
X36234Y55982D1*
X36411Y55719D1*
X36526Y55424D1*
X36573Y55060D1*
X36538Y54745D1*
X24134Y62546D2*
X24348Y62421D1*
X24579Y62204D1*
X24766Y61913D1*
X24903Y62145D1*
X25122Y62374D1*
X25396Y62552D1*
X25162Y62698D1*
X24935Y62919D1*
X24768Y63177D1*
X24610Y62939D1*
X24387Y62714D1*
X24128Y62549D1*
X26674Y62546D2*
X26888Y62421D1*
X27119Y62204D1*
X27306Y61913D1*
X27443Y62145D1*
X27662Y62374D1*
X27936Y62552D1*
X27702Y62698D1*
X27475Y62919D1*
X27308Y63177D1*
X27150Y62939D1*
X26927Y62714D1*
X26668Y62549D1*
X29214Y62546D2*
X29428Y62421D1*
X29659Y62204D1*
X29846Y61913D1*
X29983Y62145D1*
X30202Y62374D1*
X30476Y62552D1*
X30242Y62698D1*
X30015Y62919D1*
X29848Y63177D1*
X29690Y62939D1*
X29467Y62714D1*
X29208Y62549D1*
X31754Y62546D2*
X31968Y62421D1*
X32199Y62204D1*
X32386Y61913D1*
X32523Y62145D1*
X32742Y62374D1*
X33016Y62552D1*
X32782Y62698D1*
X32555Y62919D1*
X32388Y63177D1*
X32230Y62939D1*
X32007Y62714D1*
X31748Y62549D1*
X34294Y62546D2*
X34508Y62421D1*
X34739Y62204D1*
X34926Y61913D1*
X35063Y62145D1*
X35282Y62374D1*
X35556Y62552D1*
X35322Y62698D1*
X35095Y62919D1*
X34928Y63177D1*
X34770Y62939D1*
X34547Y62714D1*
X34288Y62549D1*
X36834Y62546D2*
X37048Y62421D1*
X37279Y62204D1*
X37466Y61913D1*
X37603Y62145D1*
X37822Y62374D1*
X38096Y62552D1*
X37862Y62698D1*
X37635Y62919D1*
X37468Y63177D1*
X37310Y62939D1*
X37087Y62714D1*
X36828Y62549D1*
X39374Y62546D2*
X39588Y62421D1*
X39819Y62204D1*
X40006Y61913D1*
X40143Y62145D1*
X40362Y62374D1*
X40636Y62552D1*
X40402Y62698D1*
X40175Y62919D1*
X40008Y63177D1*
X39850Y62939D1*
X39627Y62714D1*
X39368Y62549D1*
X41914Y62546D2*
X42128Y62421D1*
X42359Y62204D1*
X42546Y61913D1*
X42683Y62145D1*
X42902Y62374D1*
X43176Y62552D1*
X42942Y62698D1*
X42715Y62919D1*
X42548Y63177D1*
X42390Y62939D1*
X42167Y62714D1*
X41908Y62549D1*
X44454Y62546D2*
X44668Y62421D1*
X44899Y62204D1*
X45086Y61913D1*
X45223Y62145D1*
X45442Y62374D1*
X45716Y62552D1*
X45482Y62698D1*
X45255Y62919D1*
X45088Y63177D1*
X44930Y62939D1*
X44707Y62714D1*
X44448Y62549D1*
X46994Y62546D2*
X47208Y62421D1*
X47439Y62204D1*
X47626Y61913D1*
X47763Y62145D1*
X47982Y62374D1*
X48256Y62552D1*
X48022Y62698D1*
X47795Y62919D1*
X47628Y63177D1*
X47470Y62939D1*
X47247Y62714D1*
X46988Y62549D1*
X49534Y62546D2*
X49748Y62421D1*
X49979Y62204D1*
X50166Y61913D1*
X50303Y62145D1*
X50522Y62374D1*
X50796Y62552D1*
X50562Y62698D1*
X50335Y62919D1*
X50168Y63177D1*
X50010Y62939D1*
X49787Y62714D1*
X49528Y62549D1*
X52074Y62546D2*
X52288Y62421D1*
X52519Y62204D1*
X52706Y61913D1*
X52843Y62145D1*
X53062Y62374D1*
X53336Y62552D1*
X53102Y62698D1*
X52875Y62919D1*
X52708Y63177D1*
X52550Y62939D1*
X52327Y62714D1*
X52068Y62549D1*
X54614Y62546D2*
X54828Y62421D1*
X55059Y62204D1*
X55246Y61913D1*
X55383Y62145D1*
X55602Y62374D1*
X55876Y62552D1*
X55642Y62698D1*
X55415Y62919D1*
X55248Y63177D1*
X55090Y62939D1*
X54867Y62714D1*
X54608Y62549D1*
X57154Y62546D2*
X57368Y62421D1*
X57599Y62204D1*
X57786Y61913D1*
X57923Y62145D1*
X58142Y62374D1*
X58416Y62552D1*
X58182Y62698D1*
X57955Y62919D1*
X57788Y63177D1*
X57630Y62939D1*
X57407Y62714D1*
X57148Y62549D1*
X59694Y62546D2*
X59908Y62421D1*
X60139Y62204D1*
X60326Y61913D1*
X60463Y62145D1*
X60682Y62374D1*
X60956Y62552D1*
X60722Y62698D1*
X60495Y62919D1*
X60328Y63177D1*
X60170Y62939D1*
X59947Y62714D1*
X59688Y62549D1*
X62234Y62546D2*
X62448Y62421D1*
X62679Y62204D1*
X62866Y61913D1*
X63003Y62145D1*
X63222Y62374D1*
X63496Y62552D1*
X63262Y62698D1*
X63035Y62919D1*
X62868Y63177D1*
X62710Y62939D1*
X62487Y62714D1*
X62228Y62549D1*
X64774Y62546D2*
X64988Y62421D1*
X65219Y62204D1*
X65406Y61913D1*
X65543Y62145D1*
X65762Y62374D1*
X66036Y62552D1*
X65802Y62698D1*
X65575Y62919D1*
X65408Y63177D1*
X65250Y62939D1*
X65027Y62714D1*
X64768Y62549D1*
X67417Y65026D2*
X67528Y64961D1*
X67759Y64744D1*
X67936Y64481D1*
X68050Y64185D1*
X68098Y63822D1*
X68062Y63507D1*
X68405Y64250D1*
X68563Y64555D1*
X68648Y64675D1*
X68991Y65019D1*
X67442Y65023D1*
X16991Y63222D2*
X17081Y62705D1*
X19838D1*
Y62159D1*
X20042Y62374D1*
X20307Y62548D1*
X20603Y62660D1*
X20917Y62704D1*
X21233Y62677D1*
X21535Y62581D1*
X21808Y62421D1*
X22039Y62204D1*
X22226Y61913D1*
X22363Y62145D1*
X22582Y62374D1*
X22856Y62552D1*
X22622Y62698D1*
X22395Y62919D1*
X22222Y63185D1*
X22113Y63482D1*
X22072Y63796D1*
X22102Y64112D1*
X22200Y64413D1*
X22363Y64685D1*
X22582Y64914D1*
X22739Y65017D1*
X16007Y65022D1*
X16367Y64666D1*
X16454Y64548D1*
X16895Y63675D1*
X16942Y63536D1*
X17073Y62703D1*
X57080Y28683D2*
X57066Y13831D1*
X56962Y13315D1*
X56771Y12922D1*
X56572Y12649D1*
X56185Y12292D1*
X55799Y12087D1*
X55478Y11983D1*
X54955Y11922D1*
X54522Y11983D1*
X54201Y12087D1*
X53742Y12346D1*
X53428Y12649D1*
X53229Y12922D1*
X53010Y13401D1*
X52925Y13914D1*
X52921Y26383D1*
X52934Y29169D1*
X53038Y29685D1*
X53229Y30078D1*
X53428Y30351D1*
X53815Y30708D1*
X54201Y30913D1*
X54522Y31017D1*
X55045Y31078D1*
X55478Y31017D1*
X55799Y30913D1*
X56258Y30654D1*
X56572Y30351D1*
X56771Y30078D1*
X56990Y29599D1*
X57075Y29086D1*
X57080Y28683D1*
D20*
X16668Y29843D3*
D21*
X41338D3*
D20*
X16668Y40798D3*
D21*
X45328D3*
D22*
X59853Y31116D3*
D23*
Y12276D3*
D24*
X14050Y55850D3*
D25*
Y53310D3*
D26*
X13730Y26130D3*
D27*
Y22630D3*
D20*
X43500Y24130D3*
D28*
X44770Y26670D3*
X46040Y24130D3*
X47310Y26670D3*
D16*
X66424Y44135D3*
X47628D3*
D29*
X71761Y56519D3*
D30*
Y53979D3*
Y51439D3*
D31*
X12800Y48980D3*
D32*
X22960D3*
D33*
X22384Y16827D3*
D34*
X27134D3*
X31884D3*
D35*
X66838Y29052D3*
G36*
X65590Y28242D2*
X68090D1*
Y27042D1*
X67140D1*
Y21042D1*
X68090D1*
Y19842D1*
X65590D1*
Y21042D1*
X66540D1*
Y27042D1*
X65590D1*
Y28242D1*
G37*
D35*
X66840Y18962D3*
X65893Y13082D3*
Y11682D3*
D28*
X70808Y29052D3*
Y26512D3*
Y23972D3*
Y21432D3*
Y18892D3*
D20*
X27530Y47440D3*
D21*
X30070D3*
X32610D3*
X35150D3*
X37690D3*
X40230D3*
X42770D3*
Y55060D3*
X40230D3*
X37690D3*
X35150D3*
X32610D3*
X30070D3*
X27530D3*
D36*
X71760Y41912D3*
D37*
Y40202D3*
Y38492D3*
Y36782D3*
Y35072D3*
D20*
X18415Y61282D3*
D28*
X20955D3*
X23495D3*
X26035D3*
X28575D3*
X31115D3*
X33655D3*
X36195D3*
X38735D3*
X41275D3*
X43815D3*
X46355D3*
X48895D3*
X51435D3*
X53975D3*
X56515D3*
X59055D3*
X61595D3*
X64135D3*
X66675D3*
Y63822D3*
X64135D3*
X61595D3*
X59055D3*
X56515D3*
X53975D3*
X51435D3*
X48895D3*
X46355D3*
X43815D3*
X41275D3*
X38735D3*
X36195D3*
X33655D3*
X31115D3*
X28575D3*
X26035D3*
X23495D3*
X20955D3*
X18415D3*
M02*
