G04 DipTrace 2.4.0.1*
%INTopSilk.gbr*%
%MOMM*%
%ADD10C,0.25*%
%ADD12C,0.076*%
%ADD81C,0.196*%
%ADD82C,0.118*%
%ADD83C,0.235*%
%ADD84C,0.157*%
%FSLAX53Y53*%
G04*
G71*
G90*
G75*
G01*
%LNTopSilk*%
%LPD*%
X20710Y25991D2*
D10*
X20705Y34146D1*
X20710Y32051D2*
X37718D1*
Y28091D1*
X20710D1*
Y32051D1*
X24206Y28051D2*
X26208Y30051D1*
X37720Y34042D2*
Y25991D1*
X20710Y34181D2*
G02X22178Y34795I839J57D01*
G01*
X23277D2*
G02X23777Y35075I569J-429D01*
G01*
X22178Y34795D2*
G03X23277Y34795I550J216D01*
G01*
X20710Y26061D2*
G03X22160Y25358I822J-151D01*
G01*
X23262D2*
G03X23759Y25078I568J426D01*
G01*
X22160Y25358D2*
G02X23262Y25358I551J-218D01*
G01*
X36739Y35091D2*
X23788D1*
X36807Y25081D2*
X23788D1*
X36687Y35075D2*
G02X37720Y34042I23J-1011D01*
G01*
X36739Y25078D2*
G03X37736Y26077I29J968D01*
G01*
X26208Y30051D2*
X24206Y32051D1*
X31348Y28051D2*
X33350Y30051D1*
X31348Y32051D1*
X20707Y30751D2*
X23649D1*
Y29351D1*
X20707D1*
Y30751D1*
X27208D2*
X30508D1*
Y29351D1*
X27208D1*
Y30751D1*
X19004Y30477D2*
Y29207D1*
X34208Y30751D2*
X37579D1*
Y29351D1*
X34208D1*
Y30751D1*
X19637Y29842D2*
X18368D1*
X39958D2*
X38689D1*
X20569Y36736D2*
X20566Y44891D1*
X20569Y42796D2*
X41569D1*
Y38796D1*
X20569D1*
Y42796D1*
X24067Y38796D2*
X26067Y40796D1*
X41569Y44787D2*
Y36736D1*
X20569Y44926D2*
G02X22038Y45540I839J56D01*
G01*
X23139D2*
G02X23636Y45820I561J-414D01*
G01*
X22038Y45540D2*
G03X23139Y45540I550J217D01*
G01*
X20569Y36806D2*
G03X22020Y36103I823J-150D01*
G01*
X23120D2*
G03X23618Y35823I573J434D01*
G01*
X22020Y36103D2*
G02X23120Y36103I550J-216D01*
G01*
X40517Y45836D2*
X23648D1*
X40589Y35826D2*
X23648D1*
X40538Y45820D2*
G02X41569Y44787I21J-1010D01*
G01*
X40589Y35823D2*
G03X41587Y36822I29J969D01*
G01*
X26067Y40796D2*
X24067Y42796D1*
X31209Y38796D2*
X33209Y40796D1*
X31209Y42796D1*
X38348Y38796D2*
X40348Y40796D1*
X38348Y42796D1*
X31068Y40796D2*
X29819Y42046D1*
X31068Y40796D2*
X29819Y39546D1*
Y42046D2*
Y41546D1*
X27569D1*
Y40046D1*
X29819D2*
Y39546D1*
Y40046D2*
X27569D1*
X28567Y40896D2*
X29569D1*
Y40696D1*
X28567D1*
Y40896D1*
X23929Y40796D2*
X22677Y42046D1*
X23929Y40796D2*
X22677Y39546D1*
Y42046D2*
Y41546D1*
X20569D1*
X19004Y41431D2*
Y40161D1*
X22677Y40046D2*
Y39546D1*
Y40046D2*
X20569D1*
X21428Y40896D2*
X22427D1*
Y40696D1*
X21428D1*
Y40896D1*
X38137Y40796D2*
X36888Y42046D1*
X38137Y40796D2*
X36888Y39546D1*
Y42046D2*
Y41546D1*
X34639D1*
Y40046D1*
X36888D2*
Y39546D1*
Y40046D2*
X34639D1*
X35637Y40896D2*
X36638D1*
Y40696D1*
X35637D1*
Y40896D1*
X19637Y40796D2*
X18367D1*
X43768D2*
X42498D1*
X57053Y26498D2*
Y16894D1*
X62653Y26498D2*
Y16894D1*
X57053Y26498D2*
X62653D1*
X57053Y17602D2*
Y16807D1*
X62653D1*
Y17602D1*
Y25502D2*
X57053D1*
X15953Y52040D2*
X12147D1*
X15961Y52046D2*
G03X12139Y52046I-1911J2535D01*
G01*
X16845Y65052D2*
X68245D1*
Y60052D1*
X16845D1*
Y65052D1*
X10050Y28180D2*
X17050D1*
Y21180D1*
X10050D1*
Y28180D1*
X38800Y27930D2*
X52000D1*
Y9930D1*
X38800D1*
Y27930D1*
X67118Y20210D2*
X66102D1*
X67118Y27830D2*
X66102D1*
X65340Y20842D2*
Y27198D1*
X67880Y20842D2*
Y27198D1*
X67245Y20210D2*
X67880Y20842D1*
X65975Y20210D2*
X65340Y20842D1*
Y27198D2*
X65975Y27830D1*
X67880Y27198D2*
X67245Y27830D1*
X67880Y11595D2*
Y15405D1*
X67245Y16040D1*
X65975D1*
X65340Y15405D2*
X65975Y16040D1*
X65340Y11595D2*
Y15405D1*
X65975Y10960D2*
X65340Y11595D1*
X67245Y10960D2*
X65975D1*
X67245D2*
X67880Y11595D1*
X46104Y44135D2*
G02X46104Y44135I10922J0D01*
G01*
X53026D2*
G02X53026Y44135I4000J0D01*
G01*
X74461Y58979D2*
X69961D1*
Y48979D1*
X74461D1*
Y58979D1*
X73561D2*
Y48979D1*
X20415Y47710D2*
X15345D1*
Y50250D2*
Y47710D1*
X20415Y50250D2*
X15345D1*
X20415D2*
Y47710D1*
X17484Y20187D2*
X36784D1*
Y10027D1*
X17484D1*
Y20187D1*
X25350Y53850D2*
X44950D1*
Y48650D2*
Y53850D1*
X25350Y48650D2*
X44950D1*
X25350D2*
Y50650D1*
Y53850D2*
Y51850D1*
Y50650D2*
G03X25350Y51850I0J600D01*
G01*
X74060Y43812D2*
Y33212D1*
X74560Y43812D2*
Y33212D1*
X69660Y43812D2*
Y33212D1*
Y43812D2*
X74560D1*
X69660Y33212D2*
X74560D1*
G36*
X64740Y27250D2*
X65060D1*
Y23600D1*
X64740D1*
Y27250D1*
G37*
G36*
X68130Y24440D2*
X68450D1*
Y20790D1*
X68130D1*
Y24440D1*
G37*
X17838Y32202D2*
D81*
X17778Y32323D1*
X17655Y32445D1*
X17535Y32506D1*
X17292D1*
X17170Y32445D1*
X17049Y32323D1*
X16987Y32202D1*
X16927Y32020D1*
Y31715D1*
X16987Y31534D1*
X17049Y31412D1*
X17170Y31291D1*
X17292Y31230D1*
X17535D1*
X17655Y31291D1*
X17778Y31412D1*
X17838Y31534D1*
X18230Y32261D2*
X18352Y32323D1*
X18535Y32504D1*
Y31230D1*
X26328Y26940D2*
X26450Y27002D1*
X26632Y27183D1*
Y25908D1*
X27390Y27183D2*
X27207Y27123D1*
X27085Y26940D1*
X27025Y26637D1*
Y26454D1*
X27085Y26151D1*
X27207Y25969D1*
X27390Y25908D1*
X27510D1*
X27693Y25969D1*
X27814Y26151D1*
X27875Y26454D1*
Y26637D1*
X27814Y26940D1*
X27693Y27123D1*
X27510Y27183D1*
X27390D1*
X27814Y26940D2*
X27085Y26151D1*
X28632Y27183D2*
X28450Y27123D1*
X28328Y26940D1*
X28267Y26637D1*
Y26454D1*
X28328Y26151D1*
X28450Y25969D1*
X28632Y25908D1*
X28753D1*
X28936Y25969D1*
X29056Y26151D1*
X29118Y26454D1*
Y26637D1*
X29056Y26940D1*
X28936Y27123D1*
X28753Y27183D1*
X28632D1*
X29056Y26940D2*
X28328Y26151D1*
X29510Y26759D2*
Y26151D1*
X29571Y25970D1*
X29693Y25908D1*
X29875D1*
X29996Y25970D1*
X30179Y26151D1*
Y26759D2*
Y25908D1*
X31361Y27184D2*
X30571D1*
Y25908D1*
Y26576D2*
X31056D1*
X17655Y43265D2*
X17594Y43386D1*
X17472Y43508D1*
X17351Y43568D1*
X17109D1*
X16986Y43508D1*
X16866Y43386D1*
X16804Y43265D1*
X16744Y43083D1*
Y42778D1*
X16804Y42597D1*
X16866Y42475D1*
X16986Y42354D1*
X17109Y42292D1*
X17351D1*
X17472Y42354D1*
X17594Y42475D1*
X17655Y42597D1*
X18109Y43264D2*
Y43324D1*
X18169Y43446D1*
X18229Y43506D1*
X18351Y43567D1*
X18594D1*
X18715Y43506D1*
X18775Y43446D1*
X18837Y43324D1*
Y43203D1*
X18775Y43081D1*
X18655Y42900D1*
X18047Y42292D1*
X18898D1*
X27543Y37685D2*
X27665Y37746D1*
X27847Y37928D1*
Y36653D1*
X28604Y37928D2*
X28422Y37867D1*
X28300Y37685D1*
X28239Y37381D1*
Y37199D1*
X28300Y36896D1*
X28422Y36713D1*
X28604Y36653D1*
X28725D1*
X28908Y36713D1*
X29028Y36896D1*
X29090Y37199D1*
Y37381D1*
X29028Y37685D1*
X28908Y37867D1*
X28725Y37928D1*
X28604D1*
X29028Y37685D2*
X28300Y36896D1*
X29847Y37928D2*
X29665Y37867D1*
X29543Y37685D1*
X29482Y37381D1*
Y37199D1*
X29543Y36896D1*
X29665Y36713D1*
X29847Y36653D1*
X29968D1*
X30150Y36713D1*
X30271Y36896D1*
X30333Y37199D1*
Y37381D1*
X30271Y37685D1*
X30150Y37867D1*
X29968Y37928D1*
X29847D1*
X30271Y37685D2*
X29543Y36896D1*
X31090Y37928D2*
X30908Y37867D1*
X30785Y37685D1*
X30725Y37381D1*
Y37199D1*
X30785Y36896D1*
X30908Y36713D1*
X31090Y36653D1*
X31211D1*
X31393Y36713D1*
X31514Y36896D1*
X31576Y37199D1*
Y37381D1*
X31514Y37685D1*
X31393Y37867D1*
X31211Y37928D1*
X31090D1*
X31514Y37685D2*
X30785Y36896D1*
X31968Y37504D2*
Y36896D1*
X32028Y36715D1*
X32151Y36653D1*
X32333D1*
X32454Y36715D1*
X32636Y36896D1*
Y37504D2*
Y36653D1*
X33819Y37929D2*
X33028D1*
Y36653D1*
Y37321D2*
X33514D1*
X56409Y31484D2*
Y30208D1*
X56834D1*
X57017Y30270D1*
X57139Y30391D1*
X57199Y30513D1*
X57259Y30694D1*
Y30998D1*
X57199Y31181D1*
X57139Y31302D1*
X57017Y31424D1*
X56834Y31484D1*
X56409D1*
X57652Y31240D2*
X57774Y31302D1*
X57956Y31483D1*
Y30208D1*
X14674Y55412D2*
Y54136D1*
X15100D1*
X15282Y54198D1*
X15404Y54318D1*
X15465Y54440D1*
X15525Y54622D1*
Y54926D1*
X15465Y55109D1*
X15404Y55229D1*
X15282Y55352D1*
X15100Y55412D1*
X14674D1*
X15979Y55107D2*
Y55168D1*
X16039Y55290D1*
X16100Y55350D1*
X16222Y55410D1*
X16465D1*
X16586Y55350D1*
X16646Y55290D1*
X16708Y55168D1*
Y55047D1*
X16646Y54925D1*
X16525Y54744D1*
X15917Y54136D1*
X16768D1*
X11071Y27129D2*
Y26157D1*
X11011Y25975D1*
X10949Y25914D1*
X10828Y25853D1*
X10706D1*
X10585Y25914D1*
X10525Y25975D1*
X10463Y26157D1*
Y26278D1*
X11525Y26824D2*
Y26884D1*
X11585Y27006D1*
X11646Y27067D1*
X11768Y27127D1*
X12011D1*
X12132Y27067D1*
X12192Y27006D1*
X12254Y26884D1*
Y26764D1*
X12192Y26641D1*
X12071Y26460D1*
X11463Y25853D1*
X12314D1*
X41132Y24780D2*
Y23809D1*
X41072Y23626D1*
X41010Y23566D1*
X40889Y23504D1*
X40767D1*
X40647Y23566D1*
X40586Y23626D1*
X40524Y23809D1*
Y23929D1*
X41647Y24779D2*
X42313D1*
X41950Y24293D1*
X42132D1*
X42253Y24233D1*
X42313Y24172D1*
X42375Y23990D1*
Y23869D1*
X42313Y23687D1*
X42193Y23564D1*
X42010Y23504D1*
X41828D1*
X41647Y23564D1*
X41586Y23626D1*
X41524Y23747D1*
X64252Y54535D2*
Y53259D1*
X64980D1*
X65372Y54291D2*
X65495Y54353D1*
X65677Y54534D1*
Y53259D1*
X54021Y37619D2*
X54143Y37680D1*
X54325Y37861D1*
Y36587D1*
X55082Y37861D2*
X54900Y37801D1*
X54778Y37619D1*
X54717Y37315D1*
Y37133D1*
X54778Y36830D1*
X54900Y36647D1*
X55082Y36587D1*
X55203D1*
X55386Y36647D1*
X55506Y36830D1*
X55568Y37133D1*
Y37315D1*
X55506Y37619D1*
X55386Y37801D1*
X55203Y37861D1*
X55082D1*
X55506Y37619D2*
X54778Y36830D1*
X56325Y37861D2*
X56143Y37801D1*
X56021Y37619D1*
X55960Y37315D1*
Y37133D1*
X56021Y36830D1*
X56143Y36647D1*
X56325Y36587D1*
X56446D1*
X56629Y36647D1*
X56749Y36830D1*
X56811Y37133D1*
Y37315D1*
X56749Y37619D1*
X56629Y37801D1*
X56446Y37861D1*
X56325D1*
X56749Y37619D2*
X56021Y36830D1*
X58438Y37437D2*
Y36830D1*
X58498Y36648D1*
X58620Y36587D1*
X58803D1*
X58923Y36648D1*
X59106Y36830D1*
Y37437D2*
Y36587D1*
X59498Y37863D2*
Y36587D1*
X60349Y37863D2*
Y36587D1*
X59498Y37255D2*
X60349D1*
X18771Y51607D2*
X19317D1*
X19499Y51669D1*
X19561Y51729D1*
X19622Y51850D1*
Y51972D1*
X19561Y52093D1*
X19499Y52154D1*
X19317Y52215D1*
X18771D1*
Y50939D1*
X19196Y51607D2*
X19622Y50939D1*
X20014Y51971D2*
X20136Y52032D1*
X20318Y52213D1*
Y50939D1*
X16493Y49659D2*
X17159D1*
X16796Y49174D1*
X16978D1*
X17099Y49113D1*
X17159Y49053D1*
X17221Y48870D1*
Y48750D1*
X17159Y48567D1*
X17039Y48445D1*
X16856Y48385D1*
X16674D1*
X16493Y48445D1*
X16432Y48507D1*
X16371Y48628D1*
X17978Y49659D2*
X17796Y49599D1*
X17674Y49416D1*
X17613Y49113D1*
Y48931D1*
X17674Y48628D1*
X17796Y48445D1*
X17978Y48385D1*
X18099D1*
X18282Y48445D1*
X18402Y48628D1*
X18464Y48931D1*
Y49113D1*
X18402Y49416D1*
X18282Y49599D1*
X18099Y49659D1*
X17978D1*
X18402Y49416D2*
X17674Y48628D1*
X19221Y49659D2*
X19039Y49599D1*
X18917Y49416D1*
X18856Y49113D1*
Y48931D1*
X18917Y48628D1*
X19039Y48445D1*
X19221Y48385D1*
X19342D1*
X19525Y48445D1*
X19645Y48628D1*
X19707Y48931D1*
Y49113D1*
X19645Y49416D1*
X19525Y49599D1*
X19342Y49659D1*
X19221D1*
X19645Y49416D2*
X18917Y48628D1*
X19406Y17069D2*
X19285Y17191D1*
X19103Y17252D1*
X18860D1*
X18677Y17191D1*
X18555Y17069D1*
Y16948D1*
X18617Y16826D1*
X18677Y16766D1*
X18798Y16706D1*
X19163Y16583D1*
X19285Y16523D1*
X19346Y16461D1*
X19406Y16341D1*
Y16158D1*
X19285Y16037D1*
X19103Y15976D1*
X18860D1*
X18677Y16037D1*
X18555Y16158D1*
X19798Y17007D2*
X19920Y17069D1*
X20103Y17250D1*
Y15976D1*
X28636Y51761D2*
X28515Y51884D1*
X28333Y51944D1*
X28090D1*
X27908Y51884D1*
X27785Y51761D1*
Y51641D1*
X27847Y51519D1*
X27908Y51458D1*
X28028Y51398D1*
X28393Y51276D1*
X28515Y51215D1*
X28576Y51154D1*
X28636Y51033D1*
Y50850D1*
X28515Y50730D1*
X28333Y50668D1*
X28090D1*
X27908Y50730D1*
X27785Y50850D1*
X29879Y51944D2*
Y50668D1*
X29028Y51944D1*
Y50668D1*
X30514D2*
X31122Y51942D1*
X30271D1*
X32122Y50668D2*
Y51942D1*
X31514Y51093D1*
X32425D1*
X33121Y51942D2*
X32939Y51882D1*
X32878Y51761D1*
Y51639D1*
X32939Y51519D1*
X33060Y51457D1*
X33303Y51396D1*
X33486Y51336D1*
X33606Y51214D1*
X33667Y51093D1*
Y50911D1*
X33606Y50790D1*
X33546Y50728D1*
X33363Y50668D1*
X33121D1*
X32939Y50728D1*
X32878Y50790D1*
X32817Y50911D1*
Y51093D1*
X32878Y51214D1*
X33000Y51336D1*
X33181Y51396D1*
X33424Y51457D1*
X33546Y51519D1*
X33606Y51639D1*
Y51761D1*
X33546Y51882D1*
X33363Y51942D1*
X33121D1*
X34787Y51761D2*
X34727Y51882D1*
X34545Y51942D1*
X34424D1*
X34241Y51882D1*
X34119Y51700D1*
X34059Y51396D1*
Y51093D1*
X34119Y50850D1*
X34241Y50728D1*
X34424Y50668D1*
X34484D1*
X34665Y50728D1*
X34787Y50850D1*
X34848Y51033D1*
Y51093D1*
X34787Y51276D1*
X34665Y51396D1*
X34484Y51457D1*
X34424D1*
X34241Y51396D1*
X34119Y51276D1*
X34059Y51093D1*
X36091Y51944D2*
Y50668D1*
X35240Y51944D1*
Y50668D1*
X71063Y45672D2*
Y44761D1*
X71124Y44578D1*
X71246Y44458D1*
X71428Y44396D1*
X71549D1*
X71732Y44458D1*
X71854Y44578D1*
X71914Y44761D1*
Y45672D1*
X72368Y45367D2*
Y45428D1*
X72428Y45550D1*
X72489Y45610D1*
X72611Y45671D1*
X72854D1*
X72975Y45610D1*
X73035Y45550D1*
X73097Y45428D1*
Y45307D1*
X73035Y45185D1*
X72914Y45004D1*
X72306Y44396D1*
X73157D1*
X68682Y22003D2*
D12*
X69119D1*
X68901Y21784D2*
Y22222D1*
X68743Y22378D2*
X68718Y22427D1*
X68646Y22500D1*
X69156D1*
X68767Y22682D2*
X68743D1*
X68694Y22706D1*
X68670Y22730D1*
X68646Y22779D1*
Y22876D1*
X68670Y22924D1*
X68694Y22949D1*
X68743Y22973D1*
X68791D1*
X68840Y22949D1*
X68912Y22900D1*
X69156Y22657D1*
Y22997D1*
X68815Y23154D2*
X69156Y23300D1*
X68815Y23446D1*
X64052Y24765D2*
X64489D1*
X64271Y24547D2*
Y24984D1*
X64015Y25432D2*
Y25190D1*
X64234Y25166D1*
X64210Y25190D1*
X64185Y25263D1*
Y25335D1*
X64210Y25408D1*
X64258Y25457D1*
X64331Y25481D1*
X64379D1*
X64452Y25457D1*
X64501Y25408D1*
X64525Y25335D1*
Y25263D1*
X64501Y25190D1*
X64476Y25166D1*
X64428Y25141D1*
X64185Y25638D2*
X64525Y25784D1*
X64185Y25929D1*
X62881Y10865D2*
X63270D1*
X63343Y10841D1*
X63367Y10816D1*
X63392Y10768D1*
Y10719D1*
X63367Y10671D1*
X63343Y10647D1*
X63270Y10622D1*
X63222D1*
X62881Y11022D2*
X63246D1*
X63319Y11046D1*
X63367Y11095D1*
X63392Y11168D1*
Y11216D1*
X63367Y11289D1*
X63319Y11338D1*
X63246Y11362D1*
X62881D1*
X63392Y11908D2*
X62881D1*
X63392Y11714D1*
X62881Y11519D1*
X63392D1*
X63149Y12065D2*
Y12284D1*
X63124Y12356D1*
X63100Y12381D1*
X63051Y12405D1*
X62978D1*
X62930Y12381D1*
X62905Y12356D1*
X62881Y12284D1*
Y12065D1*
X63392D1*
X62881Y13226D2*
X63392D1*
X62881Y13056D2*
Y13396D1*
Y13699D2*
X62905Y13650D1*
X62954Y13602D1*
X63003Y13577D1*
X63076Y13553D1*
X63197D1*
X63270Y13577D1*
X63319Y13602D1*
X63367Y13650D1*
X63392Y13699D1*
Y13796D1*
X63367Y13844D1*
X63319Y13893D1*
X63270Y13917D1*
X63197Y13941D1*
X63076D1*
X63003Y13917D1*
X62954Y13893D1*
X62905Y13844D1*
X62881Y13796D1*
Y13699D1*
Y14592D2*
X63246D1*
X63319Y14616D1*
X63367Y14665D1*
X63392Y14738D1*
Y14786D1*
X63367Y14859D1*
X63319Y14908D1*
X63246Y14932D1*
X62881D1*
X62954Y15429D2*
X62905Y15381D1*
X62881Y15308D1*
Y15211D1*
X62905Y15138D1*
X62954Y15089D1*
X63003D1*
X63051Y15114D1*
X63076Y15138D1*
X63100Y15186D1*
X63149Y15332D1*
X63173Y15381D1*
X63197Y15405D1*
X63246Y15429D1*
X63319D1*
X63367Y15381D1*
X63392Y15308D1*
Y15211D1*
X63367Y15138D1*
X63319Y15089D1*
X62881Y15902D2*
Y15586D1*
X63392D1*
Y15902D1*
X63124Y15586D2*
Y15781D1*
X64498Y10998D2*
Y10682D1*
X65009D1*
X64742D2*
Y10877D1*
X64498Y11301D2*
X64523Y11252D1*
X64571Y11204D1*
X64620Y11179D1*
X64693Y11155D1*
X64815D1*
X64887Y11179D1*
X64936Y11204D1*
X64984Y11252D1*
X65009Y11301D1*
Y11398D1*
X64984Y11447D1*
X64936Y11496D1*
X64887Y11520D1*
X64815Y11544D1*
X64693D1*
X64620Y11520D1*
X64571Y11496D1*
X64523Y11447D1*
X64498Y11398D1*
Y11301D1*
X64742Y11701D2*
Y11919D1*
X64717Y11992D1*
X64693Y12017D1*
X64644Y12041D1*
X64596D1*
X64547Y12017D1*
X64523Y11992D1*
X64498Y11919D1*
Y11701D1*
X65009D1*
X64742Y11871D2*
X65009Y12041D1*
X64742Y12692D2*
Y12910D1*
X64717Y12983D1*
X64693Y13008D1*
X64644Y13032D1*
X64596D1*
X64547Y13008D1*
X64523Y12983D1*
X64498Y12910D1*
Y12692D1*
X65009D1*
X64742Y12862D2*
X65009Y13032D1*
X64766Y13189D2*
Y13408D1*
X64742Y13480D1*
X64717Y13505D1*
X64669Y13529D1*
X64596D1*
X64547Y13505D1*
X64523Y13480D1*
X64498Y13408D1*
Y13189D1*
X65009D1*
X64498Y13686D2*
X65009D1*
X37418Y51908D2*
D81*
X38269Y50632D1*
Y51908D2*
X37418Y50632D1*
X39026Y51908D2*
X38904Y51848D1*
X38783Y51726D1*
X38721Y51605D1*
X38661Y51423D1*
Y51118D1*
X38721Y50937D1*
X38783Y50815D1*
X38904Y50694D1*
X39026Y50632D1*
X39269D1*
X39389Y50694D1*
X39512Y50815D1*
X39572Y50937D1*
X39632Y51118D1*
Y51423D1*
X39572Y51605D1*
X39512Y51726D1*
X39389Y51848D1*
X39269Y51908D1*
X39026D1*
X40024Y51301D2*
X40571D1*
X40753Y51362D1*
X40815Y51423D1*
X40875Y51543D1*
Y51666D1*
X40815Y51786D1*
X40753Y51848D1*
X40571Y51908D1*
X40024D1*
Y50632D1*
X40450Y51301D2*
X40875Y50632D1*
X31178Y23909D2*
D82*
X31104Y23873D1*
X31032Y23800D1*
X30995Y23727D1*
X30959Y23618D1*
Y23435D1*
X30995Y23326D1*
X31032Y23253D1*
X31104Y23180D1*
X31178Y23143D1*
X31323D1*
X31396Y23180D1*
X31469Y23253D1*
X31505Y23326D1*
X31542Y23435D1*
Y23618D1*
X31505Y23727D1*
X31469Y23800D1*
X31396Y23873D1*
X31323Y23909D1*
X31178D1*
X32251D2*
X31777D1*
Y23143D1*
Y23544D2*
X32068D1*
X32961Y23909D2*
X32486D1*
Y23143D1*
Y23544D2*
X32778D1*
X31469Y22529D2*
X31397Y22603D1*
X31287Y22639D1*
X31142D1*
X31032Y22603D1*
X30959Y22529D1*
Y22457D1*
X30996Y22384D1*
X31032Y22348D1*
X31104Y22311D1*
X31323Y22238D1*
X31397Y22202D1*
X31433Y22165D1*
X31469Y22092D1*
Y21983D1*
X31397Y21910D1*
X31287Y21873D1*
X31142D1*
X31032Y21910D1*
X30959Y21983D1*
X31704Y22639D2*
Y21873D1*
X32215Y22639D2*
Y21873D1*
X31704Y22274D2*
X32215D1*
X32450Y22639D2*
Y22092D1*
X32486Y21983D1*
X32560Y21910D1*
X32669Y21873D1*
X32742D1*
X32851Y21910D1*
X32924Y21983D1*
X32961Y22092D1*
Y22639D1*
X33451D2*
Y21873D1*
X33196Y22639D2*
X33706D1*
X34682D2*
Y21873D1*
X34938D1*
X35047Y21910D1*
X35120Y21983D1*
X35157Y22056D1*
X35193Y22165D1*
Y22348D1*
X35157Y22457D1*
X35120Y22529D1*
X35047Y22603D1*
X34938Y22639D1*
X34682D1*
X35647D2*
X35574Y22603D1*
X35501Y22529D1*
X35464Y22457D1*
X35428Y22348D1*
Y22165D1*
X35464Y22056D1*
X35501Y21983D1*
X35574Y21910D1*
X35647Y21873D1*
X35793D1*
X35865Y21910D1*
X35939Y21983D1*
X35975Y22056D1*
X36011Y22165D1*
Y22348D1*
X35975Y22457D1*
X35939Y22529D1*
X35865Y22603D1*
X35793Y22639D1*
X35647D1*
X36246D2*
X36429Y21873D1*
X36611Y22639D1*
X36793Y21873D1*
X36976Y22639D1*
X37721D2*
Y21873D1*
X37211Y22639D1*
Y21873D1*
X30959Y21004D2*
X31286D1*
X31396Y21041D1*
X31433Y21077D1*
X31469Y21150D1*
Y21223D1*
X31433Y21296D1*
X31396Y21333D1*
X31286Y21369D1*
X30959D1*
Y20603D1*
X31214Y21004D2*
X31469Y20603D1*
X31704Y20968D2*
X32033D1*
X32142Y21004D1*
X32179Y21041D1*
X32215Y21114D1*
Y21223D1*
X32179Y21296D1*
X32142Y21333D1*
X32033Y21369D1*
X31704D1*
Y20603D1*
X32450Y21369D2*
Y20603D1*
X33900Y21369D2*
X33426D1*
Y20603D1*
Y21004D2*
X33718D1*
X34136Y21369D2*
Y20603D1*
X34371Y21004D2*
X34699D1*
X34808Y21041D1*
X34845Y21077D1*
X34881Y21150D1*
Y21223D1*
X34845Y21296D1*
X34808Y21333D1*
X34699Y21369D1*
X34371D1*
Y20603D1*
X34626Y21004D2*
X34881Y20603D1*
X35627Y21259D2*
X35555Y21333D1*
X35445Y21369D1*
X35299D1*
X35190Y21333D1*
X35117Y21259D1*
Y21187D1*
X35154Y21114D1*
X35190Y21077D1*
X35262Y21041D1*
X35481Y20968D1*
X35555Y20932D1*
X35591Y20895D1*
X35627Y20822D1*
Y20713D1*
X35555Y20640D1*
X35445Y20603D1*
X35299D1*
X35190Y20640D1*
X35117Y20713D1*
X36118Y21369D2*
Y20603D1*
X35862Y21369D2*
X36373D1*
X21477Y21475D2*
X21404Y21438D1*
X21332Y21365D1*
X21295Y21293D1*
X21258Y21183D1*
Y21000D1*
X21295Y20892D1*
X21332Y20819D1*
X21404Y20746D1*
X21477Y20709D1*
X21623D1*
X21696Y20746D1*
X21769Y20819D1*
X21805Y20892D1*
X21841Y21000D1*
Y21183D1*
X21805Y21293D1*
X21769Y21365D1*
X21696Y21438D1*
X21623Y21475D1*
X21477D1*
X22587D2*
Y20709D1*
X22077Y21475D1*
Y20709D1*
X68947Y56743D2*
X68875Y56706D1*
X68802Y56633D1*
X68765Y56561D1*
Y56415D1*
X68802Y56342D1*
X68875Y56269D1*
X68947Y56232D1*
X69057Y56196D1*
X69240D1*
X69348Y56232D1*
X69422Y56269D1*
X69494Y56342D1*
X69531Y56415D1*
Y56561D1*
X69494Y56633D1*
X69422Y56706D1*
X69348Y56743D1*
X69240D1*
Y56561D1*
X68705Y53632D2*
X69471D1*
Y53887D1*
X69434Y53996D1*
X69361Y54070D1*
X69288Y54106D1*
X69179Y54142D1*
X68997D1*
X68887Y54106D1*
X68815Y54070D1*
X68741Y53996D1*
X68705Y53887D1*
Y53632D1*
X68942Y51565D2*
X68869Y51493D1*
X68832Y51383D1*
Y51237D1*
X68869Y51128D1*
X68942Y51055D1*
X69014D1*
X69088Y51092D1*
X69124Y51128D1*
X69160Y51200D1*
X69233Y51419D1*
X69270Y51493D1*
X69307Y51529D1*
X69379Y51565D1*
X69489D1*
X69561Y51493D1*
X69598Y51383D1*
Y51237D1*
X69561Y51128D1*
X69489Y51055D1*
X68130Y42485D2*
X68422Y41719D1*
X68713Y42485D1*
X68783Y41899D2*
D12*
Y41388D1*
X69280Y41899D2*
Y41388D1*
X68940Y41899D1*
Y41388D1*
X67495Y40738D2*
D82*
X67786Y39973D1*
X68078Y40738D1*
X68098Y40031D2*
D12*
X68049Y40007D1*
X68001Y39958D1*
X67976Y39909D1*
X67952Y39836D1*
Y39715D1*
X67976Y39642D1*
X68001Y39593D1*
X68049Y39545D1*
X68098Y39520D1*
X68195D1*
X68243Y39545D1*
X68292Y39593D1*
X68316Y39642D1*
X68340Y39715D1*
Y39836D1*
X68316Y39909D1*
X68292Y39958D1*
X68243Y40007D1*
X68195Y40031D1*
X68098D1*
X68497D2*
Y39666D1*
X68521Y39593D1*
X68570Y39545D1*
X68643Y39520D1*
X68691D1*
X68764Y39545D1*
X68813Y39593D1*
X68837Y39666D1*
Y40031D1*
X69164D2*
Y39520D1*
X68994Y40031D2*
X69335D1*
X67724Y38651D2*
D82*
X67688Y38724D1*
X67615Y38797D1*
X67542Y38833D1*
X67397D1*
X67323Y38797D1*
X67251Y38724D1*
X67214Y38651D1*
X67178Y38542D1*
Y38359D1*
X67214Y38250D1*
X67251Y38177D1*
X67323Y38105D1*
X67397Y38067D1*
X67542D1*
X67615Y38105D1*
X67688Y38177D1*
X67724Y38250D1*
Y38359D1*
X67542D1*
X68470Y38833D2*
Y38067D1*
X67959Y38833D1*
Y38067D1*
X68705Y38833D2*
Y38067D1*
X68960D1*
X69070Y38105D1*
X69143Y38177D1*
X69179Y38250D1*
X69216Y38359D1*
Y38542D1*
X69179Y38651D1*
X69143Y38724D1*
X69070Y38797D1*
X68960Y38833D1*
X68705D1*
X67017Y37245D2*
X66542D1*
Y36480D1*
Y36881D2*
X66834D1*
X67252Y37245D2*
Y36480D1*
X67507D1*
X67617Y36517D1*
X67690Y36589D1*
X67726Y36663D1*
X67762Y36771D1*
Y36954D1*
X67726Y37064D1*
X67690Y37136D1*
X67617Y37209D1*
X67507Y37245D1*
X67252D1*
X67998D2*
Y36480D1*
X68326D1*
X68436Y36517D1*
X68472Y36553D1*
X68508Y36626D1*
Y36735D1*
X68472Y36808D1*
X68436Y36845D1*
X68326Y36881D1*
X68436Y36918D1*
X68472Y36954D1*
X68508Y37026D1*
Y37100D1*
X68472Y37172D1*
X68436Y37209D1*
X68326Y37245D1*
X67998D1*
Y36881D2*
X68326D1*
X68743Y37245D2*
Y36480D1*
X69254Y37245D2*
X68743Y36735D1*
X68925Y36918D2*
X69254Y36480D1*
X65174Y35340D2*
X65101Y35304D1*
X65028Y35231D1*
X64991Y35158D1*
X64955Y35049D1*
Y34866D1*
X64991Y34757D1*
X65028Y34684D1*
X65101Y34612D1*
X65174Y34575D1*
X65320D1*
X65392Y34612D1*
X65465Y34684D1*
X65501Y34757D1*
X65538Y34866D1*
Y35049D1*
X65501Y35158D1*
X65465Y35231D1*
X65392Y35304D1*
X65320Y35340D1*
X65174D1*
X66283D2*
Y34575D1*
X65773Y35340D1*
Y34575D1*
X66519D2*
X67029Y35339D1*
X67483Y35340D2*
X67410Y35304D1*
X67338Y35231D1*
X67301Y35158D1*
X67264Y35049D1*
Y34866D1*
X67301Y34757D1*
X67338Y34684D1*
X67410Y34612D1*
X67483Y34575D1*
X67629D1*
X67702Y34612D1*
X67775Y34684D1*
X67811Y34757D1*
X67847Y34866D1*
Y35049D1*
X67811Y35158D1*
X67775Y35231D1*
X67702Y35304D1*
X67629Y35340D1*
X67483D1*
X68557D2*
X68083D1*
Y34575D1*
Y34976D2*
X68374D1*
X69266Y35340D2*
X68792D1*
Y34575D1*
Y34976D2*
X69084D1*
X71233Y60729D2*
D81*
X71113Y60670D1*
X70991Y60548D1*
X70930Y60426D1*
X70868Y60244D1*
Y59940D1*
X70930Y59758D1*
X70991Y59637D1*
X71113Y59515D1*
X71233Y59455D1*
X71476D1*
X71598Y59515D1*
X71719Y59637D1*
X71779Y59758D1*
X71841Y59940D1*
Y60244D1*
X71779Y60426D1*
X71719Y60548D1*
X71598Y60670D1*
X71476Y60729D1*
X71233D1*
X71416Y59698D2*
X71779Y59333D1*
X72233Y60485D2*
X72356Y60547D1*
X72538Y60728D1*
Y59453D1*
X63354Y19762D2*
D12*
X63305Y19714D1*
X63281Y19641D1*
Y19544D1*
X63305Y19471D1*
X63354Y19422D1*
X63403D1*
X63451Y19447D1*
X63476Y19471D1*
X63500Y19519D1*
X63549Y19665D1*
X63573Y19714D1*
X63597Y19738D1*
X63646Y19762D1*
X63719D1*
X63767Y19714D1*
X63792Y19641D1*
Y19544D1*
X63767Y19471D1*
X63719Y19422D1*
X63281Y20235D2*
Y19919D1*
X63792D1*
Y20235D1*
X63524Y19919D2*
Y20114D1*
X63281Y20392D2*
X63792D1*
Y20683D1*
X63281Y21156D2*
Y20840D1*
X63792D1*
Y21156D1*
X63524Y20840D2*
Y21034D1*
X63403Y21677D2*
X63354Y21653D1*
X63305Y21604D1*
X63281Y21556D1*
Y21458D1*
X63305Y21410D1*
X63354Y21361D1*
X63403Y21337D1*
X63476Y21312D1*
X63597D1*
X63670Y21337D1*
X63719Y21361D1*
X63767Y21410D1*
X63792Y21458D1*
Y21556D1*
X63767Y21604D1*
X63719Y21653D1*
X63670Y21677D1*
X63281Y22004D2*
X63792D1*
X63281Y21834D2*
Y22174D1*
X63549Y22825D2*
Y23044D1*
X63524Y23116D1*
X63500Y23141D1*
X63451Y23165D1*
X63378D1*
X63330Y23141D1*
X63305Y23116D1*
X63281Y23044D1*
Y22825D1*
X63792D1*
X63281Y23322D2*
X63792Y23444D1*
X63281Y23565D1*
X63792Y23686D1*
X63281Y23808D1*
X63524Y23965D2*
Y24183D1*
X63500Y24256D1*
X63476Y24281D1*
X63427Y24305D1*
X63378D1*
X63330Y24281D1*
X63305Y24256D1*
X63281Y24183D1*
Y23965D1*
X63792D1*
X63524Y24135D2*
X63792Y24305D1*
X63281Y25272D2*
Y24956D1*
X63792D1*
X63524D2*
Y25150D1*
X63281Y25575D2*
X63305Y25526D1*
X63354Y25478D1*
X63403Y25453D1*
X63476Y25429D1*
X63597D1*
X63670Y25453D1*
X63719Y25478D1*
X63767Y25526D1*
X63792Y25575D1*
Y25672D1*
X63767Y25720D1*
X63719Y25769D1*
X63670Y25793D1*
X63597Y25818D1*
X63476D1*
X63403Y25793D1*
X63354Y25769D1*
X63305Y25720D1*
X63281Y25672D1*
Y25575D1*
X63524Y25974D2*
Y26193D1*
X63500Y26266D1*
X63476Y26291D1*
X63427Y26315D1*
X63378D1*
X63330Y26291D1*
X63305Y26266D1*
X63281Y26193D1*
Y25974D1*
X63792D1*
X63524Y26145D2*
X63792Y26315D1*
X63281Y26965D2*
X63792Y27160D1*
X63281Y27354D1*
Y27657D2*
X63305Y27608D1*
X63354Y27560D1*
X63403Y27535D1*
X63476Y27511D1*
X63597D1*
X63670Y27535D1*
X63719Y27560D1*
X63767Y27608D1*
X63792Y27657D1*
Y27754D1*
X63767Y27802D1*
X63719Y27851D1*
X63670Y27875D1*
X63597Y27899D1*
X63476D1*
X63403Y27875D1*
X63354Y27851D1*
X63305Y27802D1*
X63281Y27754D1*
Y27657D1*
Y28056D2*
X63646D1*
X63719Y28080D1*
X63767Y28129D1*
X63792Y28202D1*
Y28251D1*
X63767Y28324D1*
X63719Y28372D1*
X63646Y28397D1*
X63281D1*
Y28724D2*
X63792D1*
X63281Y28553D2*
Y28894D1*
X44202Y29980D2*
D83*
X44058Y30127D1*
X43839Y30199D1*
X43547D1*
X43328Y30127D1*
X43182Y29980D1*
Y29835D1*
X43256Y29689D1*
X43328Y29616D1*
X43473Y29544D1*
X43911Y29397D1*
X44058Y29325D1*
X44130Y29251D1*
X44202Y29106D1*
Y28887D1*
X44058Y28742D1*
X43839Y28668D1*
X43547D1*
X43328Y28742D1*
X43182Y28887D1*
X44673Y29397D2*
X45330D1*
X45547Y29470D1*
X45621Y29544D1*
X45694Y29689D1*
Y29908D1*
X45621Y30053D1*
X45547Y30127D1*
X45330Y30199D1*
X44673D1*
Y28668D1*
X46165Y30199D2*
Y28668D1*
X48554Y30199D2*
X48408Y30127D1*
X48263Y29980D1*
X48189Y29835D1*
X48116Y29616D1*
Y29251D1*
X48189Y29033D1*
X48263Y28887D1*
X48408Y28742D1*
X48554Y28668D1*
X48846D1*
X48991Y28742D1*
X49137Y28887D1*
X49210Y29033D1*
X49282Y29251D1*
Y29616D1*
X49210Y29835D1*
X49137Y29980D1*
X48991Y30127D1*
X48846Y30199D1*
X48554D1*
X49753D2*
Y29106D1*
X49825Y28887D1*
X49972Y28742D1*
X50191Y28668D1*
X50336D1*
X50555Y28742D1*
X50701Y28887D1*
X50774Y29106D1*
Y30199D1*
X51755D2*
Y28668D1*
X51244Y30199D2*
X52265D1*
X26229Y46144D2*
D12*
X26204Y46193D1*
X26132Y46266D1*
X26642D1*
Y46812D2*
X26131Y46617D1*
X26642Y46423D1*
X26472Y46496D2*
Y46739D1*
X29015Y46168D2*
X28990Y46217D1*
X28917Y46290D1*
X29427D1*
X28917Y46447D2*
X29427D1*
Y46666D1*
X29403Y46739D1*
X29378Y46763D1*
X29330Y46787D1*
X29257D1*
X29208Y46763D1*
X29184Y46739D1*
X29160Y46666D1*
X29135Y46739D1*
X29111Y46763D1*
X29063Y46787D1*
X29014D1*
X28966Y46763D1*
X28941Y46739D1*
X28917Y46666D1*
Y46447D1*
X29160D2*
Y46666D1*
X31559Y46124D2*
X31534Y46173D1*
X31462Y46246D1*
X31971D1*
X31461Y46403D2*
X31704Y46597D1*
X31971D1*
X31461Y46792D2*
X31704Y46597D1*
X33992Y46130D2*
X33968D1*
X33919Y46154D1*
X33895Y46178D1*
X33871Y46227D1*
Y46324D1*
X33895Y46372D1*
X33919Y46396D1*
X33968Y46421D1*
X34016D1*
X34065Y46396D1*
X34138Y46348D1*
X34381Y46105D1*
Y46445D1*
Y46991D2*
X33870Y46796D1*
X34381Y46602D1*
X34211Y46675D2*
Y46918D1*
X36618Y46124D2*
X36594D1*
X36545Y46148D1*
X36521Y46172D1*
X36497Y46221D1*
Y46318D1*
X36521Y46367D1*
X36545Y46391D1*
X36594Y46415D1*
X36642D1*
X36691Y46391D1*
X36763Y46342D1*
X37006Y46099D1*
Y46440D1*
X36496Y46596D2*
X37006D1*
Y46815D1*
X36982Y46888D1*
X36958Y46913D1*
X36909Y46937D1*
X36836D1*
X36787Y46913D1*
X36763Y46888D1*
X36739Y46815D1*
X36714Y46888D1*
X36690Y46913D1*
X36642Y46937D1*
X36593D1*
X36545Y46913D1*
X36520Y46888D1*
X36496Y46815D1*
Y46596D1*
X36739D2*
Y46815D1*
X39192Y46150D2*
X39168D1*
X39119Y46174D1*
X39095Y46198D1*
X39071Y46247D1*
Y46344D1*
X39095Y46392D1*
X39119Y46417D1*
X39168Y46441D1*
X39216D1*
X39265Y46417D1*
X39337Y46368D1*
X39581Y46125D1*
Y46465D1*
X39070Y46622D2*
X39313Y46817D1*
X39581D1*
X39070Y47011D2*
X39313Y46817D1*
X41718Y46073D2*
X41670Y46049D1*
X41621Y46000D1*
X41597Y45952D1*
Y45855D1*
X41621Y45806D1*
X41670Y45757D1*
X41718Y45733D1*
X41791Y45709D1*
X41913D1*
X41985Y45733D1*
X42034Y45757D1*
X42082Y45806D1*
X42107Y45855D1*
Y45952D1*
X42082Y46000D1*
X42034Y46049D1*
X41985Y46073D1*
X41913D1*
Y45952D1*
X41597Y46570D2*
X42107D1*
X41597Y46230D1*
X42107D1*
X41597Y46727D2*
X42107D1*
Y46897D1*
X42082Y46970D1*
X42034Y47019D1*
X41985Y47043D1*
X41913Y47067D1*
X41791D1*
X41718Y47043D1*
X41670Y47019D1*
X41621Y46970D1*
X41597Y46897D1*
Y46727D1*
X26158Y55122D2*
X26595D1*
X26377Y54904D2*
Y55341D1*
X26122Y55790D2*
Y55547D1*
X26340Y55523D1*
X26316Y55547D1*
X26291Y55620D1*
Y55693D1*
X26316Y55766D1*
X26364Y55814D1*
X26437Y55839D1*
X26486D1*
X26559Y55814D1*
X26608Y55766D1*
X26632Y55693D1*
Y55620D1*
X26608Y55547D1*
X26583Y55523D1*
X26535Y55498D1*
X26291Y55995D2*
X26632Y56141D1*
X26291Y56287D1*
X29292Y55497D2*
X28782D1*
X29122Y55254D1*
Y55618D1*
X28781Y55775D2*
X29292D1*
Y55994D1*
X29267Y56067D1*
X29243Y56091D1*
X29195Y56116D1*
X29122D1*
X29073Y56091D1*
X29049Y56067D1*
X29024Y55994D1*
X29000Y56067D1*
X28976Y56091D1*
X28927Y56116D1*
X28878D1*
X28830Y56091D1*
X28805Y56067D1*
X28781Y55994D1*
Y55775D1*
X29024D2*
Y55994D1*
X31882Y55577D2*
X31372D1*
X31712Y55334D1*
Y55698D1*
X31882Y56244D2*
X31371Y56050D1*
X31882Y55855D1*
X31712Y55928D2*
Y56171D1*
X34362Y55547D2*
X33852D1*
X34192Y55304D1*
Y55668D1*
X33851Y55825D2*
X34094Y56020D1*
X34362D1*
X33851Y56214D2*
X34094Y56020D1*
X36402Y55253D2*
Y55520D1*
X36596Y55374D1*
Y55447D1*
X36620Y55495D1*
X36644Y55520D1*
X36717Y55544D1*
X36766D1*
X36839Y55520D1*
X36888Y55471D1*
X36912Y55398D1*
Y55325D1*
X36888Y55253D1*
X36863Y55229D1*
X36815Y55204D1*
X36401Y55701D2*
X36912D1*
Y55920D1*
X36887Y55993D1*
X36863Y56017D1*
X36815Y56041D1*
X36742D1*
X36693Y56017D1*
X36669Y55993D1*
X36644Y55920D1*
X36620Y55993D1*
X36596Y56017D1*
X36547Y56041D1*
X36498D1*
X36450Y56017D1*
X36425Y55993D1*
X36401Y55920D1*
Y55701D1*
X36644D2*
Y55920D1*
X38892Y55213D2*
Y55480D1*
X39086Y55334D1*
Y55407D1*
X39110Y55455D1*
X39134Y55480D1*
X39207Y55504D1*
X39256D1*
X39329Y55480D1*
X39378Y55431D1*
X39402Y55358D1*
Y55285D1*
X39378Y55213D1*
X39353Y55189D1*
X39305Y55164D1*
X39402Y56050D2*
X38891Y55855D1*
X39402Y55661D1*
X39232Y55734D2*
Y55977D1*
X41402Y55233D2*
Y55500D1*
X41596Y55354D1*
Y55427D1*
X41620Y55475D1*
X41644Y55500D1*
X41717Y55524D1*
X41766D1*
X41839Y55500D1*
X41888Y55451D1*
X41912Y55378D1*
Y55305D1*
X41888Y55233D1*
X41863Y55209D1*
X41815Y55184D1*
X41401Y55681D2*
X41644Y55875D1*
X41912D1*
X41401Y56070D2*
X41644Y55875D1*
X63758Y10831D2*
X64196D1*
X63977Y10612D2*
Y11050D1*
X63819Y11206D2*
X63794Y11255D1*
X63722Y11328D1*
X64232D1*
X63843Y11510D2*
X63819D1*
X63770Y11534D1*
X63746Y11558D1*
X63722Y11607D1*
Y11704D1*
X63746Y11752D1*
X63770Y11777D1*
X63819Y11801D1*
X63867D1*
X63916Y11777D1*
X63989Y11728D1*
X64232Y11485D1*
Y11825D1*
X63891Y11982D2*
X64232Y12128D1*
X63891Y12274D1*
X63989Y12924D2*
Y13143D1*
X63964Y13216D1*
X63940Y13240D1*
X63891Y13265D1*
X63818D1*
X63770Y13240D1*
X63745Y13216D1*
X63721Y13143D1*
Y12924D1*
X64232D1*
X63721Y13421D2*
X64232Y13543D1*
X63721Y13665D1*
X64232Y13786D1*
X63721Y13908D1*
X63964Y14065D2*
Y14283D1*
X63940Y14356D1*
X63916Y14381D1*
X63867Y14405D1*
X63818D1*
X63770Y14381D1*
X63745Y14356D1*
X63721Y14283D1*
Y14065D1*
X64232D1*
X63964Y14235D2*
X64232Y14405D1*
X63794Y15396D2*
X63745Y15348D1*
X63721Y15275D1*
Y15177D1*
X63745Y15104D1*
X63794Y15056D1*
X63843D1*
X63891Y15080D1*
X63916Y15104D1*
X63940Y15153D1*
X63989Y15299D1*
X64013Y15348D1*
X64037Y15372D1*
X64086Y15396D1*
X64159D1*
X64207Y15348D1*
X64232Y15275D1*
Y15177D1*
X64207Y15104D1*
X64159Y15056D1*
X63721Y15553D2*
X64086D1*
X64159Y15577D1*
X64207Y15626D1*
X64232Y15699D1*
Y15747D1*
X64207Y15820D1*
X64159Y15869D1*
X64086Y15893D1*
X63721D1*
X63989Y16050D2*
Y16269D1*
X63964Y16341D1*
X63940Y16366D1*
X63891Y16390D1*
X63818D1*
X63770Y16366D1*
X63745Y16341D1*
X63721Y16269D1*
Y16050D1*
X64232D1*
X63989Y16547D2*
Y16766D1*
X63964Y16838D1*
X63940Y16863D1*
X63891Y16887D1*
X63818D1*
X63770Y16863D1*
X63745Y16838D1*
X63721Y16766D1*
Y16547D1*
X64232D1*
X63721Y17044D2*
X63964Y17239D1*
X64232D1*
X63721Y17433D2*
X63964Y17239D1*
X24542Y47891D2*
D84*
Y47163D1*
X24591Y47017D1*
X24688Y46920D1*
X24834Y46871D1*
X24931D1*
X25077Y46920D1*
X25175Y47017D1*
X25223Y47163D1*
Y47891D1*
X25537Y47696D2*
X25634Y47745D1*
X25780Y47890D1*
Y46871D1*
X17479Y56406D2*
D82*
Y56806D1*
X17771Y56588D1*
Y56697D1*
X17807Y56770D1*
X17843Y56806D1*
X17953Y56843D1*
X18025D1*
X18134Y56806D1*
X18208Y56733D1*
X18244Y56624D1*
Y56514D1*
X18208Y56406D1*
X18171Y56370D1*
X18098Y56333D1*
X18171Y57115D2*
X18208Y57078D1*
X18244Y57115D1*
X18208Y57152D1*
X18171Y57115D1*
X17479Y57460D2*
Y57860D1*
X17771Y57642D1*
Y57752D1*
X17807Y57824D1*
X17843Y57860D1*
X17953Y57897D1*
X18025D1*
X18134Y57860D1*
X18208Y57788D1*
X18244Y57678D1*
Y57569D1*
X18208Y57460D1*
X18171Y57424D1*
X18098Y57387D1*
X17478Y58133D2*
X18244Y58424D1*
X17478Y58715D1*
X18574Y58370D2*
Y58006D1*
X18902Y57970D1*
X18865Y58006D1*
X18828Y58116D1*
Y58224D1*
X18865Y58334D1*
X18938Y58407D1*
X19047Y58443D1*
X19120D1*
X19229Y58407D1*
X19303Y58334D1*
X19339Y58224D1*
Y58116D1*
X19303Y58006D1*
X19266Y57970D1*
X19193Y57933D1*
X18828Y58679D2*
X19339Y58898D1*
X18828Y59116D1*
X20142Y57051D2*
X20069Y56979D1*
X20033Y56869D1*
Y56723D1*
X20069Y56614D1*
X20142Y56541D1*
X20215D1*
X20288Y56578D1*
X20324Y56614D1*
X20361Y56686D1*
X20434Y56905D1*
X20470Y56979D1*
X20507Y57015D1*
X20580Y57051D1*
X20689D1*
X20761Y56979D1*
X20799Y56869D1*
Y56723D1*
X20761Y56614D1*
X20689Y56541D1*
X20033Y57286D2*
X20799D1*
Y57542D1*
X20761Y57651D1*
X20689Y57724D1*
X20616Y57761D1*
X20507Y57797D1*
X20324D1*
X20215Y57761D1*
X20142Y57724D1*
X20069Y57651D1*
X20033Y57542D1*
Y57286D1*
X20799Y58616D2*
X20033Y58324D1*
X20799Y58032D1*
X20543Y58142D2*
Y58506D1*
X21113Y58370D2*
Y58006D1*
X21441Y57970D1*
X21405Y58006D1*
X21368Y58116D1*
Y58224D1*
X21405Y58334D1*
X21477Y58407D1*
X21587Y58443D1*
X21659D1*
X21768Y58407D1*
X21842Y58334D1*
X21878Y58224D1*
Y58116D1*
X21842Y58006D1*
X21805Y57970D1*
X21732Y57933D1*
X21368Y58679D2*
X21878Y58898D1*
X21368Y59116D1*
X22425Y57241D2*
X22351Y57169D1*
X22315Y57059D1*
Y56914D1*
X22351Y56804D1*
X22425Y56731D1*
X22497D1*
X22570Y56768D1*
X22606Y56804D1*
X22643Y56877D1*
X22716Y57096D1*
X22752Y57169D1*
X22789Y57205D1*
X22862Y57241D1*
X22971D1*
X23044Y57169D1*
X23081Y57059D1*
Y56914D1*
X23044Y56804D1*
X22971Y56731D1*
X22497Y58023D2*
X22425Y57987D1*
X22351Y57914D1*
X22315Y57841D1*
Y57696D1*
X22351Y57622D1*
X22425Y57550D1*
X22497Y57513D1*
X22606Y57477D1*
X22789D1*
X22898Y57513D1*
X22971Y57550D1*
X23044Y57622D1*
X23081Y57696D1*
Y57841D1*
X23044Y57914D1*
X22971Y57987D1*
X22898Y58023D1*
X22315Y58259D2*
X23081D1*
Y58696D1*
X23705Y57656D2*
X23632Y57620D1*
X23559Y57547D1*
X23523Y57474D1*
Y57328D1*
X23559Y57255D1*
X23632Y57183D1*
X23705Y57146D1*
X23814Y57109D1*
X23997D1*
X24106Y57146D1*
X24179Y57183D1*
X24252Y57255D1*
X24289Y57328D1*
Y57474D1*
X24252Y57547D1*
X24179Y57620D1*
X24106Y57656D1*
X23997D1*
Y57474D1*
X23523Y58402D2*
X24289D1*
X23523Y57891D1*
X24289D1*
X23523Y58637D2*
X24289D1*
Y58892D1*
X24252Y59002D1*
X24179Y59075D1*
X24106Y59111D1*
X23997Y59148D1*
X23814D1*
X23705Y59111D1*
X23632Y59075D1*
X23559Y59002D1*
X23523Y58892D1*
Y58637D1*
X24817Y57553D2*
X25874Y57299D1*
X24817Y57772D2*
X25874Y57517D1*
X25236Y57299D2*
Y57809D1*
X25455Y57262D2*
Y57772D1*
X25728Y58409D2*
X24963D1*
X25473Y58044D1*
Y58591D1*
X26175Y57413D2*
X26941D1*
X26175Y57158D2*
Y57668D1*
Y57904D2*
X26941Y58414D1*
X26175D2*
X26941Y57904D1*
X26175Y58649D2*
X26941D1*
Y58905D1*
X26904Y59014D1*
X26831Y59087D1*
X26758Y59124D1*
X26649Y59160D1*
X26467D1*
X26357Y59124D1*
X26285Y59087D1*
X26211Y59014D1*
X26175Y58905D1*
Y58649D1*
X27976Y56947D2*
X27904Y56910D1*
X27831Y56837D1*
X27794Y56765D1*
Y56619D1*
X27831Y56546D1*
X27904Y56473D1*
X27976Y56436D1*
X28086Y56400D1*
X28269D1*
X28377Y56436D1*
X28450Y56473D1*
X28523Y56546D1*
X28560Y56619D1*
Y56765D1*
X28523Y56837D1*
X28450Y56910D1*
X28377Y56947D1*
X28269D1*
Y56765D1*
X27794Y57692D2*
X28560D1*
X27794Y57182D1*
X28560D1*
X27794Y57928D2*
X28560D1*
Y58183D1*
X28523Y58292D1*
X28450Y58366D1*
X28377Y58402D1*
X28269Y58438D1*
X28086D1*
X27976Y58402D1*
X27904Y58366D1*
X27831Y58292D1*
X27794Y58183D1*
Y57928D1*
X29254Y57054D2*
Y57382D1*
X29217Y57491D1*
X29181Y57528D1*
X29108Y57564D1*
X29035D1*
X28962Y57528D1*
X28925Y57491D1*
X28889Y57382D1*
Y57054D1*
X29655D1*
X29254Y57309D2*
X29655Y57564D1*
X28889Y57800D2*
X29655Y58310D1*
X28889D2*
X29655Y57800D1*
X28889Y58545D2*
X29655D1*
Y58801D1*
X29618Y58910D1*
X29545Y58983D1*
X29472Y59020D1*
X29363Y59056D1*
X29181D1*
X29071Y59020D1*
X28999Y58983D1*
X28925Y58910D1*
X28889Y58801D1*
Y58545D1*
X30342Y57014D2*
X31399Y56760D1*
X30342Y57233D2*
X31399Y56978D1*
X30761Y56760D2*
Y57270D1*
X30980Y56723D2*
Y57233D1*
X30634Y57505D2*
X30597Y57578D1*
X30488Y57688D1*
X31253D1*
Y58069D2*
X30488Y58433D1*
Y57923D1*
X31453Y57650D2*
X32510Y57395D1*
X31453Y57869D2*
X32510Y57613D1*
X31872Y57395D2*
Y57905D1*
X32091Y57358D2*
Y57869D1*
X31744Y58140D2*
X31707Y58213D1*
X31599Y58323D1*
X32364D1*
X31599Y58740D2*
X31635Y58631D1*
X31707Y58594D1*
X31781D1*
X31853Y58631D1*
X31890Y58704D1*
X31926Y58850D1*
X31963Y58959D1*
X32036Y59031D1*
X32108Y59068D1*
X32218D1*
X32290Y59031D1*
X32327Y58995D1*
X32364Y58886D1*
Y58740D1*
X32327Y58631D1*
X32290Y58594D1*
X32218Y58558D1*
X32108D1*
X32036Y58594D1*
X31963Y58668D1*
X31926Y58776D1*
X31890Y58922D1*
X31853Y58995D1*
X31781Y59031D1*
X31707D1*
X31635Y58995D1*
X31599Y58886D1*
Y58740D1*
X32887Y56691D2*
X33944Y56437D1*
X32887Y56910D2*
X33944Y56655D1*
X33306Y56437D2*
Y56947D1*
X33525Y56400D2*
Y56910D1*
X33215Y57219D2*
X33179D1*
X33105Y57255D1*
X33069Y57291D1*
X33033Y57365D1*
Y57510D1*
X33069Y57583D1*
X33105Y57619D1*
X33179Y57656D1*
X33251D1*
X33324Y57619D1*
X33433Y57547D1*
X33798Y57182D1*
Y57692D1*
Y58073D2*
X33033Y58438D1*
Y57928D1*
X34329Y57582D2*
X34257Y57546D1*
X34184Y57472D1*
X34147Y57400D1*
Y57254D1*
X34184Y57181D1*
X34257Y57108D1*
X34329Y57071D1*
X34439Y57035D1*
X34622D1*
X34730Y57071D1*
X34803Y57108D1*
X34876Y57181D1*
X34913Y57254D1*
Y57400D1*
X34876Y57472D1*
X34803Y57546D1*
X34730Y57582D1*
X34622D1*
Y57400D1*
X34147Y58327D2*
X34913D1*
X34147Y57817D1*
X34913D1*
X34147Y58563D2*
X34913D1*
Y58818D1*
X34876Y58927D1*
X34803Y59001D1*
X34730Y59037D1*
X34622Y59073D1*
X34439D1*
X34329Y59037D1*
X34257Y59001D1*
X34184Y58927D1*
X34147Y58818D1*
Y58563D1*
X35272Y56691D2*
X36329Y56437D1*
X35272Y56910D2*
X36329Y56655D1*
X35691Y56437D2*
Y56947D1*
X35910Y56400D2*
Y56910D1*
X35600Y57219D2*
X35563D1*
X35490Y57255D1*
X35454Y57291D1*
X35418Y57365D1*
Y57510D1*
X35454Y57583D1*
X35490Y57619D1*
X35563Y57656D1*
X35636D1*
X35709Y57619D1*
X35818Y57547D1*
X36183Y57182D1*
Y57692D1*
X35600Y57965D2*
X35563D1*
X35490Y58001D1*
X35454Y58037D1*
X35418Y58110D1*
Y58256D1*
X35454Y58329D1*
X35490Y58365D1*
X35563Y58402D1*
X35636D1*
X35709Y58365D1*
X35818Y58292D1*
X36183Y57928D1*
Y58438D1*
X36382Y57327D2*
X37439Y57072D1*
X36382Y57546D2*
X37439Y57290D1*
X36801Y57072D2*
Y57582D1*
X37020Y57035D2*
Y57546D1*
X36710Y57854D2*
X36674D1*
X36600Y57890D1*
X36564Y57927D1*
X36528Y58000D1*
Y58146D1*
X36564Y58218D1*
X36600Y58254D1*
X36674Y58291D1*
X36746D1*
X36819Y58254D1*
X36928Y58182D1*
X37293Y57817D1*
Y58327D1*
X36528Y58636D2*
Y59036D1*
X36819Y58818D1*
Y58927D1*
X36856Y59000D1*
X36892Y59036D1*
X37001Y59073D1*
X37074D1*
X37183Y59036D1*
X37257Y58964D1*
X37293Y58854D1*
Y58745D1*
X37257Y58636D1*
X37220Y58600D1*
X37147Y58563D1*
X37736Y56374D2*
Y56774D1*
X38027Y56556D1*
Y56666D1*
X38064Y56738D1*
X38100Y56774D1*
X38209Y56811D1*
X38282D1*
X38391Y56774D1*
X38464Y56702D1*
X38501Y56592D1*
Y56483D1*
X38464Y56374D1*
X38427Y56338D1*
X38355Y56301D1*
X38427Y57083D2*
X38464Y57047D1*
X38501Y57083D1*
X38464Y57120D1*
X38427Y57083D1*
X37736Y57428D2*
Y57829D1*
X38027Y57610D1*
Y57720D1*
X38064Y57792D1*
X38100Y57829D1*
X38209Y57866D1*
X38282D1*
X38391Y57829D1*
X38464Y57756D1*
X38501Y57647D1*
Y57537D1*
X38464Y57428D1*
X38427Y57392D1*
X38355Y57355D1*
X37990Y58101D2*
X38501Y58320D1*
X37990Y58538D1*
X38782Y57309D2*
X39839Y57054D1*
X38782Y57528D2*
X39839Y57272D1*
X39201Y57054D2*
Y57564D1*
X39420Y57017D2*
Y57528D1*
X39110Y57836D2*
X39074D1*
X39001Y57872D1*
X38965Y57909D1*
X38928Y57982D1*
Y58128D1*
X38965Y58200D1*
X39001Y58236D1*
X39074Y58273D1*
X39147D1*
X39220Y58236D1*
X39328Y58164D1*
X39693Y57799D1*
Y58310D1*
Y58910D2*
X38928D1*
X39438Y58545D1*
Y59092D1*
X41117Y56653D2*
X40351D1*
X41117Y56361D1*
X40351Y56070D1*
X41117D1*
X40351Y57107D2*
X40388Y57034D1*
X40461Y56961D1*
X40533Y56924D1*
X40643Y56888D1*
X40826D1*
X40934Y56924D1*
X41007Y56961D1*
X41080Y57034D1*
X41117Y57107D1*
Y57253D1*
X41080Y57325D1*
X41007Y57399D1*
X40934Y57435D1*
X40826Y57471D1*
X40643D1*
X40533Y57435D1*
X40461Y57399D1*
X40388Y57325D1*
X40351Y57253D1*
Y57107D1*
X40461Y58217D2*
X40388Y58144D1*
X40351Y58035D1*
Y57889D1*
X40388Y57780D1*
X40461Y57706D1*
X40533D1*
X40607Y57743D1*
X40643Y57780D1*
X40679Y57852D1*
X40752Y58071D1*
X40788Y58144D1*
X40826Y58181D1*
X40898Y58217D1*
X41007D1*
X41080Y58144D1*
X41117Y58035D1*
Y57889D1*
X41080Y57780D1*
X41007Y57706D1*
X40351Y58452D2*
X41117D1*
X41628Y57582D2*
X41556Y57546D1*
X41482Y57472D1*
X41446Y57400D1*
Y57254D1*
X41482Y57181D1*
X41556Y57108D1*
X41628Y57071D1*
X41738Y57035D1*
X41920D1*
X42029Y57071D1*
X42102Y57108D1*
X42175Y57181D1*
X42212Y57254D1*
Y57400D1*
X42175Y57472D1*
X42102Y57546D1*
X42029Y57582D1*
X41920D1*
Y57400D1*
X41446Y58327D2*
X42212D1*
X41446Y57817D1*
X42212D1*
X41446Y58563D2*
X42212D1*
Y58818D1*
X42175Y58927D1*
X42102Y59001D1*
X42029Y59037D1*
X41920Y59073D1*
X41738D1*
X41628Y59037D1*
X41556Y59001D1*
X41482Y58927D1*
X41446Y58818D1*
Y58563D1*
X43656Y56653D2*
X42890D1*
X43656Y56361D1*
X42890Y56070D1*
X43656D1*
X42890Y56888D2*
X43656D1*
X43000Y57634D2*
X42927Y57561D1*
X42890Y57452D1*
Y57306D1*
X42927Y57197D1*
X43000Y57123D1*
X43072D1*
X43146Y57161D1*
X43182Y57197D1*
X43218Y57269D1*
X43291Y57488D1*
X43328Y57561D1*
X43365Y57598D1*
X43437Y57634D1*
X43547D1*
X43619Y57561D1*
X43656Y57452D1*
Y57306D1*
X43619Y57197D1*
X43547Y57123D1*
X42890Y58088D2*
X42927Y58015D1*
X43000Y57942D1*
X43072Y57905D1*
X43182Y57869D1*
X43365D1*
X43473Y57905D1*
X43547Y57942D1*
X43619Y58015D1*
X43656Y58088D1*
Y58234D1*
X43619Y58306D1*
X43547Y58380D1*
X43473Y58416D1*
X43365Y58452D1*
X43182D1*
X43072Y58416D1*
X43000Y58380D1*
X42927Y58306D1*
X42890Y58234D1*
Y58088D1*
X43840Y57168D2*
X44897Y56914D1*
X43840Y57387D2*
X44897Y57132D1*
X44259Y56914D2*
Y57423D1*
X44478Y56877D2*
Y57387D1*
X44168Y57696D2*
X44132D1*
X44059Y57732D1*
X44022Y57768D1*
X43986Y57841D1*
Y57987D1*
X44022Y58059D1*
X44059Y58096D1*
X44132Y58133D1*
X44204D1*
X44278Y58096D1*
X44386Y58023D1*
X44751Y57658D1*
Y58169D1*
X43986Y58841D2*
Y58477D1*
X44314Y58441D1*
X44278Y58477D1*
X44241Y58587D1*
Y58696D1*
X44278Y58805D1*
X44350Y58878D1*
X44460Y58915D1*
X44532D1*
X44641Y58878D1*
X44715Y58805D1*
X44751Y58696D1*
Y58587D1*
X44715Y58477D1*
X44678Y58441D1*
X44605Y58404D1*
X45560Y56983D2*
X45488Y56947D1*
X45414Y56874D1*
X45378Y56801D1*
Y56656D1*
X45414Y56582D1*
X45488Y56510D1*
X45560Y56473D1*
X45670Y56437D1*
X45852D1*
X45961Y56473D1*
X46034Y56510D1*
X46107Y56582D1*
X46144Y56656D1*
Y56801D1*
X46107Y56874D1*
X46034Y56947D1*
X45961Y56983D1*
X45378Y57219D2*
X46144D1*
Y57656D1*
X45378Y57891D2*
X46144D1*
X45378Y58401D2*
X45889Y57891D1*
X45706Y58073D2*
X46144Y58401D1*
X46691Y57601D2*
X46619Y57564D1*
X46545Y57491D1*
X46509Y57419D1*
Y57273D1*
X46545Y57200D1*
X46619Y57127D1*
X46691Y57090D1*
X46800Y57054D1*
X46983D1*
X47092Y57090D1*
X47165Y57127D1*
X47238Y57200D1*
X47275Y57273D1*
Y57419D1*
X47238Y57491D1*
X47165Y57564D1*
X47092Y57601D1*
X46509Y58309D2*
Y57836D1*
X47275D1*
Y58309D1*
X46874Y57836D2*
Y58127D1*
X46510Y58764D2*
X46546Y58654D1*
X46656Y58581D1*
X46838Y58545D1*
X46947D1*
X47129Y58581D1*
X47238Y58654D1*
X47275Y58764D1*
Y58836D1*
X47238Y58945D1*
X47129Y59018D1*
X46947Y59055D1*
X46838D1*
X46656Y59018D1*
X46546Y58945D1*
X46510Y58836D1*
Y58764D1*
X46656Y59018D2*
X47129Y58581D1*
X48140Y56947D2*
X48068Y56910D1*
X47995Y56837D1*
X47959Y56765D1*
Y56619D1*
X47995Y56546D1*
X48068Y56473D1*
X48140Y56436D1*
X48250Y56400D1*
X48433D1*
X48541Y56436D1*
X48615Y56473D1*
X48687Y56546D1*
X48724Y56619D1*
Y56765D1*
X48687Y56837D1*
X48615Y56910D1*
X48541Y56947D1*
X48433D1*
Y56765D1*
X47959Y57692D2*
X48724D1*
X47959Y57182D1*
X48724D1*
X47959Y57928D2*
X48724D1*
Y58183D1*
X48687Y58292D1*
X48615Y58366D1*
X48541Y58402D1*
X48433Y58438D1*
X48250D1*
X48140Y58402D1*
X48068Y58366D1*
X47995Y58292D1*
X47959Y58183D1*
Y57928D1*
X49225Y57764D2*
X49153Y57728D1*
X49079Y57655D1*
X49043Y57582D1*
Y57436D1*
X49079Y57363D1*
X49153Y57291D1*
X49225Y57254D1*
X49334Y57217D1*
X49517D1*
X49626Y57254D1*
X49699Y57291D1*
X49772Y57363D1*
X49809Y57436D1*
Y57582D1*
X49772Y57655D1*
X49699Y57728D1*
X49626Y57764D1*
X49043Y58473D2*
Y57999D1*
X49809D1*
Y58473D1*
X49408Y57999D2*
Y58291D1*
X49190Y58708D2*
X49153Y58781D1*
X49044Y58891D1*
X49809D1*
X50426Y55202D2*
X51191D1*
X50426Y55437D2*
X51191D1*
Y55693D1*
X51154Y55802D1*
X51082Y55875D1*
X51009Y55912D1*
X50900Y55948D1*
X50717D1*
X50608Y55912D1*
X50535Y55875D1*
X50462Y55802D1*
X50426Y55693D1*
Y55437D1*
X51318Y56183D2*
Y56875D1*
X50535Y57621D2*
X50462Y57549D1*
X50426Y57439D1*
Y57293D1*
X50462Y57184D1*
X50535Y57111D1*
X50608D1*
X50681Y57148D1*
X50717Y57184D1*
X50753Y57256D1*
X50827Y57475D1*
X50863Y57549D1*
X50900Y57585D1*
X50972Y57621D1*
X51082D1*
X51154Y57549D1*
X51191Y57439D1*
Y57293D1*
X51154Y57184D1*
X51082Y57111D1*
X50426Y57856D2*
X51191D1*
Y58112D1*
X51154Y58221D1*
X51082Y58294D1*
X51009Y58331D1*
X50900Y58367D1*
X50717D1*
X50608Y58331D1*
X50535Y58294D1*
X50462Y58221D1*
X50426Y58112D1*
Y57856D1*
X51711Y55660D2*
X52476D1*
X51711Y55895D2*
X52476D1*
Y56150D1*
X52439Y56260D1*
X52367Y56333D1*
X52294Y56369D1*
X52185Y56406D1*
X52002D1*
X51893Y56369D1*
X51820Y56333D1*
X51747Y56260D1*
X51711Y56150D1*
Y55895D1*
X52603Y56641D2*
Y57333D1*
X51820Y58079D2*
X51747Y58006D1*
X51711Y57897D1*
Y57751D1*
X51747Y57642D1*
X51820Y57568D1*
X51893D1*
X51966Y57606D1*
X52002Y57642D1*
X52038Y57714D1*
X52112Y57933D1*
X52148Y58006D1*
X52185Y58043D1*
X52257Y58079D1*
X52367D1*
X52439Y58006D1*
X52476Y57897D1*
Y57751D1*
X52439Y57642D1*
X52367Y57568D1*
X51893Y58861D2*
X51820Y58825D1*
X51747Y58751D1*
X51711Y58679D1*
Y58533D1*
X51747Y58460D1*
X51820Y58387D1*
X51893Y58350D1*
X52002Y58314D1*
X52185D1*
X52294Y58350D1*
X52367Y58387D1*
X52439Y58460D1*
X52476Y58533D1*
Y58679D1*
X52439Y58751D1*
X52367Y58825D1*
X52294Y58861D1*
X52835Y57382D2*
X53892Y57128D1*
X52835Y57601D2*
X53892Y57346D1*
X53254Y57128D2*
Y57637D1*
X53473Y57091D2*
Y57601D1*
X52981Y58310D2*
Y57946D1*
X53309Y57910D1*
X53273Y57946D1*
X53236Y58055D1*
Y58164D1*
X53273Y58273D1*
X53345Y58347D1*
X53455Y58383D1*
X53527D1*
X53636Y58347D1*
X53710Y58273D1*
X53746Y58164D1*
Y58055D1*
X53710Y57946D1*
X53673Y57910D1*
X53600Y57873D1*
X54170Y57423D2*
X54097Y57387D1*
X54024Y57314D1*
X53988Y57241D1*
Y57096D1*
X54024Y57022D1*
X54097Y56950D1*
X54170Y56913D1*
X54279Y56877D1*
X54462D1*
X54571Y56913D1*
X54644Y56950D1*
X54716Y57022D1*
X54753Y57096D1*
Y57241D1*
X54716Y57314D1*
X54644Y57387D1*
X54571Y57423D1*
X54462D1*
Y57241D1*
X53988Y58169D2*
X54753D1*
X53988Y57658D1*
X54753D1*
X53988Y58404D2*
X54753D1*
Y58659D1*
X54716Y58769D1*
X54644Y58842D1*
X54571Y58878D1*
X54462Y58915D1*
X54279D1*
X54170Y58878D1*
X54097Y58842D1*
X54024Y58769D1*
X53988Y58659D1*
Y58404D1*
X55359Y57242D2*
X56416Y56988D1*
X55359Y57461D2*
X56416Y57206D1*
X55778Y56988D2*
Y57498D1*
X55997Y56951D2*
Y57461D1*
X55614Y58170D2*
X55541Y58134D1*
X55505Y58024D1*
Y57952D1*
X55541Y57842D1*
X55651Y57769D1*
X55833Y57733D1*
X56014D1*
X56160Y57769D1*
X56233Y57842D1*
X56270Y57952D1*
Y57988D1*
X56233Y58097D1*
X56160Y58170D1*
X56051Y58206D1*
X56014D1*
X55905Y58170D1*
X55833Y58097D1*
X55796Y57988D1*
Y57952D1*
X55833Y57842D1*
X55905Y57769D1*
X56014Y57733D1*
X56376Y57491D2*
X57434Y57237D1*
X56376Y57710D2*
X57434Y57455D1*
X56795Y57237D2*
Y57746D1*
X57014Y57200D2*
Y57710D1*
X56668Y57982D2*
X56631Y58055D1*
X56523Y58164D1*
X57287D1*
X56705Y58437D2*
X56668D1*
X56595Y58473D1*
X56559Y58509D1*
X56523Y58582D1*
Y58728D1*
X56559Y58801D1*
X56595Y58837D1*
X56668Y58874D1*
X56741D1*
X56814Y58837D1*
X56923Y58764D1*
X57287Y58400D1*
Y58910D1*
X58124Y56856D2*
X59181Y56601D1*
X58124Y57075D2*
X59181Y56820D1*
X58543Y56601D2*
Y57111D1*
X58762Y56564D2*
Y57075D1*
X58416Y57346D2*
X58379Y57420D1*
X58270Y57529D1*
X59035D1*
X58270Y57838D2*
Y58238D1*
X58562Y58020D1*
Y58129D1*
X58598Y58202D1*
X58634Y58238D1*
X58744Y58275D1*
X58816D1*
X58926Y58238D1*
X58999Y58165D1*
X59035Y58056D1*
Y57946D1*
X58999Y57838D1*
X58962Y57802D1*
X58889Y57764D1*
X59407Y57423D2*
X59335Y57387D1*
X59262Y57314D1*
X59225Y57241D1*
Y57096D1*
X59262Y57022D1*
X59335Y56950D1*
X59407Y56913D1*
X59517Y56877D1*
X59700D1*
X59808Y56913D1*
X59882Y56950D1*
X59954Y57022D1*
X59991Y57096D1*
Y57241D1*
X59954Y57314D1*
X59882Y57387D1*
X59808Y57423D1*
X59700D1*
Y57241D1*
X59225Y58169D2*
X59991D1*
X59225Y57658D1*
X59991D1*
X59225Y58404D2*
X59991D1*
Y58659D1*
X59954Y58769D1*
X59882Y58842D1*
X59808Y58878D1*
X59700Y58915D1*
X59517D1*
X59407Y58878D1*
X59335Y58842D1*
X59262Y58769D1*
X59225Y58659D1*
Y58404D1*
X60648Y56874D2*
X61705Y56619D1*
X60648Y57093D2*
X61705Y56837D1*
X61067Y56619D2*
Y57129D1*
X61286Y56582D2*
Y57093D1*
X60940Y57364D2*
X60903Y57437D1*
X60794Y57547D1*
X61559D1*
X61048Y58256D2*
X61158Y58219D1*
X61231Y58147D1*
X61267Y58037D1*
Y58001D1*
X61231Y57892D1*
X61158Y57819D1*
X61048Y57782D1*
X61012D1*
X60903Y57819D1*
X60830Y57892D1*
X60794Y58001D1*
Y58037D1*
X60830Y58147D1*
X60903Y58219D1*
X61048Y58256D1*
X61231D1*
X61413Y58219D1*
X61523Y58147D1*
X61559Y58037D1*
Y57965D1*
X61523Y57856D1*
X61449Y57819D1*
X61758Y57509D2*
X62815Y57254D1*
X61758Y57728D2*
X62815Y57473D1*
X62177Y57254D2*
Y57764D1*
X62396Y57217D2*
Y57728D1*
X62050Y57999D2*
X62013Y58073D1*
X61904Y58182D1*
X62669D1*
X62013Y58855D2*
X61940Y58818D1*
X61904Y58709D1*
Y58636D1*
X61940Y58527D1*
X62050Y58454D1*
X62232Y58417D1*
X62414D1*
X62559Y58454D1*
X62633Y58527D1*
X62669Y58636D1*
Y58673D1*
X62633Y58781D1*
X62559Y58855D1*
X62450Y58891D1*
X62414D1*
X62304Y58855D1*
X62232Y58781D1*
X62196Y58673D1*
Y58636D1*
X62232Y58527D1*
X62304Y58454D1*
X62414Y58417D1*
X63192Y56552D2*
X64249Y56297D1*
X63192Y56771D2*
X64249Y56515D1*
X63611Y56297D2*
Y56807D1*
X63830Y56260D2*
Y56771D1*
X63520Y57079D2*
X63484D1*
X63411Y57115D1*
X63374Y57152D1*
X63338Y57225D1*
Y57371D1*
X63374Y57443D1*
X63411Y57479D1*
X63484Y57516D1*
X63556D1*
X63630Y57479D1*
X63738Y57407D1*
X64103Y57042D1*
Y57553D1*
X63447Y58225D2*
X63374Y58189D1*
X63338Y58079D1*
Y58007D1*
X63374Y57897D1*
X63484Y57824D1*
X63666Y57788D1*
X63848D1*
X63994Y57824D1*
X64067Y57897D1*
X64103Y58007D1*
Y58043D1*
X64067Y58152D1*
X63994Y58225D1*
X63884Y58261D1*
X63848D1*
X63738Y58225D1*
X63666Y58152D1*
X63630Y58043D1*
Y58007D1*
X63666Y57897D1*
X63738Y57824D1*
X63848Y57788D1*
X64323Y57168D2*
X65380Y56914D1*
X64323Y57387D2*
X65380Y57132D1*
X64742Y56914D2*
Y57423D1*
X64961Y56877D2*
Y57387D1*
X64651Y57696D2*
X64615D1*
X64541Y57732D1*
X64505Y57768D1*
X64469Y57841D1*
Y57987D1*
X64505Y58059D1*
X64541Y58096D1*
X64615Y58133D1*
X64687D1*
X64760Y58096D1*
X64869Y58023D1*
X65234Y57658D1*
Y58169D1*
X64469Y58623D2*
X64505Y58514D1*
X64615Y58440D1*
X64797Y58404D1*
X64906D1*
X65088Y58440D1*
X65198Y58514D1*
X65234Y58623D1*
Y58696D1*
X65198Y58805D1*
X65088Y58878D1*
X64906Y58915D1*
X64797D1*
X64615Y58878D1*
X64505Y58805D1*
X64469Y58696D1*
Y58623D1*
X64615Y58878D2*
X65088Y58440D1*
X66079Y56630D2*
X66007Y56593D1*
X65933Y56520D1*
X65897Y56448D1*
Y56302D1*
X65933Y56229D1*
X66007Y56156D1*
X66079Y56119D1*
X66189Y56083D1*
X66371D1*
X66480Y56119D1*
X66553Y56156D1*
X66626Y56229D1*
X66663Y56302D1*
Y56448D1*
X66626Y56520D1*
X66553Y56593D1*
X66480Y56630D1*
X66371D1*
Y56448D1*
X65897Y57375D2*
X66663D1*
X65897Y56865D1*
X66663D1*
X65897Y57611D2*
X66663D1*
Y57866D1*
X66626Y57975D1*
X66553Y58049D1*
X66480Y58085D1*
X66371Y58121D1*
X66189D1*
X66079Y58085D1*
X66007Y58049D1*
X65933Y57975D1*
X65897Y57866D1*
Y57611D1*
X66857Y57491D2*
X67914Y57237D1*
X66857Y57710D2*
X67914Y57455D1*
X67276Y57237D2*
Y57746D1*
X67495Y57200D2*
Y57710D1*
X67185Y58019D2*
X67149D1*
X67075Y58055D1*
X67039Y58091D1*
X67003Y58164D1*
Y58310D1*
X67039Y58382D1*
X67075Y58419D1*
X67149Y58456D1*
X67221D1*
X67294Y58419D1*
X67403Y58346D1*
X67768Y57981D1*
Y58492D1*
X67149Y58727D2*
X67112Y58801D1*
X67003Y58910D1*
X67768D1*
X18344Y27413D2*
X17688D1*
X18016Y27741D2*
Y27085D1*
X18253Y26850D2*
X18290Y26776D1*
X18399Y26667D1*
X17634D1*
X18217Y26394D2*
X18253D1*
X18326Y26358D1*
X18362Y26322D1*
X18399Y26249D1*
Y26103D1*
X18362Y26031D1*
X18326Y25994D1*
X18253Y25957D1*
X18180D1*
X18107Y25994D1*
X17998Y26067D1*
X17634Y26432D1*
Y25921D1*
X18144Y25686D2*
X17634Y25467D1*
X18144Y25249D1*
X18183Y23328D2*
X18255Y23365D1*
X18329Y23438D1*
X18365Y23510D1*
Y23656D1*
X18329Y23729D1*
X18255Y23802D1*
X18183Y23839D1*
X18073Y23875D1*
X17891D1*
X17782Y23839D1*
X17709Y23802D1*
X17636Y23729D1*
X17599Y23656D1*
Y23510D1*
X17636Y23438D1*
X17709Y23365D1*
X17782Y23328D1*
X17891D1*
Y23510D1*
X18365Y22583D2*
X17599D1*
X18365Y23093D1*
X17599D1*
X18365Y22347D2*
X17599D1*
Y22092D1*
X17636Y21983D1*
X17709Y21909D1*
X17782Y21873D1*
X17891Y21837D1*
X18073D1*
X18183Y21873D1*
X18255Y21909D1*
X18329Y21983D1*
X18365Y22092D1*
Y22347D1*
X72274Y29434D2*
Y28777D1*
X71946Y29105D2*
X72602D1*
X73275Y29488D2*
X72911D1*
X72875Y29160D1*
X72911Y29196D1*
X73020Y29234D1*
X73129D1*
X73239Y29196D1*
X73312Y29124D1*
X73348Y29015D1*
Y28942D1*
X73312Y28833D1*
X73239Y28759D1*
X73129Y28723D1*
X73020D1*
X72911Y28759D1*
X72875Y28796D1*
X72838Y28869D1*
X73583Y29234D2*
X73802Y28723D1*
X74021Y29234D1*
X72898Y26181D2*
D12*
X72849Y26157D1*
X72801Y26108D1*
X72776Y26059D1*
X72752Y25986D1*
Y25865D1*
X72776Y25792D1*
X72801Y25743D1*
X72849Y25695D1*
X72898Y25670D1*
X72995D1*
X73043Y25695D1*
X73092Y25743D1*
X73116Y25792D1*
X73140Y25865D1*
Y25986D1*
X73116Y26059D1*
X73092Y26108D1*
X73043Y26157D1*
X72995Y26181D1*
X72898D1*
X73297D2*
Y25816D1*
X73321Y25743D1*
X73370Y25695D1*
X73443Y25670D1*
X73492D1*
X73565Y25695D1*
X73613Y25743D1*
X73638Y25816D1*
Y26181D1*
X73965D2*
Y25670D1*
X73794Y26181D2*
X74135D1*
X71946Y26791D2*
D82*
X72237Y26025D1*
X72529Y26791D1*
X72482Y24179D2*
X72445Y24251D1*
X72372Y24324D1*
X72300Y24361D1*
X72154D1*
X72081Y24324D1*
X72008Y24251D1*
X71971Y24179D1*
X71935Y24069D1*
Y23886D1*
X71971Y23778D1*
X72008Y23705D1*
X72081Y23632D1*
X72154Y23595D1*
X72300D1*
X72372Y23632D1*
X72445Y23705D1*
X72482Y23778D1*
Y23886D1*
X72300D1*
X73227Y24361D2*
Y23595D1*
X72717Y24361D1*
Y23595D1*
X73463Y24361D2*
Y23595D1*
X73718D1*
X73827Y23632D1*
X73901Y23705D1*
X73937Y23778D1*
X73973Y23886D1*
Y24069D1*
X73937Y24179D1*
X73901Y24251D1*
X73827Y24324D1*
X73718Y24361D1*
X73463D1*
X72460Y21686D2*
X72387Y21759D1*
X72278Y21795D1*
X72132D1*
X72023Y21759D1*
X71949Y21686D1*
Y21614D1*
X71987Y21540D1*
X72023Y21504D1*
X72095Y21468D1*
X72314Y21395D1*
X72387Y21358D1*
X72424Y21321D1*
X72460Y21249D1*
Y21139D1*
X72387Y21067D1*
X72278Y21030D1*
X72132D1*
X72023Y21067D1*
X71949Y21139D1*
X72695Y21795D2*
Y21030D1*
X72950D1*
X73060Y21067D1*
X73133Y21139D1*
X73169Y21213D1*
X73206Y21321D1*
Y21504D1*
X73169Y21614D1*
X73133Y21686D1*
X73060Y21759D1*
X72950Y21795D1*
X72695D1*
X73660D2*
X73587Y21759D1*
X73514Y21686D1*
X73477Y21614D1*
X73441Y21504D1*
Y21321D1*
X73477Y21213D1*
X73514Y21139D1*
X73587Y21067D1*
X73660Y21030D1*
X73806D1*
X73878Y21067D1*
X73951Y21139D1*
X73988Y21213D1*
X74024Y21321D1*
Y21504D1*
X73988Y21614D1*
X73951Y21686D1*
X73878Y21759D1*
X73806Y21795D1*
X73660D1*
X72513Y19126D2*
X72477Y19199D1*
X72403Y19272D1*
X72331Y19308D1*
X72185D1*
X72112Y19272D1*
X72040Y19199D1*
X72003Y19126D1*
X71966Y19017D1*
Y18834D1*
X72003Y18726D1*
X72040Y18652D1*
X72112Y18580D1*
X72185Y18543D1*
X72331D1*
X72403Y18580D1*
X72477Y18652D1*
X72513Y18726D1*
X72748Y19308D2*
Y18543D1*
X73185D1*
X73421Y19308D2*
Y18543D1*
X73931Y19308D2*
X73421Y18798D1*
X73603Y18981D2*
X73931Y18543D1*
M02*
