G04 DipTrace 2.4.0.1*
%INTopSilk.gbr*%
%MOMM*%
%ADD10C,0.25*%
%ADD12C,0.076*%
%ADD74C,0.196*%
%ADD75C,0.118*%
%ADD76C,0.157*%
%ADD77C,0.235*%
%FSLAX53Y53*%
G04*
G71*
G90*
G75*
G01*
%LNTopSilk*%
%LPD*%
X20710Y25991D2*
D10*
X20705Y34145D1*
X20710Y32051D2*
X37718D1*
Y28090D1*
X20710D1*
Y32051D1*
X24206Y28050D2*
X26208Y30051D1*
X37720Y34041D2*
Y25991D1*
X20710Y34181D2*
G02X22178Y34795I839J57D01*
G01*
X23277D2*
G02X23777Y35075I569J-429D01*
G01*
X22178Y34795D2*
G03X23277Y34795I550J216D01*
G01*
X20710Y26061D2*
G03X22160Y25358I822J-151D01*
G01*
X23262D2*
G03X23759Y25077I568J426D01*
G01*
X22160Y25358D2*
G02X23262Y25358I551J-218D01*
G01*
X36739Y35091D2*
X23788D1*
X36807Y25080D2*
X23788D1*
X36687Y35075D2*
G02X37720Y34041I23J-1011D01*
G01*
X36739Y25077D2*
G03X37736Y26077I29J968D01*
G01*
X26208Y30051D2*
X24206Y32051D1*
X31348Y28050D2*
X33350Y30051D1*
X31348Y32051D1*
X20707Y30751D2*
X23649D1*
Y29350D1*
X20707D1*
Y30751D1*
X27208D2*
X30508D1*
Y29350D1*
X27208D1*
Y30751D1*
X19004Y30476D2*
Y29206D1*
X34208Y30751D2*
X37579D1*
Y29350D1*
X34208D1*
Y30751D1*
X19637Y29841D2*
X18368D1*
X39958D2*
X38689D1*
X20569Y36736D2*
X20566Y44891D1*
X20569Y42796D2*
X41569D1*
Y38795D1*
X20569D1*
Y42796D1*
X24067Y38795D2*
X26067Y40796D1*
X41569Y44786D2*
Y36736D1*
X20569Y44926D2*
G02X22038Y45540I839J56D01*
G01*
X23139D2*
G02X23636Y45820I561J-414D01*
G01*
X22038Y45540D2*
G03X23139Y45540I550J217D01*
G01*
X20569Y36806D2*
G03X22020Y36102I823J-150D01*
G01*
X23120D2*
G03X23618Y35822I573J434D01*
G01*
X22020Y36102D2*
G02X23120Y36102I550J-216D01*
G01*
X40517Y45836D2*
X23648D1*
X40589Y35825D2*
X23648D1*
X40538Y45820D2*
G02X41569Y44786I21J-1010D01*
G01*
X40589Y35822D2*
G03X41587Y36822I29J969D01*
G01*
X26067Y40796D2*
X24067Y42796D1*
X31209Y38795D2*
X33209Y40796D1*
X31209Y42796D1*
X38348Y38795D2*
X40348Y40796D1*
X38348Y42796D1*
X31068Y40796D2*
X29819Y42046D1*
X31068Y40796D2*
X29819Y39545D1*
Y42046D2*
Y41546D1*
X27569D1*
Y40045D1*
X29819D2*
Y39545D1*
Y40045D2*
X27569D1*
X28567Y40896D2*
X29569D1*
Y40695D1*
X28567D1*
Y40896D1*
X23929Y40796D2*
X22677Y42046D1*
X23929Y40796D2*
X22677Y39545D1*
Y42046D2*
Y41546D1*
X20569D1*
X19004Y41431D2*
Y40160D1*
X22677Y40045D2*
Y39545D1*
Y40045D2*
X20569D1*
X21428Y40896D2*
X22427D1*
Y40695D1*
X21428D1*
Y40896D1*
X38137Y40796D2*
X36888Y42046D1*
X38137Y40796D2*
X36888Y39545D1*
Y42046D2*
Y41546D1*
X34639D1*
Y40045D1*
X36888D2*
Y39545D1*
Y40045D2*
X34639D1*
X35637Y40896D2*
X36638D1*
Y40695D1*
X35637D1*
Y40896D1*
X19637Y40796D2*
X18367D1*
X43768D2*
X42498D1*
X57053Y26498D2*
Y16894D1*
X62653Y26498D2*
Y16894D1*
X57053Y26498D2*
X62653D1*
X57053Y17602D2*
Y16807D1*
X62653D1*
Y17602D1*
Y25502D2*
X57053D1*
X15953Y52040D2*
X12147D1*
X15961Y52046D2*
G03X12139Y52046I-1911J2535D01*
G01*
X16795Y65002D2*
X68195D1*
Y60002D1*
X16795D1*
Y65002D1*
X10050Y28180D2*
X17050D1*
Y21180D1*
X10050D1*
Y28180D1*
X38800Y27930D2*
X52000D1*
Y9930D1*
X38800D1*
Y27930D1*
X67118Y20210D2*
X66102D1*
X67118Y27830D2*
X66102D1*
X65340Y20842D2*
Y27198D1*
X67880Y20842D2*
Y27198D1*
X67245Y20210D2*
X67880Y20842D1*
X65975Y20210D2*
X65340Y20842D1*
Y27198D2*
X65975Y27830D1*
X67880Y27198D2*
X67245Y27830D1*
X67880Y11595D2*
Y15405D1*
X67245Y16040D1*
X65975D1*
X65340Y15405D2*
X65975Y16040D1*
X65340Y11595D2*
Y15405D1*
X65975Y10960D2*
X65340Y11595D1*
X67245Y10960D2*
X65975D1*
X67245D2*
X67880Y11595D1*
X46104Y44955D2*
G02X46104Y44955I10922J0D01*
G01*
X53026D2*
G02X53026Y44955I4000J0D01*
G01*
X74461Y58979D2*
X69961D1*
Y48979D1*
X74461D1*
Y58979D1*
X73561D2*
Y48979D1*
X20415Y47710D2*
X15345D1*
Y50250D2*
Y47710D1*
X20415Y50250D2*
X15345D1*
X20415D2*
Y47710D1*
X17484Y20187D2*
X36784D1*
Y10027D1*
X17484D1*
Y20187D1*
X25350Y53880D2*
X44950D1*
Y48680D2*
Y53880D1*
X25350Y48680D2*
X44950D1*
X25350D2*
Y50680D1*
Y53880D2*
Y51880D1*
Y50680D2*
G03X25350Y51880I0J600D01*
G01*
X74060Y44720D2*
Y34120D1*
X74560Y44720D2*
Y34120D1*
X69660Y44720D2*
Y34120D1*
Y44720D2*
X74560D1*
X69660Y34120D2*
X74560D1*
G36*
X64740Y27250D2*
X65060D1*
Y23600D1*
X64740D1*
Y27250D1*
G37*
G36*
X68130Y24440D2*
X68450D1*
Y20790D1*
X68130D1*
Y24440D1*
G37*
X17838Y32202D2*
D74*
X17778Y32323D1*
X17655Y32445D1*
X17535Y32505D1*
X17292D1*
X17170Y32445D1*
X17049Y32323D1*
X16987Y32202D1*
X16927Y32020D1*
Y31715D1*
X16987Y31534D1*
X17049Y31412D1*
X17170Y31291D1*
X17292Y31229D1*
X17535D1*
X17655Y31291D1*
X17778Y31412D1*
X17838Y31534D1*
X18230Y32261D2*
X18352Y32323D1*
X18535Y32504D1*
Y31229D1*
X26328Y26940D2*
X26450Y27001D1*
X26632Y27182D1*
Y25908D1*
X27390Y27182D2*
X27207Y27122D1*
X27085Y26940D1*
X27025Y26636D1*
Y26454D1*
X27085Y26151D1*
X27207Y25968D1*
X27390Y25908D1*
X27510D1*
X27693Y25968D1*
X27814Y26151D1*
X27875Y26454D1*
Y26636D1*
X27814Y26940D1*
X27693Y27122D1*
X27510Y27182D1*
X27390D1*
X27814Y26940D2*
X27085Y26151D1*
X28632Y27182D2*
X28450Y27122D1*
X28328Y26940D1*
X28267Y26636D1*
Y26454D1*
X28328Y26151D1*
X28450Y25968D1*
X28632Y25908D1*
X28753D1*
X28936Y25968D1*
X29056Y26151D1*
X29118Y26454D1*
Y26636D1*
X29056Y26940D1*
X28936Y27122D1*
X28753Y27182D1*
X28632D1*
X29056Y26940D2*
X28328Y26151D1*
X29510Y26758D2*
Y26151D1*
X29571Y25970D1*
X29693Y25908D1*
X29875D1*
X29996Y25970D1*
X30179Y26151D1*
Y26758D2*
Y25908D1*
X31361Y27184D2*
X30571D1*
Y25908D1*
Y26576D2*
X31056D1*
X17655Y43265D2*
X17594Y43386D1*
X17472Y43508D1*
X17351Y43568D1*
X17109D1*
X16986Y43508D1*
X16866Y43386D1*
X16804Y43265D1*
X16744Y43082D1*
Y42778D1*
X16804Y42597D1*
X16866Y42475D1*
X16986Y42354D1*
X17109Y42292D1*
X17351D1*
X17472Y42354D1*
X17594Y42475D1*
X17655Y42597D1*
X18109Y43264D2*
Y43324D1*
X18169Y43446D1*
X18229Y43506D1*
X18351Y43567D1*
X18594D1*
X18715Y43506D1*
X18775Y43446D1*
X18837Y43324D1*
Y43203D1*
X18775Y43081D1*
X18655Y42900D1*
X18047Y42292D1*
X18898D1*
X27543Y37684D2*
X27665Y37746D1*
X27847Y37927D1*
Y36652D1*
X28604Y37927D2*
X28422Y37867D1*
X28300Y37684D1*
X28239Y37381D1*
Y37198D1*
X28300Y36895D1*
X28422Y36713D1*
X28604Y36652D1*
X28725D1*
X28908Y36713D1*
X29028Y36895D1*
X29090Y37198D1*
Y37381D1*
X29028Y37684D1*
X28908Y37867D1*
X28725Y37927D1*
X28604D1*
X29028Y37684D2*
X28300Y36895D1*
X29847Y37927D2*
X29665Y37867D1*
X29543Y37684D1*
X29482Y37381D1*
Y37198D1*
X29543Y36895D1*
X29665Y36713D1*
X29847Y36652D1*
X29968D1*
X30150Y36713D1*
X30271Y36895D1*
X30333Y37198D1*
Y37381D1*
X30271Y37684D1*
X30150Y37867D1*
X29968Y37927D1*
X29847D1*
X30271Y37684D2*
X29543Y36895D1*
X31090Y37927D2*
X30908Y37867D1*
X30785Y37684D1*
X30725Y37381D1*
Y37198D1*
X30785Y36895D1*
X30908Y36713D1*
X31090Y36652D1*
X31211D1*
X31393Y36713D1*
X31514Y36895D1*
X31576Y37198D1*
Y37381D1*
X31514Y37684D1*
X31393Y37867D1*
X31211Y37927D1*
X31090D1*
X31514Y37684D2*
X30785Y36895D1*
X31968Y37503D2*
Y36895D1*
X32028Y36714D1*
X32151Y36652D1*
X32333D1*
X32454Y36714D1*
X32636Y36895D1*
Y37503D2*
Y36652D1*
X33819Y37928D2*
X33028D1*
Y36652D1*
Y37320D2*
X33514D1*
X56409Y31484D2*
Y30208D1*
X56834D1*
X57017Y30270D1*
X57139Y30391D1*
X57199Y30513D1*
X57259Y30694D1*
Y30998D1*
X57199Y31181D1*
X57139Y31302D1*
X57017Y31424D1*
X56834Y31484D1*
X56409D1*
X57652Y31240D2*
X57774Y31302D1*
X57956Y31483D1*
Y30208D1*
X11071Y27129D2*
Y26157D1*
X11011Y25975D1*
X10949Y25914D1*
X10828Y25853D1*
X10706D1*
X10585Y25914D1*
X10525Y25975D1*
X10463Y26157D1*
Y26278D1*
X11525Y26824D2*
Y26884D1*
X11585Y27006D1*
X11646Y27067D1*
X11768Y27127D1*
X12011D1*
X12132Y27067D1*
X12192Y27006D1*
X12254Y26884D1*
Y26764D1*
X12192Y26641D1*
X12071Y26460D1*
X11463Y25853D1*
X12314D1*
X41132Y24780D2*
Y23809D1*
X41072Y23626D1*
X41010Y23566D1*
X40889Y23504D1*
X40767D1*
X40647Y23566D1*
X40586Y23626D1*
X40524Y23809D1*
Y23929D1*
X41647Y24779D2*
X42313D1*
X41950Y24293D1*
X42132D1*
X42253Y24233D1*
X42313Y24172D1*
X42375Y23990D1*
Y23869D1*
X42313Y23687D1*
X42193Y23564D1*
X42010Y23504D1*
X41828D1*
X41647Y23564D1*
X41586Y23626D1*
X41524Y23747D1*
X64252Y55355D2*
Y54079D1*
X64980D1*
X65372Y55111D2*
X65495Y55173D1*
X65677Y55354D1*
Y54079D1*
X54021Y38439D2*
X54143Y38500D1*
X54325Y38681D1*
Y37407D1*
X55082Y38681D2*
X54900Y38621D1*
X54778Y38439D1*
X54717Y38135D1*
Y37953D1*
X54778Y37650D1*
X54900Y37467D1*
X55082Y37407D1*
X55203D1*
X55386Y37467D1*
X55506Y37650D1*
X55568Y37953D1*
Y38135D1*
X55506Y38439D1*
X55386Y38621D1*
X55203Y38681D1*
X55082D1*
X55506Y38439D2*
X54778Y37650D1*
X56325Y38681D2*
X56143Y38621D1*
X56021Y38439D1*
X55960Y38135D1*
Y37953D1*
X56021Y37650D1*
X56143Y37467D1*
X56325Y37407D1*
X56446D1*
X56629Y37467D1*
X56749Y37650D1*
X56811Y37953D1*
Y38135D1*
X56749Y38439D1*
X56629Y38621D1*
X56446Y38681D1*
X56325D1*
X56749Y38439D2*
X56021Y37650D1*
X58438Y38257D2*
Y37650D1*
X58498Y37468D1*
X58620Y37407D1*
X58803D1*
X58923Y37468D1*
X59106Y37650D1*
Y38257D2*
Y37407D1*
X59498Y38683D2*
Y37407D1*
X60349Y38683D2*
Y37407D1*
X59498Y38075D2*
X60349D1*
X18771Y51607D2*
X19317D1*
X19499Y51669D1*
X19561Y51729D1*
X19622Y51850D1*
Y51972D1*
X19561Y52093D1*
X19499Y52154D1*
X19317Y52215D1*
X18771D1*
Y50939D1*
X19196Y51607D2*
X19622Y50939D1*
X20014Y51971D2*
X20136Y52032D1*
X20318Y52213D1*
Y50939D1*
X16493Y49659D2*
X17159D1*
X16796Y49174D1*
X16978D1*
X17099Y49113D1*
X17159Y49053D1*
X17221Y48870D1*
Y48750D1*
X17159Y48567D1*
X17039Y48445D1*
X16856Y48385D1*
X16674D1*
X16493Y48445D1*
X16432Y48507D1*
X16371Y48628D1*
X17978Y49659D2*
X17796Y49599D1*
X17674Y49416D1*
X17613Y49113D1*
Y48931D1*
X17674Y48628D1*
X17796Y48445D1*
X17978Y48385D1*
X18099D1*
X18282Y48445D1*
X18402Y48628D1*
X18464Y48931D1*
Y49113D1*
X18402Y49416D1*
X18282Y49599D1*
X18099Y49659D1*
X17978D1*
X18402Y49416D2*
X17674Y48628D1*
X19221Y49659D2*
X19039Y49599D1*
X18917Y49416D1*
X18856Y49113D1*
Y48931D1*
X18917Y48628D1*
X19039Y48445D1*
X19221Y48385D1*
X19342D1*
X19525Y48445D1*
X19645Y48628D1*
X19707Y48931D1*
Y49113D1*
X19645Y49416D1*
X19525Y49599D1*
X19342Y49659D1*
X19221D1*
X19645Y49416D2*
X18917Y48628D1*
X19406Y17069D2*
X19285Y17191D1*
X19103Y17252D1*
X18860D1*
X18677Y17191D1*
X18555Y17069D1*
Y16948D1*
X18617Y16826D1*
X18677Y16766D1*
X18798Y16706D1*
X19163Y16583D1*
X19285Y16523D1*
X19346Y16461D1*
X19406Y16341D1*
Y16158D1*
X19285Y16037D1*
X19103Y15976D1*
X18860D1*
X18677Y16037D1*
X18555Y16158D1*
X19798Y17007D2*
X19920Y17069D1*
X20103Y17250D1*
Y15976D1*
X28636Y51791D2*
X28515Y51914D1*
X28333Y51974D1*
X28090D1*
X27908Y51914D1*
X27785Y51791D1*
Y51671D1*
X27847Y51549D1*
X27908Y51488D1*
X28028Y51428D1*
X28393Y51306D1*
X28515Y51245D1*
X28576Y51184D1*
X28636Y51063D1*
Y50880D1*
X28515Y50760D1*
X28333Y50698D1*
X28090D1*
X27908Y50760D1*
X27785Y50880D1*
X29879Y51974D2*
Y50698D1*
X29028Y51974D1*
Y50698D1*
X30514D2*
X31122Y51972D1*
X30271D1*
X32122Y50698D2*
Y51972D1*
X31514Y51123D1*
X32425D1*
X33121Y51972D2*
X32939Y51912D1*
X32878Y51791D1*
Y51669D1*
X32939Y51549D1*
X33060Y51487D1*
X33303Y51426D1*
X33486Y51366D1*
X33606Y51244D1*
X33667Y51123D1*
Y50941D1*
X33606Y50820D1*
X33546Y50758D1*
X33363Y50698D1*
X33121D1*
X32939Y50758D1*
X32878Y50820D1*
X32817Y50941D1*
Y51123D1*
X32878Y51244D1*
X33000Y51366D1*
X33181Y51426D1*
X33424Y51487D1*
X33546Y51549D1*
X33606Y51669D1*
Y51791D1*
X33546Y51912D1*
X33363Y51972D1*
X33121D1*
X34787Y51791D2*
X34727Y51912D1*
X34545Y51972D1*
X34424D1*
X34241Y51912D1*
X34119Y51730D1*
X34059Y51426D1*
Y51123D1*
X34119Y50880D1*
X34241Y50758D1*
X34424Y50698D1*
X34484D1*
X34665Y50758D1*
X34787Y50880D1*
X34848Y51063D1*
Y51123D1*
X34787Y51306D1*
X34665Y51426D1*
X34484Y51487D1*
X34424D1*
X34241Y51426D1*
X34119Y51306D1*
X34059Y51123D1*
X36091Y51974D2*
Y50698D1*
X35240Y51974D1*
Y50698D1*
X68682Y22003D2*
D12*
X69119D1*
X68901Y21784D2*
Y22222D1*
X68743Y22378D2*
X68718Y22427D1*
X68646Y22500D1*
X69156D1*
X68767Y22682D2*
X68743D1*
X68694Y22706D1*
X68670Y22730D1*
X68646Y22779D1*
Y22876D1*
X68670Y22924D1*
X68694Y22949D1*
X68743Y22973D1*
X68791D1*
X68840Y22949D1*
X68912Y22900D1*
X69156Y22657D1*
Y22997D1*
X68815Y23154D2*
X69156Y23300D1*
X68815Y23446D1*
X64052Y24765D2*
X64489D1*
X64271Y24547D2*
Y24984D1*
X64015Y25432D2*
Y25190D1*
X64234Y25166D1*
X64210Y25190D1*
X64185Y25263D1*
Y25335D1*
X64210Y25408D1*
X64258Y25457D1*
X64331Y25481D1*
X64379D1*
X64452Y25457D1*
X64501Y25408D1*
X64525Y25335D1*
Y25263D1*
X64501Y25190D1*
X64476Y25166D1*
X64428Y25141D1*
X64185Y25638D2*
X64525Y25784D1*
X64185Y25929D1*
X62881Y10865D2*
X63270D1*
X63343Y10841D1*
X63367Y10816D1*
X63392Y10768D1*
Y10719D1*
X63367Y10671D1*
X63343Y10647D1*
X63270Y10622D1*
X63222D1*
X62881Y11022D2*
X63246D1*
X63319Y11046D1*
X63367Y11095D1*
X63392Y11168D1*
Y11216D1*
X63367Y11289D1*
X63319Y11338D1*
X63246Y11362D1*
X62881D1*
X63392Y11908D2*
X62881D1*
X63392Y11714D1*
X62881Y11519D1*
X63392D1*
X63149Y12065D2*
Y12284D1*
X63124Y12356D1*
X63100Y12381D1*
X63051Y12405D1*
X62978D1*
X62930Y12381D1*
X62905Y12356D1*
X62881Y12284D1*
Y12065D1*
X63392D1*
X62881Y13226D2*
X63392D1*
X62881Y13056D2*
Y13396D1*
Y13699D2*
X62905Y13650D1*
X62954Y13602D1*
X63003Y13577D1*
X63076Y13553D1*
X63197D1*
X63270Y13577D1*
X63319Y13602D1*
X63367Y13650D1*
X63392Y13699D1*
Y13796D1*
X63367Y13844D1*
X63319Y13893D1*
X63270Y13917D1*
X63197Y13941D1*
X63076D1*
X63003Y13917D1*
X62954Y13893D1*
X62905Y13844D1*
X62881Y13796D1*
Y13699D1*
Y14592D2*
X63246D1*
X63319Y14616D1*
X63367Y14665D1*
X63392Y14738D1*
Y14786D1*
X63367Y14859D1*
X63319Y14908D1*
X63246Y14932D1*
X62881D1*
X62954Y15429D2*
X62905Y15381D1*
X62881Y15308D1*
Y15211D1*
X62905Y15138D1*
X62954Y15089D1*
X63003D1*
X63051Y15114D1*
X63076Y15138D1*
X63100Y15186D1*
X63149Y15332D1*
X63173Y15381D1*
X63197Y15405D1*
X63246Y15429D1*
X63319D1*
X63367Y15381D1*
X63392Y15308D1*
Y15211D1*
X63367Y15138D1*
X63319Y15089D1*
X62881Y15902D2*
Y15586D1*
X63392D1*
Y15902D1*
X63124Y15586D2*
Y15781D1*
X64498Y10998D2*
Y10682D1*
X65009D1*
X64742D2*
Y10877D1*
X64498Y11301D2*
X64523Y11252D1*
X64571Y11204D1*
X64620Y11179D1*
X64693Y11155D1*
X64815D1*
X64887Y11179D1*
X64936Y11204D1*
X64984Y11252D1*
X65009Y11301D1*
Y11398D1*
X64984Y11447D1*
X64936Y11496D1*
X64887Y11520D1*
X64815Y11544D1*
X64693D1*
X64620Y11520D1*
X64571Y11496D1*
X64523Y11447D1*
X64498Y11398D1*
Y11301D1*
X64742Y11701D2*
Y11919D1*
X64717Y11992D1*
X64693Y12017D1*
X64644Y12041D1*
X64596D1*
X64547Y12017D1*
X64523Y11992D1*
X64498Y11919D1*
Y11701D1*
X65009D1*
X64742Y11871D2*
X65009Y12041D1*
X64742Y12692D2*
Y12910D1*
X64717Y12983D1*
X64693Y13008D1*
X64644Y13032D1*
X64596D1*
X64547Y13008D1*
X64523Y12983D1*
X64498Y12910D1*
Y12692D1*
X65009D1*
X64742Y12862D2*
X65009Y13032D1*
X64766Y13189D2*
Y13408D1*
X64742Y13480D1*
X64717Y13505D1*
X64669Y13529D1*
X64596D1*
X64547Y13505D1*
X64523Y13480D1*
X64498Y13408D1*
Y13189D1*
X65009D1*
X64498Y13686D2*
X65009D1*
X37418Y51908D2*
D74*
X38269Y50632D1*
Y51908D2*
X37418Y50632D1*
X39026Y51908D2*
X38904Y51848D1*
X38783Y51726D1*
X38721Y51605D1*
X38661Y51423D1*
Y51118D1*
X38721Y50937D1*
X38783Y50815D1*
X38904Y50694D1*
X39026Y50632D1*
X39269D1*
X39389Y50694D1*
X39512Y50815D1*
X39572Y50937D1*
X39632Y51118D1*
Y51423D1*
X39572Y51605D1*
X39512Y51726D1*
X39389Y51848D1*
X39269Y51908D1*
X39026D1*
X40024Y51301D2*
X40571D1*
X40753Y51362D1*
X40815Y51423D1*
X40875Y51543D1*
Y51666D1*
X40815Y51786D1*
X40753Y51848D1*
X40571Y51908D1*
X40024D1*
Y50632D1*
X40450Y51301D2*
X40875Y50632D1*
X31178Y23909D2*
D75*
X31104Y23873D1*
X31032Y23800D1*
X30995Y23727D1*
X30959Y23618D1*
Y23435D1*
X30995Y23326D1*
X31032Y23253D1*
X31104Y23180D1*
X31178Y23143D1*
X31323D1*
X31396Y23180D1*
X31469Y23253D1*
X31505Y23326D1*
X31542Y23435D1*
Y23618D1*
X31505Y23727D1*
X31469Y23800D1*
X31396Y23873D1*
X31323Y23909D1*
X31178D1*
X32251D2*
X31777D1*
Y23143D1*
Y23544D2*
X32068D1*
X32961Y23909D2*
X32486D1*
Y23143D1*
Y23544D2*
X32778D1*
X31469Y22529D2*
X31397Y22603D1*
X31287Y22639D1*
X31142D1*
X31032Y22603D1*
X30959Y22529D1*
Y22457D1*
X30996Y22384D1*
X31032Y22348D1*
X31104Y22311D1*
X31323Y22238D1*
X31397Y22202D1*
X31433Y22165D1*
X31469Y22092D1*
Y21983D1*
X31397Y21910D1*
X31287Y21873D1*
X31142D1*
X31032Y21910D1*
X30959Y21983D1*
X31704Y22639D2*
Y21873D1*
X32215Y22639D2*
Y21873D1*
X31704Y22274D2*
X32215D1*
X32450Y22639D2*
Y22092D1*
X32486Y21983D1*
X32560Y21910D1*
X32669Y21873D1*
X32742D1*
X32851Y21910D1*
X32924Y21983D1*
X32961Y22092D1*
Y22639D1*
X33451D2*
Y21873D1*
X33196Y22639D2*
X33706D1*
X34682D2*
Y21873D1*
X34938D1*
X35047Y21910D1*
X35120Y21983D1*
X35157Y22056D1*
X35193Y22165D1*
Y22348D1*
X35157Y22457D1*
X35120Y22529D1*
X35047Y22603D1*
X34938Y22639D1*
X34682D1*
X35647D2*
X35574Y22603D1*
X35501Y22529D1*
X35464Y22457D1*
X35428Y22348D1*
Y22165D1*
X35464Y22056D1*
X35501Y21983D1*
X35574Y21910D1*
X35647Y21873D1*
X35793D1*
X35865Y21910D1*
X35939Y21983D1*
X35975Y22056D1*
X36011Y22165D1*
Y22348D1*
X35975Y22457D1*
X35939Y22529D1*
X35865Y22603D1*
X35793Y22639D1*
X35647D1*
X36246D2*
X36429Y21873D1*
X36611Y22639D1*
X36793Y21873D1*
X36976Y22639D1*
X37721D2*
Y21873D1*
X37211Y22639D1*
Y21873D1*
X30959Y21004D2*
X31286D1*
X31396Y21041D1*
X31433Y21077D1*
X31469Y21150D1*
Y21223D1*
X31433Y21296D1*
X31396Y21333D1*
X31286Y21369D1*
X30959D1*
Y20603D1*
X31214Y21004D2*
X31469Y20603D1*
X31704Y20968D2*
X32033D1*
X32142Y21004D1*
X32179Y21041D1*
X32215Y21114D1*
Y21223D1*
X32179Y21296D1*
X32142Y21333D1*
X32033Y21369D1*
X31704D1*
Y20603D1*
X32450Y21369D2*
Y20603D1*
X33900Y21369D2*
X33426D1*
Y20603D1*
Y21004D2*
X33718D1*
X34136Y21369D2*
Y20603D1*
X34371Y21004D2*
X34699D1*
X34808Y21041D1*
X34845Y21077D1*
X34881Y21150D1*
Y21223D1*
X34845Y21296D1*
X34808Y21333D1*
X34699Y21369D1*
X34371D1*
Y20603D1*
X34626Y21004D2*
X34881Y20603D1*
X35627Y21259D2*
X35555Y21333D1*
X35445Y21369D1*
X35299D1*
X35190Y21333D1*
X35117Y21259D1*
Y21187D1*
X35154Y21114D1*
X35190Y21077D1*
X35262Y21041D1*
X35481Y20968D1*
X35555Y20932D1*
X35591Y20895D1*
X35627Y20822D1*
Y20713D1*
X35555Y20640D1*
X35445Y20603D1*
X35299D1*
X35190Y20640D1*
X35117Y20713D1*
X36118Y21369D2*
Y20603D1*
X35862Y21369D2*
X36373D1*
X21477Y21475D2*
X21404Y21438D1*
X21332Y21365D1*
X21295Y21293D1*
X21258Y21183D1*
Y21000D1*
X21295Y20892D1*
X21332Y20819D1*
X21404Y20746D1*
X21477Y20709D1*
X21623D1*
X21696Y20746D1*
X21769Y20819D1*
X21805Y20892D1*
X21841Y21000D1*
Y21183D1*
X21805Y21293D1*
X21769Y21365D1*
X21696Y21438D1*
X21623Y21475D1*
X21477D1*
X22587D2*
Y20709D1*
X22077Y21475D1*
Y20709D1*
X68947Y56743D2*
X68875Y56706D1*
X68802Y56633D1*
X68765Y56561D1*
Y56415D1*
X68802Y56342D1*
X68875Y56269D1*
X68947Y56232D1*
X69057Y56196D1*
X69240D1*
X69348Y56232D1*
X69422Y56269D1*
X69494Y56342D1*
X69531Y56415D1*
Y56561D1*
X69494Y56633D1*
X69422Y56706D1*
X69348Y56743D1*
X69240D1*
Y56561D1*
X68705Y53632D2*
X69471D1*
Y53887D1*
X69434Y53996D1*
X69361Y54070D1*
X69288Y54106D1*
X69179Y54142D1*
X68997D1*
X68887Y54106D1*
X68815Y54070D1*
X68741Y53996D1*
X68705Y53887D1*
Y53632D1*
X68942Y51565D2*
X68869Y51493D1*
X68832Y51383D1*
Y51237D1*
X68869Y51128D1*
X68942Y51055D1*
X69014D1*
X69088Y51092D1*
X69124Y51128D1*
X69160Y51200D1*
X69233Y51419D1*
X69270Y51493D1*
X69307Y51529D1*
X69379Y51565D1*
X69489D1*
X69561Y51493D1*
X69598Y51383D1*
Y51237D1*
X69561Y51128D1*
X69489Y51055D1*
X68210Y43393D2*
X68502Y42627D1*
X68793Y43393D1*
X68863Y42807D2*
D12*
Y42296D1*
X69360Y42807D2*
Y42296D1*
X69020Y42807D1*
Y42296D1*
X67635Y41646D2*
D75*
X67926Y40881D1*
X68218Y41646D1*
Y40939D2*
D12*
X68169Y40915D1*
X68121Y40866D1*
X68096Y40817D1*
X68072Y40744D1*
Y40623D1*
X68096Y40550D1*
X68121Y40501D1*
X68169Y40453D1*
X68218Y40428D1*
X68315D1*
X68363Y40453D1*
X68412Y40501D1*
X68436Y40550D1*
X68460Y40623D1*
Y40744D1*
X68436Y40817D1*
X68412Y40866D1*
X68363Y40915D1*
X68315Y40939D1*
X68218D1*
X68617D2*
Y40574D1*
X68641Y40501D1*
X68690Y40453D1*
X68763Y40428D1*
X68811D1*
X68884Y40453D1*
X68933Y40501D1*
X68957Y40574D1*
Y40939D1*
X69284D2*
Y40428D1*
X69114Y40939D2*
X69455D1*
X67834Y39559D2*
D75*
X67798Y39632D1*
X67725Y39705D1*
X67652Y39741D1*
X67507D1*
X67433Y39705D1*
X67361Y39632D1*
X67324Y39559D1*
X67288Y39450D1*
Y39267D1*
X67324Y39158D1*
X67361Y39085D1*
X67433Y39013D1*
X67507Y38975D1*
X67652D1*
X67725Y39013D1*
X67798Y39085D1*
X67834Y39158D1*
Y39267D1*
X67652D1*
X68580Y39741D2*
Y38975D1*
X68069Y39741D1*
Y38975D1*
X68815Y39741D2*
Y38975D1*
X69070D1*
X69180Y39013D1*
X69253Y39085D1*
X69289Y39158D1*
X69326Y39267D1*
Y39450D1*
X69289Y39559D1*
X69253Y39632D1*
X69180Y39705D1*
X69070Y39741D1*
X68815D1*
X67147Y38153D2*
X66672D1*
Y37388D1*
Y37789D2*
X66964D1*
X67382Y38153D2*
Y37388D1*
X67637D1*
X67747Y37425D1*
X67820Y37497D1*
X67856Y37571D1*
X67892Y37679D1*
Y37862D1*
X67856Y37972D1*
X67820Y38044D1*
X67747Y38117D1*
X67637Y38153D1*
X67382D1*
X68128D2*
Y37388D1*
X68456D1*
X68566Y37425D1*
X68602Y37461D1*
X68638Y37534D1*
Y37643D1*
X68602Y37716D1*
X68566Y37753D1*
X68456Y37789D1*
X68566Y37826D1*
X68602Y37862D1*
X68638Y37934D1*
Y38008D1*
X68602Y38080D1*
X68566Y38117D1*
X68456Y38153D1*
X68128D1*
Y37789D2*
X68456D1*
X68873Y38153D2*
Y37388D1*
X69384Y38153D2*
X68873Y37643D1*
X69055Y37826D2*
X69384Y37388D1*
X65334Y36248D2*
X65261Y36212D1*
X65188Y36139D1*
X65151Y36066D1*
X65115Y35957D1*
Y35774D1*
X65151Y35665D1*
X65188Y35592D1*
X65261Y35520D1*
X65334Y35483D1*
X65480D1*
X65552Y35520D1*
X65625Y35592D1*
X65661Y35665D1*
X65698Y35774D1*
Y35957D1*
X65661Y36066D1*
X65625Y36139D1*
X65552Y36212D1*
X65480Y36248D1*
X65334D1*
X66443D2*
Y35483D1*
X65933Y36248D1*
Y35483D1*
X66679D2*
X67189Y36247D1*
X67643Y36248D2*
X67570Y36212D1*
X67498Y36139D1*
X67461Y36066D1*
X67424Y35957D1*
Y35774D1*
X67461Y35665D1*
X67498Y35592D1*
X67570Y35520D1*
X67643Y35483D1*
X67789D1*
X67862Y35520D1*
X67935Y35592D1*
X67971Y35665D1*
X68007Y35774D1*
Y35957D1*
X67971Y36066D1*
X67935Y36139D1*
X67862Y36212D1*
X67789Y36248D1*
X67643D1*
X68717D2*
X68243D1*
Y35483D1*
Y35884D2*
X68534D1*
X69426Y36248D2*
X68952D1*
Y35483D1*
Y35884D2*
X69244D1*
X68411Y58296D2*
D76*
X68314Y58248D1*
X68216Y58151D1*
X68168Y58053D1*
X68119Y57907D1*
Y57664D1*
X68168Y57518D1*
X68216Y57422D1*
X68314Y57324D1*
X68411Y57276D1*
X68605D1*
X68703Y57324D1*
X68799Y57422D1*
X68848Y57518D1*
X68897Y57664D1*
Y57907D1*
X68848Y58053D1*
X68799Y58151D1*
X68703Y58248D1*
X68605Y58296D1*
X68411D1*
X68557Y57470D2*
X68848Y57178D1*
X69211Y58100D2*
X69308Y58150D1*
X69454Y58294D1*
Y57275D1*
X63354Y19762D2*
D12*
X63305Y19714D1*
X63281Y19641D1*
Y19544D1*
X63305Y19471D1*
X63354Y19422D1*
X63403D1*
X63451Y19447D1*
X63476Y19471D1*
X63500Y19519D1*
X63549Y19665D1*
X63573Y19714D1*
X63597Y19738D1*
X63646Y19762D1*
X63719D1*
X63767Y19714D1*
X63792Y19641D1*
Y19544D1*
X63767Y19471D1*
X63719Y19422D1*
X63281Y20235D2*
Y19919D1*
X63792D1*
Y20235D1*
X63524Y19919D2*
Y20114D1*
X63281Y20392D2*
X63792D1*
Y20683D1*
X63281Y21156D2*
Y20840D1*
X63792D1*
Y21156D1*
X63524Y20840D2*
Y21034D1*
X63403Y21677D2*
X63354Y21653D1*
X63305Y21604D1*
X63281Y21556D1*
Y21458D1*
X63305Y21410D1*
X63354Y21361D1*
X63403Y21337D1*
X63476Y21312D1*
X63597D1*
X63670Y21337D1*
X63719Y21361D1*
X63767Y21410D1*
X63792Y21458D1*
Y21556D1*
X63767Y21604D1*
X63719Y21653D1*
X63670Y21677D1*
X63281Y22004D2*
X63792D1*
X63281Y21834D2*
Y22174D1*
X63549Y22825D2*
Y23044D1*
X63524Y23116D1*
X63500Y23141D1*
X63451Y23165D1*
X63378D1*
X63330Y23141D1*
X63305Y23116D1*
X63281Y23044D1*
Y22825D1*
X63792D1*
X63281Y23322D2*
X63792Y23444D1*
X63281Y23565D1*
X63792Y23686D1*
X63281Y23808D1*
X63524Y23965D2*
Y24183D1*
X63500Y24256D1*
X63476Y24281D1*
X63427Y24305D1*
X63378D1*
X63330Y24281D1*
X63305Y24256D1*
X63281Y24183D1*
Y23965D1*
X63792D1*
X63524Y24135D2*
X63792Y24305D1*
X63281Y25272D2*
Y24956D1*
X63792D1*
X63524D2*
Y25150D1*
X63281Y25575D2*
X63305Y25526D1*
X63354Y25478D1*
X63403Y25453D1*
X63476Y25429D1*
X63597D1*
X63670Y25453D1*
X63719Y25478D1*
X63767Y25526D1*
X63792Y25575D1*
Y25672D1*
X63767Y25720D1*
X63719Y25769D1*
X63670Y25793D1*
X63597Y25818D1*
X63476D1*
X63403Y25793D1*
X63354Y25769D1*
X63305Y25720D1*
X63281Y25672D1*
Y25575D1*
X63524Y25974D2*
Y26193D1*
X63500Y26266D1*
X63476Y26291D1*
X63427Y26315D1*
X63378D1*
X63330Y26291D1*
X63305Y26266D1*
X63281Y26193D1*
Y25974D1*
X63792D1*
X63524Y26145D2*
X63792Y26315D1*
X63281Y26965D2*
X63792Y27160D1*
X63281Y27354D1*
Y27657D2*
X63305Y27608D1*
X63354Y27560D1*
X63403Y27535D1*
X63476Y27511D1*
X63597D1*
X63670Y27535D1*
X63719Y27560D1*
X63767Y27608D1*
X63792Y27657D1*
Y27754D1*
X63767Y27802D1*
X63719Y27851D1*
X63670Y27875D1*
X63597Y27899D1*
X63476D1*
X63403Y27875D1*
X63354Y27851D1*
X63305Y27802D1*
X63281Y27754D1*
Y27657D1*
Y28056D2*
X63646D1*
X63719Y28080D1*
X63767Y28129D1*
X63792Y28202D1*
Y28251D1*
X63767Y28324D1*
X63719Y28372D1*
X63646Y28397D1*
X63281D1*
Y28724D2*
X63792D1*
X63281Y28553D2*
Y28894D1*
X44202Y29980D2*
D77*
X44058Y30127D1*
X43839Y30199D1*
X43547D1*
X43328Y30127D1*
X43182Y29980D1*
Y29835D1*
X43256Y29689D1*
X43328Y29616D1*
X43473Y29544D1*
X43911Y29397D1*
X44058Y29325D1*
X44130Y29251D1*
X44202Y29106D1*
Y28887D1*
X44058Y28742D1*
X43839Y28668D1*
X43547D1*
X43328Y28742D1*
X43182Y28887D1*
X44673Y29397D2*
X45330D1*
X45547Y29470D1*
X45621Y29544D1*
X45694Y29689D1*
Y29908D1*
X45621Y30053D1*
X45547Y30127D1*
X45330Y30199D1*
X44673D1*
Y28668D1*
X46165Y30199D2*
Y28668D1*
X48554Y30199D2*
X48408Y30127D1*
X48263Y29980D1*
X48189Y29835D1*
X48116Y29616D1*
Y29251D1*
X48189Y29033D1*
X48263Y28887D1*
X48408Y28742D1*
X48554Y28668D1*
X48846D1*
X48991Y28742D1*
X49137Y28887D1*
X49210Y29033D1*
X49282Y29251D1*
Y29616D1*
X49210Y29835D1*
X49137Y29980D1*
X48991Y30127D1*
X48846Y30199D1*
X48554D1*
X49753D2*
Y29106D1*
X49825Y28887D1*
X49972Y28742D1*
X50191Y28668D1*
X50336D1*
X50555Y28742D1*
X50701Y28887D1*
X50774Y29106D1*
Y30199D1*
X51755D2*
Y28668D1*
X51244Y30199D2*
X52265D1*
X26229Y46144D2*
D12*
X26204Y46193D1*
X26132Y46266D1*
X26642D1*
Y46812D2*
X26131Y46617D1*
X26642Y46423D1*
X26472Y46496D2*
Y46739D1*
X29015Y46168D2*
X28990Y46217D1*
X28917Y46290D1*
X29427D1*
X28917Y46447D2*
X29427D1*
Y46666D1*
X29403Y46739D1*
X29378Y46763D1*
X29330Y46787D1*
X29257D1*
X29208Y46763D1*
X29184Y46739D1*
X29160Y46666D1*
X29135Y46739D1*
X29111Y46763D1*
X29063Y46787D1*
X29014D1*
X28966Y46763D1*
X28941Y46739D1*
X28917Y46666D1*
Y46447D1*
X29160D2*
Y46666D1*
X31559Y46124D2*
X31534Y46173D1*
X31462Y46246D1*
X31971D1*
X31461Y46403D2*
X31704Y46597D1*
X31971D1*
X31461Y46792D2*
X31704Y46597D1*
X33992Y46130D2*
X33968D1*
X33919Y46154D1*
X33895Y46178D1*
X33871Y46227D1*
Y46324D1*
X33895Y46372D1*
X33919Y46396D1*
X33968Y46421D1*
X34016D1*
X34065Y46396D1*
X34138Y46348D1*
X34381Y46105D1*
Y46445D1*
Y46991D2*
X33870Y46796D1*
X34381Y46602D1*
X34211Y46675D2*
Y46918D1*
X36618Y46124D2*
X36594D1*
X36545Y46148D1*
X36521Y46172D1*
X36497Y46221D1*
Y46318D1*
X36521Y46367D1*
X36545Y46391D1*
X36594Y46415D1*
X36642D1*
X36691Y46391D1*
X36763Y46342D1*
X37006Y46099D1*
Y46440D1*
X36496Y46596D2*
X37006D1*
Y46815D1*
X36982Y46888D1*
X36958Y46913D1*
X36909Y46937D1*
X36836D1*
X36787Y46913D1*
X36763Y46888D1*
X36739Y46815D1*
X36714Y46888D1*
X36690Y46913D1*
X36642Y46937D1*
X36593D1*
X36545Y46913D1*
X36520Y46888D1*
X36496Y46815D1*
Y46596D1*
X36739D2*
Y46815D1*
X39192Y46150D2*
X39168D1*
X39119Y46174D1*
X39095Y46198D1*
X39071Y46247D1*
Y46344D1*
X39095Y46392D1*
X39119Y46417D1*
X39168Y46441D1*
X39216D1*
X39265Y46417D1*
X39337Y46368D1*
X39581Y46125D1*
Y46465D1*
X39070Y46622D2*
X39313Y46817D1*
X39581D1*
X39070Y47011D2*
X39313Y46817D1*
X41638Y46033D2*
X41590Y46009D1*
X41541Y45960D1*
X41517Y45912D1*
Y45815D1*
X41541Y45766D1*
X41590Y45717D1*
X41638Y45693D1*
X41711Y45669D1*
X41833D1*
X41905Y45693D1*
X41954Y45717D1*
X42002Y45766D1*
X42027Y45815D1*
Y45912D1*
X42002Y45960D1*
X41954Y46009D1*
X41905Y46033D1*
X41833D1*
Y45912D1*
X41517Y46530D2*
X42027D1*
X41517Y46190D1*
X42027D1*
X41517Y46687D2*
X42027D1*
Y46857D1*
X42002Y46930D1*
X41954Y46979D1*
X41905Y47003D1*
X41833Y47027D1*
X41711D1*
X41638Y47003D1*
X41590Y46979D1*
X41541Y46930D1*
X41517Y46857D1*
Y46687D1*
X26138Y55182D2*
X26575D1*
X26357Y54964D2*
Y55401D1*
X26102Y55850D2*
Y55607D1*
X26320Y55583D1*
X26296Y55607D1*
X26271Y55680D1*
Y55753D1*
X26296Y55826D1*
X26344Y55874D1*
X26417Y55899D1*
X26466D1*
X26539Y55874D1*
X26588Y55826D1*
X26612Y55753D1*
Y55680D1*
X26588Y55607D1*
X26563Y55583D1*
X26515Y55558D1*
X26271Y56055D2*
X26612Y56201D1*
X26271Y56347D1*
X29292Y55707D2*
X28782D1*
X29122Y55464D1*
Y55828D1*
X28781Y55985D2*
X29292D1*
Y56204D1*
X29267Y56277D1*
X29243Y56301D1*
X29195Y56326D1*
X29122D1*
X29073Y56301D1*
X29049Y56277D1*
X29024Y56204D1*
X29000Y56277D1*
X28976Y56301D1*
X28927Y56326D1*
X28878D1*
X28830Y56301D1*
X28805Y56277D1*
X28781Y56204D1*
Y55985D1*
X29024D2*
Y56204D1*
X31882Y55697D2*
X31372D1*
X31712Y55454D1*
Y55818D1*
X31882Y56364D2*
X31371Y56170D1*
X31882Y55975D1*
X31712Y56048D2*
Y56291D1*
X34362Y55657D2*
X33852D1*
X34192Y55414D1*
Y55778D1*
X33851Y55935D2*
X34094Y56130D1*
X34362D1*
X33851Y56324D2*
X34094Y56130D1*
X36362Y55483D2*
Y55750D1*
X36556Y55604D1*
Y55677D1*
X36580Y55725D1*
X36604Y55750D1*
X36677Y55774D1*
X36726D1*
X36799Y55750D1*
X36848Y55701D1*
X36872Y55628D1*
Y55555D1*
X36848Y55483D1*
X36823Y55459D1*
X36775Y55434D1*
X36361Y55931D2*
X36872D1*
Y56150D1*
X36847Y56223D1*
X36823Y56247D1*
X36775Y56271D1*
X36702D1*
X36653Y56247D1*
X36629Y56223D1*
X36604Y56150D1*
X36580Y56223D1*
X36556Y56247D1*
X36507Y56271D1*
X36458D1*
X36410Y56247D1*
X36385Y56223D1*
X36361Y56150D1*
Y55931D1*
X36604D2*
Y56150D1*
X38892Y55503D2*
Y55770D1*
X39086Y55624D1*
Y55697D1*
X39110Y55745D1*
X39134Y55770D1*
X39207Y55794D1*
X39256D1*
X39329Y55770D1*
X39378Y55721D1*
X39402Y55648D1*
Y55575D1*
X39378Y55503D1*
X39353Y55479D1*
X39305Y55454D1*
X39402Y56340D2*
X38891Y56145D1*
X39402Y55951D1*
X39232Y56024D2*
Y56267D1*
X41432Y55493D2*
Y55760D1*
X41626Y55614D1*
Y55687D1*
X41650Y55735D1*
X41674Y55760D1*
X41747Y55784D1*
X41796D1*
X41869Y55760D1*
X41918Y55711D1*
X41942Y55638D1*
Y55565D1*
X41918Y55493D1*
X41893Y55469D1*
X41845Y55444D1*
X41431Y55941D2*
X41674Y56135D1*
X41942D1*
X41431Y56330D2*
X41674Y56135D1*
X63758Y10831D2*
X64196D1*
X63977Y10612D2*
Y11050D1*
X63819Y11206D2*
X63794Y11255D1*
X63722Y11328D1*
X64232D1*
X63843Y11510D2*
X63819D1*
X63770Y11534D1*
X63746Y11558D1*
X63722Y11607D1*
Y11704D1*
X63746Y11752D1*
X63770Y11777D1*
X63819Y11801D1*
X63867D1*
X63916Y11777D1*
X63989Y11728D1*
X64232Y11485D1*
Y11825D1*
X63891Y11982D2*
X64232Y12128D1*
X63891Y12274D1*
X63989Y12924D2*
Y13143D1*
X63964Y13216D1*
X63940Y13240D1*
X63891Y13265D1*
X63818D1*
X63770Y13240D1*
X63745Y13216D1*
X63721Y13143D1*
Y12924D1*
X64232D1*
X63721Y13421D2*
X64232Y13543D1*
X63721Y13665D1*
X64232Y13786D1*
X63721Y13908D1*
X63964Y14065D2*
Y14283D1*
X63940Y14356D1*
X63916Y14381D1*
X63867Y14405D1*
X63818D1*
X63770Y14381D1*
X63745Y14356D1*
X63721Y14283D1*
Y14065D1*
X64232D1*
X63964Y14235D2*
X64232Y14405D1*
X63794Y15396D2*
X63745Y15348D1*
X63721Y15275D1*
Y15177D1*
X63745Y15104D1*
X63794Y15056D1*
X63843D1*
X63891Y15080D1*
X63916Y15104D1*
X63940Y15153D1*
X63989Y15299D1*
X64013Y15348D1*
X64037Y15372D1*
X64086Y15396D1*
X64159D1*
X64207Y15348D1*
X64232Y15275D1*
Y15177D1*
X64207Y15104D1*
X64159Y15056D1*
X63721Y15553D2*
X64086D1*
X64159Y15577D1*
X64207Y15626D1*
X64232Y15699D1*
Y15747D1*
X64207Y15820D1*
X64159Y15869D1*
X64086Y15893D1*
X63721D1*
X63989Y16050D2*
Y16269D1*
X63964Y16341D1*
X63940Y16366D1*
X63891Y16390D1*
X63818D1*
X63770Y16366D1*
X63745Y16341D1*
X63721Y16269D1*
Y16050D1*
X64232D1*
X63989Y16547D2*
Y16766D1*
X63964Y16838D1*
X63940Y16863D1*
X63891Y16887D1*
X63818D1*
X63770Y16863D1*
X63745Y16838D1*
X63721Y16766D1*
Y16547D1*
X64232D1*
X63721Y17044D2*
X63964Y17239D1*
X64232D1*
X63721Y17433D2*
X63964Y17239D1*
X24542Y47891D2*
D76*
Y47163D1*
X24591Y47017D1*
X24688Y46920D1*
X24834Y46871D1*
X24931D1*
X25077Y46920D1*
X25175Y47017D1*
X25223Y47163D1*
Y47891D1*
X25537Y47696D2*
X25634Y47745D1*
X25780Y47890D1*
Y46871D1*
X61992Y33718D2*
D75*
X61918Y33681D1*
X61846Y33608D1*
X61809Y33536D1*
X61773Y33426D1*
Y33243D1*
X61809Y33135D1*
X61846Y33061D1*
X61918Y32989D1*
X61992Y32952D1*
X62137D1*
X62210Y32989D1*
X62283Y33061D1*
X62319Y33135D1*
X62356Y33243D1*
Y33426D1*
X62319Y33536D1*
X62283Y33608D1*
X62210Y33681D1*
X62137Y33718D1*
X61992D1*
X62591Y33462D2*
Y32697D1*
Y33353D2*
X62664Y33425D1*
X62737Y33462D1*
X62846D1*
X62919Y33425D1*
X62992Y33353D1*
X63029Y33243D1*
Y33170D1*
X62992Y33061D1*
X62919Y32988D1*
X62846Y32952D1*
X62737D1*
X62664Y32988D1*
X62591Y33061D1*
X63374Y33718D2*
Y33098D1*
X63410Y32989D1*
X63483Y32952D1*
X63556D1*
X63264Y33462D2*
X63519D1*
X63791Y33718D2*
X63827Y33681D1*
X63864Y33718D1*
X63827Y33755D1*
X63791Y33718D1*
X63827Y33462D2*
Y32952D1*
X64281Y33462D2*
X64209Y33426D1*
X64136Y33353D1*
X64100Y33243D1*
Y33171D1*
X64136Y33061D1*
X64209Y32989D1*
X64281Y32952D1*
X64391D1*
X64464Y32989D1*
X64537Y33061D1*
X64574Y33171D1*
Y33243D1*
X64537Y33353D1*
X64464Y33426D1*
X64391Y33462D1*
X64281D1*
X64809D2*
Y32952D1*
Y33317D2*
X64919Y33426D1*
X64992Y33462D1*
X65100D1*
X65174Y33426D1*
X65210Y33317D1*
Y32952D1*
X66477Y33718D2*
X66405D1*
X66332Y33681D1*
X66295Y33572D1*
Y32952D1*
X66186Y33462D2*
X66441D1*
X66895D2*
X66822Y33426D1*
X66749Y33353D1*
X66713Y33243D1*
Y33171D1*
X66749Y33061D1*
X66822Y32989D1*
X66895Y32952D1*
X67004D1*
X67077Y32989D1*
X67150Y33061D1*
X67187Y33171D1*
Y33243D1*
X67150Y33353D1*
X67077Y33426D1*
X67004Y33462D1*
X66895D1*
X67422D2*
Y32952D1*
Y33243D2*
X67459Y33353D1*
X67532Y33426D1*
X67605Y33462D1*
X67714D1*
X68690Y33718D2*
Y32952D1*
X69019D1*
X69128Y32989D1*
X69165Y33025D1*
X69201Y33098D1*
Y33207D1*
X69165Y33280D1*
X69128Y33317D1*
X69019Y33353D1*
X69128Y33390D1*
X69165Y33426D1*
X69201Y33499D1*
Y33572D1*
X69165Y33644D1*
X69128Y33681D1*
X69019Y33718D1*
X68690D1*
Y33353D2*
X69019D1*
X69764Y33662D2*
Y33006D1*
X69436Y33334D2*
X70092D1*
X70365Y33462D2*
X70328Y33425D1*
X70365Y33389D1*
X70401Y33425D1*
X70365Y33462D1*
Y33025D2*
X70328Y32988D1*
X70365Y32952D1*
X70401Y32988D1*
X70365Y33025D1*
X71377Y33718D2*
Y32952D1*
X71705D1*
X71815Y32989D1*
X71851Y33025D1*
X71887Y33098D1*
Y33207D1*
X71851Y33280D1*
X71815Y33317D1*
X71705Y33353D1*
X71815Y33390D1*
X71851Y33426D1*
X71887Y33499D1*
Y33572D1*
X71851Y33644D1*
X71815Y33681D1*
X71705Y33718D1*
X71377D1*
Y33353D2*
X71705D1*
X72123Y33243D2*
X72560D1*
Y33317D1*
X72524Y33390D1*
X72487Y33426D1*
X72414Y33462D1*
X72305D1*
X72232Y33426D1*
X72159Y33353D1*
X72123Y33243D1*
Y33171D1*
X72159Y33061D1*
X72232Y32989D1*
X72305Y32952D1*
X72414D1*
X72487Y32989D1*
X72560Y33061D1*
X72795Y33462D2*
Y32952D1*
Y33317D2*
X72905Y33426D1*
X72978Y33462D1*
X73087D1*
X73160Y33426D1*
X73196Y33317D1*
Y32952D1*
X73868Y33718D2*
Y32952D1*
Y33353D2*
X73796Y33426D1*
X73723Y33462D1*
X73613D1*
X73541Y33426D1*
X73468Y33353D1*
X73431Y33243D1*
Y33171D1*
X73468Y33061D1*
X73541Y32989D1*
X73613Y32952D1*
X73723D1*
X73796Y32989D1*
X73868Y33061D1*
X62062Y32508D2*
X61989Y32472D1*
X61916Y32399D1*
X61880Y32326D1*
X61843Y32216D1*
Y32034D1*
X61880Y31925D1*
X61916Y31852D1*
X61989Y31779D1*
X62062Y31743D1*
X62207D1*
X62281Y31779D1*
X62353Y31852D1*
X62389Y31925D1*
X62426Y32034D1*
Y32216D1*
X62389Y32326D1*
X62353Y32399D1*
X62281Y32472D1*
X62207Y32508D1*
X62062D1*
X62171Y31889D2*
X62389Y31670D1*
X62662Y32361D2*
X62735Y32398D1*
X62845Y32507D1*
Y31742D1*
X64258Y32252D2*
Y31742D1*
Y32143D2*
X64185Y32216D1*
X64112Y32252D1*
X64003D1*
X63930Y32216D1*
X63858Y32143D1*
X63821Y32033D1*
Y31961D1*
X63858Y31851D1*
X63930Y31779D1*
X64003Y31742D1*
X64112D1*
X64185Y31779D1*
X64258Y31851D1*
X64493Y32252D2*
Y31742D1*
Y32107D2*
X64602Y32216D1*
X64676Y32252D1*
X64784D1*
X64858Y32216D1*
X64894Y32107D1*
Y31742D1*
X65566Y32508D2*
Y31742D1*
Y32143D2*
X65494Y32216D1*
X65421Y32252D1*
X65311D1*
X65239Y32216D1*
X65165Y32143D1*
X65129Y32033D1*
Y31961D1*
X65165Y31851D1*
X65239Y31779D1*
X65311Y31742D1*
X65421D1*
X65494Y31779D1*
X65566Y31851D1*
X66542Y32508D2*
Y31961D1*
X66579Y31851D1*
X66652Y31779D1*
X66761Y31742D1*
X66834D1*
X66943Y31779D1*
X67017Y31851D1*
X67053Y31961D1*
Y32508D1*
X67325Y32325D2*
Y32361D1*
X67361Y32434D1*
X67398Y32471D1*
X67471Y32507D1*
X67617D1*
X67689Y32471D1*
X67725Y32434D1*
X67762Y32361D1*
Y32289D1*
X67725Y32215D1*
X67653Y32107D1*
X67288Y31742D1*
X67799D1*
X68884Y32508D2*
Y31888D1*
X68920Y31779D1*
X68993Y31742D1*
X69066D1*
X68774Y32252D2*
X69030D1*
X69483D2*
X69411Y32216D1*
X69337Y32143D1*
X69301Y32033D1*
Y31961D1*
X69337Y31851D1*
X69411Y31779D1*
X69483Y31742D1*
X69593D1*
X69666Y31779D1*
X69738Y31851D1*
X69775Y31961D1*
Y32033D1*
X69738Y32143D1*
X69666Y32216D1*
X69593Y32252D1*
X69483D1*
X71226D2*
X71189Y32143D1*
X71116Y32070D1*
X71007Y32033D1*
X70970D1*
X70861Y32070D1*
X70788Y32143D1*
X70751Y32252D1*
Y32289D1*
X70788Y32398D1*
X70861Y32471D1*
X70970Y32507D1*
X71007D1*
X71116Y32471D1*
X71189Y32398D1*
X71226Y32252D1*
Y32070D1*
X71189Y31888D1*
X71116Y31778D1*
X71007Y31742D1*
X70934D1*
X70825Y31778D1*
X70788Y31851D1*
X71680Y32507D2*
X71570Y32471D1*
X71497Y32361D1*
X71461Y32179D1*
Y32070D1*
X71497Y31888D1*
X71570Y31778D1*
X71680Y31742D1*
X71752D1*
X71862Y31778D1*
X71934Y31888D1*
X71971Y32070D1*
Y32179D1*
X71934Y32361D1*
X71862Y32471D1*
X71752Y32507D1*
X71680D1*
X71934Y32361D2*
X71497Y31888D1*
X70892Y46383D2*
D74*
Y45472D1*
X70952Y45290D1*
X71074Y45169D1*
X71257Y45107D1*
X71378D1*
X71560Y45169D1*
X71682Y45290D1*
X71743Y45472D1*
Y46383D1*
X72197Y46079D2*
Y46139D1*
X72257Y46261D1*
X72317Y46322D1*
X72439Y46382D1*
X72682D1*
X72803Y46322D1*
X72863Y46261D1*
X72925Y46139D1*
Y46018D1*
X72863Y45896D1*
X72743Y45715D1*
X72135Y45107D1*
X72986D1*
X62290Y31448D2*
D75*
Y30682D1*
Y31083D2*
X62217Y31156D1*
X62144Y31192D1*
X62035D1*
X61962Y31156D1*
X61889Y31083D1*
X61853Y30973D1*
Y30901D1*
X61889Y30791D1*
X61962Y30719D1*
X62035Y30682D1*
X62144D1*
X62217Y30719D1*
X62290Y30791D1*
X62525Y30973D2*
X62962D1*
Y31047D1*
X62926Y31120D1*
X62890Y31156D1*
X62817Y31192D1*
X62707D1*
X62635Y31156D1*
X62561Y31083D1*
X62525Y30973D1*
Y30901D1*
X62561Y30791D1*
X62635Y30719D1*
X62707Y30682D1*
X62817D1*
X62890Y30719D1*
X62962Y30791D1*
X63635Y31156D2*
Y30572D1*
X63599Y30464D1*
X63562Y30427D1*
X63489Y30391D1*
X63380D1*
X63307Y30427D1*
X63635Y31047D2*
X63562Y31119D1*
X63489Y31156D1*
X63380D1*
X63307Y31119D1*
X63234Y31047D1*
X63198Y30937D1*
Y30864D1*
X63234Y30755D1*
X63307Y30682D1*
X63380Y30646D1*
X63489D1*
X63562Y30682D1*
X63635Y30755D1*
X63870Y31192D2*
Y30682D1*
Y30973D2*
X63907Y31083D1*
X63980Y31156D1*
X64053Y31192D1*
X64162D1*
X64398Y30973D2*
X64835D1*
Y31047D1*
X64799Y31120D1*
X64762Y31156D1*
X64689Y31192D1*
X64580D1*
X64507Y31156D1*
X64434Y31083D1*
X64398Y30973D1*
Y30901D1*
X64434Y30791D1*
X64507Y30719D1*
X64580Y30682D1*
X64689D1*
X64762Y30719D1*
X64835Y30791D1*
X65070Y30973D2*
X65507D1*
Y31047D1*
X65471Y31120D1*
X65435Y31156D1*
X65362Y31192D1*
X65252D1*
X65180Y31156D1*
X65106Y31083D1*
X65070Y30973D1*
Y30901D1*
X65106Y30791D1*
X65180Y30719D1*
X65252Y30682D1*
X65362D1*
X65435Y30719D1*
X65507Y30791D1*
X66144Y31083D2*
X66107Y31156D1*
X65998Y31192D1*
X65888D1*
X65779Y31156D1*
X65743Y31083D1*
X65779Y31010D1*
X65852Y30973D1*
X66034Y30937D1*
X66107Y30901D1*
X66144Y30828D1*
Y30791D1*
X66107Y30719D1*
X65998Y30682D1*
X65888D1*
X65779Y30719D1*
X65743Y30791D1*
X67557Y31192D2*
Y30682D1*
Y31083D2*
X67484Y31156D1*
X67411Y31192D1*
X67302D1*
X67229Y31156D1*
X67157Y31083D1*
X67120Y30973D1*
Y30901D1*
X67157Y30791D1*
X67229Y30719D1*
X67302Y30682D1*
X67411D1*
X67484Y30719D1*
X67557Y30791D1*
X67792Y31192D2*
Y30682D1*
Y31047D2*
X67901Y31156D1*
X67975Y31192D1*
X68083D1*
X68157Y31156D1*
X68193Y31047D1*
Y30682D1*
X68865Y31448D2*
Y30682D1*
Y31083D2*
X68793Y31156D1*
X68720Y31192D1*
X68610D1*
X68538Y31156D1*
X68464Y31083D1*
X68428Y30973D1*
Y30901D1*
X68464Y30791D1*
X68538Y30719D1*
X68610Y30682D1*
X68720D1*
X68793Y30719D1*
X68865Y30791D1*
X70278Y31192D2*
Y30682D1*
Y31083D2*
X70206Y31156D1*
X70133Y31192D1*
X70024D1*
X69951Y31156D1*
X69878Y31083D1*
X69841Y30973D1*
Y30901D1*
X69878Y30791D1*
X69951Y30719D1*
X70024Y30682D1*
X70133D1*
X70206Y30719D1*
X70278Y30791D1*
X70623Y31448D2*
Y30828D1*
X70659Y30719D1*
X70733Y30682D1*
X70805D1*
X70514Y31192D2*
X70769D1*
X71150Y31448D2*
Y30828D1*
X71186Y30719D1*
X71260Y30682D1*
X71332D1*
X71041Y31192D2*
X71296D1*
X72004D2*
Y30682D1*
Y31083D2*
X71932Y31156D1*
X71859Y31192D1*
X71750D1*
X71677Y31156D1*
X71604Y31083D1*
X71567Y30973D1*
Y30901D1*
X71604Y30791D1*
X71677Y30719D1*
X71750Y30682D1*
X71859D1*
X71932Y30719D1*
X72004Y30791D1*
X72678Y31083D2*
X72604Y31156D1*
X72531Y31192D1*
X72422D1*
X72349Y31156D1*
X72277Y31083D1*
X72240Y30973D1*
Y30901D1*
X72277Y30791D1*
X72349Y30719D1*
X72422Y30682D1*
X72531D1*
X72604Y30719D1*
X72678Y30791D1*
X72913Y31448D2*
Y30682D1*
Y31047D2*
X73022Y31156D1*
X73096Y31192D1*
X73205D1*
X73278Y31156D1*
X73314Y31047D1*
Y30682D1*
X61952Y30298D2*
Y29678D1*
X61988Y29569D1*
X62062Y29532D1*
X62134D1*
X61843Y30042D2*
X62098D1*
X62551D2*
X62479Y30006D1*
X62406Y29933D1*
X62369Y29823D1*
Y29751D1*
X62406Y29641D1*
X62479Y29569D1*
X62551Y29532D1*
X62661D1*
X62734Y29569D1*
X62807Y29641D1*
X62844Y29751D1*
Y29823D1*
X62807Y29933D1*
X62734Y30006D1*
X62661Y30042D1*
X62551D1*
X63820Y30298D2*
Y29751D1*
X63856Y29641D1*
X63929Y29569D1*
X64039Y29532D1*
X64111D1*
X64221Y29569D1*
X64294Y29641D1*
X64330Y29751D1*
Y30298D1*
X65076Y30188D2*
X65003Y30261D1*
X64894Y30298D1*
X64748D1*
X64639Y30261D1*
X64565Y30188D1*
Y30116D1*
X64602Y30042D1*
X64639Y30006D1*
X64711Y29970D1*
X64930Y29897D1*
X65003Y29860D1*
X65040Y29823D1*
X65076Y29751D1*
Y29641D1*
X65003Y29569D1*
X64894Y29532D1*
X64748D1*
X64639Y29569D1*
X64565Y29641D1*
X65311Y30298D2*
Y29532D1*
X65640D1*
X65749Y29569D1*
X65785Y29605D1*
X65822Y29678D1*
Y29787D1*
X65785Y29860D1*
X65749Y29897D1*
X65640Y29933D1*
X65749Y29970D1*
X65785Y30006D1*
X65822Y30079D1*
Y30152D1*
X65785Y30224D1*
X65749Y30261D1*
X65640Y30298D1*
X65311D1*
Y29933D2*
X65640D1*
X67198D2*
X67162Y30006D1*
X67053Y30042D1*
X66943D1*
X66834Y30006D1*
X66798Y29933D1*
X66834Y29860D1*
X66907Y29823D1*
X67089Y29787D1*
X67162Y29751D1*
X67198Y29678D1*
Y29641D1*
X67162Y29569D1*
X67053Y29532D1*
X66943D1*
X66834Y29569D1*
X66798Y29641D1*
X67434Y30298D2*
Y29532D1*
Y29897D2*
X67543Y30006D1*
X67617Y30042D1*
X67726D1*
X67799Y30006D1*
X67835Y29897D1*
Y29532D1*
X68070Y30298D2*
X68106Y30261D1*
X68143Y30298D1*
X68106Y30335D1*
X68070Y30298D1*
X68106Y30042D2*
Y29532D1*
X68379Y29823D2*
X68816D1*
Y29897D1*
X68780Y29970D1*
X68743Y30006D1*
X68670Y30042D1*
X68561D1*
X68488Y30006D1*
X68415Y29933D1*
X68379Y29823D1*
Y29751D1*
X68415Y29641D1*
X68488Y29569D1*
X68561Y29532D1*
X68670D1*
X68743Y29569D1*
X68816Y29641D1*
X69051Y30298D2*
Y29532D1*
X69724Y30298D2*
Y29532D1*
Y29933D2*
X69651Y30006D1*
X69578Y30042D1*
X69468D1*
X69396Y30006D1*
X69323Y29933D1*
X69286Y29823D1*
Y29751D1*
X69323Y29641D1*
X69396Y29569D1*
X69468Y29532D1*
X69578D1*
X69651Y29569D1*
X69724Y29641D1*
X58602Y19131D2*
X58565Y19204D1*
X58456Y19313D1*
X59221D1*
X58456Y20059D2*
X59221D1*
X58456Y19549D1*
X59221D1*
X58456Y20731D2*
Y20368D1*
X58784Y20331D1*
X58748Y20368D1*
X58711Y20477D1*
Y20586D1*
X58748Y20695D1*
X58820Y20769D1*
X58930Y20805D1*
X59002D1*
X59112Y20769D1*
X59185Y20695D1*
X59221Y20586D1*
Y20477D1*
X59185Y20368D1*
X59148Y20331D1*
X59075Y20294D1*
X58456Y21222D2*
X58493Y21113D1*
X58565Y21076D1*
X58638D1*
X58711Y21113D1*
X58748Y21186D1*
X58784Y21332D1*
X58820Y21441D1*
X58894Y21513D1*
X58966Y21550D1*
X59075D1*
X59148Y21513D1*
X59185Y21477D1*
X59221Y21368D1*
Y21222D1*
X59185Y21113D1*
X59148Y21076D1*
X59075Y21040D1*
X58966D1*
X58894Y21076D1*
X58820Y21150D1*
X58784Y21258D1*
X58748Y21404D1*
X58711Y21477D1*
X58638Y21513D1*
X58565D1*
X58493Y21477D1*
X58456Y21368D1*
Y21222D1*
X58638Y21822D2*
X58602D1*
X58529Y21858D1*
X58493Y21894D1*
X58456Y21968D1*
Y22113D1*
X58493Y22186D1*
X58529Y22222D1*
X58602Y22259D1*
X58675D1*
X58748Y22222D1*
X58856Y22150D1*
X59221Y21785D1*
Y22295D1*
X58638Y22568D2*
X58602D1*
X58529Y22604D1*
X58493Y22640D1*
X58456Y22713D1*
Y22859D1*
X58493Y22932D1*
X58529Y22968D1*
X58602Y23005D1*
X58675D1*
X58748Y22968D1*
X58856Y22895D1*
X59221Y22531D1*
Y23041D1*
X59625Y19061D2*
X59552Y18989D1*
X59516Y18879D1*
Y18733D1*
X59552Y18624D1*
X59625Y18551D1*
X59697D1*
X59771Y18588D1*
X59807Y18624D1*
X59843Y18696D1*
X59916Y18915D1*
X59953Y18989D1*
X59990Y19025D1*
X60062Y19061D1*
X60172D1*
X60244Y18989D1*
X60281Y18879D1*
Y18733D1*
X60244Y18624D1*
X60172Y18551D1*
X59697Y19843D2*
X59625Y19807D1*
X59552Y19733D1*
X59516Y19661D1*
Y19515D1*
X59552Y19442D1*
X59625Y19370D1*
X59697Y19332D1*
X59807Y19296D1*
X59990D1*
X60098Y19332D1*
X60172Y19370D1*
X60244Y19442D1*
X60281Y19515D1*
Y19661D1*
X60244Y19733D1*
X60172Y19807D1*
X60098Y19843D1*
X59516Y20078D2*
X60281D1*
X59516Y20589D2*
X60281D1*
X59880Y20078D2*
Y20589D1*
X59516Y21043D2*
X59552Y20970D1*
X59625Y20897D1*
X59697Y20860D1*
X59807Y20824D1*
X59990D1*
X60098Y20860D1*
X60172Y20897D1*
X60244Y20970D1*
X60281Y21043D1*
Y21189D1*
X60244Y21261D1*
X60172Y21334D1*
X60098Y21371D1*
X59990Y21407D1*
X59807D1*
X59697Y21371D1*
X59625Y21334D1*
X59552Y21261D1*
X59516Y21189D1*
Y21043D1*
Y21897D2*
X60281D1*
X59516Y21642D2*
Y22153D1*
Y22643D2*
X60281D1*
X59516Y22388D2*
Y22898D1*
Y23134D2*
X59880Y23425D1*
X60281D1*
X59516Y23716D2*
X59880Y23425D1*
X60990Y18351D2*
Y18678D1*
X60953Y18788D1*
X60917Y18825D1*
X60845Y18861D1*
X60771D1*
X60699Y18825D1*
X60662Y18788D1*
X60626Y18678D1*
Y18351D1*
X61391D1*
X60990Y18606D2*
X61391Y18861D1*
X60626Y19570D2*
Y19096D1*
X61391D1*
Y19570D1*
X60990Y19096D2*
Y19388D1*
X60807Y20352D2*
X60735Y20315D1*
X60662Y20242D1*
X60626Y20170D1*
Y20024D1*
X60662Y19951D1*
X60735Y19878D1*
X60807Y19841D1*
X60917Y19805D1*
X61100D1*
X61208Y19841D1*
X61282Y19878D1*
X61354Y19951D1*
X61391Y20024D1*
Y20170D1*
X61354Y20242D1*
X61282Y20315D1*
X61208Y20352D1*
X60626Y20842D2*
X61391D1*
X60626Y20587D2*
Y21097D1*
Y21333D2*
X61391D1*
X60626Y22042D2*
Y21568D1*
X61391D1*
X60990D2*
Y21859D1*
X60626Y22277D2*
X61391D1*
X60626Y22986D2*
Y22513D1*
X61391D1*
Y22986D1*
X60990Y22513D2*
Y22804D1*
Y23221D2*
Y23549D1*
X60953Y23659D1*
X60917Y23696D1*
X60845Y23732D1*
X60771D1*
X60699Y23696D1*
X60662Y23659D1*
X60626Y23549D1*
Y23221D1*
X61391D1*
X60990Y23477D2*
X61391Y23732D1*
X11342Y54461D2*
D76*
Y53441D1*
X11683D1*
X11829Y53490D1*
X11926Y53587D1*
X11975Y53684D1*
X12023Y53829D1*
Y54073D1*
X11975Y54219D1*
X11926Y54315D1*
X11829Y54413D1*
X11683Y54461D1*
X11342D1*
X12386Y54218D2*
Y54266D1*
X12434Y54364D1*
X12483Y54412D1*
X12580Y54460D1*
X12775D1*
X12871Y54412D1*
X12920Y54364D1*
X12969Y54266D1*
Y54169D1*
X12920Y54072D1*
X12823Y53927D1*
X12337Y53441D1*
X13017D1*
X17430Y56957D2*
D75*
Y57357D1*
X17721Y57138D1*
Y57248D1*
X17757Y57320D1*
X17793Y57357D1*
X17903Y57394D1*
X17975D1*
X18085Y57357D1*
X18158Y57284D1*
X18194Y57175D1*
Y57065D1*
X18158Y56957D1*
X18121Y56920D1*
X18049Y56883D1*
X18121Y57665D2*
X18158Y57629D1*
X18194Y57665D1*
X18158Y57702D1*
X18121Y57665D1*
X17430Y58011D2*
Y58411D1*
X17721Y58193D1*
Y58302D1*
X17757Y58375D1*
X17793Y58411D1*
X17903Y58448D1*
X17975D1*
X18085Y58411D1*
X18158Y58339D1*
X18194Y58229D1*
Y58120D1*
X18158Y58011D1*
X18121Y57975D1*
X18049Y57938D1*
X17429Y58683D2*
X18194Y58975D1*
X17429Y59266D1*
X18524Y58920D2*
Y58556D1*
X18852Y58520D1*
X18816Y58556D1*
X18779Y58665D1*
Y58774D1*
X18816Y58884D1*
X18888Y58957D1*
X18998Y58993D1*
X19070D1*
X19180Y58957D1*
X19253Y58884D1*
X19289Y58774D1*
Y58665D1*
X19253Y58556D1*
X19216Y58520D1*
X19143Y58483D1*
X18779Y59228D2*
X19289Y59447D1*
X18779Y59666D1*
X20093Y57601D2*
X20019Y57529D1*
X19983Y57419D1*
Y57274D1*
X20019Y57164D1*
X20093Y57091D1*
X20165D1*
X20238Y57128D1*
X20275Y57164D1*
X20311Y57237D1*
X20384Y57456D1*
X20420Y57529D1*
X20457Y57565D1*
X20530Y57601D1*
X20639D1*
X20712Y57529D1*
X20749Y57419D1*
Y57274D1*
X20712Y57164D1*
X20639Y57091D1*
X19983Y57837D2*
X20749D1*
Y58092D1*
X20712Y58201D1*
X20639Y58275D1*
X20566Y58311D1*
X20457Y58347D1*
X20275D1*
X20165Y58311D1*
X20093Y58275D1*
X20019Y58201D1*
X19983Y58092D1*
Y57837D1*
X20749Y59166D2*
X19983Y58874D1*
X20749Y58582D1*
X20494Y58692D2*
Y59057D1*
X21063Y58920D2*
Y58556D1*
X21391Y58520D1*
X21355Y58556D1*
X21318Y58665D1*
Y58774D1*
X21355Y58884D1*
X21427Y58957D1*
X21537Y58993D1*
X21609D1*
X21719Y58957D1*
X21792Y58884D1*
X21828Y58774D1*
Y58665D1*
X21792Y58556D1*
X21755Y58520D1*
X21683Y58483D1*
X21318Y59228D2*
X21828Y59447D1*
X21318Y59666D1*
X22575Y57792D2*
X22502Y57719D1*
X22466Y57610D1*
Y57464D1*
X22502Y57355D1*
X22575Y57281D1*
X22648D1*
X22721Y57318D1*
X22757Y57355D1*
X22794Y57427D1*
X22867Y57646D1*
X22903Y57719D1*
X22940Y57756D1*
X23013Y57792D1*
X23122D1*
X23194Y57719D1*
X23232Y57610D1*
Y57464D1*
X23194Y57355D1*
X23122Y57281D1*
X22648Y58574D2*
X22575Y58537D1*
X22502Y58464D1*
X22466Y58392D1*
Y58246D1*
X22502Y58173D1*
X22575Y58100D1*
X22648Y58063D1*
X22757Y58027D1*
X22940D1*
X23049Y58063D1*
X23122Y58100D1*
X23194Y58173D1*
X23232Y58246D1*
Y58392D1*
X23194Y58464D1*
X23122Y58537D1*
X23049Y58574D1*
X22466Y58809D2*
X23232D1*
Y59246D1*
X23655Y58206D2*
X23583Y58170D1*
X23510Y58096D1*
X23473Y58024D1*
Y57878D1*
X23510Y57805D1*
X23583Y57733D1*
X23655Y57696D1*
X23765Y57659D1*
X23948D1*
X24056Y57696D1*
X24129Y57733D1*
X24202Y57805D1*
X24239Y57878D1*
Y58024D1*
X24202Y58096D1*
X24129Y58170D1*
X24056Y58206D1*
X23948D1*
Y58024D1*
X23473Y58952D2*
X24239D1*
X23473Y58441D1*
X24239D1*
X23473Y59187D2*
X24239D1*
Y59442D1*
X24202Y59552D1*
X24129Y59625D1*
X24056Y59661D1*
X23948Y59697D1*
X23765D1*
X23655Y59661D1*
X23583Y59625D1*
X23510Y59552D1*
X23473Y59442D1*
Y59187D1*
X24865Y58104D2*
X25922Y57849D1*
X24865Y58323D2*
X25922Y58068D1*
X25284Y57849D2*
Y58359D1*
X25503Y57812D2*
Y58323D1*
X25776Y58959D2*
X25011D1*
X25521Y58594D1*
Y59141D1*
X26126Y57964D2*
X26891D1*
X26126Y57708D2*
Y58219D1*
Y58454D2*
X26891Y58965D1*
X26126D2*
X26891Y58454D1*
X26126Y59200D2*
X26891D1*
Y59455D1*
X26854Y59565D1*
X26782Y59638D1*
X26708Y59674D1*
X26600Y59710D1*
X26417D1*
X26307Y59674D1*
X26235Y59638D1*
X26162Y59565D1*
X26126Y59455D1*
Y59200D1*
X27829Y57597D2*
X27756Y57560D1*
X27683Y57487D1*
X27647Y57415D1*
Y57269D1*
X27683Y57196D1*
X27756Y57123D1*
X27829Y57086D1*
X27938Y57050D1*
X28121D1*
X28230Y57086D1*
X28303Y57123D1*
X28376Y57196D1*
X28413Y57269D1*
Y57415D1*
X28376Y57487D1*
X28303Y57560D1*
X28230Y57597D1*
X28121D1*
Y57415D1*
X27647Y58342D2*
X28413D1*
X27647Y57832D1*
X28413D1*
X27647Y58578D2*
X28413D1*
Y58833D1*
X28376Y58942D1*
X28303Y59016D1*
X28230Y59052D1*
X28121Y59088D1*
X27938D1*
X27829Y59052D1*
X27756Y59016D1*
X27683Y58942D1*
X27647Y58833D1*
Y58578D1*
X29107Y57605D2*
Y57932D1*
X29069Y58042D1*
X29033Y58079D1*
X28961Y58115D1*
X28888D1*
X28815Y58079D1*
X28778Y58042D1*
X28742Y57932D1*
Y57605D1*
X29507D1*
X29107Y57860D2*
X29507Y58115D1*
X28742Y58350D2*
X29507Y58861D1*
X28742D2*
X29507Y58350D1*
X28742Y59096D2*
X29507D1*
Y59351D1*
X29470Y59461D1*
X29398Y59534D1*
X29325Y59570D1*
X29216Y59607D1*
X29033D1*
X28924Y59570D1*
X28851Y59534D1*
X28778Y59461D1*
X28742Y59351D1*
Y59096D1*
X30092Y57565D2*
X31149Y57310D1*
X30092Y57784D2*
X31149Y57528D1*
X30511Y57310D2*
Y57820D1*
X30730Y57273D2*
Y57784D1*
X30384Y58055D2*
X30347Y58128D1*
X30238Y58238D1*
X31003D1*
Y58619D2*
X30238Y58984D1*
Y58473D1*
X31202Y58200D2*
X32260Y57946D1*
X31202Y58419D2*
X32260Y58164D1*
X31622Y57946D2*
Y58456D1*
X31841Y57909D2*
Y58419D1*
X31494Y58691D2*
X31457Y58764D1*
X31349Y58874D1*
X32113D1*
X31349Y59291D2*
X31385Y59182D1*
X31457Y59145D1*
X31531D1*
X31603Y59182D1*
X31640Y59255D1*
X31676Y59400D1*
X31713Y59510D1*
X31786Y59582D1*
X31858Y59618D1*
X31968D1*
X32040Y59582D1*
X32077Y59546D1*
X32113Y59437D1*
Y59291D1*
X32077Y59182D1*
X32040Y59145D1*
X31968Y59109D1*
X31858D1*
X31786Y59145D1*
X31713Y59218D1*
X31676Y59327D1*
X31640Y59473D1*
X31603Y59546D1*
X31531Y59582D1*
X31457D1*
X31385Y59546D1*
X31349Y59437D1*
Y59291D1*
X32739Y57242D2*
X33796Y56988D1*
X32739Y57461D2*
X33796Y57206D1*
X33158Y56988D2*
Y57497D1*
X33377Y56951D2*
Y57461D1*
X33067Y57770D2*
X33031D1*
X32958Y57806D1*
X32922Y57842D1*
X32885Y57915D1*
Y58061D1*
X32922Y58134D1*
X32958Y58170D1*
X33031Y58207D1*
X33104D1*
X33177Y58170D1*
X33286Y58097D1*
X33650Y57733D1*
Y58243D1*
Y58624D2*
X32885Y58989D1*
Y58478D1*
X34079Y58132D2*
X34007Y58096D1*
X33933Y58023D1*
X33897Y57950D1*
Y57805D1*
X33933Y57731D1*
X34007Y57659D1*
X34079Y57622D1*
X34189Y57586D1*
X34371D1*
X34480Y57622D1*
X34553Y57659D1*
X34626Y57731D1*
X34663Y57805D1*
Y57950D1*
X34626Y58023D1*
X34553Y58096D1*
X34480Y58132D1*
X34371D1*
Y57950D1*
X33897Y58878D2*
X34663D1*
X33897Y58367D1*
X34663D1*
X33897Y59113D2*
X34663D1*
Y59368D1*
X34626Y59478D1*
X34553Y59551D1*
X34480Y59587D1*
X34371Y59624D1*
X34189D1*
X34079Y59587D1*
X34007Y59551D1*
X33933Y59478D1*
X33897Y59368D1*
Y59113D1*
X35222Y57341D2*
X36279Y57087D1*
X35222Y57560D2*
X36279Y57305D1*
X35641Y57087D2*
Y57597D1*
X35860Y57050D2*
Y57560D1*
X35550Y57869D2*
X35514D1*
X35441Y57905D1*
X35404Y57941D1*
X35368Y58015D1*
Y58160D1*
X35404Y58233D1*
X35441Y58269D1*
X35514Y58306D1*
X35586D1*
X35660Y58269D1*
X35768Y58197D1*
X36133Y57832D1*
Y58342D1*
X35550Y58615D2*
X35514D1*
X35441Y58651D1*
X35404Y58687D1*
X35368Y58760D1*
Y58906D1*
X35404Y58979D1*
X35441Y59015D1*
X35514Y59052D1*
X35586D1*
X35660Y59015D1*
X35768Y58942D1*
X36133Y58578D1*
Y59088D1*
X36332Y57877D2*
X37389Y57623D1*
X36332Y58096D2*
X37389Y57841D1*
X36751Y57623D2*
Y58132D1*
X36970Y57586D2*
Y58096D1*
X36660Y58405D2*
X36624D1*
X36551Y58441D1*
X36515Y58477D1*
X36478Y58550D1*
Y58696D1*
X36515Y58768D1*
X36551Y58805D1*
X36624Y58842D1*
X36697D1*
X36770Y58805D1*
X36878Y58732D1*
X37243Y58367D1*
Y58878D1*
X36478Y59186D2*
Y59587D1*
X36770Y59368D1*
Y59478D1*
X36806Y59550D1*
X36842Y59587D1*
X36952Y59624D1*
X37024D1*
X37134Y59587D1*
X37207Y59514D1*
X37243Y59405D1*
Y59295D1*
X37207Y59186D1*
X37170Y59150D1*
X37097Y59113D1*
X37784Y56925D2*
Y57325D1*
X38075Y57107D1*
Y57216D1*
X38112Y57289D1*
X38148Y57325D1*
X38257Y57362D1*
X38330D1*
X38439Y57325D1*
X38513Y57252D1*
X38549Y57143D1*
Y57033D1*
X38513Y56925D1*
X38475Y56888D1*
X38403Y56851D1*
X38475Y57633D2*
X38513Y57597D1*
X38549Y57633D1*
X38513Y57670D1*
X38475Y57633D1*
X37784Y57979D2*
Y58379D1*
X38075Y58161D1*
Y58270D1*
X38112Y58343D1*
X38148Y58379D1*
X38257Y58416D1*
X38330D1*
X38439Y58379D1*
X38513Y58307D1*
X38549Y58197D1*
Y58088D1*
X38513Y57979D1*
X38475Y57943D1*
X38403Y57906D1*
X38038Y58651D2*
X38549Y58870D1*
X38038Y59089D1*
X38733Y57859D2*
X39790Y57604D1*
X38733Y58078D2*
X39790Y57823D1*
X39152Y57604D2*
Y58114D1*
X39371Y57567D2*
Y58078D1*
X39061Y58386D2*
X39024D1*
X38951Y58423D1*
X38915Y58459D1*
X38879Y58532D1*
Y58678D1*
X38915Y58750D1*
X38951Y58786D1*
X39024Y58823D1*
X39097D1*
X39170Y58786D1*
X39279Y58714D1*
X39644Y58349D1*
Y58860D1*
Y59460D2*
X38879D1*
X39388Y59095D1*
Y59642D1*
X41067Y57203D2*
X40302D1*
X41067Y56911D1*
X40302Y56620D1*
X41067D1*
X40302Y57657D2*
X40338Y57584D1*
X40411Y57511D1*
X40484Y57474D1*
X40593Y57438D1*
X40776D1*
X40885Y57474D1*
X40958Y57511D1*
X41030Y57584D1*
X41067Y57657D1*
Y57803D1*
X41030Y57875D1*
X40958Y57949D1*
X40885Y57985D1*
X40776Y58021D1*
X40593D1*
X40484Y57985D1*
X40411Y57949D1*
X40338Y57875D1*
X40302Y57803D1*
Y57657D1*
X40411Y58767D2*
X40338Y58694D1*
X40302Y58585D1*
Y58439D1*
X40338Y58330D1*
X40411Y58256D1*
X40484D1*
X40557Y58293D1*
X40593Y58330D1*
X40629Y58402D1*
X40703Y58621D1*
X40739Y58694D1*
X40776Y58731D1*
X40848Y58767D1*
X40958D1*
X41030Y58694D1*
X41067Y58585D1*
Y58439D1*
X41030Y58330D1*
X40958Y58256D1*
X40302Y59002D2*
X41067D1*
X41578Y58132D2*
X41506Y58096D1*
X41433Y58023D1*
X41396Y57950D1*
Y57805D1*
X41433Y57731D1*
X41506Y57659D1*
X41578Y57622D1*
X41688Y57586D1*
X41871D1*
X41979Y57622D1*
X42053Y57659D1*
X42125Y57731D1*
X42162Y57805D1*
Y57950D1*
X42125Y58023D1*
X42053Y58096D1*
X41979Y58132D1*
X41871D1*
Y57950D1*
X41396Y58878D2*
X42162D1*
X41396Y58367D1*
X42162D1*
X41396Y59113D2*
X42162D1*
Y59368D1*
X42125Y59478D1*
X42053Y59551D1*
X41979Y59587D1*
X41871Y59624D1*
X41688D1*
X41578Y59587D1*
X41506Y59551D1*
X41433Y59478D1*
X41396Y59368D1*
Y59113D1*
X43606Y57203D2*
X42841D1*
X43606Y56911D1*
X42841Y56620D1*
X43606D1*
X42841Y57438D2*
X43606D1*
X42950Y58184D2*
X42877Y58111D1*
X42841Y58002D1*
Y57856D1*
X42877Y57747D1*
X42950Y57673D1*
X43023D1*
X43096Y57711D1*
X43132Y57747D1*
X43168Y57819D1*
X43242Y58038D1*
X43278Y58111D1*
X43315Y58148D1*
X43387Y58184D1*
X43497D1*
X43569Y58111D1*
X43606Y58002D1*
Y57856D1*
X43569Y57747D1*
X43497Y57673D1*
X42841Y58638D2*
X42877Y58565D1*
X42950Y58493D1*
X43023Y58455D1*
X43132Y58419D1*
X43315D1*
X43424Y58455D1*
X43497Y58493D1*
X43569Y58565D1*
X43606Y58638D1*
Y58784D1*
X43569Y58856D1*
X43497Y58930D1*
X43424Y58966D1*
X43315Y59002D1*
X43132D1*
X43023Y58966D1*
X42950Y58930D1*
X42877Y58856D1*
X42841Y58784D1*
Y58638D1*
X43790Y57918D2*
X44847Y57664D1*
X43790Y58137D2*
X44847Y57882D1*
X44209Y57664D2*
Y58173D1*
X44428Y57627D2*
Y58137D1*
X44118Y58446D2*
X44082D1*
X44009Y58482D1*
X43973Y58518D1*
X43936Y58591D1*
Y58737D1*
X43973Y58809D1*
X44009Y58846D1*
X44082Y58883D1*
X44155D1*
X44228Y58846D1*
X44337Y58773D1*
X44701Y58408D1*
Y58919D1*
X43936Y59591D2*
Y59227D1*
X44264Y59191D1*
X44228Y59227D1*
X44191Y59337D1*
Y59446D1*
X44228Y59555D1*
X44300Y59628D1*
X44410Y59665D1*
X44482D1*
X44592Y59628D1*
X44665Y59555D1*
X44701Y59446D1*
Y59337D1*
X44665Y59227D1*
X44628Y59191D1*
X44556Y59154D1*
X45511Y57534D2*
X45438Y57498D1*
X45365Y57424D1*
X45329Y57352D1*
Y57206D1*
X45365Y57133D1*
X45438Y57060D1*
X45511Y57023D1*
X45620Y56987D1*
X45803D1*
X45911Y57023D1*
X45985Y57060D1*
X46057Y57133D1*
X46094Y57206D1*
Y57352D1*
X46057Y57424D1*
X45985Y57498D1*
X45911Y57534D1*
X45329Y57769D2*
X46094D1*
Y58206D1*
X45329Y58441D2*
X46094D1*
X45329Y58952D2*
X45839Y58441D1*
X45656Y58623D2*
X46094Y58952D1*
X46641Y58251D2*
X46569Y58214D1*
X46496Y58141D1*
X46459Y58069D1*
Y57923D1*
X46496Y57850D1*
X46569Y57777D1*
X46641Y57740D1*
X46751Y57704D1*
X46934D1*
X47042Y57740D1*
X47116Y57777D1*
X47188Y57850D1*
X47225Y57923D1*
Y58069D1*
X47188Y58141D1*
X47116Y58214D1*
X47042Y58251D1*
X46459Y58959D2*
Y58486D1*
X47225D1*
Y58959D1*
X46824Y58486D2*
Y58777D1*
X46460Y59414D2*
X46496Y59304D1*
X46606Y59231D1*
X46788Y59195D1*
X46897D1*
X47079Y59231D1*
X47189Y59304D1*
X47225Y59414D1*
Y59486D1*
X47189Y59595D1*
X47079Y59668D1*
X46897Y59705D1*
X46788D1*
X46606Y59668D1*
X46496Y59595D1*
X46460Y59486D1*
Y59414D1*
X46606Y59668D2*
X47079Y59231D1*
X48091Y57497D2*
X48018Y57461D1*
X47945Y57388D1*
X47909Y57315D1*
Y57170D1*
X47945Y57096D1*
X48018Y57024D1*
X48091Y56987D1*
X48200Y56951D1*
X48383D1*
X48492Y56987D1*
X48565Y57024D1*
X48637Y57096D1*
X48675Y57170D1*
Y57315D1*
X48637Y57388D1*
X48565Y57461D1*
X48492Y57497D1*
X48383D1*
Y57315D1*
X47909Y58243D2*
X48675D1*
X47909Y57733D1*
X48675D1*
X47909Y58478D2*
X48675D1*
Y58734D1*
X48637Y58843D1*
X48565Y58916D1*
X48492Y58953D1*
X48383Y58989D1*
X48200D1*
X48091Y58953D1*
X48018Y58916D1*
X47945Y58843D1*
X47909Y58734D1*
Y58478D1*
X49175Y58515D2*
X49103Y58479D1*
X49030Y58405D1*
X48993Y58333D1*
Y58187D1*
X49030Y58114D1*
X49103Y58041D1*
X49175Y58004D1*
X49285Y57968D1*
X49468D1*
X49576Y58004D1*
X49650Y58041D1*
X49722Y58114D1*
X49759Y58187D1*
Y58333D1*
X49722Y58405D1*
X49650Y58479D1*
X49576Y58515D1*
X48993Y59223D2*
Y58750D1*
X49759D1*
Y59223D1*
X49358Y58750D2*
Y59041D1*
X49140Y59459D2*
X49103Y59532D1*
X48994Y59641D1*
X49759D1*
X50376Y55952D2*
X51142D1*
X50376Y56188D2*
X51142D1*
Y56443D1*
X51105Y56552D1*
X51032Y56626D1*
X50959Y56662D1*
X50850Y56698D1*
X50668D1*
X50558Y56662D1*
X50486Y56626D1*
X50412Y56552D1*
X50376Y56443D1*
Y56188D1*
X50486Y58185D2*
X50412Y58112D1*
X50376Y58003D1*
Y57857D1*
X50412Y57747D1*
X50486Y57674D1*
X50558D1*
X50631Y57711D1*
X50668Y57747D1*
X50704Y57820D1*
X50777Y58039D1*
X50813Y58112D1*
X50850Y58148D1*
X50923Y58185D1*
X51032D1*
X51105Y58112D1*
X51142Y58003D1*
Y57857D1*
X51105Y57747D1*
X51032Y57674D1*
X50376Y58420D2*
X51142D1*
Y58675D1*
X51105Y58785D1*
X51032Y58858D1*
X50959Y58894D1*
X50850Y58930D1*
X50668D1*
X50558Y58894D1*
X50486Y58858D1*
X50412Y58785D1*
X50376Y58675D1*
Y58420D1*
X51661Y56610D2*
X52427D1*
X51661Y56845D2*
X52427D1*
Y57101D1*
X52390Y57210D1*
X52317Y57283D1*
X52244Y57320D1*
X52135Y57356D1*
X51953D1*
X51843Y57320D1*
X51771Y57283D1*
X51697Y57210D1*
X51661Y57101D1*
Y56845D1*
X51771Y58842D2*
X51697Y58770D1*
X51661Y58660D1*
Y58514D1*
X51697Y58405D1*
X51771Y58332D1*
X51843D1*
X51916Y58369D1*
X51953Y58405D1*
X51989Y58477D1*
X52062Y58696D1*
X52098Y58770D1*
X52135Y58806D1*
X52208Y58842D1*
X52317D1*
X52390Y58770D1*
X52427Y58660D1*
Y58514D1*
X52390Y58405D1*
X52317Y58332D1*
X51843Y59624D2*
X51771Y59588D1*
X51697Y59515D1*
X51661Y59442D1*
Y59296D1*
X51697Y59223D1*
X51771Y59151D1*
X51843Y59114D1*
X51953Y59077D1*
X52135D1*
X52244Y59114D1*
X52317Y59151D1*
X52390Y59223D1*
X52427Y59296D1*
Y59442D1*
X52390Y59515D1*
X52317Y59588D1*
X52244Y59624D1*
X52785Y57933D2*
X53842Y57678D1*
X52785Y58152D2*
X53842Y57896D1*
X53204Y57678D2*
Y58188D1*
X53423Y57641D2*
Y58152D1*
X52931Y58860D2*
Y58496D1*
X53259Y58460D1*
X53223Y58496D1*
X53186Y58606D1*
Y58714D1*
X53223Y58824D1*
X53295Y58897D1*
X53405Y58933D1*
X53477D1*
X53587Y58897D1*
X53660Y58824D1*
X53696Y58714D1*
Y58606D1*
X53660Y58496D1*
X53623Y58460D1*
X53551Y58423D1*
X54120Y58173D2*
X54048Y58137D1*
X53974Y58064D1*
X53938Y57991D1*
Y57846D1*
X53974Y57772D1*
X54048Y57700D1*
X54120Y57663D1*
X54230Y57627D1*
X54412D1*
X54521Y57663D1*
X54594Y57700D1*
X54667Y57772D1*
X54704Y57846D1*
Y57991D1*
X54667Y58064D1*
X54594Y58137D1*
X54521Y58173D1*
X54412D1*
Y57991D1*
X53938Y58919D2*
X54704D1*
X53938Y58408D1*
X54704D1*
X53938Y59154D2*
X54704D1*
Y59409D1*
X54667Y59519D1*
X54594Y59592D1*
X54521Y59628D1*
X54412Y59665D1*
X54230D1*
X54120Y59628D1*
X54048Y59592D1*
X53974Y59519D1*
X53938Y59409D1*
Y59154D1*
X55510Y57792D2*
X56567Y57538D1*
X55510Y58011D2*
X56567Y57756D1*
X55929Y57538D2*
Y58047D1*
X56148Y57501D2*
Y58011D1*
X55764Y58720D2*
X55692Y58684D1*
X55656Y58574D1*
Y58502D1*
X55692Y58392D1*
X55801Y58319D1*
X55983Y58283D1*
X56165D1*
X56311Y58319D1*
X56384Y58392D1*
X56421Y58502D1*
Y58538D1*
X56384Y58647D1*
X56311Y58720D1*
X56202Y58756D1*
X56165D1*
X56056Y58720D1*
X55983Y58647D1*
X55947Y58538D1*
Y58502D1*
X55983Y58392D1*
X56056Y58319D1*
X56165Y58283D1*
X56527Y58241D2*
X57584Y57987D1*
X56527Y58460D2*
X57584Y58205D1*
X56946Y57987D2*
Y58497D1*
X57165Y57950D2*
Y58460D1*
X56819Y58732D2*
X56782Y58805D1*
X56673Y58915D1*
X57438D1*
X56855Y59187D2*
X56819D1*
X56746Y59223D1*
X56710Y59259D1*
X56673Y59333D1*
Y59478D1*
X56710Y59551D1*
X56746Y59587D1*
X56819Y59624D1*
X56892D1*
X56965Y59587D1*
X57074Y59515D1*
X57438Y59150D1*
Y59660D1*
X57977Y57406D2*
X59034Y57152D1*
X57977Y57625D2*
X59034Y57370D1*
X58396Y57152D2*
Y57661D1*
X58615Y57115D2*
Y57625D1*
X58269Y57897D2*
X58232Y57970D1*
X58123Y58079D1*
X58888D1*
X58123Y58388D2*
Y58788D1*
X58414Y58570D1*
Y58679D1*
X58451Y58752D1*
X58487Y58788D1*
X58596Y58825D1*
X58669D1*
X58778Y58788D1*
X58851Y58716D1*
X58888Y58606D1*
Y58497D1*
X58851Y58388D1*
X58814Y58352D1*
X58742Y58315D1*
X59260Y58173D2*
X59188Y58137D1*
X59114Y58064D1*
X59078Y57991D1*
Y57846D1*
X59114Y57772D1*
X59188Y57700D1*
X59260Y57663D1*
X59370Y57627D1*
X59552D1*
X59661Y57663D1*
X59734Y57700D1*
X59807Y57772D1*
X59844Y57846D1*
Y57991D1*
X59807Y58064D1*
X59734Y58137D1*
X59661Y58173D1*
X59552D1*
Y57991D1*
X59078Y58919D2*
X59844D1*
X59078Y58408D1*
X59844D1*
X59078Y59154D2*
X59844D1*
Y59409D1*
X59807Y59519D1*
X59734Y59592D1*
X59661Y59628D1*
X59552Y59665D1*
X59370D1*
X59260Y59628D1*
X59188Y59592D1*
X59114Y59519D1*
X59078Y59409D1*
Y59154D1*
X60500Y57424D2*
X61558Y57170D1*
X60500Y57643D2*
X61558Y57388D1*
X60920Y57170D2*
Y57679D1*
X61139Y57133D2*
Y57643D1*
X60792Y57915D2*
X60755Y57988D1*
X60647Y58098D1*
X61411D1*
X60901Y58807D2*
X61011Y58770D1*
X61084Y58698D1*
X61120Y58588D1*
Y58552D1*
X61084Y58442D1*
X61011Y58370D1*
X60901Y58333D1*
X60865D1*
X60755Y58370D1*
X60683Y58442D1*
X60647Y58552D1*
Y58588D1*
X60683Y58698D1*
X60755Y58770D1*
X60901Y58807D1*
X61084D1*
X61266Y58770D1*
X61375Y58698D1*
X61411Y58588D1*
Y58516D1*
X61375Y58406D1*
X61302Y58370D1*
X61611Y58260D2*
X62668Y58005D1*
X61611Y58479D2*
X62668Y58223D1*
X62030Y58005D2*
Y58515D1*
X62249Y57968D2*
Y58479D1*
X61903Y58750D2*
X61866Y58823D1*
X61757Y58933D1*
X62522D1*
X61866Y59605D2*
X61793Y59569D1*
X61757Y59460D1*
Y59387D1*
X61793Y59278D1*
X61903Y59204D1*
X62085Y59168D1*
X62266D1*
X62412Y59204D1*
X62485Y59278D1*
X62522Y59387D1*
Y59423D1*
X62485Y59532D1*
X62412Y59605D1*
X62303Y59641D1*
X62266D1*
X62157Y59605D1*
X62085Y59532D1*
X62048Y59423D1*
Y59387D1*
X62085Y59278D1*
X62157Y59204D1*
X62266Y59168D1*
X63045Y57102D2*
X64102Y56847D1*
X63045Y57321D2*
X64102Y57066D1*
X63464Y56847D2*
Y57357D1*
X63683Y56810D2*
Y57321D1*
X63373Y57629D2*
X63337D1*
X63263Y57666D1*
X63227Y57702D1*
X63191Y57775D1*
Y57921D1*
X63227Y57993D1*
X63263Y58029D1*
X63337Y58067D1*
X63409D1*
X63482Y58029D1*
X63591Y57957D1*
X63956Y57592D1*
Y58103D1*
X63300Y58775D2*
X63227Y58739D1*
X63191Y58630D1*
Y58557D1*
X63227Y58448D1*
X63337Y58374D1*
X63519Y58338D1*
X63701D1*
X63846Y58374D1*
X63920Y58448D1*
X63956Y58557D1*
Y58593D1*
X63920Y58702D1*
X63846Y58775D1*
X63737Y58811D1*
X63701D1*
X63591Y58775D1*
X63519Y58702D1*
X63482Y58593D1*
Y58557D1*
X63519Y58448D1*
X63591Y58374D1*
X63701Y58338D1*
X64176Y57918D2*
X65233Y57664D1*
X64176Y58137D2*
X65233Y57882D1*
X64595Y57664D2*
Y58173D1*
X64814Y57627D2*
Y58137D1*
X64504Y58446D2*
X64467D1*
X64394Y58482D1*
X64358Y58518D1*
X64322Y58591D1*
Y58737D1*
X64358Y58809D1*
X64394Y58846D1*
X64467Y58883D1*
X64540D1*
X64613Y58846D1*
X64722Y58773D1*
X65087Y58408D1*
Y58919D1*
X64322Y59373D2*
X64358Y59264D1*
X64467Y59190D1*
X64649Y59154D1*
X64759D1*
X64941Y59190D1*
X65050Y59264D1*
X65087Y59373D1*
Y59446D1*
X65050Y59555D1*
X64941Y59628D1*
X64759Y59665D1*
X64649D1*
X64467Y59628D1*
X64358Y59555D1*
X64322Y59446D1*
Y59373D1*
X64467Y59628D2*
X64941Y59190D1*
X65932Y57280D2*
X65859Y57243D1*
X65786Y57170D1*
X65750Y57098D1*
Y56952D1*
X65786Y56879D1*
X65859Y56806D1*
X65932Y56769D1*
X66041Y56733D1*
X66224D1*
X66333Y56769D1*
X66406Y56806D1*
X66478Y56879D1*
X66515Y56952D1*
Y57098D1*
X66478Y57170D1*
X66406Y57243D1*
X66333Y57280D1*
X66224D1*
Y57098D1*
X65750Y58025D2*
X66515D1*
X65750Y57515D1*
X66515D1*
X65750Y58261D2*
X66515D1*
Y58516D1*
X66478Y58625D1*
X66406Y58699D1*
X66333Y58735D1*
X66224Y58771D1*
X66041D1*
X65932Y58735D1*
X65859Y58699D1*
X65786Y58625D1*
X65750Y58516D1*
Y58261D1*
X66710Y58141D2*
X67767Y57887D1*
X66710Y58360D2*
X67767Y58105D1*
X67129Y57887D2*
Y58396D1*
X67348Y57850D2*
Y58360D1*
X67038Y58669D2*
X67001D1*
X66928Y58705D1*
X66892Y58741D1*
X66856Y58814D1*
Y58960D1*
X66892Y59033D1*
X66928Y59069D1*
X67001Y59106D1*
X67074D1*
X67147Y59069D1*
X67256Y58996D1*
X67621Y58632D1*
Y59142D1*
X67001Y59377D2*
X66964Y59451D1*
X66856Y59560D1*
X67621D1*
X18344Y27413D2*
X17688D1*
X18016Y27741D2*
Y27085D1*
X18253Y26850D2*
X18290Y26776D1*
X18399Y26667D1*
X17634D1*
X18217Y26394D2*
X18253D1*
X18326Y26358D1*
X18362Y26322D1*
X18399Y26249D1*
Y26103D1*
X18362Y26031D1*
X18326Y25994D1*
X18253Y25957D1*
X18180D1*
X18107Y25994D1*
X17998Y26067D1*
X17634Y26432D1*
Y25921D1*
X18144Y25686D2*
X17634Y25467D1*
X18144Y25249D1*
X18183Y23328D2*
X18255Y23365D1*
X18329Y23438D1*
X18365Y23510D1*
Y23656D1*
X18329Y23729D1*
X18255Y23802D1*
X18183Y23839D1*
X18073Y23875D1*
X17891D1*
X17782Y23839D1*
X17709Y23802D1*
X17636Y23729D1*
X17599Y23656D1*
Y23510D1*
X17636Y23438D1*
X17709Y23365D1*
X17782Y23328D1*
X17891D1*
Y23510D1*
X18365Y22583D2*
X17599D1*
X18365Y23093D1*
X17599D1*
X18365Y22347D2*
X17599D1*
Y22092D1*
X17636Y21983D1*
X17709Y21909D1*
X17782Y21873D1*
X17891Y21837D1*
X18073D1*
X18183Y21873D1*
X18255Y21909D1*
X18329Y21983D1*
X18365Y22092D1*
Y22347D1*
X72274Y29434D2*
Y28777D1*
X71946Y29105D2*
X72602D1*
X73275Y29488D2*
X72911D1*
X72875Y29160D1*
X72911Y29196D1*
X73020Y29234D1*
X73129D1*
X73239Y29196D1*
X73312Y29124D1*
X73348Y29015D1*
Y28942D1*
X73312Y28833D1*
X73239Y28759D1*
X73129Y28723D1*
X73020D1*
X72911Y28759D1*
X72875Y28796D1*
X72838Y28869D1*
X73583Y29234D2*
X73802Y28723D1*
X74021Y29234D1*
X72898Y26181D2*
D12*
X72849Y26157D1*
X72801Y26108D1*
X72776Y26059D1*
X72752Y25986D1*
Y25865D1*
X72776Y25792D1*
X72801Y25743D1*
X72849Y25695D1*
X72898Y25670D1*
X72995D1*
X73043Y25695D1*
X73092Y25743D1*
X73116Y25792D1*
X73140Y25865D1*
Y25986D1*
X73116Y26059D1*
X73092Y26108D1*
X73043Y26157D1*
X72995Y26181D1*
X72898D1*
X73297D2*
Y25816D1*
X73321Y25743D1*
X73370Y25695D1*
X73443Y25670D1*
X73492D1*
X73565Y25695D1*
X73613Y25743D1*
X73638Y25816D1*
Y26181D1*
X73965D2*
Y25670D1*
X73794Y26181D2*
X74135D1*
X71946Y26791D2*
D75*
X72237Y26025D1*
X72529Y26791D1*
X72482Y24179D2*
X72445Y24251D1*
X72372Y24324D1*
X72300Y24361D1*
X72154D1*
X72081Y24324D1*
X72008Y24251D1*
X71971Y24179D1*
X71935Y24069D1*
Y23886D1*
X71971Y23778D1*
X72008Y23705D1*
X72081Y23632D1*
X72154Y23595D1*
X72300D1*
X72372Y23632D1*
X72445Y23705D1*
X72482Y23778D1*
Y23886D1*
X72300D1*
X73227Y24361D2*
Y23595D1*
X72717Y24361D1*
Y23595D1*
X73463Y24361D2*
Y23595D1*
X73718D1*
X73827Y23632D1*
X73901Y23705D1*
X73937Y23778D1*
X73973Y23886D1*
Y24069D1*
X73937Y24179D1*
X73901Y24251D1*
X73827Y24324D1*
X73718Y24361D1*
X73463D1*
X72460Y21686D2*
X72387Y21759D1*
X72278Y21795D1*
X72132D1*
X72023Y21759D1*
X71949Y21686D1*
Y21614D1*
X71987Y21540D1*
X72023Y21504D1*
X72095Y21468D1*
X72314Y21395D1*
X72387Y21358D1*
X72424Y21321D1*
X72460Y21249D1*
Y21139D1*
X72387Y21067D1*
X72278Y21030D1*
X72132D1*
X72023Y21067D1*
X71949Y21139D1*
X72695Y21795D2*
Y21030D1*
X72950D1*
X73060Y21067D1*
X73133Y21139D1*
X73169Y21213D1*
X73206Y21321D1*
Y21504D1*
X73169Y21614D1*
X73133Y21686D1*
X73060Y21759D1*
X72950Y21795D1*
X72695D1*
X73660D2*
X73587Y21759D1*
X73514Y21686D1*
X73477Y21614D1*
X73441Y21504D1*
Y21321D1*
X73477Y21213D1*
X73514Y21139D1*
X73587Y21067D1*
X73660Y21030D1*
X73806D1*
X73878Y21067D1*
X73951Y21139D1*
X73988Y21213D1*
X74024Y21321D1*
Y21504D1*
X73988Y21614D1*
X73951Y21686D1*
X73878Y21759D1*
X73806Y21795D1*
X73660D1*
X72513Y19126D2*
X72477Y19199D1*
X72403Y19272D1*
X72331Y19308D1*
X72185D1*
X72112Y19272D1*
X72040Y19199D1*
X72003Y19126D1*
X71966Y19017D1*
Y18834D1*
X72003Y18726D1*
X72040Y18652D1*
X72112Y18580D1*
X72185Y18543D1*
X72331D1*
X72403Y18580D1*
X72477Y18652D1*
X72513Y18726D1*
X72748Y19308D2*
Y18543D1*
X73185D1*
X73421Y19308D2*
Y18543D1*
X73931Y19308D2*
X73421Y18798D1*
X73603Y18981D2*
X73931Y18543D1*
M02*
