G04 DipTrace 2.4.0.1*
%INTopSilk.gbr*%
%MOMM*%
%ADD10C,0.25*%
%ADD12C,0.076*%
%ADD81C,0.196*%
%ADD82C,0.118*%
%ADD83C,0.157*%
%ADD84C,0.235*%
%FSLAX53Y53*%
G04*
G71*
G90*
G75*
G01*
%LNTopSilk*%
%LPD*%
X20710Y25991D2*
D10*
X20705Y34145D1*
X20710Y32051D2*
X37718D1*
Y28090D1*
X20710D1*
Y32051D1*
X24206Y28050D2*
X26208Y30051D1*
X37720Y34041D2*
Y25991D1*
X20710Y34181D2*
G02X22178Y34795I839J57D01*
G01*
X23277D2*
G02X23777Y35075I569J-429D01*
G01*
X22178Y34795D2*
G03X23277Y34795I550J216D01*
G01*
X20710Y26061D2*
G03X22160Y25358I822J-151D01*
G01*
X23262D2*
G03X23759Y25077I568J426D01*
G01*
X22160Y25358D2*
G02X23262Y25358I551J-218D01*
G01*
X36739Y35091D2*
X23788D1*
X36807Y25080D2*
X23788D1*
X36687Y35075D2*
G02X37720Y34041I23J-1011D01*
G01*
X36739Y25077D2*
G03X37736Y26077I29J968D01*
G01*
X26208Y30051D2*
X24206Y32051D1*
X31348Y28050D2*
X33350Y30051D1*
X31348Y32051D1*
X20707Y30751D2*
X23649D1*
Y29351D1*
X20707D1*
Y30751D1*
X27208D2*
X30508D1*
Y29351D1*
X27208D1*
Y30751D1*
X19004Y30476D2*
Y29206D1*
X34208Y30751D2*
X37579D1*
Y29351D1*
X34208D1*
Y30751D1*
X19637Y29841D2*
X18368D1*
X39958D2*
X38689D1*
X20569Y36736D2*
X20566Y44891D1*
X20569Y42796D2*
X41569D1*
Y38795D1*
X20569D1*
Y42796D1*
X24067Y38795D2*
X26067Y40796D1*
X41569Y44786D2*
Y36736D1*
X20569Y44926D2*
G02X22038Y45540I839J56D01*
G01*
X23139D2*
G02X23636Y45820I561J-414D01*
G01*
X22038Y45540D2*
G03X23139Y45540I550J217D01*
G01*
X20569Y36806D2*
G03X22020Y36102I823J-150D01*
G01*
X23120D2*
G03X23618Y35822I573J434D01*
G01*
X22020Y36102D2*
G02X23120Y36102I550J-216D01*
G01*
X40517Y45836D2*
X23648D1*
X40589Y35825D2*
X23648D1*
X40538Y45820D2*
G02X41569Y44786I21J-1010D01*
G01*
X40589Y35822D2*
G03X41587Y36822I29J969D01*
G01*
X26067Y40796D2*
X24067Y42796D1*
X31209Y38795D2*
X33209Y40796D1*
X31209Y42796D1*
X38348Y38795D2*
X40348Y40796D1*
X38348Y42796D1*
X31068Y40796D2*
X29819Y42046D1*
X31068Y40796D2*
X29819Y39545D1*
Y42046D2*
Y41546D1*
X27569D1*
Y40045D1*
X29819D2*
Y39545D1*
Y40045D2*
X27569D1*
X28567Y40896D2*
X29569D1*
Y40695D1*
X28567D1*
Y40896D1*
X23929Y40796D2*
X22677Y42046D1*
X23929Y40796D2*
X22677Y39545D1*
Y42046D2*
Y41546D1*
X20569D1*
X19004Y41431D2*
Y40160D1*
X22677Y40045D2*
Y39545D1*
Y40045D2*
X20569D1*
X21428Y40896D2*
X22427D1*
Y40695D1*
X21428D1*
Y40896D1*
X38137Y40796D2*
X36888Y42046D1*
X38137Y40796D2*
X36888Y39545D1*
Y42046D2*
Y41546D1*
X34639D1*
Y40045D1*
X36888D2*
Y39545D1*
Y40045D2*
X34639D1*
X35637Y40896D2*
X36638D1*
Y40695D1*
X35637D1*
Y40896D1*
X19637Y40796D2*
X18367D1*
X43768D2*
X42498D1*
X57053Y26498D2*
Y16894D1*
X62653Y26498D2*
Y16894D1*
X57053Y26498D2*
X62653D1*
X57053Y17602D2*
Y16807D1*
X62653D1*
Y17602D1*
Y25502D2*
X57053D1*
X15953Y52040D2*
X12147D1*
X15961Y52046D2*
G03X12139Y52046I-1911J2535D01*
G01*
X16845Y65052D2*
X68245D1*
Y60052D1*
X16845D1*
Y65052D1*
X10050Y28180D2*
X17050D1*
Y21180D1*
X10050D1*
Y28180D1*
X38800Y27930D2*
X52000D1*
Y9930D1*
X38800D1*
Y27930D1*
X67118Y20210D2*
X66102D1*
X67118Y27830D2*
X66102D1*
X65340Y20842D2*
Y27198D1*
X67880Y20842D2*
Y27198D1*
X67245Y20210D2*
X67880Y20842D1*
X65975Y20210D2*
X65340Y20842D1*
Y27198D2*
X65975Y27830D1*
X67880Y27198D2*
X67245Y27830D1*
X67880Y11595D2*
Y15405D1*
X67245Y16040D1*
X65975D1*
X65340Y15405D2*
X65975Y16040D1*
X65340Y11595D2*
Y15405D1*
X65975Y10960D2*
X65340Y11595D1*
X67245Y10960D2*
X65975D1*
X67245D2*
X67880Y11595D1*
X46104Y44955D2*
G02X46104Y44955I10922J0D01*
G01*
X53026D2*
G02X53026Y44955I4000J0D01*
G01*
X74461Y58979D2*
X69961D1*
Y48979D1*
X74461D1*
Y58979D1*
X73561D2*
Y48979D1*
X20415Y47710D2*
X15345D1*
Y50250D2*
Y47710D1*
X20415Y50250D2*
X15345D1*
X20415D2*
Y47710D1*
X17484Y20187D2*
X36784D1*
Y10027D1*
X17484D1*
Y20187D1*
X25350Y53880D2*
X44950D1*
Y48680D2*
Y53880D1*
X25350Y48680D2*
X44950D1*
X25350D2*
Y50680D1*
Y53880D2*
Y51880D1*
Y50680D2*
G03X25350Y51880I0J600D01*
G01*
X74060Y44720D2*
Y34120D1*
X74560Y44720D2*
Y34120D1*
X69660Y44720D2*
Y34120D1*
Y44720D2*
X74560D1*
X69660Y34120D2*
X74560D1*
G36*
X64740Y27250D2*
X65060D1*
Y23600D1*
X64740D1*
Y27250D1*
G37*
G36*
X68130Y24440D2*
X68450D1*
Y20790D1*
X68130D1*
Y24440D1*
G37*
X17838Y32202D2*
D81*
X17778Y32323D1*
X17655Y32445D1*
X17535Y32505D1*
X17292D1*
X17170Y32445D1*
X17049Y32323D1*
X16987Y32202D1*
X16927Y32020D1*
Y31715D1*
X16987Y31534D1*
X17049Y31412D1*
X17170Y31291D1*
X17292Y31229D1*
X17535D1*
X17655Y31291D1*
X17778Y31412D1*
X17838Y31534D1*
X18230Y32261D2*
X18352Y32323D1*
X18535Y32504D1*
Y31229D1*
X26328Y26940D2*
X26450Y27001D1*
X26632Y27183D1*
Y25908D1*
X27390Y27183D2*
X27207Y27122D1*
X27085Y26940D1*
X27025Y26636D1*
Y26454D1*
X27085Y26151D1*
X27207Y25968D1*
X27390Y25908D1*
X27510D1*
X27693Y25968D1*
X27814Y26151D1*
X27875Y26454D1*
Y26636D1*
X27814Y26940D1*
X27693Y27122D1*
X27510Y27183D1*
X27390D1*
X27814Y26940D2*
X27085Y26151D1*
X28632Y27183D2*
X28450Y27122D1*
X28328Y26940D1*
X28267Y26636D1*
Y26454D1*
X28328Y26151D1*
X28450Y25968D1*
X28632Y25908D1*
X28753D1*
X28936Y25968D1*
X29056Y26151D1*
X29118Y26454D1*
Y26636D1*
X29056Y26940D1*
X28936Y27122D1*
X28753Y27183D1*
X28632D1*
X29056Y26940D2*
X28328Y26151D1*
X29510Y26759D2*
Y26151D1*
X29571Y25970D1*
X29693Y25908D1*
X29875D1*
X29996Y25970D1*
X30179Y26151D1*
Y26759D2*
Y25908D1*
X31361Y27184D2*
X30571D1*
Y25908D1*
Y26576D2*
X31056D1*
X17655Y43265D2*
X17594Y43386D1*
X17472Y43508D1*
X17351Y43568D1*
X17109D1*
X16986Y43508D1*
X16866Y43386D1*
X16804Y43265D1*
X16744Y43082D1*
Y42778D1*
X16804Y42597D1*
X16866Y42475D1*
X16986Y42354D1*
X17109Y42292D1*
X17351D1*
X17472Y42354D1*
X17594Y42475D1*
X17655Y42597D1*
X18109Y43264D2*
Y43324D1*
X18169Y43446D1*
X18229Y43506D1*
X18351Y43567D1*
X18594D1*
X18715Y43506D1*
X18775Y43446D1*
X18837Y43324D1*
Y43203D1*
X18775Y43081D1*
X18655Y42900D1*
X18047Y42292D1*
X18898D1*
X27543Y37684D2*
X27665Y37746D1*
X27847Y37927D1*
Y36652D1*
X28604Y37927D2*
X28422Y37867D1*
X28300Y37684D1*
X28239Y37381D1*
Y37198D1*
X28300Y36895D1*
X28422Y36713D1*
X28604Y36652D1*
X28725D1*
X28908Y36713D1*
X29028Y36895D1*
X29090Y37198D1*
Y37381D1*
X29028Y37684D1*
X28908Y37867D1*
X28725Y37927D1*
X28604D1*
X29028Y37684D2*
X28300Y36895D1*
X29847Y37927D2*
X29665Y37867D1*
X29543Y37684D1*
X29482Y37381D1*
Y37198D1*
X29543Y36895D1*
X29665Y36713D1*
X29847Y36652D1*
X29968D1*
X30150Y36713D1*
X30271Y36895D1*
X30333Y37198D1*
Y37381D1*
X30271Y37684D1*
X30150Y37867D1*
X29968Y37927D1*
X29847D1*
X30271Y37684D2*
X29543Y36895D1*
X31090Y37927D2*
X30908Y37867D1*
X30785Y37684D1*
X30725Y37381D1*
Y37198D1*
X30785Y36895D1*
X30908Y36713D1*
X31090Y36652D1*
X31211D1*
X31393Y36713D1*
X31514Y36895D1*
X31576Y37198D1*
Y37381D1*
X31514Y37684D1*
X31393Y37867D1*
X31211Y37927D1*
X31090D1*
X31514Y37684D2*
X30785Y36895D1*
X31968Y37503D2*
Y36895D1*
X32028Y36714D1*
X32151Y36652D1*
X32333D1*
X32454Y36714D1*
X32636Y36895D1*
Y37503D2*
Y36652D1*
X33819Y37928D2*
X33028D1*
Y36652D1*
Y37321D2*
X33514D1*
X56409Y31484D2*
Y30208D1*
X56834D1*
X57017Y30270D1*
X57139Y30391D1*
X57199Y30513D1*
X57259Y30694D1*
Y30998D1*
X57199Y31181D1*
X57139Y31302D1*
X57017Y31424D1*
X56834Y31484D1*
X56409D1*
X57652Y31240D2*
X57774Y31302D1*
X57956Y31483D1*
Y30208D1*
X14674Y55412D2*
Y54136D1*
X15100D1*
X15282Y54198D1*
X15404Y54318D1*
X15465Y54440D1*
X15525Y54622D1*
Y54926D1*
X15465Y55109D1*
X15404Y55229D1*
X15282Y55352D1*
X15100Y55412D1*
X14674D1*
X15979Y55107D2*
Y55168D1*
X16039Y55290D1*
X16100Y55350D1*
X16222Y55410D1*
X16465D1*
X16586Y55350D1*
X16646Y55290D1*
X16708Y55168D1*
Y55047D1*
X16646Y54925D1*
X16525Y54744D1*
X15917Y54136D1*
X16768D1*
X11071Y27129D2*
Y26157D1*
X11011Y25975D1*
X10949Y25914D1*
X10828Y25853D1*
X10706D1*
X10585Y25914D1*
X10525Y25975D1*
X10463Y26157D1*
Y26278D1*
X11525Y26824D2*
Y26884D1*
X11585Y27006D1*
X11646Y27067D1*
X11768Y27127D1*
X12011D1*
X12132Y27067D1*
X12192Y27006D1*
X12254Y26884D1*
Y26764D1*
X12192Y26641D1*
X12071Y26460D1*
X11463Y25853D1*
X12314D1*
X41132Y24780D2*
Y23809D1*
X41072Y23626D1*
X41010Y23566D1*
X40889Y23504D1*
X40767D1*
X40647Y23566D1*
X40586Y23626D1*
X40524Y23809D1*
Y23929D1*
X41647Y24779D2*
X42313D1*
X41950Y24293D1*
X42132D1*
X42253Y24233D1*
X42313Y24172D1*
X42375Y23990D1*
Y23869D1*
X42313Y23687D1*
X42193Y23564D1*
X42010Y23504D1*
X41828D1*
X41647Y23564D1*
X41586Y23626D1*
X41524Y23747D1*
X64252Y55355D2*
Y54079D1*
X64980D1*
X65372Y55111D2*
X65495Y55173D1*
X65677Y55354D1*
Y54079D1*
X54021Y38439D2*
X54143Y38500D1*
X54325Y38681D1*
Y37407D1*
X55082Y38681D2*
X54900Y38621D1*
X54778Y38439D1*
X54717Y38135D1*
Y37953D1*
X54778Y37650D1*
X54900Y37467D1*
X55082Y37407D1*
X55203D1*
X55386Y37467D1*
X55506Y37650D1*
X55568Y37953D1*
Y38135D1*
X55506Y38439D1*
X55386Y38621D1*
X55203Y38681D1*
X55082D1*
X55506Y38439D2*
X54778Y37650D1*
X56325Y38681D2*
X56143Y38621D1*
X56021Y38439D1*
X55960Y38135D1*
Y37953D1*
X56021Y37650D1*
X56143Y37467D1*
X56325Y37407D1*
X56446D1*
X56629Y37467D1*
X56749Y37650D1*
X56811Y37953D1*
Y38135D1*
X56749Y38439D1*
X56629Y38621D1*
X56446Y38681D1*
X56325D1*
X56749Y38439D2*
X56021Y37650D1*
X58438Y38257D2*
Y37650D1*
X58498Y37468D1*
X58620Y37407D1*
X58803D1*
X58923Y37468D1*
X59106Y37650D1*
Y38257D2*
Y37407D1*
X59498Y38683D2*
Y37407D1*
X60349Y38683D2*
Y37407D1*
X59498Y38075D2*
X60349D1*
X18771Y51607D2*
X19317D1*
X19499Y51669D1*
X19561Y51729D1*
X19622Y51850D1*
Y51972D1*
X19561Y52093D1*
X19499Y52154D1*
X19317Y52215D1*
X18771D1*
Y50939D1*
X19196Y51607D2*
X19622Y50939D1*
X20014Y51971D2*
X20136Y52032D1*
X20318Y52213D1*
Y50939D1*
X16493Y49659D2*
X17159D1*
X16796Y49174D1*
X16978D1*
X17099Y49113D1*
X17159Y49053D1*
X17221Y48870D1*
Y48750D1*
X17159Y48567D1*
X17039Y48445D1*
X16856Y48385D1*
X16674D1*
X16493Y48445D1*
X16432Y48507D1*
X16371Y48628D1*
X17978Y49659D2*
X17796Y49599D1*
X17674Y49416D1*
X17613Y49113D1*
Y48931D1*
X17674Y48628D1*
X17796Y48445D1*
X17978Y48385D1*
X18099D1*
X18282Y48445D1*
X18402Y48628D1*
X18464Y48931D1*
Y49113D1*
X18402Y49416D1*
X18282Y49599D1*
X18099Y49659D1*
X17978D1*
X18402Y49416D2*
X17674Y48628D1*
X19221Y49659D2*
X19039Y49599D1*
X18917Y49416D1*
X18856Y49113D1*
Y48931D1*
X18917Y48628D1*
X19039Y48445D1*
X19221Y48385D1*
X19342D1*
X19525Y48445D1*
X19645Y48628D1*
X19707Y48931D1*
Y49113D1*
X19645Y49416D1*
X19525Y49599D1*
X19342Y49659D1*
X19221D1*
X19645Y49416D2*
X18917Y48628D1*
X19406Y17069D2*
X19285Y17191D1*
X19103Y17252D1*
X18860D1*
X18677Y17191D1*
X18555Y17069D1*
Y16948D1*
X18617Y16826D1*
X18677Y16766D1*
X18798Y16706D1*
X19163Y16583D1*
X19285Y16523D1*
X19346Y16461D1*
X19406Y16341D1*
Y16158D1*
X19285Y16037D1*
X19103Y15976D1*
X18860D1*
X18677Y16037D1*
X18555Y16158D1*
X19798Y17007D2*
X19920Y17069D1*
X20103Y17250D1*
Y15976D1*
X28636Y51791D2*
X28515Y51914D1*
X28333Y51974D1*
X28090D1*
X27908Y51914D1*
X27785Y51791D1*
Y51671D1*
X27847Y51549D1*
X27908Y51488D1*
X28028Y51428D1*
X28393Y51306D1*
X28515Y51245D1*
X28576Y51184D1*
X28636Y51063D1*
Y50880D1*
X28515Y50760D1*
X28333Y50698D1*
X28090D1*
X27908Y50760D1*
X27785Y50880D1*
X29879Y51974D2*
Y50698D1*
X29028Y51974D1*
Y50698D1*
X30514D2*
X31122Y51972D1*
X30271D1*
X32122Y50698D2*
Y51972D1*
X31514Y51123D1*
X32425D1*
X33121Y51972D2*
X32939Y51912D1*
X32878Y51791D1*
Y51669D1*
X32939Y51549D1*
X33060Y51487D1*
X33303Y51426D1*
X33486Y51366D1*
X33606Y51244D1*
X33667Y51123D1*
Y50941D1*
X33606Y50820D1*
X33546Y50758D1*
X33363Y50698D1*
X33121D1*
X32939Y50758D1*
X32878Y50820D1*
X32817Y50941D1*
Y51123D1*
X32878Y51244D1*
X33000Y51366D1*
X33181Y51426D1*
X33424Y51487D1*
X33546Y51549D1*
X33606Y51669D1*
Y51791D1*
X33546Y51912D1*
X33363Y51972D1*
X33121D1*
X34787Y51791D2*
X34727Y51912D1*
X34545Y51972D1*
X34424D1*
X34241Y51912D1*
X34119Y51730D1*
X34059Y51426D1*
Y51123D1*
X34119Y50880D1*
X34241Y50758D1*
X34424Y50698D1*
X34484D1*
X34665Y50758D1*
X34787Y50880D1*
X34848Y51063D1*
Y51123D1*
X34787Y51306D1*
X34665Y51426D1*
X34484Y51487D1*
X34424D1*
X34241Y51426D1*
X34119Y51306D1*
X34059Y51123D1*
X36091Y51974D2*
Y50698D1*
X35240Y51974D1*
Y50698D1*
X68682Y22003D2*
D12*
X69119D1*
X68901Y21784D2*
Y22222D1*
X68743Y22378D2*
X68718Y22427D1*
X68646Y22500D1*
X69156D1*
X68767Y22682D2*
X68743D1*
X68694Y22706D1*
X68670Y22730D1*
X68646Y22779D1*
Y22876D1*
X68670Y22924D1*
X68694Y22949D1*
X68743Y22973D1*
X68791D1*
X68840Y22949D1*
X68912Y22900D1*
X69156Y22657D1*
Y22997D1*
X68815Y23154D2*
X69156Y23300D1*
X68815Y23446D1*
X64052Y24765D2*
X64489D1*
X64271Y24547D2*
Y24984D1*
X64015Y25432D2*
Y25190D1*
X64234Y25166D1*
X64210Y25190D1*
X64185Y25263D1*
Y25335D1*
X64210Y25408D1*
X64258Y25457D1*
X64331Y25481D1*
X64379D1*
X64452Y25457D1*
X64501Y25408D1*
X64525Y25335D1*
Y25263D1*
X64501Y25190D1*
X64476Y25166D1*
X64428Y25141D1*
X64185Y25638D2*
X64525Y25784D1*
X64185Y25929D1*
X62881Y10865D2*
X63270D1*
X63343Y10841D1*
X63367Y10816D1*
X63392Y10768D1*
Y10719D1*
X63367Y10671D1*
X63343Y10647D1*
X63270Y10622D1*
X63222D1*
X62881Y11022D2*
X63246D1*
X63319Y11046D1*
X63367Y11095D1*
X63392Y11168D1*
Y11216D1*
X63367Y11289D1*
X63319Y11338D1*
X63246Y11362D1*
X62881D1*
X63392Y11908D2*
X62881D1*
X63392Y11714D1*
X62881Y11519D1*
X63392D1*
X63149Y12065D2*
Y12284D1*
X63124Y12356D1*
X63100Y12381D1*
X63051Y12405D1*
X62978D1*
X62930Y12381D1*
X62905Y12356D1*
X62881Y12284D1*
Y12065D1*
X63392D1*
X62881Y13226D2*
X63392D1*
X62881Y13056D2*
Y13396D1*
Y13699D2*
X62905Y13650D1*
X62954Y13602D1*
X63003Y13577D1*
X63076Y13553D1*
X63197D1*
X63270Y13577D1*
X63319Y13602D1*
X63367Y13650D1*
X63392Y13699D1*
Y13796D1*
X63367Y13844D1*
X63319Y13893D1*
X63270Y13917D1*
X63197Y13941D1*
X63076D1*
X63003Y13917D1*
X62954Y13893D1*
X62905Y13844D1*
X62881Y13796D1*
Y13699D1*
Y14592D2*
X63246D1*
X63319Y14616D1*
X63367Y14665D1*
X63392Y14738D1*
Y14786D1*
X63367Y14859D1*
X63319Y14908D1*
X63246Y14932D1*
X62881D1*
X62954Y15429D2*
X62905Y15381D1*
X62881Y15308D1*
Y15211D1*
X62905Y15138D1*
X62954Y15089D1*
X63003D1*
X63051Y15114D1*
X63076Y15138D1*
X63100Y15186D1*
X63149Y15332D1*
X63173Y15381D1*
X63197Y15405D1*
X63246Y15429D1*
X63319D1*
X63367Y15381D1*
X63392Y15308D1*
Y15211D1*
X63367Y15138D1*
X63319Y15089D1*
X62881Y15902D2*
Y15586D1*
X63392D1*
Y15902D1*
X63124Y15586D2*
Y15781D1*
X64498Y10998D2*
Y10682D1*
X65009D1*
X64742D2*
Y10877D1*
X64498Y11301D2*
X64523Y11252D1*
X64571Y11204D1*
X64620Y11179D1*
X64693Y11155D1*
X64815D1*
X64887Y11179D1*
X64936Y11204D1*
X64984Y11252D1*
X65009Y11301D1*
Y11398D1*
X64984Y11447D1*
X64936Y11496D1*
X64887Y11520D1*
X64815Y11544D1*
X64693D1*
X64620Y11520D1*
X64571Y11496D1*
X64523Y11447D1*
X64498Y11398D1*
Y11301D1*
X64742Y11701D2*
Y11919D1*
X64717Y11992D1*
X64693Y12017D1*
X64644Y12041D1*
X64596D1*
X64547Y12017D1*
X64523Y11992D1*
X64498Y11919D1*
Y11701D1*
X65009D1*
X64742Y11871D2*
X65009Y12041D1*
X64742Y12692D2*
Y12910D1*
X64717Y12983D1*
X64693Y13008D1*
X64644Y13032D1*
X64596D1*
X64547Y13008D1*
X64523Y12983D1*
X64498Y12910D1*
Y12692D1*
X65009D1*
X64742Y12862D2*
X65009Y13032D1*
X64766Y13189D2*
Y13408D1*
X64742Y13480D1*
X64717Y13505D1*
X64669Y13529D1*
X64596D1*
X64547Y13505D1*
X64523Y13480D1*
X64498Y13408D1*
Y13189D1*
X65009D1*
X64498Y13686D2*
X65009D1*
X37418Y51908D2*
D81*
X38269Y50632D1*
Y51908D2*
X37418Y50632D1*
X39026Y51908D2*
X38904Y51848D1*
X38783Y51726D1*
X38721Y51605D1*
X38661Y51423D1*
Y51118D1*
X38721Y50937D1*
X38783Y50815D1*
X38904Y50694D1*
X39026Y50632D1*
X39269D1*
X39389Y50694D1*
X39512Y50815D1*
X39572Y50937D1*
X39632Y51118D1*
Y51423D1*
X39572Y51605D1*
X39512Y51726D1*
X39389Y51848D1*
X39269Y51908D1*
X39026D1*
X40024Y51301D2*
X40571D1*
X40753Y51362D1*
X40815Y51423D1*
X40875Y51543D1*
Y51666D1*
X40815Y51786D1*
X40753Y51848D1*
X40571Y51908D1*
X40024D1*
Y50632D1*
X40450Y51301D2*
X40875Y50632D1*
X31178Y23909D2*
D82*
X31104Y23873D1*
X31032Y23800D1*
X30995Y23727D1*
X30959Y23618D1*
Y23435D1*
X30995Y23326D1*
X31032Y23253D1*
X31104Y23180D1*
X31178Y23143D1*
X31323D1*
X31396Y23180D1*
X31469Y23253D1*
X31505Y23326D1*
X31542Y23435D1*
Y23618D1*
X31505Y23727D1*
X31469Y23800D1*
X31396Y23873D1*
X31323Y23909D1*
X31178D1*
X32251D2*
X31777D1*
Y23143D1*
Y23544D2*
X32068D1*
X32961Y23909D2*
X32486D1*
Y23143D1*
Y23544D2*
X32778D1*
X31469Y22529D2*
X31397Y22603D1*
X31287Y22639D1*
X31142D1*
X31032Y22603D1*
X30959Y22529D1*
Y22457D1*
X30996Y22384D1*
X31032Y22348D1*
X31104Y22311D1*
X31323Y22238D1*
X31397Y22202D1*
X31433Y22165D1*
X31469Y22092D1*
Y21983D1*
X31397Y21910D1*
X31287Y21873D1*
X31142D1*
X31032Y21910D1*
X30959Y21983D1*
X31704Y22639D2*
Y21873D1*
X32215Y22639D2*
Y21873D1*
X31704Y22274D2*
X32215D1*
X32450Y22639D2*
Y22092D1*
X32486Y21983D1*
X32560Y21910D1*
X32669Y21873D1*
X32742D1*
X32851Y21910D1*
X32924Y21983D1*
X32961Y22092D1*
Y22639D1*
X33451D2*
Y21873D1*
X33196Y22639D2*
X33706D1*
X34682D2*
Y21873D1*
X34938D1*
X35047Y21910D1*
X35120Y21983D1*
X35157Y22056D1*
X35193Y22165D1*
Y22348D1*
X35157Y22457D1*
X35120Y22529D1*
X35047Y22603D1*
X34938Y22639D1*
X34682D1*
X35647D2*
X35574Y22603D1*
X35501Y22529D1*
X35464Y22457D1*
X35428Y22348D1*
Y22165D1*
X35464Y22056D1*
X35501Y21983D1*
X35574Y21910D1*
X35647Y21873D1*
X35793D1*
X35865Y21910D1*
X35939Y21983D1*
X35975Y22056D1*
X36011Y22165D1*
Y22348D1*
X35975Y22457D1*
X35939Y22529D1*
X35865Y22603D1*
X35793Y22639D1*
X35647D1*
X36246D2*
X36429Y21873D1*
X36611Y22639D1*
X36793Y21873D1*
X36976Y22639D1*
X37721D2*
Y21873D1*
X37211Y22639D1*
Y21873D1*
X30959Y21004D2*
X31286D1*
X31396Y21041D1*
X31433Y21077D1*
X31469Y21150D1*
Y21223D1*
X31433Y21296D1*
X31396Y21333D1*
X31286Y21369D1*
X30959D1*
Y20603D1*
X31214Y21004D2*
X31469Y20603D1*
X31704Y20968D2*
X32033D1*
X32142Y21004D1*
X32179Y21041D1*
X32215Y21114D1*
Y21223D1*
X32179Y21296D1*
X32142Y21333D1*
X32033Y21369D1*
X31704D1*
Y20603D1*
X32450Y21369D2*
Y20603D1*
X33900Y21369D2*
X33426D1*
Y20603D1*
Y21004D2*
X33718D1*
X34136Y21369D2*
Y20603D1*
X34371Y21004D2*
X34699D1*
X34808Y21041D1*
X34845Y21077D1*
X34881Y21150D1*
Y21223D1*
X34845Y21296D1*
X34808Y21333D1*
X34699Y21369D1*
X34371D1*
Y20603D1*
X34626Y21004D2*
X34881Y20603D1*
X35627Y21259D2*
X35555Y21333D1*
X35445Y21369D1*
X35299D1*
X35190Y21333D1*
X35117Y21259D1*
Y21187D1*
X35154Y21114D1*
X35190Y21077D1*
X35262Y21041D1*
X35481Y20968D1*
X35555Y20932D1*
X35591Y20895D1*
X35627Y20822D1*
Y20713D1*
X35555Y20640D1*
X35445Y20603D1*
X35299D1*
X35190Y20640D1*
X35117Y20713D1*
X36118Y21369D2*
Y20603D1*
X35862Y21369D2*
X36373D1*
X21477Y21475D2*
X21404Y21438D1*
X21332Y21365D1*
X21295Y21293D1*
X21258Y21183D1*
Y21000D1*
X21295Y20892D1*
X21332Y20819D1*
X21404Y20746D1*
X21477Y20709D1*
X21623D1*
X21696Y20746D1*
X21769Y20819D1*
X21805Y20892D1*
X21841Y21000D1*
Y21183D1*
X21805Y21293D1*
X21769Y21365D1*
X21696Y21438D1*
X21623Y21475D1*
X21477D1*
X22587D2*
Y20709D1*
X22077Y21475D1*
Y20709D1*
X68947Y56743D2*
X68875Y56706D1*
X68802Y56633D1*
X68765Y56561D1*
Y56415D1*
X68802Y56342D1*
X68875Y56269D1*
X68947Y56232D1*
X69057Y56196D1*
X69240D1*
X69348Y56232D1*
X69422Y56269D1*
X69494Y56342D1*
X69531Y56415D1*
Y56561D1*
X69494Y56633D1*
X69422Y56706D1*
X69348Y56743D1*
X69240D1*
Y56561D1*
X68705Y53632D2*
X69471D1*
Y53887D1*
X69434Y53996D1*
X69361Y54070D1*
X69288Y54106D1*
X69179Y54142D1*
X68997D1*
X68887Y54106D1*
X68815Y54070D1*
X68741Y53996D1*
X68705Y53887D1*
Y53632D1*
X68942Y51565D2*
X68869Y51493D1*
X68832Y51383D1*
Y51237D1*
X68869Y51128D1*
X68942Y51055D1*
X69014D1*
X69088Y51092D1*
X69124Y51128D1*
X69160Y51200D1*
X69233Y51419D1*
X69270Y51493D1*
X69307Y51529D1*
X69379Y51565D1*
X69489D1*
X69561Y51493D1*
X69598Y51383D1*
Y51237D1*
X69561Y51128D1*
X69489Y51055D1*
X68210Y43393D2*
X68502Y42627D1*
X68793Y43393D1*
X68863Y42807D2*
D12*
Y42296D1*
X69360Y42807D2*
Y42296D1*
X69020Y42807D1*
Y42296D1*
X67635Y41646D2*
D82*
X67926Y40881D1*
X68218Y41646D1*
Y40939D2*
D12*
X68169Y40915D1*
X68121Y40866D1*
X68096Y40817D1*
X68072Y40744D1*
Y40623D1*
X68096Y40550D1*
X68121Y40501D1*
X68169Y40453D1*
X68218Y40428D1*
X68315D1*
X68363Y40453D1*
X68412Y40501D1*
X68436Y40550D1*
X68460Y40623D1*
Y40744D1*
X68436Y40817D1*
X68412Y40866D1*
X68363Y40915D1*
X68315Y40939D1*
X68218D1*
X68617D2*
Y40574D1*
X68641Y40501D1*
X68690Y40453D1*
X68763Y40428D1*
X68811D1*
X68884Y40453D1*
X68933Y40501D1*
X68957Y40574D1*
Y40939D1*
X69284D2*
Y40428D1*
X69114Y40939D2*
X69455D1*
X67834Y39559D2*
D82*
X67798Y39632D1*
X67725Y39705D1*
X67652Y39741D1*
X67507D1*
X67433Y39705D1*
X67361Y39632D1*
X67324Y39559D1*
X67288Y39450D1*
Y39267D1*
X67324Y39158D1*
X67361Y39085D1*
X67433Y39013D1*
X67507Y38975D1*
X67652D1*
X67725Y39013D1*
X67798Y39085D1*
X67834Y39158D1*
Y39267D1*
X67652D1*
X68580Y39741D2*
Y38975D1*
X68069Y39741D1*
Y38975D1*
X68815Y39741D2*
Y38975D1*
X69070D1*
X69180Y39013D1*
X69253Y39085D1*
X69289Y39158D1*
X69326Y39267D1*
Y39450D1*
X69289Y39559D1*
X69253Y39632D1*
X69180Y39705D1*
X69070Y39741D1*
X68815D1*
X67147Y38153D2*
X66672D1*
Y37388D1*
Y37789D2*
X66964D1*
X67382Y38153D2*
Y37388D1*
X67637D1*
X67747Y37425D1*
X67820Y37497D1*
X67856Y37571D1*
X67892Y37679D1*
Y37862D1*
X67856Y37972D1*
X67820Y38044D1*
X67747Y38117D1*
X67637Y38153D1*
X67382D1*
X68128D2*
Y37388D1*
X68456D1*
X68566Y37425D1*
X68602Y37461D1*
X68638Y37534D1*
Y37643D1*
X68602Y37716D1*
X68566Y37753D1*
X68456Y37789D1*
X68566Y37826D1*
X68602Y37862D1*
X68638Y37934D1*
Y38008D1*
X68602Y38080D1*
X68566Y38117D1*
X68456Y38153D1*
X68128D1*
Y37789D2*
X68456D1*
X68873Y38153D2*
Y37388D1*
X69384Y38153D2*
X68873Y37643D1*
X69055Y37826D2*
X69384Y37388D1*
X65334Y36248D2*
X65261Y36212D1*
X65188Y36139D1*
X65151Y36066D1*
X65115Y35957D1*
Y35774D1*
X65151Y35665D1*
X65188Y35592D1*
X65261Y35520D1*
X65334Y35483D1*
X65480D1*
X65552Y35520D1*
X65625Y35592D1*
X65661Y35665D1*
X65698Y35774D1*
Y35957D1*
X65661Y36066D1*
X65625Y36139D1*
X65552Y36212D1*
X65480Y36248D1*
X65334D1*
X66443D2*
Y35483D1*
X65933Y36248D1*
Y35483D1*
X66679D2*
X67189Y36247D1*
X67643Y36248D2*
X67570Y36212D1*
X67498Y36139D1*
X67461Y36066D1*
X67424Y35957D1*
Y35774D1*
X67461Y35665D1*
X67498Y35592D1*
X67570Y35520D1*
X67643Y35483D1*
X67789D1*
X67862Y35520D1*
X67935Y35592D1*
X67971Y35665D1*
X68007Y35774D1*
Y35957D1*
X67971Y36066D1*
X67935Y36139D1*
X67862Y36212D1*
X67789Y36248D1*
X67643D1*
X68717D2*
X68243D1*
Y35483D1*
Y35884D2*
X68534D1*
X69426Y36248D2*
X68952D1*
Y35483D1*
Y35884D2*
X69244D1*
X68411Y58296D2*
D83*
X68314Y58248D1*
X68216Y58151D1*
X68168Y58053D1*
X68119Y57907D1*
Y57664D1*
X68168Y57518D1*
X68216Y57422D1*
X68314Y57324D1*
X68411Y57276D1*
X68605D1*
X68703Y57324D1*
X68799Y57422D1*
X68848Y57518D1*
X68897Y57664D1*
Y57907D1*
X68848Y58053D1*
X68799Y58151D1*
X68703Y58248D1*
X68605Y58296D1*
X68411D1*
X68557Y57470D2*
X68848Y57178D1*
X69211Y58100D2*
X69308Y58150D1*
X69454Y58294D1*
Y57275D1*
X63354Y19762D2*
D12*
X63305Y19714D1*
X63281Y19641D1*
Y19544D1*
X63305Y19471D1*
X63354Y19422D1*
X63403D1*
X63451Y19447D1*
X63476Y19471D1*
X63500Y19519D1*
X63549Y19665D1*
X63573Y19714D1*
X63597Y19738D1*
X63646Y19762D1*
X63719D1*
X63767Y19714D1*
X63792Y19641D1*
Y19544D1*
X63767Y19471D1*
X63719Y19422D1*
X63281Y20235D2*
Y19919D1*
X63792D1*
Y20235D1*
X63524Y19919D2*
Y20114D1*
X63281Y20392D2*
X63792D1*
Y20683D1*
X63281Y21156D2*
Y20840D1*
X63792D1*
Y21156D1*
X63524Y20840D2*
Y21034D1*
X63403Y21677D2*
X63354Y21653D1*
X63305Y21604D1*
X63281Y21556D1*
Y21458D1*
X63305Y21410D1*
X63354Y21361D1*
X63403Y21337D1*
X63476Y21312D1*
X63597D1*
X63670Y21337D1*
X63719Y21361D1*
X63767Y21410D1*
X63792Y21458D1*
Y21556D1*
X63767Y21604D1*
X63719Y21653D1*
X63670Y21677D1*
X63281Y22004D2*
X63792D1*
X63281Y21834D2*
Y22174D1*
X63549Y22825D2*
Y23044D1*
X63524Y23116D1*
X63500Y23141D1*
X63451Y23165D1*
X63378D1*
X63330Y23141D1*
X63305Y23116D1*
X63281Y23044D1*
Y22825D1*
X63792D1*
X63281Y23322D2*
X63792Y23444D1*
X63281Y23565D1*
X63792Y23686D1*
X63281Y23808D1*
X63524Y23965D2*
Y24183D1*
X63500Y24256D1*
X63476Y24281D1*
X63427Y24305D1*
X63378D1*
X63330Y24281D1*
X63305Y24256D1*
X63281Y24183D1*
Y23965D1*
X63792D1*
X63524Y24135D2*
X63792Y24305D1*
X63281Y25272D2*
Y24956D1*
X63792D1*
X63524D2*
Y25150D1*
X63281Y25575D2*
X63305Y25526D1*
X63354Y25478D1*
X63403Y25453D1*
X63476Y25429D1*
X63597D1*
X63670Y25453D1*
X63719Y25478D1*
X63767Y25526D1*
X63792Y25575D1*
Y25672D1*
X63767Y25720D1*
X63719Y25769D1*
X63670Y25793D1*
X63597Y25818D1*
X63476D1*
X63403Y25793D1*
X63354Y25769D1*
X63305Y25720D1*
X63281Y25672D1*
Y25575D1*
X63524Y25974D2*
Y26193D1*
X63500Y26266D1*
X63476Y26291D1*
X63427Y26315D1*
X63378D1*
X63330Y26291D1*
X63305Y26266D1*
X63281Y26193D1*
Y25974D1*
X63792D1*
X63524Y26145D2*
X63792Y26315D1*
X63281Y26965D2*
X63792Y27160D1*
X63281Y27354D1*
Y27657D2*
X63305Y27608D1*
X63354Y27560D1*
X63403Y27535D1*
X63476Y27511D1*
X63597D1*
X63670Y27535D1*
X63719Y27560D1*
X63767Y27608D1*
X63792Y27657D1*
Y27754D1*
X63767Y27802D1*
X63719Y27851D1*
X63670Y27875D1*
X63597Y27899D1*
X63476D1*
X63403Y27875D1*
X63354Y27851D1*
X63305Y27802D1*
X63281Y27754D1*
Y27657D1*
Y28056D2*
X63646D1*
X63719Y28080D1*
X63767Y28129D1*
X63792Y28202D1*
Y28251D1*
X63767Y28324D1*
X63719Y28372D1*
X63646Y28397D1*
X63281D1*
Y28724D2*
X63792D1*
X63281Y28553D2*
Y28894D1*
X44202Y29980D2*
D84*
X44058Y30127D1*
X43839Y30199D1*
X43547D1*
X43328Y30127D1*
X43182Y29980D1*
Y29835D1*
X43256Y29689D1*
X43328Y29616D1*
X43473Y29544D1*
X43911Y29397D1*
X44058Y29325D1*
X44130Y29251D1*
X44202Y29106D1*
Y28887D1*
X44058Y28742D1*
X43839Y28668D1*
X43547D1*
X43328Y28742D1*
X43182Y28887D1*
X44673Y29397D2*
X45330D1*
X45547Y29470D1*
X45621Y29544D1*
X45694Y29689D1*
Y29908D1*
X45621Y30053D1*
X45547Y30127D1*
X45330Y30199D1*
X44673D1*
Y28668D1*
X46165Y30199D2*
Y28668D1*
X48554Y30199D2*
X48408Y30127D1*
X48263Y29980D1*
X48189Y29835D1*
X48116Y29616D1*
Y29251D1*
X48189Y29033D1*
X48263Y28887D1*
X48408Y28742D1*
X48554Y28668D1*
X48846D1*
X48991Y28742D1*
X49137Y28887D1*
X49210Y29033D1*
X49282Y29251D1*
Y29616D1*
X49210Y29835D1*
X49137Y29980D1*
X48991Y30127D1*
X48846Y30199D1*
X48554D1*
X49753D2*
Y29106D1*
X49825Y28887D1*
X49972Y28742D1*
X50191Y28668D1*
X50336D1*
X50555Y28742D1*
X50701Y28887D1*
X50774Y29106D1*
Y30199D1*
X51755D2*
Y28668D1*
X51244Y30199D2*
X52265D1*
X26229Y46144D2*
D12*
X26204Y46193D1*
X26132Y46266D1*
X26642D1*
Y46812D2*
X26131Y46617D1*
X26642Y46423D1*
X26472Y46496D2*
Y46739D1*
X29015Y46168D2*
X28990Y46217D1*
X28917Y46290D1*
X29427D1*
X28917Y46447D2*
X29427D1*
Y46666D1*
X29403Y46739D1*
X29378Y46763D1*
X29330Y46787D1*
X29257D1*
X29208Y46763D1*
X29184Y46739D1*
X29160Y46666D1*
X29135Y46739D1*
X29111Y46763D1*
X29063Y46787D1*
X29014D1*
X28966Y46763D1*
X28941Y46739D1*
X28917Y46666D1*
Y46447D1*
X29160D2*
Y46666D1*
X31559Y46124D2*
X31534Y46173D1*
X31462Y46246D1*
X31971D1*
X31461Y46403D2*
X31704Y46597D1*
X31971D1*
X31461Y46792D2*
X31704Y46597D1*
X33992Y46130D2*
X33968D1*
X33919Y46154D1*
X33895Y46178D1*
X33871Y46227D1*
Y46324D1*
X33895Y46372D1*
X33919Y46396D1*
X33968Y46421D1*
X34016D1*
X34065Y46396D1*
X34138Y46348D1*
X34381Y46105D1*
Y46445D1*
Y46991D2*
X33870Y46796D1*
X34381Y46602D1*
X34211Y46675D2*
Y46918D1*
X36618Y46124D2*
X36594D1*
X36545Y46148D1*
X36521Y46172D1*
X36497Y46221D1*
Y46318D1*
X36521Y46367D1*
X36545Y46391D1*
X36594Y46415D1*
X36642D1*
X36691Y46391D1*
X36763Y46342D1*
X37006Y46099D1*
Y46440D1*
X36496Y46596D2*
X37006D1*
Y46815D1*
X36982Y46888D1*
X36958Y46913D1*
X36909Y46937D1*
X36836D1*
X36787Y46913D1*
X36763Y46888D1*
X36739Y46815D1*
X36714Y46888D1*
X36690Y46913D1*
X36642Y46937D1*
X36593D1*
X36545Y46913D1*
X36520Y46888D1*
X36496Y46815D1*
Y46596D1*
X36739D2*
Y46815D1*
X39192Y46150D2*
X39168D1*
X39119Y46174D1*
X39095Y46198D1*
X39071Y46247D1*
Y46344D1*
X39095Y46392D1*
X39119Y46417D1*
X39168Y46441D1*
X39216D1*
X39265Y46417D1*
X39337Y46368D1*
X39581Y46125D1*
Y46465D1*
X39070Y46622D2*
X39313Y46817D1*
X39581D1*
X39070Y47011D2*
X39313Y46817D1*
X41638Y46033D2*
X41590Y46009D1*
X41541Y45960D1*
X41517Y45912D1*
Y45815D1*
X41541Y45766D1*
X41590Y45717D1*
X41638Y45693D1*
X41711Y45669D1*
X41833D1*
X41905Y45693D1*
X41954Y45717D1*
X42002Y45766D1*
X42027Y45815D1*
Y45912D1*
X42002Y45960D1*
X41954Y46009D1*
X41905Y46033D1*
X41833D1*
Y45912D1*
X41517Y46530D2*
X42027D1*
X41517Y46190D1*
X42027D1*
X41517Y46687D2*
X42027D1*
Y46857D1*
X42002Y46930D1*
X41954Y46979D1*
X41905Y47003D1*
X41833Y47027D1*
X41711D1*
X41638Y47003D1*
X41590Y46979D1*
X41541Y46930D1*
X41517Y46857D1*
Y46687D1*
X26138Y55182D2*
X26575D1*
X26357Y54964D2*
Y55401D1*
X26102Y55850D2*
Y55607D1*
X26320Y55583D1*
X26296Y55607D1*
X26271Y55680D1*
Y55753D1*
X26296Y55826D1*
X26344Y55874D1*
X26417Y55899D1*
X26466D1*
X26539Y55874D1*
X26588Y55826D1*
X26612Y55753D1*
Y55680D1*
X26588Y55607D1*
X26563Y55583D1*
X26515Y55558D1*
X26271Y56055D2*
X26612Y56201D1*
X26271Y56347D1*
X29292Y55707D2*
X28782D1*
X29122Y55464D1*
Y55828D1*
X28781Y55985D2*
X29292D1*
Y56204D1*
X29267Y56277D1*
X29243Y56301D1*
X29195Y56326D1*
X29122D1*
X29073Y56301D1*
X29049Y56277D1*
X29024Y56204D1*
X29000Y56277D1*
X28976Y56301D1*
X28927Y56326D1*
X28878D1*
X28830Y56301D1*
X28805Y56277D1*
X28781Y56204D1*
Y55985D1*
X29024D2*
Y56204D1*
X31882Y55697D2*
X31372D1*
X31712Y55454D1*
Y55818D1*
X31882Y56364D2*
X31371Y56170D1*
X31882Y55975D1*
X31712Y56048D2*
Y56291D1*
X34362Y55657D2*
X33852D1*
X34192Y55414D1*
Y55778D1*
X33851Y55935D2*
X34094Y56130D1*
X34362D1*
X33851Y56324D2*
X34094Y56130D1*
X36362Y55483D2*
Y55750D1*
X36556Y55604D1*
Y55677D1*
X36580Y55725D1*
X36604Y55750D1*
X36677Y55774D1*
X36726D1*
X36799Y55750D1*
X36848Y55701D1*
X36872Y55628D1*
Y55555D1*
X36848Y55483D1*
X36823Y55459D1*
X36775Y55434D1*
X36361Y55931D2*
X36872D1*
Y56150D1*
X36847Y56223D1*
X36823Y56247D1*
X36775Y56271D1*
X36702D1*
X36653Y56247D1*
X36629Y56223D1*
X36604Y56150D1*
X36580Y56223D1*
X36556Y56247D1*
X36507Y56271D1*
X36458D1*
X36410Y56247D1*
X36385Y56223D1*
X36361Y56150D1*
Y55931D1*
X36604D2*
Y56150D1*
X38892Y55503D2*
Y55770D1*
X39086Y55624D1*
Y55697D1*
X39110Y55745D1*
X39134Y55770D1*
X39207Y55794D1*
X39256D1*
X39329Y55770D1*
X39378Y55721D1*
X39402Y55648D1*
Y55575D1*
X39378Y55503D1*
X39353Y55479D1*
X39305Y55454D1*
X39402Y56340D2*
X38891Y56145D1*
X39402Y55951D1*
X39232Y56024D2*
Y56267D1*
X41432Y55493D2*
Y55760D1*
X41626Y55614D1*
Y55687D1*
X41650Y55735D1*
X41674Y55760D1*
X41747Y55784D1*
X41796D1*
X41869Y55760D1*
X41918Y55711D1*
X41942Y55638D1*
Y55565D1*
X41918Y55493D1*
X41893Y55469D1*
X41845Y55444D1*
X41431Y55941D2*
X41674Y56135D1*
X41942D1*
X41431Y56330D2*
X41674Y56135D1*
X63758Y10831D2*
X64196D1*
X63977Y10612D2*
Y11050D1*
X63819Y11206D2*
X63794Y11255D1*
X63722Y11328D1*
X64232D1*
X63843Y11510D2*
X63819D1*
X63770Y11534D1*
X63746Y11558D1*
X63722Y11607D1*
Y11704D1*
X63746Y11752D1*
X63770Y11777D1*
X63819Y11801D1*
X63867D1*
X63916Y11777D1*
X63989Y11728D1*
X64232Y11485D1*
Y11825D1*
X63891Y11982D2*
X64232Y12128D1*
X63891Y12274D1*
X63989Y12924D2*
Y13143D1*
X63964Y13216D1*
X63940Y13240D1*
X63891Y13265D1*
X63818D1*
X63770Y13240D1*
X63745Y13216D1*
X63721Y13143D1*
Y12924D1*
X64232D1*
X63721Y13421D2*
X64232Y13543D1*
X63721Y13665D1*
X64232Y13786D1*
X63721Y13908D1*
X63964Y14065D2*
Y14283D1*
X63940Y14356D1*
X63916Y14381D1*
X63867Y14405D1*
X63818D1*
X63770Y14381D1*
X63745Y14356D1*
X63721Y14283D1*
Y14065D1*
X64232D1*
X63964Y14235D2*
X64232Y14405D1*
X63794Y15396D2*
X63745Y15348D1*
X63721Y15275D1*
Y15177D1*
X63745Y15104D1*
X63794Y15056D1*
X63843D1*
X63891Y15080D1*
X63916Y15104D1*
X63940Y15153D1*
X63989Y15299D1*
X64013Y15348D1*
X64037Y15372D1*
X64086Y15396D1*
X64159D1*
X64207Y15348D1*
X64232Y15275D1*
Y15177D1*
X64207Y15104D1*
X64159Y15056D1*
X63721Y15553D2*
X64086D1*
X64159Y15577D1*
X64207Y15626D1*
X64232Y15699D1*
Y15747D1*
X64207Y15820D1*
X64159Y15869D1*
X64086Y15893D1*
X63721D1*
X63989Y16050D2*
Y16269D1*
X63964Y16341D1*
X63940Y16366D1*
X63891Y16390D1*
X63818D1*
X63770Y16366D1*
X63745Y16341D1*
X63721Y16269D1*
Y16050D1*
X64232D1*
X63989Y16547D2*
Y16766D1*
X63964Y16838D1*
X63940Y16863D1*
X63891Y16887D1*
X63818D1*
X63770Y16863D1*
X63745Y16838D1*
X63721Y16766D1*
Y16547D1*
X64232D1*
X63721Y17044D2*
X63964Y17239D1*
X64232D1*
X63721Y17433D2*
X63964Y17239D1*
X24542Y47891D2*
D83*
Y47163D1*
X24591Y47017D1*
X24688Y46920D1*
X24834Y46871D1*
X24931D1*
X25077Y46920D1*
X25175Y47017D1*
X25223Y47163D1*
Y47891D1*
X25537Y47696D2*
X25634Y47745D1*
X25780Y47890D1*
Y46871D1*
X61992Y33718D2*
D82*
X61918Y33681D1*
X61846Y33608D1*
X61809Y33536D1*
X61773Y33426D1*
Y33243D1*
X61809Y33135D1*
X61846Y33061D1*
X61918Y32989D1*
X61992Y32952D1*
X62137D1*
X62210Y32989D1*
X62283Y33061D1*
X62319Y33135D1*
X62356Y33243D1*
Y33426D1*
X62319Y33536D1*
X62283Y33608D1*
X62210Y33681D1*
X62137Y33718D1*
X61992D1*
X62591Y33462D2*
Y32697D1*
Y33353D2*
X62664Y33425D1*
X62737Y33462D1*
X62846D1*
X62919Y33425D1*
X62992Y33353D1*
X63029Y33243D1*
Y33170D1*
X62992Y33061D1*
X62919Y32988D1*
X62846Y32952D1*
X62737D1*
X62664Y32988D1*
X62591Y33061D1*
X63374Y33718D2*
Y33098D1*
X63410Y32989D1*
X63483Y32952D1*
X63556D1*
X63264Y33462D2*
X63519D1*
X63791Y33718D2*
X63827Y33681D1*
X63864Y33718D1*
X63827Y33755D1*
X63791Y33718D1*
X63827Y33462D2*
Y32952D1*
X64281Y33462D2*
X64209Y33426D1*
X64136Y33353D1*
X64100Y33243D1*
Y33171D1*
X64136Y33061D1*
X64209Y32989D1*
X64281Y32952D1*
X64391D1*
X64464Y32989D1*
X64537Y33061D1*
X64574Y33171D1*
Y33243D1*
X64537Y33353D1*
X64464Y33426D1*
X64391Y33462D1*
X64281D1*
X64809D2*
Y32952D1*
Y33317D2*
X64919Y33426D1*
X64992Y33462D1*
X65100D1*
X65174Y33426D1*
X65210Y33317D1*
Y32952D1*
X66477Y33718D2*
X66405D1*
X66332Y33681D1*
X66295Y33572D1*
Y32952D1*
X66186Y33462D2*
X66441D1*
X66895D2*
X66822Y33426D1*
X66749Y33353D1*
X66713Y33243D1*
Y33171D1*
X66749Y33061D1*
X66822Y32989D1*
X66895Y32952D1*
X67004D1*
X67077Y32989D1*
X67150Y33061D1*
X67187Y33171D1*
Y33243D1*
X67150Y33353D1*
X67077Y33426D1*
X67004Y33462D1*
X66895D1*
X67422D2*
Y32952D1*
Y33243D2*
X67459Y33353D1*
X67532Y33426D1*
X67605Y33462D1*
X67714D1*
X68690Y33718D2*
Y32952D1*
X69019D1*
X69128Y32989D1*
X69165Y33025D1*
X69201Y33098D1*
Y33207D1*
X69165Y33280D1*
X69128Y33317D1*
X69019Y33353D1*
X69128Y33390D1*
X69165Y33426D1*
X69201Y33499D1*
Y33572D1*
X69165Y33644D1*
X69128Y33681D1*
X69019Y33718D1*
X68690D1*
Y33353D2*
X69019D1*
X69764Y33662D2*
Y33006D1*
X69436Y33334D2*
X70092D1*
X70365Y33462D2*
X70328Y33425D1*
X70365Y33389D1*
X70401Y33425D1*
X70365Y33462D1*
Y33025D2*
X70328Y32988D1*
X70365Y32952D1*
X70401Y32988D1*
X70365Y33025D1*
X71377Y33718D2*
Y32952D1*
X71705D1*
X71815Y32989D1*
X71851Y33025D1*
X71887Y33098D1*
Y33207D1*
X71851Y33280D1*
X71815Y33317D1*
X71705Y33353D1*
X71815Y33390D1*
X71851Y33426D1*
X71887Y33499D1*
Y33572D1*
X71851Y33644D1*
X71815Y33681D1*
X71705Y33718D1*
X71377D1*
Y33353D2*
X71705D1*
X72123Y33243D2*
X72560D1*
Y33317D1*
X72524Y33390D1*
X72487Y33426D1*
X72414Y33462D1*
X72305D1*
X72232Y33426D1*
X72159Y33353D1*
X72123Y33243D1*
Y33171D1*
X72159Y33061D1*
X72232Y32989D1*
X72305Y32952D1*
X72414D1*
X72487Y32989D1*
X72560Y33061D1*
X72795Y33462D2*
Y32952D1*
Y33317D2*
X72905Y33426D1*
X72978Y33462D1*
X73087D1*
X73160Y33426D1*
X73196Y33317D1*
Y32952D1*
X73868Y33718D2*
Y32952D1*
Y33353D2*
X73796Y33426D1*
X73723Y33462D1*
X73613D1*
X73541Y33426D1*
X73468Y33353D1*
X73431Y33243D1*
Y33171D1*
X73468Y33061D1*
X73541Y32989D1*
X73613Y32952D1*
X73723D1*
X73796Y32989D1*
X73868Y33061D1*
X62062Y32508D2*
X61989Y32472D1*
X61916Y32399D1*
X61880Y32326D1*
X61843Y32216D1*
Y32034D1*
X61880Y31925D1*
X61916Y31852D1*
X61989Y31779D1*
X62062Y31743D1*
X62207D1*
X62281Y31779D1*
X62353Y31852D1*
X62389Y31925D1*
X62426Y32034D1*
Y32216D1*
X62389Y32326D1*
X62353Y32399D1*
X62281Y32472D1*
X62207Y32508D1*
X62062D1*
X62171Y31889D2*
X62389Y31670D1*
X62662Y32361D2*
X62735Y32398D1*
X62845Y32507D1*
Y31742D1*
X64258Y32252D2*
Y31742D1*
Y32143D2*
X64185Y32216D1*
X64112Y32252D1*
X64003D1*
X63930Y32216D1*
X63858Y32143D1*
X63821Y32033D1*
Y31961D1*
X63858Y31851D1*
X63930Y31779D1*
X64003Y31742D1*
X64112D1*
X64185Y31779D1*
X64258Y31851D1*
X64493Y32252D2*
Y31742D1*
Y32107D2*
X64602Y32216D1*
X64676Y32252D1*
X64784D1*
X64858Y32216D1*
X64894Y32107D1*
Y31742D1*
X65566Y32508D2*
Y31742D1*
Y32143D2*
X65494Y32216D1*
X65421Y32252D1*
X65311D1*
X65239Y32216D1*
X65165Y32143D1*
X65129Y32033D1*
Y31961D1*
X65165Y31851D1*
X65239Y31779D1*
X65311Y31742D1*
X65421D1*
X65494Y31779D1*
X65566Y31851D1*
X66542Y32508D2*
Y31961D1*
X66579Y31851D1*
X66652Y31779D1*
X66761Y31742D1*
X66834D1*
X66943Y31779D1*
X67017Y31851D1*
X67053Y31961D1*
Y32508D1*
X67325Y32325D2*
Y32361D1*
X67361Y32434D1*
X67398Y32471D1*
X67471Y32507D1*
X67617D1*
X67689Y32471D1*
X67725Y32434D1*
X67762Y32361D1*
Y32289D1*
X67725Y32215D1*
X67653Y32107D1*
X67288Y31742D1*
X67799D1*
X68884Y32508D2*
Y31888D1*
X68920Y31779D1*
X68993Y31742D1*
X69066D1*
X68774Y32252D2*
X69030D1*
X69483D2*
X69411Y32216D1*
X69337Y32143D1*
X69301Y32033D1*
Y31961D1*
X69337Y31851D1*
X69411Y31779D1*
X69483Y31742D1*
X69593D1*
X69666Y31779D1*
X69738Y31851D1*
X69775Y31961D1*
Y32033D1*
X69738Y32143D1*
X69666Y32216D1*
X69593Y32252D1*
X69483D1*
X71226D2*
X71189Y32143D1*
X71116Y32070D1*
X71007Y32033D1*
X70970D1*
X70861Y32070D1*
X70788Y32143D1*
X70751Y32252D1*
Y32289D1*
X70788Y32398D1*
X70861Y32471D1*
X70970Y32507D1*
X71007D1*
X71116Y32471D1*
X71189Y32398D1*
X71226Y32252D1*
Y32070D1*
X71189Y31888D1*
X71116Y31778D1*
X71007Y31742D1*
X70934D1*
X70825Y31778D1*
X70788Y31851D1*
X71680Y32507D2*
X71570Y32471D1*
X71497Y32361D1*
X71461Y32179D1*
Y32070D1*
X71497Y31888D1*
X71570Y31778D1*
X71680Y31742D1*
X71752D1*
X71862Y31778D1*
X71934Y31888D1*
X71971Y32070D1*
Y32179D1*
X71934Y32361D1*
X71862Y32471D1*
X71752Y32507D1*
X71680D1*
X71934Y32361D2*
X71497Y31888D1*
X70892Y46383D2*
D81*
Y45472D1*
X70952Y45290D1*
X71074Y45169D1*
X71257Y45107D1*
X71378D1*
X71560Y45169D1*
X71682Y45290D1*
X71743Y45472D1*
Y46383D1*
X72197Y46079D2*
Y46139D1*
X72257Y46261D1*
X72317Y46322D1*
X72439Y46382D1*
X72682D1*
X72803Y46322D1*
X72863Y46261D1*
X72925Y46139D1*
Y46018D1*
X72863Y45896D1*
X72743Y45715D1*
X72135Y45107D1*
X72986D1*
X62290Y31448D2*
D82*
Y30682D1*
Y31083D2*
X62217Y31156D1*
X62144Y31192D1*
X62035D1*
X61962Y31156D1*
X61889Y31083D1*
X61853Y30973D1*
Y30901D1*
X61889Y30791D1*
X61962Y30719D1*
X62035Y30682D1*
X62144D1*
X62217Y30719D1*
X62290Y30791D1*
X62525Y30973D2*
X62962D1*
Y31047D1*
X62926Y31120D1*
X62890Y31156D1*
X62817Y31192D1*
X62707D1*
X62635Y31156D1*
X62561Y31083D1*
X62525Y30973D1*
Y30901D1*
X62561Y30791D1*
X62635Y30719D1*
X62707Y30682D1*
X62817D1*
X62890Y30719D1*
X62962Y30791D1*
X63635Y31156D2*
Y30572D1*
X63599Y30464D1*
X63562Y30427D1*
X63489Y30391D1*
X63380D1*
X63307Y30427D1*
X63635Y31047D2*
X63562Y31119D1*
X63489Y31156D1*
X63380D1*
X63307Y31119D1*
X63234Y31047D1*
X63198Y30937D1*
Y30864D1*
X63234Y30755D1*
X63307Y30682D1*
X63380Y30646D1*
X63489D1*
X63562Y30682D1*
X63635Y30755D1*
X63870Y31192D2*
Y30682D1*
Y30973D2*
X63907Y31083D1*
X63980Y31156D1*
X64053Y31192D1*
X64162D1*
X64398Y30973D2*
X64835D1*
Y31047D1*
X64799Y31120D1*
X64762Y31156D1*
X64689Y31192D1*
X64580D1*
X64507Y31156D1*
X64434Y31083D1*
X64398Y30973D1*
Y30901D1*
X64434Y30791D1*
X64507Y30719D1*
X64580Y30682D1*
X64689D1*
X64762Y30719D1*
X64835Y30791D1*
X65070Y30973D2*
X65507D1*
Y31047D1*
X65471Y31120D1*
X65435Y31156D1*
X65362Y31192D1*
X65252D1*
X65180Y31156D1*
X65106Y31083D1*
X65070Y30973D1*
Y30901D1*
X65106Y30791D1*
X65180Y30719D1*
X65252Y30682D1*
X65362D1*
X65435Y30719D1*
X65507Y30791D1*
X66144Y31083D2*
X66107Y31156D1*
X65998Y31192D1*
X65888D1*
X65779Y31156D1*
X65743Y31083D1*
X65779Y31010D1*
X65852Y30973D1*
X66034Y30937D1*
X66107Y30901D1*
X66144Y30828D1*
Y30791D1*
X66107Y30719D1*
X65998Y30682D1*
X65888D1*
X65779Y30719D1*
X65743Y30791D1*
X67557Y31192D2*
Y30682D1*
Y31083D2*
X67484Y31156D1*
X67411Y31192D1*
X67302D1*
X67229Y31156D1*
X67157Y31083D1*
X67120Y30973D1*
Y30901D1*
X67157Y30791D1*
X67229Y30719D1*
X67302Y30682D1*
X67411D1*
X67484Y30719D1*
X67557Y30791D1*
X67792Y31192D2*
Y30682D1*
Y31047D2*
X67901Y31156D1*
X67975Y31192D1*
X68083D1*
X68157Y31156D1*
X68193Y31047D1*
Y30682D1*
X68865Y31448D2*
Y30682D1*
Y31083D2*
X68793Y31156D1*
X68720Y31192D1*
X68610D1*
X68538Y31156D1*
X68464Y31083D1*
X68428Y30973D1*
Y30901D1*
X68464Y30791D1*
X68538Y30719D1*
X68610Y30682D1*
X68720D1*
X68793Y30719D1*
X68865Y30791D1*
X70278Y31192D2*
Y30682D1*
Y31083D2*
X70206Y31156D1*
X70133Y31192D1*
X70024D1*
X69951Y31156D1*
X69878Y31083D1*
X69841Y30973D1*
Y30901D1*
X69878Y30791D1*
X69951Y30719D1*
X70024Y30682D1*
X70133D1*
X70206Y30719D1*
X70278Y30791D1*
X70623Y31448D2*
Y30828D1*
X70659Y30719D1*
X70733Y30682D1*
X70805D1*
X70514Y31192D2*
X70769D1*
X71150Y31448D2*
Y30828D1*
X71186Y30719D1*
X71260Y30682D1*
X71332D1*
X71041Y31192D2*
X71296D1*
X72004D2*
Y30682D1*
Y31083D2*
X71932Y31156D1*
X71859Y31192D1*
X71750D1*
X71677Y31156D1*
X71604Y31083D1*
X71567Y30973D1*
Y30901D1*
X71604Y30791D1*
X71677Y30719D1*
X71750Y30682D1*
X71859D1*
X71932Y30719D1*
X72004Y30791D1*
X72678Y31083D2*
X72604Y31156D1*
X72531Y31192D1*
X72422D1*
X72349Y31156D1*
X72277Y31083D1*
X72240Y30973D1*
Y30901D1*
X72277Y30791D1*
X72349Y30719D1*
X72422Y30682D1*
X72531D1*
X72604Y30719D1*
X72678Y30791D1*
X72913Y31448D2*
Y30682D1*
Y31047D2*
X73022Y31156D1*
X73096Y31192D1*
X73205D1*
X73278Y31156D1*
X73314Y31047D1*
Y30682D1*
X61952Y30298D2*
Y29678D1*
X61988Y29569D1*
X62062Y29532D1*
X62134D1*
X61843Y30042D2*
X62098D1*
X62551D2*
X62479Y30006D1*
X62406Y29933D1*
X62369Y29823D1*
Y29751D1*
X62406Y29641D1*
X62479Y29569D1*
X62551Y29532D1*
X62661D1*
X62734Y29569D1*
X62807Y29641D1*
X62844Y29751D1*
Y29823D1*
X62807Y29933D1*
X62734Y30006D1*
X62661Y30042D1*
X62551D1*
X63820Y30298D2*
Y29751D1*
X63856Y29641D1*
X63929Y29569D1*
X64039Y29532D1*
X64111D1*
X64221Y29569D1*
X64294Y29641D1*
X64330Y29751D1*
Y30298D1*
X65076Y30188D2*
X65003Y30261D1*
X64894Y30298D1*
X64748D1*
X64639Y30261D1*
X64565Y30188D1*
Y30116D1*
X64602Y30042D1*
X64639Y30006D1*
X64711Y29970D1*
X64930Y29897D1*
X65003Y29860D1*
X65040Y29823D1*
X65076Y29751D1*
Y29641D1*
X65003Y29569D1*
X64894Y29532D1*
X64748D1*
X64639Y29569D1*
X64565Y29641D1*
X65311Y30298D2*
Y29532D1*
X65640D1*
X65749Y29569D1*
X65785Y29605D1*
X65822Y29678D1*
Y29787D1*
X65785Y29860D1*
X65749Y29897D1*
X65640Y29933D1*
X65749Y29970D1*
X65785Y30006D1*
X65822Y30079D1*
Y30152D1*
X65785Y30224D1*
X65749Y30261D1*
X65640Y30298D1*
X65311D1*
Y29933D2*
X65640D1*
X67198D2*
X67162Y30006D1*
X67053Y30042D1*
X66943D1*
X66834Y30006D1*
X66798Y29933D1*
X66834Y29860D1*
X66907Y29823D1*
X67089Y29787D1*
X67162Y29751D1*
X67198Y29678D1*
Y29641D1*
X67162Y29569D1*
X67053Y29532D1*
X66943D1*
X66834Y29569D1*
X66798Y29641D1*
X67434Y30298D2*
Y29532D1*
Y29897D2*
X67543Y30006D1*
X67617Y30042D1*
X67726D1*
X67799Y30006D1*
X67835Y29897D1*
Y29532D1*
X68070Y30298D2*
X68106Y30261D1*
X68143Y30298D1*
X68106Y30335D1*
X68070Y30298D1*
X68106Y30042D2*
Y29532D1*
X68379Y29823D2*
X68816D1*
Y29897D1*
X68780Y29970D1*
X68743Y30006D1*
X68670Y30042D1*
X68561D1*
X68488Y30006D1*
X68415Y29933D1*
X68379Y29823D1*
Y29751D1*
X68415Y29641D1*
X68488Y29569D1*
X68561Y29532D1*
X68670D1*
X68743Y29569D1*
X68816Y29641D1*
X69051Y30298D2*
Y29532D1*
X69724Y30298D2*
Y29532D1*
Y29933D2*
X69651Y30006D1*
X69578Y30042D1*
X69468D1*
X69396Y30006D1*
X69323Y29933D1*
X69286Y29823D1*
Y29751D1*
X69323Y29641D1*
X69396Y29569D1*
X69468Y29532D1*
X69578D1*
X69651Y29569D1*
X69724Y29641D1*
X58602Y19131D2*
X58565Y19204D1*
X58456Y19313D1*
X59221D1*
X58456Y20059D2*
X59221D1*
X58456Y19549D1*
X59221D1*
X58456Y20731D2*
Y20368D1*
X58784Y20331D1*
X58748Y20368D1*
X58711Y20477D1*
Y20586D1*
X58748Y20695D1*
X58820Y20769D1*
X58930Y20805D1*
X59002D1*
X59112Y20769D1*
X59185Y20695D1*
X59221Y20586D1*
Y20477D1*
X59185Y20368D1*
X59148Y20331D1*
X59075Y20294D1*
X58456Y21222D2*
X58493Y21113D1*
X58565Y21076D1*
X58638D1*
X58711Y21113D1*
X58748Y21186D1*
X58784Y21332D1*
X58820Y21441D1*
X58894Y21513D1*
X58966Y21550D1*
X59075D1*
X59148Y21513D1*
X59185Y21477D1*
X59221Y21368D1*
Y21222D1*
X59185Y21113D1*
X59148Y21076D1*
X59075Y21040D1*
X58966D1*
X58894Y21076D1*
X58820Y21150D1*
X58784Y21258D1*
X58748Y21404D1*
X58711Y21477D1*
X58638Y21513D1*
X58565D1*
X58493Y21477D1*
X58456Y21368D1*
Y21222D1*
X58638Y21822D2*
X58602D1*
X58529Y21858D1*
X58493Y21894D1*
X58456Y21968D1*
Y22113D1*
X58493Y22186D1*
X58529Y22222D1*
X58602Y22259D1*
X58675D1*
X58748Y22222D1*
X58856Y22150D1*
X59221Y21785D1*
Y22295D1*
X58638Y22568D2*
X58602D1*
X58529Y22604D1*
X58493Y22640D1*
X58456Y22713D1*
Y22859D1*
X58493Y22932D1*
X58529Y22968D1*
X58602Y23005D1*
X58675D1*
X58748Y22968D1*
X58856Y22895D1*
X59221Y22531D1*
Y23041D1*
X59625Y19061D2*
X59552Y18989D1*
X59516Y18879D1*
Y18733D1*
X59552Y18624D1*
X59625Y18551D1*
X59697D1*
X59771Y18588D1*
X59807Y18624D1*
X59843Y18696D1*
X59916Y18915D1*
X59953Y18989D1*
X59990Y19025D1*
X60062Y19061D1*
X60172D1*
X60244Y18989D1*
X60281Y18879D1*
Y18733D1*
X60244Y18624D1*
X60172Y18551D1*
X59697Y19843D2*
X59625Y19807D1*
X59552Y19733D1*
X59516Y19661D1*
Y19515D1*
X59552Y19442D1*
X59625Y19370D1*
X59697Y19332D1*
X59807Y19296D1*
X59990D1*
X60098Y19332D1*
X60172Y19370D1*
X60244Y19442D1*
X60281Y19515D1*
Y19661D1*
X60244Y19733D1*
X60172Y19807D1*
X60098Y19843D1*
X59516Y20078D2*
X60281D1*
X59516Y20589D2*
X60281D1*
X59880Y20078D2*
Y20589D1*
X59516Y21043D2*
X59552Y20970D1*
X59625Y20897D1*
X59697Y20860D1*
X59807Y20824D1*
X59990D1*
X60098Y20860D1*
X60172Y20897D1*
X60244Y20970D1*
X60281Y21043D1*
Y21189D1*
X60244Y21261D1*
X60172Y21334D1*
X60098Y21371D1*
X59990Y21407D1*
X59807D1*
X59697Y21371D1*
X59625Y21334D1*
X59552Y21261D1*
X59516Y21189D1*
Y21043D1*
Y21897D2*
X60281D1*
X59516Y21642D2*
Y22153D1*
Y22643D2*
X60281D1*
X59516Y22388D2*
Y22898D1*
Y23134D2*
X59880Y23425D1*
X60281D1*
X59516Y23716D2*
X59880Y23425D1*
X60990Y18351D2*
Y18678D1*
X60953Y18788D1*
X60917Y18825D1*
X60845Y18861D1*
X60771D1*
X60699Y18825D1*
X60662Y18788D1*
X60626Y18678D1*
Y18351D1*
X61391D1*
X60990Y18606D2*
X61391Y18861D1*
X60626Y19570D2*
Y19096D1*
X61391D1*
Y19570D1*
X60990Y19096D2*
Y19388D1*
X60807Y20352D2*
X60735Y20315D1*
X60662Y20242D1*
X60626Y20170D1*
Y20024D1*
X60662Y19951D1*
X60735Y19878D1*
X60807Y19841D1*
X60917Y19805D1*
X61100D1*
X61208Y19841D1*
X61282Y19878D1*
X61354Y19951D1*
X61391Y20024D1*
Y20170D1*
X61354Y20242D1*
X61282Y20315D1*
X61208Y20352D1*
X60626Y20842D2*
X61391D1*
X60626Y20587D2*
Y21097D1*
Y21333D2*
X61391D1*
X60626Y22042D2*
Y21568D1*
X61391D1*
X60990D2*
Y21859D1*
X60626Y22277D2*
X61391D1*
X60626Y22986D2*
Y22513D1*
X61391D1*
Y22986D1*
X60990Y22513D2*
Y22804D1*
Y23221D2*
Y23549D1*
X60953Y23659D1*
X60917Y23696D1*
X60845Y23732D1*
X60771D1*
X60699Y23696D1*
X60662Y23659D1*
X60626Y23549D1*
Y23221D1*
X61391D1*
X60990Y23477D2*
X61391Y23732D1*
X17479Y57006D2*
Y57406D1*
X17771Y57188D1*
Y57298D1*
X17807Y57370D1*
X17843Y57406D1*
X17953Y57443D1*
X18025D1*
X18134Y57406D1*
X18208Y57334D1*
X18244Y57224D1*
Y57115D1*
X18208Y57006D1*
X18171Y56970D1*
X18098Y56933D1*
X18171Y57715D2*
X18208Y57679D1*
X18244Y57715D1*
X18208Y57752D1*
X18171Y57715D1*
X17479Y58060D2*
Y58461D1*
X17771Y58242D1*
Y58352D1*
X17807Y58424D1*
X17843Y58461D1*
X17953Y58498D1*
X18025D1*
X18134Y58461D1*
X18208Y58388D1*
X18244Y58279D1*
Y58169D1*
X18208Y58060D1*
X18171Y58024D1*
X18098Y57987D1*
X17478Y58733D2*
X18244Y59024D1*
X17478Y59316D1*
X18574Y58969D2*
Y58606D1*
X18902Y58569D1*
X18865Y58606D1*
X18828Y58715D1*
Y58824D1*
X18865Y58933D1*
X18938Y59007D1*
X19047Y59043D1*
X19120D1*
X19229Y59007D1*
X19303Y58933D1*
X19339Y58824D1*
Y58715D1*
X19303Y58606D1*
X19266Y58569D1*
X19193Y58532D1*
X18828Y59278D2*
X19339Y59497D1*
X18828Y59715D1*
X20142Y57651D2*
X20069Y57579D1*
X20033Y57469D1*
Y57323D1*
X20069Y57214D1*
X20142Y57141D1*
X20215D1*
X20288Y57178D1*
X20324Y57214D1*
X20361Y57286D1*
X20434Y57505D1*
X20470Y57579D1*
X20507Y57615D1*
X20580Y57651D1*
X20689D1*
X20761Y57579D1*
X20799Y57469D1*
Y57323D1*
X20761Y57214D1*
X20689Y57141D1*
X20033Y57886D2*
X20799D1*
Y58142D1*
X20761Y58251D1*
X20689Y58324D1*
X20616Y58361D1*
X20507Y58397D1*
X20324D1*
X20215Y58361D1*
X20142Y58324D1*
X20069Y58251D1*
X20033Y58142D1*
Y57886D1*
X20799Y59216D2*
X20033Y58923D1*
X20799Y58632D1*
X20543Y58742D2*
Y59106D1*
X21113Y58969D2*
Y58606D1*
X21441Y58569D1*
X21405Y58606D1*
X21368Y58715D1*
Y58824D1*
X21405Y58933D1*
X21477Y59007D1*
X21587Y59043D1*
X21659D1*
X21768Y59007D1*
X21842Y58933D1*
X21878Y58824D1*
Y58715D1*
X21842Y58606D1*
X21805Y58569D1*
X21732Y58532D1*
X21368Y59278D2*
X21878Y59497D1*
X21368Y59715D1*
X22625Y57841D2*
X22552Y57769D1*
X22516Y57659D1*
Y57514D1*
X22552Y57404D1*
X22625Y57331D1*
X22697D1*
X22771Y57368D1*
X22807Y57404D1*
X22843Y57477D1*
X22916Y57696D1*
X22953Y57769D1*
X22990Y57805D1*
X23062Y57841D1*
X23172D1*
X23244Y57769D1*
X23281Y57659D1*
Y57514D1*
X23244Y57404D1*
X23172Y57331D1*
X22697Y58623D2*
X22625Y58587D1*
X22552Y58514D1*
X22516Y58441D1*
Y58296D1*
X22552Y58222D1*
X22625Y58150D1*
X22697Y58113D1*
X22807Y58077D1*
X22990D1*
X23098Y58113D1*
X23172Y58150D1*
X23244Y58222D1*
X23281Y58296D1*
Y58441D1*
X23244Y58514D1*
X23172Y58587D1*
X23098Y58623D1*
X22516Y58859D2*
X23281D1*
Y59296D1*
X23705Y58256D2*
X23632Y58219D1*
X23559Y58146D1*
X23523Y58074D1*
Y57928D1*
X23559Y57855D1*
X23632Y57782D1*
X23705Y57745D1*
X23814Y57709D1*
X23997D1*
X24106Y57745D1*
X24179Y57782D1*
X24252Y57855D1*
X24289Y57928D1*
Y58074D1*
X24252Y58146D1*
X24179Y58219D1*
X24106Y58256D1*
X23997D1*
Y58074D1*
X23523Y59001D2*
X24289D1*
X23523Y58491D1*
X24289D1*
X23523Y59237D2*
X24289D1*
Y59492D1*
X24252Y59601D1*
X24179Y59675D1*
X24106Y59711D1*
X23997Y59747D1*
X23814D1*
X23705Y59711D1*
X23632Y59675D1*
X23559Y59601D1*
X23523Y59492D1*
Y59237D1*
X24915Y58153D2*
X25972Y57899D1*
X24915Y58372D2*
X25972Y58117D1*
X25334Y57899D2*
Y58409D1*
X25553Y57862D2*
Y58372D1*
X25825Y59009D2*
X25061D1*
X25570Y58644D1*
Y59191D1*
X26175Y58013D2*
X26941D1*
X26175Y57758D2*
Y58269D1*
Y58504D2*
X26941Y59014D1*
X26175D2*
X26941Y58504D1*
X26175Y59250D2*
X26941D1*
Y59505D1*
X26904Y59614D1*
X26831Y59688D1*
X26758Y59724D1*
X26649Y59760D1*
X26467D1*
X26357Y59724D1*
X26285Y59688D1*
X26211Y59614D1*
X26175Y59505D1*
Y59250D1*
X27879Y57646D2*
X27806Y57610D1*
X27733Y57537D1*
X27697Y57464D1*
Y57319D1*
X27733Y57245D1*
X27806Y57173D1*
X27879Y57136D1*
X27988Y57100D1*
X28171D1*
X28280Y57136D1*
X28353Y57173D1*
X28425Y57245D1*
X28462Y57319D1*
Y57464D1*
X28425Y57537D1*
X28353Y57610D1*
X28280Y57646D1*
X28171D1*
Y57464D1*
X27697Y58392D2*
X28462D1*
X27697Y57882D1*
X28462D1*
X27697Y58627D2*
X28462D1*
Y58882D1*
X28425Y58992D1*
X28353Y59065D1*
X28280Y59101D1*
X28171Y59138D1*
X27988D1*
X27879Y59101D1*
X27806Y59065D1*
X27733Y58992D1*
X27697Y58882D1*
Y58627D1*
X29156Y57654D2*
Y57982D1*
X29119Y58091D1*
X29083Y58128D1*
X29010Y58165D1*
X28937D1*
X28865Y58128D1*
X28828Y58091D1*
X28791Y57982D1*
Y57654D1*
X29557D1*
X29156Y57909D2*
X29557Y58165D1*
X28791Y58400D2*
X29557Y58910D1*
X28791D2*
X29557Y58400D1*
X28791Y59146D2*
X29557D1*
Y59401D1*
X29520Y59510D1*
X29448Y59584D1*
X29374Y59620D1*
X29266Y59656D1*
X29083D1*
X28973Y59620D1*
X28901Y59584D1*
X28828Y59510D1*
X28791Y59401D1*
Y59146D1*
X30142Y57614D2*
X31199Y57360D1*
X30142Y57833D2*
X31199Y57578D1*
X30561Y57360D2*
Y57869D1*
X30780Y57323D2*
Y57833D1*
X30434Y58105D2*
X30397Y58178D1*
X30288Y58287D1*
X31053D1*
Y58668D2*
X30288Y59033D1*
Y58523D1*
X31252Y58250D2*
X32309Y57996D1*
X31252Y58469D2*
X32309Y58214D1*
X31671Y57996D2*
Y58505D1*
X31890Y57959D2*
Y58469D1*
X31544Y58740D2*
X31507Y58814D1*
X31398Y58923D1*
X32163D1*
X31398Y59340D2*
X31434Y59232D1*
X31507Y59195D1*
X31580D1*
X31653Y59232D1*
X31690Y59304D1*
X31726Y59450D1*
X31762Y59559D1*
X31835Y59632D1*
X31908Y59668D1*
X32017D1*
X32090Y59632D1*
X32127Y59596D1*
X32163Y59486D1*
Y59340D1*
X32127Y59232D1*
X32090Y59195D1*
X32017Y59159D1*
X31908D1*
X31835Y59195D1*
X31762Y59268D1*
X31726Y59377D1*
X31690Y59522D1*
X31653Y59596D1*
X31580Y59632D1*
X31507D1*
X31434Y59596D1*
X31398Y59486D1*
Y59340D1*
X32789Y57292D2*
X33846Y57037D1*
X32789Y57511D2*
X33846Y57256D1*
X33208Y57037D2*
Y57547D1*
X33427Y57000D2*
Y57511D1*
X33117Y57819D2*
X33081D1*
X33008Y57856D1*
X32971Y57892D1*
X32935Y57965D1*
Y58111D1*
X32971Y58183D1*
X33008Y58219D1*
X33081Y58256D1*
X33153D1*
X33227Y58219D1*
X33335Y58147D1*
X33700Y57782D1*
Y58293D1*
Y58674D2*
X32935Y59038D1*
Y58528D1*
X34129Y58182D2*
X34056Y58146D1*
X33983Y58072D1*
X33947Y58000D1*
Y57854D1*
X33983Y57781D1*
X34056Y57708D1*
X34129Y57671D1*
X34238Y57635D1*
X34421D1*
X34530Y57671D1*
X34603Y57708D1*
X34675Y57781D1*
X34713Y57854D1*
Y58000D1*
X34675Y58072D1*
X34603Y58146D1*
X34530Y58182D1*
X34421D1*
Y58000D1*
X33947Y58928D2*
X34713D1*
X33947Y58417D1*
X34713D1*
X33947Y59163D2*
X34713D1*
Y59418D1*
X34675Y59528D1*
X34603Y59601D1*
X34530Y59637D1*
X34421Y59673D1*
X34238D1*
X34129Y59637D1*
X34056Y59601D1*
X33983Y59528D1*
X33947Y59418D1*
Y59163D1*
X35272Y57391D2*
X36329Y57137D1*
X35272Y57610D2*
X36329Y57355D1*
X35691Y57137D2*
Y57646D1*
X35910Y57100D2*
Y57610D1*
X35600Y57919D2*
X35563D1*
X35490Y57955D1*
X35454Y57991D1*
X35418Y58064D1*
Y58210D1*
X35454Y58282D1*
X35490Y58319D1*
X35563Y58356D1*
X35636D1*
X35709Y58319D1*
X35818Y58246D1*
X36183Y57882D1*
Y58392D1*
X35600Y58664D2*
X35563D1*
X35490Y58701D1*
X35454Y58737D1*
X35418Y58810D1*
Y58956D1*
X35454Y59028D1*
X35490Y59064D1*
X35563Y59101D1*
X35636D1*
X35709Y59064D1*
X35818Y58992D1*
X36183Y58627D1*
Y59138D1*
X36382Y57927D2*
X37439Y57672D1*
X36382Y58146D2*
X37439Y57890D1*
X36801Y57672D2*
Y58182D1*
X37020Y57635D2*
Y58146D1*
X36710Y58454D2*
X36674D1*
X36600Y58490D1*
X36564Y58527D1*
X36528Y58600D1*
Y58746D1*
X36564Y58818D1*
X36600Y58854D1*
X36674Y58891D1*
X36746D1*
X36819Y58854D1*
X36928Y58782D1*
X37293Y58417D1*
Y58928D1*
X36528Y59236D2*
Y59636D1*
X36819Y59418D1*
Y59528D1*
X36856Y59600D1*
X36892Y59636D1*
X37001Y59673D1*
X37074D1*
X37183Y59636D1*
X37257Y59564D1*
X37293Y59454D1*
Y59345D1*
X37257Y59236D1*
X37220Y59200D1*
X37147Y59163D1*
X37834Y56974D2*
Y57374D1*
X38125Y57156D1*
Y57266D1*
X38161Y57338D1*
X38197Y57374D1*
X38307Y57411D1*
X38379D1*
X38489Y57374D1*
X38562Y57302D1*
X38598Y57192D1*
Y57083D1*
X38562Y56974D1*
X38525Y56938D1*
X38453Y56901D1*
X38525Y57683D2*
X38562Y57647D1*
X38598Y57683D1*
X38562Y57720D1*
X38525Y57683D1*
X37834Y58029D2*
Y58429D1*
X38125Y58211D1*
Y58320D1*
X38161Y58392D1*
X38197Y58429D1*
X38307Y58466D1*
X38379D1*
X38489Y58429D1*
X38562Y58356D1*
X38598Y58247D1*
Y58137D1*
X38562Y58029D1*
X38525Y57992D1*
X38453Y57955D1*
X38088Y58701D2*
X38598Y58920D1*
X38088Y59138D1*
X38782Y57908D2*
X39839Y57654D1*
X38782Y58127D2*
X39839Y57872D1*
X39201Y57654D2*
Y58164D1*
X39420Y57617D2*
Y58127D1*
X39110Y58436D2*
X39074D1*
X39001Y58472D1*
X38965Y58508D1*
X38928Y58582D1*
Y58727D1*
X38965Y58800D1*
X39001Y58836D1*
X39074Y58873D1*
X39147D1*
X39220Y58836D1*
X39328Y58764D1*
X39693Y58399D1*
Y58909D1*
Y59509D2*
X38928D1*
X39438Y59145D1*
Y59691D1*
X41117Y57253D2*
X40351D1*
X41117Y56961D1*
X40351Y56670D1*
X41117D1*
X40351Y57707D2*
X40388Y57634D1*
X40461Y57561D1*
X40533Y57524D1*
X40643Y57488D1*
X40826D1*
X40934Y57524D1*
X41007Y57561D1*
X41080Y57634D1*
X41117Y57707D1*
Y57853D1*
X41080Y57925D1*
X41007Y57998D1*
X40934Y58034D1*
X40826Y58071D1*
X40643D1*
X40533Y58034D1*
X40461Y57998D1*
X40388Y57925D1*
X40351Y57853D1*
Y57707D1*
X40461Y58816D2*
X40388Y58744D1*
X40351Y58634D1*
Y58489D1*
X40388Y58379D1*
X40461Y58306D1*
X40533D1*
X40607Y58343D1*
X40643Y58379D1*
X40679Y58452D1*
X40752Y58671D1*
X40788Y58744D1*
X40826Y58780D1*
X40898Y58816D1*
X41007D1*
X41080Y58744D1*
X41117Y58634D1*
Y58489D1*
X41080Y58379D1*
X41007Y58306D1*
X40351Y59052D2*
X41117D1*
X41628Y58182D2*
X41556Y58146D1*
X41482Y58072D1*
X41446Y58000D1*
Y57854D1*
X41482Y57781D1*
X41556Y57708D1*
X41628Y57671D1*
X41738Y57635D1*
X41920D1*
X42029Y57671D1*
X42102Y57708D1*
X42175Y57781D1*
X42212Y57854D1*
Y58000D1*
X42175Y58072D1*
X42102Y58146D1*
X42029Y58182D1*
X41920D1*
Y58000D1*
X41446Y58928D2*
X42212D1*
X41446Y58417D1*
X42212D1*
X41446Y59163D2*
X42212D1*
Y59418D1*
X42175Y59528D1*
X42102Y59601D1*
X42029Y59637D1*
X41920Y59673D1*
X41738D1*
X41628Y59637D1*
X41556Y59601D1*
X41482Y59528D1*
X41446Y59418D1*
Y59163D1*
X43656Y57253D2*
X42890D1*
X43656Y56961D1*
X42890Y56670D1*
X43656D1*
X42890Y57488D2*
X43656D1*
X43000Y58234D2*
X42927Y58161D1*
X42890Y58052D1*
Y57906D1*
X42927Y57796D1*
X43000Y57723D1*
X43072D1*
X43146Y57760D1*
X43182Y57796D1*
X43218Y57869D1*
X43291Y58088D1*
X43328Y58161D1*
X43365Y58197D1*
X43437Y58234D1*
X43547D1*
X43619Y58161D1*
X43656Y58052D1*
Y57906D1*
X43619Y57796D1*
X43547Y57723D1*
X42890Y58688D2*
X42927Y58615D1*
X43000Y58542D1*
X43072Y58505D1*
X43182Y58469D1*
X43365D1*
X43473Y58505D1*
X43547Y58542D1*
X43619Y58615D1*
X43656Y58688D1*
Y58834D1*
X43619Y58906D1*
X43547Y58979D1*
X43473Y59016D1*
X43365Y59052D1*
X43182D1*
X43072Y59016D1*
X43000Y58979D1*
X42927Y58906D1*
X42890Y58834D1*
Y58688D1*
X43840Y57968D2*
X44897Y57713D1*
X43840Y58187D2*
X44897Y57931D1*
X44259Y57713D2*
Y58223D1*
X44478Y57676D2*
Y58187D1*
X44168Y58495D2*
X44132D1*
X44059Y58531D1*
X44022Y58568D1*
X43986Y58641D1*
Y58787D1*
X44022Y58859D1*
X44059Y58895D1*
X44132Y58932D1*
X44204D1*
X44278Y58895D1*
X44386Y58823D1*
X44751Y58458D1*
Y58969D1*
X43986Y59641D2*
Y59277D1*
X44314Y59241D1*
X44278Y59277D1*
X44241Y59387D1*
Y59495D1*
X44278Y59605D1*
X44350Y59678D1*
X44460Y59714D1*
X44532D1*
X44641Y59678D1*
X44715Y59605D1*
X44751Y59495D1*
Y59387D1*
X44715Y59277D1*
X44678Y59241D1*
X44605Y59204D1*
X45560Y57583D2*
X45488Y57547D1*
X45414Y57474D1*
X45378Y57401D1*
Y57256D1*
X45414Y57182D1*
X45488Y57110D1*
X45560Y57073D1*
X45670Y57037D1*
X45852D1*
X45961Y57073D1*
X46034Y57110D1*
X46107Y57182D1*
X46144Y57256D1*
Y57401D1*
X46107Y57474D1*
X46034Y57547D1*
X45961Y57583D1*
X45378Y57819D2*
X46144D1*
Y58256D1*
X45378Y58491D2*
X46144D1*
X45378Y59002D2*
X45889Y58491D1*
X45706Y58673D2*
X46144Y59002D1*
X46691Y58300D2*
X46619Y58264D1*
X46545Y58191D1*
X46509Y58118D1*
Y57973D1*
X46545Y57899D1*
X46619Y57827D1*
X46691Y57790D1*
X46800Y57754D1*
X46983D1*
X47092Y57790D1*
X47165Y57827D1*
X47238Y57899D1*
X47275Y57973D1*
Y58118D1*
X47238Y58191D1*
X47165Y58264D1*
X47092Y58300D1*
X46509Y59009D2*
Y58536D1*
X47275D1*
Y59009D1*
X46874Y58536D2*
Y58827D1*
X46510Y59463D2*
X46546Y59354D1*
X46656Y59280D1*
X46838Y59244D1*
X46947D1*
X47129Y59280D1*
X47238Y59354D1*
X47275Y59463D1*
Y59536D1*
X47238Y59645D1*
X47129Y59718D1*
X46947Y59755D1*
X46838D1*
X46656Y59718D1*
X46546Y59645D1*
X46510Y59536D1*
Y59463D1*
X46656Y59718D2*
X47129Y59280D1*
X48140Y57547D2*
X48068Y57511D1*
X47995Y57437D1*
X47959Y57365D1*
Y57219D1*
X47995Y57146D1*
X48068Y57074D1*
X48140Y57037D1*
X48250Y57000D1*
X48433D1*
X48541Y57037D1*
X48615Y57074D1*
X48687Y57146D1*
X48724Y57219D1*
Y57365D1*
X48687Y57437D1*
X48615Y57511D1*
X48541Y57547D1*
X48433D1*
Y57365D1*
X47959Y58293D2*
X48724D1*
X47959Y57782D1*
X48724D1*
X47959Y58528D2*
X48724D1*
Y58783D1*
X48687Y58893D1*
X48615Y58966D1*
X48541Y59002D1*
X48433Y59038D1*
X48250D1*
X48140Y59002D1*
X48068Y58966D1*
X47995Y58893D1*
X47959Y58783D1*
Y58528D1*
X49225Y58564D2*
X49153Y58528D1*
X49079Y58455D1*
X49043Y58382D1*
Y58237D1*
X49079Y58163D1*
X49153Y58091D1*
X49225Y58054D1*
X49334Y58018D1*
X49517D1*
X49626Y58054D1*
X49699Y58091D1*
X49772Y58163D1*
X49809Y58237D1*
Y58382D1*
X49772Y58455D1*
X49699Y58528D1*
X49626Y58564D1*
X49043Y59273D2*
Y58800D1*
X49809D1*
Y59273D1*
X49408Y58800D2*
Y59091D1*
X49190Y59508D2*
X49153Y59582D1*
X49044Y59691D1*
X49809D1*
X50426Y56002D2*
X51191D1*
X50426Y56237D2*
X51191D1*
Y56493D1*
X51154Y56602D1*
X51082Y56675D1*
X51009Y56712D1*
X50900Y56748D1*
X50717D1*
X50608Y56712D1*
X50535Y56675D1*
X50462Y56602D1*
X50426Y56493D1*
Y56237D1*
X50535Y58234D2*
X50462Y58162D1*
X50426Y58052D1*
Y57906D1*
X50462Y57797D1*
X50535Y57724D1*
X50608D1*
X50681Y57761D1*
X50717Y57797D1*
X50753Y57869D1*
X50827Y58088D1*
X50863Y58162D1*
X50900Y58198D1*
X50972Y58234D1*
X51082D1*
X51154Y58162D1*
X51191Y58052D1*
Y57906D1*
X51154Y57797D1*
X51082Y57724D1*
X50426Y58469D2*
X51191D1*
Y58725D1*
X51154Y58834D1*
X51082Y58907D1*
X51009Y58944D1*
X50900Y58980D1*
X50717D1*
X50608Y58944D1*
X50535Y58907D1*
X50462Y58834D1*
X50426Y58725D1*
Y58469D1*
X51711Y56660D2*
X52476D1*
X51711Y56895D2*
X52476D1*
Y57150D1*
X52439Y57260D1*
X52367Y57333D1*
X52294Y57369D1*
X52185Y57405D1*
X52002D1*
X51893Y57369D1*
X51820Y57333D1*
X51747Y57260D1*
X51711Y57150D1*
Y56895D1*
X51820Y58892D2*
X51747Y58819D1*
X51711Y58710D1*
Y58564D1*
X51747Y58455D1*
X51820Y58381D1*
X51893D1*
X51966Y58418D1*
X52002Y58455D1*
X52038Y58527D1*
X52112Y58746D1*
X52148Y58819D1*
X52185Y58856D1*
X52257Y58892D1*
X52367D1*
X52439Y58819D1*
X52476Y58710D1*
Y58564D1*
X52439Y58455D1*
X52367Y58381D1*
X51893Y59674D2*
X51820Y59638D1*
X51747Y59564D1*
X51711Y59492D1*
Y59346D1*
X51747Y59273D1*
X51820Y59200D1*
X51893Y59163D1*
X52002Y59127D1*
X52185D1*
X52294Y59163D1*
X52367Y59200D1*
X52439Y59273D1*
X52476Y59346D1*
Y59492D1*
X52439Y59564D1*
X52367Y59638D1*
X52294Y59674D1*
X52835Y57982D2*
X53892Y57728D1*
X52835Y58201D2*
X53892Y57946D1*
X53254Y57728D2*
Y58237D1*
X53473Y57691D2*
Y58201D1*
X52981Y58910D2*
Y58546D1*
X53309Y58510D1*
X53273Y58546D1*
X53236Y58655D1*
Y58764D1*
X53273Y58874D1*
X53345Y58947D1*
X53455Y58983D1*
X53527D1*
X53636Y58947D1*
X53710Y58874D1*
X53746Y58764D1*
Y58655D1*
X53710Y58546D1*
X53673Y58510D1*
X53600Y58473D1*
X54170Y58223D2*
X54097Y58187D1*
X54024Y58113D1*
X53988Y58041D1*
Y57895D1*
X54024Y57822D1*
X54097Y57749D1*
X54170Y57712D1*
X54279Y57676D1*
X54462D1*
X54571Y57712D1*
X54644Y57749D1*
X54716Y57822D1*
X54753Y57895D1*
Y58041D1*
X54716Y58113D1*
X54644Y58187D1*
X54571Y58223D1*
X54462D1*
Y58041D1*
X53988Y58969D2*
X54753D1*
X53988Y58458D1*
X54753D1*
X53988Y59204D2*
X54753D1*
Y59459D1*
X54716Y59569D1*
X54644Y59642D1*
X54571Y59678D1*
X54462Y59714D1*
X54279D1*
X54170Y59678D1*
X54097Y59642D1*
X54024Y59569D1*
X53988Y59459D1*
Y59204D1*
X55559Y57842D2*
X56616Y57588D1*
X55559Y58061D2*
X56616Y57806D1*
X55978Y57588D2*
Y58097D1*
X56197Y57550D2*
Y58061D1*
X55814Y58770D2*
X55742Y58733D1*
X55705Y58624D1*
Y58551D1*
X55742Y58442D1*
X55851Y58369D1*
X56033Y58332D1*
X56215D1*
X56361Y58369D1*
X56434Y58442D1*
X56470Y58551D1*
Y58588D1*
X56434Y58696D1*
X56361Y58770D1*
X56251Y58806D1*
X56215D1*
X56105Y58770D1*
X56033Y58696D1*
X55997Y58588D1*
Y58551D1*
X56033Y58442D1*
X56105Y58369D1*
X56215Y58332D1*
X56577Y58291D2*
X57634Y58037D1*
X56577Y58510D2*
X57634Y58255D1*
X56996Y58037D2*
Y58546D1*
X57215Y57999D2*
Y58510D1*
X56869Y58781D2*
X56832Y58855D1*
X56723Y58964D1*
X57488D1*
X56905Y59237D2*
X56869D1*
X56795Y59273D1*
X56759Y59309D1*
X56723Y59382D1*
Y59528D1*
X56759Y59600D1*
X56795Y59637D1*
X56869Y59674D1*
X56941D1*
X57014Y59637D1*
X57123Y59564D1*
X57488Y59200D1*
Y59710D1*
X58026Y57456D2*
X59083Y57201D1*
X58026Y57675D2*
X59083Y57419D1*
X58445Y57201D2*
Y57711D1*
X58664Y57164D2*
Y57675D1*
X58318Y57946D2*
X58281Y58019D1*
X58173Y58129D1*
X58937D1*
X58173Y58438D2*
Y58838D1*
X58464Y58619D1*
Y58729D1*
X58500Y58801D1*
X58536Y58838D1*
X58646Y58875D1*
X58718D1*
X58828Y58838D1*
X58901Y58765D1*
X58937Y58656D1*
Y58546D1*
X58901Y58438D1*
X58864Y58401D1*
X58792Y58364D1*
X59310Y58223D2*
X59237Y58187D1*
X59164Y58113D1*
X59128Y58041D1*
Y57895D1*
X59164Y57822D1*
X59237Y57749D1*
X59310Y57712D1*
X59419Y57676D1*
X59602D1*
X59711Y57712D1*
X59784Y57749D1*
X59856Y57822D1*
X59893Y57895D1*
Y58041D1*
X59856Y58113D1*
X59784Y58187D1*
X59711Y58223D1*
X59602D1*
Y58041D1*
X59128Y58969D2*
X59893D1*
X59128Y58458D1*
X59893D1*
X59128Y59204D2*
X59893D1*
Y59459D1*
X59856Y59569D1*
X59784Y59642D1*
X59711Y59678D1*
X59602Y59714D1*
X59419D1*
X59310Y59678D1*
X59237Y59642D1*
X59164Y59569D1*
X59128Y59459D1*
Y59204D1*
X60550Y57474D2*
X61607Y57220D1*
X60550Y57693D2*
X61607Y57438D1*
X60969Y57220D2*
Y57729D1*
X61188Y57182D2*
Y57693D1*
X60842Y57964D2*
X60805Y58038D1*
X60696Y58147D1*
X61461D1*
X60951Y58857D2*
X61060Y58820D1*
X61133Y58747D1*
X61170Y58638D1*
Y58601D1*
X61133Y58492D1*
X61060Y58420D1*
X60951Y58382D1*
X60914D1*
X60805Y58420D1*
X60732Y58492D1*
X60696Y58601D1*
Y58638D1*
X60732Y58747D1*
X60805Y58820D1*
X60951Y58857D1*
X61133D1*
X61315Y58820D1*
X61425Y58747D1*
X61461Y58638D1*
Y58565D1*
X61425Y58456D1*
X61352Y58420D1*
X61660Y58309D2*
X62717Y58055D1*
X61660Y58528D2*
X62717Y58273D1*
X62079Y58055D2*
Y58564D1*
X62298Y58018D2*
Y58528D1*
X61952Y58800D2*
X61915Y58873D1*
X61807Y58982D1*
X62571D1*
X61915Y59655D2*
X61843Y59619D1*
X61807Y59509D1*
Y59437D1*
X61843Y59327D1*
X61952Y59254D1*
X62134Y59218D1*
X62316D1*
X62462Y59254D1*
X62535Y59327D1*
X62571Y59437D1*
Y59473D1*
X62535Y59582D1*
X62462Y59655D1*
X62352Y59691D1*
X62316D1*
X62207Y59655D1*
X62134Y59582D1*
X62098Y59473D1*
Y59437D1*
X62134Y59327D1*
X62207Y59254D1*
X62316Y59218D1*
X63094Y57151D2*
X64152Y56897D1*
X63094Y57370D2*
X64152Y57115D1*
X63513Y56897D2*
Y57407D1*
X63732Y56860D2*
Y57370D1*
X63423Y57679D2*
X63386D1*
X63313Y57715D1*
X63277Y57751D1*
X63241Y57825D1*
Y57970D1*
X63277Y58043D1*
X63313Y58079D1*
X63386Y58116D1*
X63459D1*
X63532Y58079D1*
X63641Y58007D1*
X64005Y57642D1*
Y58152D1*
X63349Y58825D2*
X63277Y58789D1*
X63241Y58679D1*
Y58607D1*
X63277Y58497D1*
X63386Y58424D1*
X63568Y58388D1*
X63750D1*
X63896Y58424D1*
X63969Y58497D1*
X64005Y58607D1*
Y58643D1*
X63969Y58752D1*
X63896Y58825D1*
X63786Y58861D1*
X63750D1*
X63641Y58825D1*
X63568Y58752D1*
X63532Y58643D1*
Y58607D1*
X63568Y58497D1*
X63641Y58424D1*
X63750Y58388D1*
X64225Y57968D2*
X65282Y57713D1*
X64225Y58187D2*
X65282Y57931D1*
X64644Y57713D2*
Y58223D1*
X64863Y57676D2*
Y58187D1*
X64553Y58495D2*
X64517D1*
X64444Y58531D1*
X64408Y58568D1*
X64371Y58641D1*
Y58787D1*
X64408Y58859D1*
X64444Y58895D1*
X64517Y58932D1*
X64590D1*
X64663Y58895D1*
X64771Y58823D1*
X65136Y58458D1*
Y58969D1*
X64371Y59423D2*
X64408Y59313D1*
X64517Y59240D1*
X64699Y59204D1*
X64809D1*
X64990Y59240D1*
X65100Y59313D1*
X65136Y59423D1*
Y59495D1*
X65100Y59605D1*
X64990Y59677D1*
X64809Y59714D1*
X64699D1*
X64517Y59677D1*
X64408Y59605D1*
X64371Y59495D1*
Y59423D1*
X64517Y59677D2*
X64990Y59240D1*
X65981Y57329D2*
X65909Y57293D1*
X65836Y57220D1*
X65799Y57147D1*
Y57002D1*
X65836Y56928D1*
X65909Y56856D1*
X65981Y56819D1*
X66091Y56783D1*
X66274D1*
X66382Y56819D1*
X66456Y56856D1*
X66528Y56928D1*
X66565Y57002D1*
Y57147D1*
X66528Y57220D1*
X66456Y57293D1*
X66382Y57329D1*
X66274D1*
Y57147D1*
X65799Y58075D2*
X66565D1*
X65799Y57565D1*
X66565D1*
X65799Y58310D2*
X66565D1*
Y58566D1*
X66528Y58675D1*
X66456Y58748D1*
X66382Y58785D1*
X66274Y58821D1*
X66091D1*
X65981Y58785D1*
X65909Y58748D1*
X65836Y58675D1*
X65799Y58566D1*
Y58310D1*
X66759Y58191D2*
X67816Y57936D1*
X66759Y58410D2*
X67816Y58155D1*
X67178Y57936D2*
Y58446D1*
X67397Y57899D2*
Y58410D1*
X67087Y58718D2*
X67051D1*
X66978Y58755D1*
X66942Y58791D1*
X66905Y58864D1*
Y59010D1*
X66942Y59082D1*
X66978Y59118D1*
X67051Y59155D1*
X67124D1*
X67197Y59118D1*
X67305Y59046D1*
X67670Y58681D1*
Y59192D1*
X67051Y59427D2*
X67014Y59500D1*
X66905Y59610D1*
X67670D1*
X18344Y27413D2*
X17688D1*
X18016Y27741D2*
Y27085D1*
X18253Y26850D2*
X18290Y26776D1*
X18399Y26667D1*
X17634D1*
X18217Y26394D2*
X18253D1*
X18326Y26358D1*
X18362Y26322D1*
X18399Y26249D1*
Y26103D1*
X18362Y26031D1*
X18326Y25994D1*
X18253Y25957D1*
X18180D1*
X18107Y25994D1*
X17998Y26067D1*
X17634Y26432D1*
Y25921D1*
X18144Y25686D2*
X17634Y25467D1*
X18144Y25249D1*
X18183Y23328D2*
X18255Y23365D1*
X18329Y23438D1*
X18365Y23510D1*
Y23656D1*
X18329Y23729D1*
X18255Y23802D1*
X18183Y23839D1*
X18073Y23875D1*
X17891D1*
X17782Y23839D1*
X17709Y23802D1*
X17636Y23729D1*
X17599Y23656D1*
Y23510D1*
X17636Y23438D1*
X17709Y23365D1*
X17782Y23328D1*
X17891D1*
Y23510D1*
X18365Y22583D2*
X17599D1*
X18365Y23093D1*
X17599D1*
X18365Y22347D2*
X17599D1*
Y22092D1*
X17636Y21983D1*
X17709Y21909D1*
X17782Y21873D1*
X17891Y21837D1*
X18073D1*
X18183Y21873D1*
X18255Y21909D1*
X18329Y21983D1*
X18365Y22092D1*
Y22347D1*
X72274Y29434D2*
Y28777D1*
X71946Y29105D2*
X72602D1*
X73275Y29488D2*
X72911D1*
X72875Y29160D1*
X72911Y29196D1*
X73020Y29234D1*
X73129D1*
X73239Y29196D1*
X73312Y29124D1*
X73348Y29015D1*
Y28942D1*
X73312Y28833D1*
X73239Y28759D1*
X73129Y28723D1*
X73020D1*
X72911Y28759D1*
X72875Y28796D1*
X72838Y28869D1*
X73583Y29234D2*
X73802Y28723D1*
X74021Y29234D1*
X72898Y26181D2*
D12*
X72849Y26157D1*
X72801Y26108D1*
X72776Y26059D1*
X72752Y25986D1*
Y25865D1*
X72776Y25792D1*
X72801Y25743D1*
X72849Y25695D1*
X72898Y25670D1*
X72995D1*
X73043Y25695D1*
X73092Y25743D1*
X73116Y25792D1*
X73140Y25865D1*
Y25986D1*
X73116Y26059D1*
X73092Y26108D1*
X73043Y26157D1*
X72995Y26181D1*
X72898D1*
X73297D2*
Y25816D1*
X73321Y25743D1*
X73370Y25695D1*
X73443Y25670D1*
X73492D1*
X73565Y25695D1*
X73613Y25743D1*
X73638Y25816D1*
Y26181D1*
X73965D2*
Y25670D1*
X73794Y26181D2*
X74135D1*
X71946Y26791D2*
D82*
X72237Y26025D1*
X72529Y26791D1*
X72482Y24179D2*
X72445Y24251D1*
X72372Y24324D1*
X72300Y24361D1*
X72154D1*
X72081Y24324D1*
X72008Y24251D1*
X71971Y24179D1*
X71935Y24069D1*
Y23886D1*
X71971Y23778D1*
X72008Y23705D1*
X72081Y23632D1*
X72154Y23595D1*
X72300D1*
X72372Y23632D1*
X72445Y23705D1*
X72482Y23778D1*
Y23886D1*
X72300D1*
X73227Y24361D2*
Y23595D1*
X72717Y24361D1*
Y23595D1*
X73463Y24361D2*
Y23595D1*
X73718D1*
X73827Y23632D1*
X73901Y23705D1*
X73937Y23778D1*
X73973Y23886D1*
Y24069D1*
X73937Y24179D1*
X73901Y24251D1*
X73827Y24324D1*
X73718Y24361D1*
X73463D1*
X72460Y21686D2*
X72387Y21759D1*
X72278Y21795D1*
X72132D1*
X72023Y21759D1*
X71949Y21686D1*
Y21614D1*
X71987Y21540D1*
X72023Y21504D1*
X72095Y21468D1*
X72314Y21395D1*
X72387Y21358D1*
X72424Y21321D1*
X72460Y21249D1*
Y21139D1*
X72387Y21067D1*
X72278Y21030D1*
X72132D1*
X72023Y21067D1*
X71949Y21139D1*
X72695Y21795D2*
Y21030D1*
X72950D1*
X73060Y21067D1*
X73133Y21139D1*
X73169Y21213D1*
X73206Y21321D1*
Y21504D1*
X73169Y21614D1*
X73133Y21686D1*
X73060Y21759D1*
X72950Y21795D1*
X72695D1*
X73660D2*
X73587Y21759D1*
X73514Y21686D1*
X73477Y21614D1*
X73441Y21504D1*
Y21321D1*
X73477Y21213D1*
X73514Y21139D1*
X73587Y21067D1*
X73660Y21030D1*
X73806D1*
X73878Y21067D1*
X73951Y21139D1*
X73988Y21213D1*
X74024Y21321D1*
Y21504D1*
X73988Y21614D1*
X73951Y21686D1*
X73878Y21759D1*
X73806Y21795D1*
X73660D1*
X72513Y19126D2*
X72477Y19199D1*
X72403Y19272D1*
X72331Y19308D1*
X72185D1*
X72112Y19272D1*
X72040Y19199D1*
X72003Y19126D1*
X71966Y19017D1*
Y18834D1*
X72003Y18726D1*
X72040Y18652D1*
X72112Y18580D1*
X72185Y18543D1*
X72331D1*
X72403Y18580D1*
X72477Y18652D1*
X72513Y18726D1*
X72748Y19308D2*
Y18543D1*
X73185D1*
X73421Y19308D2*
Y18543D1*
X73931Y19308D2*
X73421Y18798D1*
X73603Y18981D2*
X73931Y18543D1*
M02*
